<?xml version="1.0" encoding="UTF-8" standalone="no"?>
<!DOCTYPE svg PUBLIC "-//W3C//DTD SVG 1.1//EN" "http://www.w3.org/Graphics/SVG/1.1/DTD/svg11.dtd">
<svg width="100%" height="100%" viewBox="0 0 636 636" version="1.1" xmlns="http://www.w3.org/2000/svg" xmlns:xlink="http://www.w3.org/1999/xlink" xml:space="preserve" xmlns:serif="http://www.serif.com/" style="fill-rule:evenodd;clip-rule:evenodd;stroke-linejoin:round;stroke-miterlimit:1.41421;">
    <g transform="matrix(1,0,0,1,-36401.2,-3329.32)">
        <g transform="matrix(11.2981,0,0,3.16007,-51589.6,5820.28)">
            <g id="_1-Health" serif:id="1 Health" transform="matrix(0.020123,0,0,0.153089,7216.24,-1019.28)">
                <path d="M31212.2,2165.8C31212.2,1991.61 31065,1824.56 30802.9,1701.39C30540.8,1578.22 30185.4,1509.02 29814.7,1509.02C29814.7,1509.02 29814.7,1509.02 29814.7,1509.02C29444.1,1509.02 29088.6,1578.22 28826.5,1701.39C28564.4,1824.56 28417.2,1991.61 28417.2,2165.8C28417.2,2165.8 28417.2,2165.8 28417.2,2165.8C28417.2,2339.99 28564.4,2507.05 28826.5,2630.22C29088.6,2753.38 29444.1,2822.58 29814.7,2822.58C29814.7,2822.58 29814.7,2822.58 29814.7,2822.58C30185.4,2822.58 30540.8,2753.38 30802.9,2630.22C31065,2507.05 31212.2,2339.99 31212.2,2165.8C31212.2,2165.8 31212.2,2165.8 31212.2,2165.8Z" style="fill:rgb(255,90,38);"/>
            </g>
        </g>
    </g>
</svg>
