<?xml version="1.0" encoding="UTF-8" standalone="no"?>
<!DOCTYPE svg PUBLIC "-//W3C//DTD SVG 1.1//EN" "http://www.w3.org/Graphics/SVG/1.1/DTD/svg11.dtd">
<svg width="100%" height="100%" viewBox="0 0 1913 636" version="1.1" xmlns="http://www.w3.org/2000/svg" xmlns:xlink="http://www.w3.org/1999/xlink" xml:space="preserve" xmlns:serif="http://www.serif.com/" style="fill-rule:evenodd;clip-rule:evenodd;stroke-linejoin:round;stroke-miterlimit:1.41421;">
    <g transform="matrix(1,0,0,1,-36385.8,-1970.96)">
        <g transform="matrix(11.2981,0,0,3.16007,-51589.6,5820.28)">
            <g id="_3-Health" serif:id="3 Health" transform="matrix(0.483772,0,0,0.483772,4429.89,-1018.39)">
                <g transform="matrix(0.041596,0,0,0.316449,5756.81,-890.369)">
                    <path d="M31212.2,1509.02C31212.2,1509.02 30513.5,1509.02 29814.7,1509.02C29444.1,1509.02 29088.6,1578.22 28826.5,1701.39C28564.4,1824.56 28417.2,1991.61 28417.2,2165.8C28417.2,2165.8 28417.2,2165.8 28417.2,2165.8C28417.2,2339.99 28564.4,2507.05 28826.5,2630.22C29088.6,2753.38 29444.1,2822.58 29814.7,2822.58C30513.5,2822.58 31212.2,2822.58 31212.2,2822.58L31212.2,1509.02Z" style="fill:rgb(255,239,0);"/>
                </g>
                <g transform="matrix(-0.041596,0,0,0.316449,8470.75,-890.369)">
                    <path d="M31212.2,1509.02C31212.2,1509.02 30513.5,1509.02 29814.7,1509.02C29444.1,1509.02 29088.6,1578.22 28826.5,1701.39C28564.4,1824.56 28417.2,1991.61 28417.2,2165.8C28417.2,2165.8 28417.2,2165.8 28417.2,2165.8C28417.2,2339.99 28564.4,2507.05 28826.5,2630.22C29088.6,2753.38 29444.1,2822.58 29814.7,2822.58C30513.5,2822.58 31212.2,2822.58 31212.2,2822.58L31212.2,1509.02Z" style="fill:rgb(255,239,0);"/>
                </g>
                <g transform="matrix(-0.041596,0,0,0.316449,8353.84,-890.369)">
                    <rect x="28417.2" y="1509.02" width="2795.06" height="1313.56" style="fill:rgb(255,239,0);"/>
                </g>
            </g>
        </g>
    </g>
</svg>
