<?xml version="1.0" encoding="UTF-8" standalone="no"?>
<!DOCTYPE svg PUBLIC "-//W3C//DTD SVG 1.1//EN" "http://www.w3.org/Graphics/SVG/1.1/DTD/svg11.dtd">
<svg width="100%" height="100%" viewBox="0 0 7144 1936" version="1.1" xmlns="http://www.w3.org/2000/svg" xmlns:xlink="http://www.w3.org/1999/xlink" xml:space="preserve" xmlns:serif="http://www.serif.com/" style="fill-rule:evenodd;clip-rule:evenodd;stroke-linejoin:round;stroke-miterlimit:1.41421;">
    <g transform="matrix(1,0,0,1,0,-1677.22)">
        <g id="Background" transform="matrix(3.72072,0,0,1.79242,0,1677.22)">
            <rect x="0" y="0" width="1920" height="1080" style="fill:none;"/>
            <clipPath id="_clip1">
                <rect x="0" y="0" width="1920" height="1080"/>
            </clipPath>
            <g clip-path="url(#_clip1)">
                <g transform="matrix(0.570079,0,0,0.516384,297.14,375.869)">
                    <rect x="-538.253" y="-741.72" width="3419.78" height="2231.11" style="fill:rgb(98,156,213);"/>
                </g>
                <g transform="matrix(0.268766,0,0,0.557906,1454.87,184.058)">
                    <path d="M703.6,1122.87C719.948,1136.03 740.251,1143.28 761.232,1143.47C821.897,1144.03 952.321,1145.21 1016.82,1145.8C1041,1146.02 1064.32,1136.84 1081.87,1120.19C1121.85,1082.27 1196.53,1011.44 1242.96,967.399C1251.4,959.392 1263.46,956.47 1274.63,959.725C1285.8,962.979 1294.4,971.92 1297.22,983.208C1297.22,983.209 1297.22,983.211 1297.22,983.213C1303.59,1008.69 1324.88,1027.68 1350.91,1031.1C1376.95,1034.52 1402.43,1021.68 1415.16,998.711C1422.05,986.286 1429.1,973.554 1436.21,960.739C1454.14,928.387 1490.29,910.583 1526.86,916.083C1563.44,921.584 1592.75,949.231 1600.38,985.426C1614.05,1050.35 1628.18,1117.39 1639.22,1169.81C1644.55,1195.09 1660.11,1217.03 1682.21,1230.4C1704.31,1243.77 1730.97,1247.38 1755.83,1240.37C1777.46,1234.27 1801.21,1227.57 1825.38,1220.75C1860.84,1210.75 1898.86,1222.56 1922.42,1250.88C1945.99,1279.2 1950.67,1318.74 1934.39,1351.78C1845.32,1532.51 1721.49,1783.78 1702.87,1821.55C1701.29,1824.76 1699.89,1828.07 1698.68,1831.45C1688.52,1859.94 1637.75,2002.3 1602.44,2101.3C1593.54,2126.25 1574.45,2146.24 1549.93,2156.28C1525.42,2166.33 1497.79,2165.47 1473.94,2153.93C1351.1,2094.5 1138.43,1991.59 1030.22,1939.24C990.83,1920.18 943.482,1931.06 916.366,1965.41C884.48,2005.8 841.49,2060.26 805.023,2106.46C787.331,2128.87 760.351,2141.94 731.798,2141.94C703.246,2141.94 676.265,2128.87 658.574,2106.46C622.106,2060.26 579.117,2005.8 547.231,1965.41C520.115,1931.06 472.767,1920.18 433.373,1939.24C362.027,1973.76 245.262,2030.26 138.778,2081.78C102.983,2099.1 60.144,2091.83 32.071,2063.66C3.999,2035.5 -3.135,1992.64 14.301,1956.9C33.394,1917.76 52.388,1878.83 69.194,1844.39C82.476,1817.16 81.714,1785.18 67.149,1758.62C52.585,1732.06 26.032,1714.23 -4.063,1710.79C-79.883,1702.13 -174.39,1691.34 -247.278,1683.01C-275.302,1679.81 -300.374,1664.1 -315.479,1640.28C-330.583,1616.46 -334.099,1587.08 -325.042,1560.37C-287.666,1450.13 -234.756,1294.07 -229.216,1277.73C-228.901,1276.8 -228.599,1275.87 -228.313,1274.92C-223.286,1258.4 -175.204,1100.3 -140.736,986.966C-132.323,959.302 -111.556,937.102 -84.514,926.864C-57.471,916.626 -27.21,919.506 -2.584,934.662C20.692,948.987 45.761,964.416 70.185,979.448C91.113,992.328 117.863,990.743 137.124,975.483C156.385,960.222 164.045,934.544 156.292,911.225C156.292,911.224 156.292,911.224 156.291,911.223C152.285,899.171 155.333,885.891 164.194,876.793C173.054,867.695 186.249,864.297 198.403,867.983C284.172,894.002 433.034,939.159 483.504,954.47C494.936,957.938 505.595,963.569 514.902,971.057C552.498,1001.3 655.578,1084.24 703.6,1122.87Z" style="fill:rgb(98,188,213);"/>
                </g>
                <g transform="matrix(0.268766,0,0,0.557906,985.937,74.1816)">
                    <path d="M703.6,1122.87C719.948,1136.03 740.251,1143.28 761.232,1143.47C821.897,1144.03 952.321,1145.21 1016.82,1145.8C1041,1146.02 1064.32,1136.84 1081.87,1120.19C1121.85,1082.27 1196.53,1011.44 1242.96,967.399C1251.4,959.392 1263.46,956.47 1274.63,959.725C1285.8,962.979 1294.4,971.92 1297.22,983.208C1297.22,983.209 1297.22,983.211 1297.22,983.213C1303.59,1008.69 1324.88,1027.68 1350.91,1031.1C1376.95,1034.52 1402.43,1021.68 1415.16,998.711C1422.05,986.286 1429.1,973.554 1436.21,960.739C1454.14,928.387 1490.29,910.583 1526.86,916.083C1563.44,921.584 1592.75,949.231 1600.38,985.426C1614.05,1050.35 1628.18,1117.39 1639.22,1169.81C1644.55,1195.09 1660.11,1217.03 1682.21,1230.4C1704.31,1243.77 1730.97,1247.38 1755.83,1240.37C1777.46,1234.27 1801.21,1227.57 1825.38,1220.75C1860.84,1210.75 1898.86,1222.56 1922.42,1250.88C1945.99,1279.2 1950.67,1318.74 1934.39,1351.78C1845.32,1532.51 1721.49,1783.78 1702.87,1821.55C1701.29,1824.76 1699.89,1828.07 1698.68,1831.45C1688.52,1859.94 1637.75,2002.3 1602.44,2101.3C1593.54,2126.25 1574.45,2146.24 1549.93,2156.28C1525.42,2166.33 1497.79,2165.47 1473.94,2153.93C1351.1,2094.5 1138.43,1991.59 1030.22,1939.24C990.83,1920.18 943.482,1931.06 916.366,1965.41C884.48,2005.8 841.49,2060.26 805.023,2106.46C787.331,2128.87 760.351,2141.94 731.798,2141.94C703.246,2141.94 676.265,2128.87 658.574,2106.46C622.106,2060.26 579.117,2005.8 547.231,1965.41C520.115,1931.06 472.767,1920.18 433.373,1939.24C362.027,1973.76 245.262,2030.26 138.778,2081.78C102.983,2099.1 60.144,2091.83 32.071,2063.66C3.999,2035.5 -3.135,1992.64 14.301,1956.9C33.394,1917.76 52.388,1878.83 69.194,1844.39C82.476,1817.16 81.714,1785.18 67.149,1758.62C52.585,1732.06 26.032,1714.23 -4.063,1710.79C-79.883,1702.13 -174.39,1691.34 -247.278,1683.01C-275.302,1679.81 -300.374,1664.1 -315.479,1640.28C-330.583,1616.46 -334.099,1587.08 -325.042,1560.37C-287.666,1450.13 -234.756,1294.07 -229.216,1277.73C-228.901,1276.8 -228.599,1275.87 -228.313,1274.92C-223.286,1258.4 -175.204,1100.3 -140.736,986.966C-132.323,959.302 -111.556,937.102 -84.514,926.864C-57.471,916.626 -27.21,919.506 -2.584,934.662C20.692,948.987 45.761,964.416 70.185,979.448C91.113,992.328 117.863,990.743 137.124,975.483C156.385,960.222 164.045,934.544 156.292,911.225C156.292,911.224 156.292,911.224 156.291,911.223C152.285,899.171 155.333,885.891 164.194,876.793C173.054,867.695 186.249,864.297 198.403,867.983C284.172,894.002 433.034,939.159 483.504,954.47C494.936,957.938 505.595,963.569 514.902,971.057C552.498,1001.3 655.578,1084.24 703.6,1122.87Z" style="fill:rgb(98,188,213);"/>
                </g>
                <g transform="matrix(0.268766,0,0,0.557906,474.808,153.837)">
                    <path d="M703.6,1122.87C719.948,1136.03 740.251,1143.28 761.232,1143.47C821.897,1144.03 952.321,1145.21 1016.82,1145.8C1041,1146.02 1064.32,1136.84 1081.87,1120.19C1121.85,1082.27 1196.53,1011.44 1242.96,967.399C1251.4,959.392 1263.46,956.47 1274.63,959.725C1285.8,962.979 1294.4,971.92 1297.22,983.208C1297.22,983.209 1297.22,983.211 1297.22,983.213C1303.59,1008.69 1324.88,1027.68 1350.91,1031.1C1376.95,1034.52 1402.43,1021.68 1415.16,998.711C1422.05,986.286 1429.1,973.554 1436.21,960.739C1454.14,928.387 1490.29,910.583 1526.86,916.083C1563.44,921.584 1592.75,949.231 1600.38,985.426C1614.05,1050.35 1628.18,1117.39 1639.22,1169.81C1644.55,1195.09 1660.11,1217.03 1682.21,1230.4C1704.31,1243.77 1730.97,1247.38 1755.83,1240.37C1777.46,1234.27 1801.21,1227.57 1825.38,1220.75C1860.84,1210.75 1898.86,1222.56 1922.42,1250.88C1945.99,1279.2 1950.67,1318.74 1934.39,1351.78C1845.32,1532.51 1721.49,1783.78 1702.87,1821.55C1701.29,1824.76 1699.89,1828.07 1698.68,1831.45C1688.52,1859.94 1637.75,2002.3 1602.44,2101.3C1593.54,2126.25 1574.45,2146.24 1549.93,2156.28C1525.42,2166.33 1497.79,2165.47 1473.94,2153.93C1351.1,2094.5 1138.43,1991.59 1030.22,1939.24C990.83,1920.18 943.482,1931.06 916.366,1965.41C884.48,2005.8 841.49,2060.26 805.023,2106.46C787.331,2128.87 760.351,2141.94 731.798,2141.94C703.246,2141.94 676.265,2128.87 658.574,2106.46C622.106,2060.26 579.117,2005.8 547.231,1965.41C520.115,1931.06 472.767,1920.18 433.373,1939.24C362.027,1973.76 245.262,2030.26 138.778,2081.78C102.983,2099.1 60.144,2091.83 32.071,2063.66C3.999,2035.5 -3.135,1992.64 14.301,1956.9C33.394,1917.76 52.388,1878.83 69.194,1844.39C82.476,1817.16 81.714,1785.18 67.149,1758.62C52.585,1732.06 26.032,1714.23 -4.063,1710.79C-79.883,1702.13 -174.39,1691.34 -247.278,1683.01C-275.302,1679.81 -300.374,1664.1 -315.479,1640.28C-330.583,1616.46 -334.099,1587.08 -325.042,1560.37C-287.666,1450.13 -234.756,1294.07 -229.216,1277.73C-228.901,1276.8 -228.599,1275.87 -228.313,1274.92C-223.286,1258.4 -175.204,1100.3 -140.736,986.966C-132.323,959.302 -111.556,937.102 -84.514,926.864C-57.471,916.626 -27.21,919.506 -2.584,934.662C20.692,948.987 45.761,964.416 70.185,979.448C91.113,992.328 117.863,990.743 137.124,975.483C156.385,960.222 164.045,934.544 156.292,911.225C156.292,911.224 156.292,911.224 156.291,911.223C152.285,899.171 155.333,885.891 164.194,876.793C173.054,867.695 186.249,864.297 198.403,867.983C284.172,894.002 433.034,939.159 483.504,954.47C494.936,957.938 505.595,963.569 514.902,971.057C552.498,1001.3 655.578,1084.24 703.6,1122.87Z" style="fill:rgb(98,188,213);"/>
                </g>
                <g transform="matrix(0.268766,0,0,0.557906,223.848,190.478)">
                    <path d="M703.6,1122.87C719.948,1136.03 740.251,1143.28 761.232,1143.47C821.897,1144.03 952.321,1145.21 1016.82,1145.8C1041,1146.02 1064.32,1136.84 1081.87,1120.19C1121.85,1082.27 1196.53,1011.44 1242.96,967.399C1251.4,959.392 1263.46,956.47 1274.63,959.725C1285.8,962.979 1294.4,971.92 1297.22,983.208C1297.22,983.209 1297.22,983.211 1297.22,983.213C1303.59,1008.69 1324.88,1027.68 1350.91,1031.1C1376.95,1034.52 1402.43,1021.68 1415.16,998.711C1422.05,986.286 1429.1,973.554 1436.21,960.739C1454.14,928.387 1490.29,910.583 1526.86,916.083C1563.44,921.584 1592.75,949.231 1600.38,985.426C1614.05,1050.35 1628.18,1117.39 1639.22,1169.81C1644.55,1195.09 1660.11,1217.03 1682.21,1230.4C1704.31,1243.77 1730.97,1247.38 1755.83,1240.37C1777.46,1234.27 1801.21,1227.57 1825.38,1220.75C1860.84,1210.75 1898.86,1222.56 1922.42,1250.88C1945.99,1279.2 1950.67,1318.74 1934.39,1351.78C1845.32,1532.51 1721.49,1783.78 1702.87,1821.55C1701.29,1824.76 1699.89,1828.07 1698.68,1831.45C1688.52,1859.94 1637.75,2002.3 1602.44,2101.3C1593.54,2126.25 1574.45,2146.24 1549.93,2156.28C1525.42,2166.33 1497.79,2165.47 1473.94,2153.93C1351.1,2094.5 1138.43,1991.59 1030.22,1939.24C990.83,1920.18 943.482,1931.06 916.366,1965.41C884.48,2005.8 841.49,2060.26 805.023,2106.46C787.331,2128.87 760.351,2141.94 731.798,2141.94C703.246,2141.94 676.265,2128.87 658.574,2106.46C622.106,2060.26 579.117,2005.8 547.231,1965.41C520.115,1931.06 472.767,1920.18 433.373,1939.24C362.027,1973.76 245.262,2030.26 138.778,2081.78C102.983,2099.1 60.144,2091.83 32.071,2063.66C3.999,2035.5 -3.135,1992.64 14.301,1956.9C33.394,1917.76 52.388,1878.83 69.194,1844.39C82.476,1817.16 81.714,1785.18 67.149,1758.62C52.585,1732.06 26.032,1714.23 -4.063,1710.79C-79.883,1702.13 -174.39,1691.34 -247.278,1683.01C-275.302,1679.81 -300.374,1664.1 -315.479,1640.28C-330.583,1616.46 -334.099,1587.08 -325.042,1560.37C-287.666,1450.13 -234.756,1294.07 -229.216,1277.73C-228.901,1276.8 -228.599,1275.87 -228.313,1274.92C-223.286,1258.4 -175.204,1100.3 -140.736,986.966C-132.323,959.302 -111.556,937.102 -84.514,926.864C-57.471,916.626 -27.21,919.506 -2.584,934.662C20.692,948.987 45.761,964.416 70.185,979.448C91.113,992.328 117.863,990.743 137.124,975.483C156.385,960.222 164.045,934.544 156.292,911.225C156.292,911.224 156.292,911.224 156.291,911.223C152.285,899.171 155.333,885.891 164.194,876.793C173.054,867.695 186.249,864.297 198.403,867.983C284.172,894.002 433.034,939.159 483.504,954.47C494.936,957.938 505.595,963.569 514.902,971.057C552.498,1001.3 655.578,1084.24 703.6,1122.87Z" style="fill:rgb(98,188,213);"/>
                </g>
                <g transform="matrix(-0.268766,0,0,0.557906,463.321,131.485)">
                    <path d="M703.6,1122.87C719.948,1136.03 740.251,1143.28 761.232,1143.47C821.897,1144.03 952.321,1145.21 1016.82,1145.8C1041,1146.02 1064.32,1136.84 1081.87,1120.19C1121.85,1082.27 1196.53,1011.44 1242.96,967.399C1251.4,959.392 1263.46,956.47 1274.63,959.725C1285.8,962.979 1294.4,971.92 1297.22,983.208C1297.22,983.209 1297.22,983.211 1297.22,983.213C1303.59,1008.69 1324.88,1027.68 1350.91,1031.1C1376.95,1034.52 1402.43,1021.68 1415.16,998.711C1422.05,986.286 1429.1,973.554 1436.21,960.739C1454.14,928.387 1490.29,910.583 1526.86,916.083C1563.44,921.584 1592.75,949.231 1600.38,985.426C1614.05,1050.35 1628.18,1117.39 1639.22,1169.81C1644.55,1195.09 1660.11,1217.03 1682.21,1230.4C1704.31,1243.77 1730.97,1247.38 1755.83,1240.37C1777.46,1234.27 1801.21,1227.57 1825.38,1220.75C1860.84,1210.75 1898.86,1222.56 1922.42,1250.88C1945.99,1279.2 1950.67,1318.74 1934.39,1351.78C1845.32,1532.51 1721.49,1783.78 1702.87,1821.55C1701.29,1824.76 1699.89,1828.07 1698.68,1831.45C1688.52,1859.94 1637.75,2002.3 1602.44,2101.3C1593.54,2126.25 1574.45,2146.24 1549.93,2156.28C1525.42,2166.33 1497.79,2165.47 1473.94,2153.93C1351.1,2094.5 1138.43,1991.59 1030.22,1939.24C990.83,1920.18 943.482,1931.06 916.366,1965.41C884.48,2005.8 841.49,2060.26 805.023,2106.46C787.331,2128.87 760.351,2141.94 731.798,2141.94C703.246,2141.94 676.265,2128.87 658.574,2106.46C622.106,2060.26 579.117,2005.8 547.231,1965.41C520.115,1931.06 472.767,1920.18 433.373,1939.24C362.027,1973.76 245.262,2030.26 138.778,2081.78C102.983,2099.1 60.144,2091.83 32.071,2063.66C3.999,2035.5 -3.135,1992.64 14.301,1956.9C33.394,1917.76 52.388,1878.83 69.194,1844.39C82.476,1817.16 81.714,1785.18 67.149,1758.62C52.585,1732.06 26.032,1714.23 -4.063,1710.79C-79.883,1702.13 -174.39,1691.34 -247.278,1683.01C-275.302,1679.81 -300.374,1664.1 -315.479,1640.28C-330.583,1616.46 -334.099,1587.08 -325.042,1560.37C-287.666,1450.13 -234.756,1294.07 -229.216,1277.73C-228.901,1276.8 -228.599,1275.87 -228.313,1274.92C-223.286,1258.4 -175.204,1100.3 -140.736,986.966C-132.323,959.302 -111.556,937.102 -84.514,926.864C-57.471,916.626 -27.21,919.506 -2.584,934.662C20.692,948.987 45.761,964.416 70.185,979.448C91.113,992.328 117.863,990.743 137.124,975.483C156.385,960.222 164.045,934.544 156.292,911.225C156.292,911.224 156.292,911.224 156.291,911.223C152.285,899.171 155.333,885.891 164.194,876.793C173.054,867.695 186.249,864.297 198.403,867.983C284.172,894.002 433.034,939.159 483.504,954.47C494.936,957.938 505.595,963.569 514.902,971.057C552.498,1001.3 655.578,1084.24 703.6,1122.87Z" style="fill:rgb(98,188,213);"/>
                </g>
                <g transform="matrix(0.291984,0,0,0.484235,1405.1,559.557)">
                    <path d="M1284.09,707.938C1280.33,707.527 1276.6,706.708 1272.95,705.49C689.138,510.763 633.626,455.456 -0.04,634.75C-29.917,643.168 -51.11,676.436 -51.014,714.768C-50.568,896.169 -49.294,1407.06 -48.732,1632.38C-48.667,1658.13 -38.92,1682.33 -22.425,1697.7C-5.929,1713.08 15.389,1717.84 35.113,1710.54C354.169,1592.48 1506.35,1166.14 2080.94,953.524C2111.04,942.386 2130.56,906.028 2127.42,866.937C2124.28,827.846 2099.38,797.075 2068.11,793.657C1756.37,759.574 1337.36,713.762 1284.09,707.938Z" style="fill:rgb(133,96,65);"/>
                </g>
                <g transform="matrix(-0.291984,0,0,0.484235,376.689,559.557)">
                    <path d="M1284.09,707.938C1280.33,707.527 1276.6,706.708 1272.95,705.49C673.805,505.648 631.075,452.647 -51.183,649.364C-3147.39,411.506 -1901.54,1015.73 -67.431,1734.04C-55.066,1738.88 -41.83,1739.01 -29.406,1734.41C143.884,1670.29 1455.07,1185.12 2080.94,953.524C2111.04,942.386 2130.56,906.028 2127.42,866.937C2124.28,827.846 2099.38,797.075 2068.11,793.657C1756.37,759.574 1337.36,713.762 1284.09,707.938Z" style="fill:rgb(133,96,65);"/>
                </g>
                <g transform="matrix(0.291984,0,0,0.884754,940.274,359.342)">
                    <path d="M1544.22,612.763C1542.19,612.251 1540.19,611.669 1538.24,611.021C935.798,410.779 632.051,452.365 -51.183,649.364C-3696.09,777.245 -1481.45,1280.54 -78.292,1731.84C-59.525,1737.89 -37.678,1737.47 -19.428,1730.72C216.127,1643.56 1817.39,1051.05 2284.11,878.348C2306.7,869.986 2320.05,853.328 2318.22,835.778C2316.38,818.228 2299.71,803.042 2275.6,796.971C2042.14,738.171 1585.86,623.25 1544.22,612.763Z" style="fill:rgb(154,135,118);"/>
                </g>
            </g>
        </g>
    </g>
</svg>
