<?xml version="1.0" encoding="UTF-8" standalone="no"?>
<!DOCTYPE svg PUBLIC "-//W3C//DTD SVG 1.1//EN" "http://www.w3.org/Graphics/SVG/1.1/DTD/svg11.dtd">
<svg width="100%" height="100%" viewBox="0 0 1749 2161" version="1.1" xmlns="http://www.w3.org/2000/svg" xmlns:xlink="http://www.w3.org/1999/xlink" xml:space="preserve" xmlns:serif="http://www.serif.com/" style="fill-rule:evenodd;clip-rule:evenodd;stroke-linejoin:round;stroke-miterlimit:1.41421;">
    <g transform="matrix(1,0,0,1,-21563.6,-13562.9)">
        <g transform="matrix(11.2981,0,0,3.16007,-51589.6,5820.28)">
            <g id="Shield" transform="matrix(0.416137,0,0,0.510868,3299.54,1858.55)">
                <g transform="matrix(0.178477,0,0,0.460639,3837.41,4.26584)">
                    <path d="M21566.6,2537.99C21657.8,2516.17 21752.5,2504.65 21849.8,2504.65C22561.9,2504.65 23140,3122.04 23140,3882.49C23140,4642.93 22561.9,5260.32 21849.8,5260.32C21744.2,5260.32 21641.5,5246.74 21543.3,5221.14C22119.4,5083.17 22550.4,4533.23 22550.4,3876.65C22550.4,3228.97 22131,2685.06 21566.6,2537.99Z" style="fill:rgb(97,185,229);fill-opacity:0.376471;"/>
                </g>
                <g transform="matrix(0.178477,0,0,0.460639,3857.28,72.9781)">
                    <path d="M21566.6,2537.99C21657.8,2516.17 21752.5,2504.65 21849.8,2504.65C22561.9,2504.65 23140,3122.04 23140,3882.49C23140,4642.93 22561.9,5260.32 21849.8,5260.32C21744.2,5260.32 21641.5,5246.74 21543.3,5221.14C22119.4,5083.17 22550.4,4533.23 22550.4,3876.65C22550.4,3228.97 22131,2685.06 21566.6,2537.99Z" style="fill:rgb(97,185,229);fill-opacity:0.376471;"/>
                </g>
                <g transform="matrix(0.0081622,-0.618978,0.212538,0.0237709,6763.05,15301.5)">
                    <path d="M21824.9,3722.18C21828.7,3706.96 21842.9,3696.66 21858.6,3697.65C21874.2,3698.65 21887,3710.66 21888.9,3726.25C21937.6,4127.29 22141.4,4436.92 22527.9,4638.78C22537.2,4643.61 22543.6,4652.63 22545.1,4663.01C22546.7,4673.39 22543.1,4683.87 22535.6,4691.19C22123,5091.38 21688.3,5085.91 21232.2,4686.26C21224.8,4679.73 21220.7,4670.18 21221.2,4660.3C21221.6,4650.42 21226.5,4641.26 21234.4,4635.39C21560.5,4394.26 21737,4079.93 21824.9,3722.18Z" style="fill:rgb(97,185,229);fill-opacity:0.376471;"/>
                </g>
                <g transform="matrix(0.0081622,-0.618978,0.212538,0.0237709,6738.21,15225.6)">
                    <path d="M21824.9,3722.18C21828.7,3706.96 21842.9,3696.66 21858.6,3697.65C21874.2,3698.65 21887,3710.66 21888.9,3726.25C21937.6,4127.29 22141.4,4436.92 22527.9,4638.78C22537.2,4643.61 22543.6,4652.63 22545.1,4663.01C22546.7,4673.39 22543.1,4683.87 22535.6,4691.19C22123,5091.38 21688.3,5085.91 21232.2,4686.26C21224.8,4679.73 21220.7,4670.18 21221.2,4660.3C21221.6,4650.42 21226.5,4641.26 21234.4,4635.39C21560.5,4394.26 21737,4079.93 21824.9,3722.18Z" style="fill:rgb(97,185,229);fill-opacity:0.376471;"/>
                </g>
                <g transform="matrix(0.0081622,-0.618978,0.212538,0.0237709,6740.69,15391.9)">
                    <path d="M21824.9,3722.18C21828.7,3706.96 21842.9,3696.66 21858.6,3697.65C21874.2,3698.65 21887,3710.66 21888.9,3726.25C21937.6,4127.29 22141.4,4436.92 22527.9,4638.78C22537.2,4643.61 22543.6,4652.63 22545.1,4663.01C22546.7,4673.39 22543.1,4683.87 22535.6,4691.19C22123,5091.38 21688.3,5085.91 21232.2,4686.26C21224.8,4679.73 21220.7,4670.18 21221.2,4660.3C21221.6,4650.42 21226.5,4641.26 21234.4,4635.39C21560.5,4394.26 21737,4079.93 21824.9,3722.18Z" style="fill:rgb(97,185,229);fill-opacity:0.376471;"/>
                </g>
            </g>
        </g>
    </g>
</svg>
