<?xml version="1.0" encoding="UTF-8" standalone="no"?>
<!DOCTYPE svg PUBLIC "-//W3C//DTD SVG 1.1//EN" "http://www.w3.org/Graphics/SVG/1.1/DTD/svg11.dtd">
<svg width="100%" height="100%" viewBox="0 0 270 276" version="1.1" xmlns="http://www.w3.org/2000/svg" xmlns:xlink="http://www.w3.org/1999/xlink" xml:space="preserve" xmlns:serif="http://www.serif.com/" style="fill-rule:evenodd;clip-rule:evenodd;stroke-linejoin:round;stroke-miterlimit:1.41421;">
    <g transform="matrix(1,0,0,1,-8061.92,-2597.56)">
        <g transform="matrix(2.91269,0,0,1,1051.75,2516.01)">
            <g id="Coin">
                <g transform="matrix(0.214936,0,0,0.538835,1812.38,-1241.8)">
                    <ellipse cx="2972.64" cy="2705.4" rx="207.244" ry="249.455" style="fill:rgb(255,248,151);"/>
                </g>
                <g transform="matrix(0.214936,0,0,0.538835,1815.8,-1235.02)">
                    <ellipse cx="2972.64" cy="2705.4" rx="207.244" ry="249.455" style="fill:rgb(177,166,4);"/>
                </g>
                <g transform="matrix(0.198072,0,0,0.494904,1863.27,-1122.67)">
                    <ellipse cx="2972.64" cy="2705.4" rx="207.244" ry="249.455" style="fill:rgb(228,214,5);"/>
                </g>
                <g transform="matrix(0.118364,0,0,0.660927,2106.58,-1541.42)">
                    <path d="M3007.93,2596.32C3007.93,2585.33 2999.57,2574.8 2984.68,2567.03C2969.79,2559.26 2949.59,2554.9 2928.53,2554.9C2928.53,2554.9 2928.53,2554.9 2928.53,2554.9C2907.47,2554.9 2887.28,2559.26 2872.38,2567.03C2857.49,2574.8 2849.13,2585.33 2849.13,2596.32C2849.13,2635.17 2849.13,2692.95 2849.13,2731.8C2849.13,2742.78 2857.49,2753.32 2872.38,2761.09C2887.28,2768.85 2907.47,2773.22 2928.53,2773.22C2928.53,2773.22 2928.53,2773.22 2928.53,2773.22C2949.59,2773.22 2969.79,2768.85 2984.68,2761.09C2999.57,2753.32 3007.93,2742.78 3007.93,2731.8C3007.93,2692.95 3007.93,2635.17 3007.93,2596.32Z" style="fill:rgb(177,166,4);"/>
                </g>
                <g transform="matrix(0.110165,0,0,0.660927,2129.44,-1544.5)">
                    <path d="M3007.93,2593.45C3007.93,2583.23 2999.57,2573.42 2984.68,2566.19C2969.79,2558.96 2949.59,2554.9 2928.53,2554.9C2928.53,2554.9 2928.53,2554.9 2928.53,2554.9C2907.47,2554.9 2887.28,2558.96 2872.39,2566.19C2857.49,2573.42 2849.13,2583.23 2849.13,2593.45C2849.13,2633.22 2849.13,2694.9 2849.13,2734.67C2849.13,2744.89 2857.49,2754.7 2872.39,2761.93C2887.28,2769.16 2907.47,2773.22 2928.53,2773.22C2928.53,2773.22 2928.53,2773.22 2928.53,2773.22C2949.59,2773.22 2969.79,2769.16 2984.68,2761.93C2999.57,2754.7 3007.93,2744.89 3007.93,2734.67C3007.93,2694.9 3007.93,2633.22 3007.93,2593.45Z" style="fill:rgb(228,214,5);"/>
                </g>
            </g>
        </g>
    </g>
</svg>
