<?xml version="1.0" encoding="UTF-8" standalone="no"?>
<!DOCTYPE svg PUBLIC "-//W3C//DTD SVG 1.1//EN" "http://www.w3.org/Graphics/SVG/1.1/DTD/svg11.dtd">
<svg width="100%" height="100%" viewBox="0 0 698 299" version="1.1" xmlns="http://www.w3.org/2000/svg" xmlns:xlink="http://www.w3.org/1999/xlink" xml:space="preserve" xmlns:serif="http://www.serif.com/" style="fill-rule:evenodd;clip-rule:evenodd;stroke-linejoin:round;stroke-miterlimit:1.41421;">
    <g transform="matrix(1,0,0,1,-9593.09,-3204.26)">
        <g transform="matrix(2.91269,0,0,1,1051.75,2516.01)">
            <g>
                <g transform="matrix(0.343325,0,0,1,1334.17,-157.341)">
                    <path d="M5260.03,997.683C5270.64,987.306 5275.33,972.302 5272.53,957.731C5269.73,943.161 5259.8,930.967 5246.1,925.263C5096.38,862.013 4977.18,815.816 4832.59,868.582C4795.21,882.214 4762.9,906.972 4740.02,939.522C4725.92,959.578 4708.93,983.741 4693.88,1005.15C4685.65,1016.85 4683.6,1031.81 4688.36,1045.3C4693.13,1058.8 4704.13,1069.14 4717.89,1073.08C4745.22,1080.98 4772.41,1091.77 4794.99,1104.87C4810.28,1113.8 4826.68,1120.66 4843.77,1125.3C5034.47,1176.9 5139.23,1116.01 5260.03,997.683Z" style="fill:rgb(51,57,217);"/>
                </g>
                <g transform="matrix(0.244549,0,0,0.870367,1834.41,-99.065)">
                    <path d="M4551.91,1104.06C4551.91,1097.4 4545.31,1091.99 4537.16,1091.99C4537.16,1091.99 4537.16,1091.99 4537.16,1091.99C4529.02,1091.99 4522.41,1097.4 4522.41,1104.06C4522.41,1113.22 4522.41,1125.76 4522.41,1134.92C4522.41,1141.59 4529.02,1146.99 4537.16,1146.99C4537.16,1146.99 4537.16,1146.99 4537.16,1146.99C4545.31,1146.99 4551.91,1141.59 4551.91,1134.92C4551.91,1125.76 4551.91,1113.22 4551.91,1104.06Z" style="fill:rgb(13,19,166);"/>
                </g>
                <g transform="matrix(0.244549,0,0,0.832912,1833.31,-56.6665)">
                    <path d="M4551.91,1104.61C4551.91,1097.64 4545.31,1091.99 4537.16,1091.99C4537.16,1091.99 4537.16,1091.99 4537.16,1091.99C4529.02,1091.99 4522.41,1097.64 4522.41,1104.61C4522.41,1113.53 4522.41,1125.45 4522.41,1134.38C4522.41,1141.35 4529.02,1146.99 4537.16,1146.99C4537.16,1146.99 4537.16,1146.99 4537.16,1146.99C4545.31,1146.99 4551.91,1141.35 4551.91,1134.38C4551.91,1125.45 4551.91,1113.53 4551.91,1104.61Z" style="fill:rgb(51,57,217);"/>
                </g>
                <g transform="matrix(0.128591,0,0,0.374545,2359.27,455.104)">
                    <path d="M4551.91,1106.74C4551.91,1098.6 4545.31,1091.99 4537.16,1091.99C4537.16,1091.99 4537.16,1091.99 4537.16,1091.99C4529.02,1091.99 4522.41,1098.6 4522.41,1106.74C4522.41,1114.64 4522.41,1124.35 4522.41,1132.25C4522.41,1140.39 4529.02,1146.99 4537.16,1146.99C4537.16,1146.99 4537.16,1146.99 4537.16,1146.99C4545.31,1146.99 4551.91,1140.39 4551.91,1132.25C4551.91,1124.35 4551.91,1114.64 4551.91,1106.74Z"/>
                </g>
                <g transform="matrix(0.343325,0,0,1,1377.2,-174.008)">
                    <path d="M5127.67,967.565C5125.65,964.937 5123.22,962.643 5120.49,960.765C5062.96,922.074 4883.87,857.695 4802.06,884.824C4793.77,887.6 4786.99,893.674 4783.32,901.613C4765.34,940.439 4780.85,1016.23 4816.29,1041.31C4816.58,1041.52 4816.87,1041.73 4817.16,1041.95C4861.14,1075.33 5034.82,1060.57 5125.5,1026.28C5127.69,1025.44 5129.78,1024.37 5131.73,1023.07C5159.05,1004.94 5154.67,1002.56 5127.67,967.565Z"/>
                </g>
                <g transform="matrix(0.343325,0,0,0.913174,1438.02,-328.842)">
                    <path d="M5040.89,1158.67C5040.95,1156.79 5040,1155.05 5038.45,1154.22C5036.91,1153.4 5035.07,1153.65 5033.76,1154.86C4999.68,1186.08 4964.17,1210.73 4926.33,1224.73C4920.59,1226.82 4916.08,1231.74 4914.16,1238.02C4911.76,1245.78 4908.35,1256.9 4905.14,1267.36C4903.15,1273.85 4904.16,1280.99 4907.85,1286.51C4911.55,1292.04 4917.45,1295.26 4923.7,1295.14C4959.42,1294.38 4995,1297.59 5030.21,1312.44C5031.48,1312.98 5032.91,1312.82 5034.06,1312C5035.2,1311.18 5035.9,1309.8 5035.95,1308.31C5036.8,1282.84 5039.85,1190.41 5040.89,1158.67Z"/>
                </g>
                <g transform="matrix(0.343325,0,0,0.823353,1441.63,-216.739)">
                    <path d="M5033.25,1169.94C5032.82,1168.11 5031.68,1166.65 5030.2,1166.05C5028.71,1165.44 5027.07,1165.76 5025.82,1166.9C4992.06,1197.77 4963.86,1212.11 4926.65,1224.77C4920.72,1226.79 4915.95,1232.12 4913.8,1239.12C4911.82,1245.58 4909.22,1254.07 4906.62,1262.53C4904.35,1269.95 4905.32,1278.27 4909.21,1284.63C4913.1,1290.99 4919.38,1294.52 4925.89,1294.02C4958.68,1291.3 4987.93,1290.02 5022.65,1305.21C5024.11,1305.85 5025.72,1304.97 5026.29,1303.22C5040.78,1258.83 5043.49,1214.4 5033.25,1169.94Z" style="fill:rgb(250,255,0);"/>
                </g>
                <g transform="matrix(0.343325,0,0,1,1432.36,-144.008)">
                    <path d="M4846.72,924.287C4845.59,923.076 4844.22,922.11 4842.7,921.447C4765.41,887.733 4741.04,855.783 4669.35,889.658C4667.39,890.587 4665.69,891.997 4664.43,893.758C4664.42,893.757 4664.42,893.758 4664.42,893.759C4650.09,913.652 4649.9,940.433 4663.95,960.523C4678.01,980.614 4703.23,989.62 4726.83,982.975C4761.28,973.161 4795.85,967.115 4827.71,967.472C4837.98,967.586 4847.33,961.559 4851.47,952.156C4855.61,942.753 4853.74,931.788 4846.72,924.288C4846.72,924.287 4846.72,924.287 4846.72,924.287Z" style="fill:rgb(51,57,217);"/>
                </g>
                <g transform="matrix(0.33462,-0.223755,0.0492967,0.625441,1298.55,1103.72)">
                    <path d="M5009.6,1157.32C4909.77,1130.72 4854.46,1133.89 4800.55,1216.61C4794.85,1225.36 4791.68,1237.33 4791.74,1249.79C4791.81,1262.26 4795.12,1274.14 4800.91,1282.74C4800.91,1282.74 4800.91,1282.74 4800.91,1282.74C4806.68,1291.31 4814.45,1295.84 4822.42,1295.27C4830.38,1294.71 4837.86,1289.1 4843.11,1279.74C4889.2,1195.86 4905.11,1161.25 4952.72,1266.44L5009.6,1157.32Z"/>
                </g>
                <g transform="matrix(0.15885,0,0,0.465454,2248.71,297.275)">
                    <path d="M4551.91,1106.65C4551.91,1098.56 4545.31,1091.99 4537.16,1091.99C4537.16,1091.99 4537.16,1091.99 4537.16,1091.99C4529.02,1091.99 4522.41,1098.56 4522.41,1106.65C4522.41,1114.6 4522.41,1124.39 4522.41,1132.33C4522.41,1140.43 4529.02,1146.99 4537.16,1146.99C4537.16,1146.99 4537.16,1146.99 4537.16,1146.99C4545.31,1146.99 4551.91,1140.43 4551.91,1132.33C4551.91,1124.39 4551.91,1114.6 4551.91,1106.65Z" style="fill:white;"/>
                </g>
                <g transform="matrix(0.128591,0,0,0.374545,2385.88,399.381)">
                    <path d="M4551.91,1106.74C4551.91,1098.6 4545.31,1091.99 4537.16,1091.99C4537.16,1091.99 4537.16,1091.99 4537.16,1091.99C4529.02,1091.99 4522.41,1098.6 4522.41,1106.74C4522.41,1114.64 4522.41,1124.35 4522.41,1132.25C4522.41,1140.39 4529.02,1146.99 4537.16,1146.99C4537.16,1146.99 4537.16,1146.99 4537.16,1146.99C4545.31,1146.99 4551.91,1140.39 4551.91,1132.25C4551.91,1124.35 4551.91,1114.64 4551.91,1106.74Z"/>
                </g>
            </g>
        </g>
    </g>
</svg>
