<?xml version="1.0" encoding="UTF-8" standalone="no"?>
<!DOCTYPE svg PUBLIC "-//W3C//DTD SVG 1.1//EN" "http://www.w3.org/Graphics/SVG/1.1/DTD/svg11.dtd">
<svg width="100%" height="100%" viewBox="0 0 571 199" version="1.1" xmlns="http://www.w3.org/2000/svg" xmlns:xlink="http://www.w3.org/1999/xlink" xml:space="preserve" xmlns:serif="http://www.serif.com/" style="fill-rule:evenodd;clip-rule:evenodd;stroke-linejoin:round;stroke-miterlimit:1.41421;">
    <g transform="matrix(1,0,0,1,-8407.64,-2588.11)">
        <g transform="matrix(2.91269,0,0,1,1051.75,2516.01)">
            <g id="Fish-1" serif:id="Fish 1" transform="matrix(1,0,0,1,-500.929,-343.654)">
                <g transform="matrix(0.343325,0,0,0.911481,1538.1,-304.513)">
                    <path d="M4739.35,799.648C4741.17,798.925 4742.28,796.892 4741.99,794.79C4741.7,792.689 4740.1,791.104 4738.16,791.004C4664.62,787.323 4599.73,796.565 4531.65,818.357C4523.97,820.784 4519.17,829.128 4520.47,837.772C4521.77,846.416 4528.77,852.622 4536.74,852.213C4569.24,850.55 4599.05,849.021 4608.52,848.535C4610.58,848.429 4612.63,848.767 4614.57,849.529C4622.51,852.652 4644.85,861.441 4660.47,867.584C4664.49,869.166 4668.93,868.887 4672.76,866.809C4676.6,864.732 4679.49,861.036 4680.79,856.568C4689.13,828.002 4704.3,813.018 4739.35,799.648Z" style="fill:rgb(234,69,45);fill-opacity:0.815686;"/>
                </g>
                <g transform="matrix(0.343325,0,0,0.911481,1538.1,-304.513)">
                    <path d="M4739.35,799.648C4741.17,798.925 4742.28,796.892 4741.99,794.79C4741.7,792.689 4740.1,791.104 4738.16,791.004C4664.62,787.323 4599.73,796.565 4531.65,818.357C4523.97,820.784 4519.17,829.128 4520.47,837.772C4521.77,846.416 4528.77,852.622 4536.74,852.213C4569.24,850.55 4599.05,849.021 4608.52,848.535C4610.58,848.429 4612.63,848.767 4614.57,849.529C4622.51,852.652 4644.85,861.441 4660.47,867.584C4664.49,869.166 4668.93,868.887 4672.76,866.809C4676.6,864.732 4679.49,861.036 4680.79,856.568C4689.13,828.002 4704.3,813.018 4739.35,799.648Z" style="fill:rgb(234,69,45);fill-opacity:0.815686;"/>
                </g>
                <g transform="matrix(0.343325,0,0,-0.911481,1537.34,1334.14)">
                    <path d="M4739.35,799.648C4741.17,798.925 4742.28,796.892 4741.99,794.79C4741.7,792.689 4740.1,791.104 4738.16,791.004C4664.62,787.323 4599.73,796.565 4531.65,818.357C4523.97,820.784 4519.17,829.128 4520.47,837.772C4521.77,846.416 4528.77,852.622 4536.74,852.213C4569.24,850.55 4599.05,849.021 4608.52,848.535C4610.58,848.429 4612.63,848.767 4614.57,849.529C4622.51,852.652 4644.85,861.441 4660.47,867.584C4664.49,869.166 4668.93,868.887 4672.76,866.809C4676.6,864.732 4679.49,861.036 4680.79,856.568C4689.13,828.002 4704.3,813.018 4739.35,799.648Z" style="fill:rgb(234,69,45);fill-opacity:0.815686;"/>
                </g>
                <g transform="matrix(0.343325,0,0,-0.911481,1537.34,1334.14)">
                    <path d="M4739.35,799.648C4741.17,798.925 4742.28,796.892 4741.99,794.79C4741.7,792.689 4740.1,791.104 4738.16,791.004C4664.62,787.323 4599.73,796.565 4531.65,818.357C4523.97,820.784 4519.17,829.128 4520.47,837.772C4521.77,846.416 4528.77,852.622 4536.74,852.213C4569.24,850.55 4599.05,849.021 4608.52,848.535C4610.58,848.429 4612.63,848.767 4614.57,849.529C4622.51,852.652 4644.85,861.441 4660.47,867.584C4664.49,869.166 4668.93,868.887 4672.76,866.809C4676.6,864.732 4679.49,861.036 4680.79,856.568C4689.13,828.002 4704.3,813.018 4739.35,799.648Z" style="fill:rgb(234,69,45);fill-opacity:0.815686;"/>
                </g>
                <g transform="matrix(0.193372,0,0,-0.911481,2180.23,1329.69)">
                    <path d="M4740.58,799.182C4743.22,798.167 4744.5,796.224 4743.77,794.36C4743.04,792.495 4740.46,791.13 4737.37,790.972C4663.11,787.338 4597.65,796.909 4528.75,819.291C4516.91,823.073 4511.05,831.491 4514.73,839.403C4518.41,847.315 4530.62,852.52 4543.9,851.839C4568.26,850.6 4590.3,849.469 4602.25,848.856C4608.34,848.544 4614.43,849.472 4619.58,851.5C4625.12,853.678 4632.94,856.753 4641.02,859.932C4648.62,862.922 4658.09,863.465 4666.45,861.392C4674.81,859.319 4681.04,854.883 4683.19,849.477C4692.01,825.121 4707.72,811.52 4740.58,799.182Z" style="fill:rgb(234,69,45);fill-opacity:0.815686;"/>
                </g>
                <g transform="matrix(0.193372,0,0,-0.911481,2180.23,1329.69)">
                    <path d="M4740.58,799.182C4743.22,798.167 4744.5,796.224 4743.77,794.36C4743.04,792.495 4740.46,791.13 4737.37,790.972C4663.11,787.338 4597.65,796.909 4528.75,819.291C4516.91,823.073 4511.05,831.491 4514.73,839.403C4518.41,847.315 4530.62,852.52 4543.9,851.839C4568.26,850.6 4590.3,849.469 4602.25,848.856C4608.34,848.544 4614.43,849.472 4619.58,851.5C4625.12,853.678 4632.94,856.753 4641.02,859.932C4648.62,862.922 4658.09,863.465 4666.45,861.392C4674.81,859.319 4681.04,854.883 4683.19,849.477C4692.01,825.121 4707.72,811.52 4740.58,799.182Z" style="fill:rgb(234,69,45);fill-opacity:0.815686;"/>
                </g>
                <g transform="matrix(0.343325,0,0,1,1432.36,-144.008)">
                    <path d="M5045.93,665.463C5046.44,655.375 5040.82,645.974 5031.7,641.636C4902.74,581.25 4743.52,564.887 4668.93,642.706C4659.57,652.516 4659.73,668.002 4669.31,677.605C4670.98,679.255 4671.47,680.818 4671,682.352C4667.13,694.902 4673.65,708.302 4685.93,712.986C4790.45,753.309 4922.05,722.36 5027.24,693.783C5037.68,690.947 5045.12,681.714 5045.66,670.905C5045.75,669.092 5045.84,667.258 5045.93,665.463Z" style="fill:url(#_Linear1);"/>
                </g>
                <g transform="matrix(0.458229,0,0,1.14223,956.148,-743.834)">
                    <path d="M4551.91,1109.23C4551.91,1104.66 4550.36,1100.27 4547.59,1097.04C4544.83,1093.81 4541.07,1091.99 4537.16,1091.99C4537.16,1091.99 4537.16,1091.99 4537.16,1091.99C4533.25,1091.99 4529.5,1093.81 4526.73,1097.04C4523.97,1100.27 4522.41,1104.66 4522.41,1109.23C4522.41,1115.77 4522.41,1123.22 4522.41,1129.76C4522.41,1134.33 4523.97,1138.71 4526.73,1141.94C4529.5,1145.18 4533.25,1146.99 4537.16,1146.99C4537.16,1146.99 4537.16,1146.99 4537.16,1146.99C4541.07,1146.99 4544.83,1145.18 4547.59,1141.94C4550.36,1138.71 4551.91,1134.33 4551.91,1129.76C4551.91,1123.22 4551.91,1115.77 4551.91,1109.23Z" style="fill:rgb(210,74,18);"/>
                </g>
                <g transform="matrix(0.458229,0,0,1.14223,956.148,-743.834)">
                    <path d="M4551.91,1109.23C4551.91,1104.66 4550.36,1100.27 4547.59,1097.04C4544.83,1093.81 4541.07,1091.99 4537.16,1091.99C4537.16,1091.99 4537.16,1091.99 4537.16,1091.99C4533.25,1091.99 4529.5,1093.81 4526.73,1097.04C4523.97,1100.27 4522.41,1104.66 4522.41,1109.23C4522.41,1115.77 4522.41,1123.22 4522.41,1129.76C4522.41,1134.33 4523.97,1138.71 4526.73,1141.94C4529.5,1145.18 4533.25,1146.99 4537.16,1146.99C4537.16,1146.99 4537.16,1146.99 4537.16,1146.99C4541.07,1146.99 4544.83,1145.18 4547.59,1141.94C4550.36,1138.71 4551.91,1134.33 4551.91,1129.76C4551.91,1123.22 4551.91,1115.77 4551.91,1109.23Z" style="fill:rgb(210,74,18);"/>
                </g>
                <g transform="matrix(0.458229,0,0,1.14223,954.088,-744.834)">
                    <path d="M4551.91,1109.23C4551.91,1104.66 4550.36,1100.27 4547.59,1097.04C4544.83,1093.81 4541.07,1091.99 4537.16,1091.99C4537.16,1091.99 4537.16,1091.99 4537.16,1091.99C4533.25,1091.99 4529.5,1093.81 4526.73,1097.04C4523.97,1100.27 4522.41,1104.66 4522.41,1109.23C4522.41,1115.77 4522.41,1123.22 4522.41,1129.76C4522.41,1134.33 4523.97,1138.71 4526.73,1141.94C4529.5,1145.18 4533.25,1146.99 4537.16,1146.99C4537.16,1146.99 4537.16,1146.99 4537.16,1146.99C4541.07,1146.99 4544.83,1145.18 4547.59,1141.94C4550.36,1138.71 4551.91,1134.33 4551.91,1129.76C4551.91,1123.22 4551.91,1115.77 4551.91,1109.23Z" style="fill:rgb(247,84,17);"/>
                </g>
                <g transform="matrix(0.458229,0,0,1.14223,954.088,-744.834)">
                    <path d="M4551.91,1109.23C4551.91,1104.66 4550.36,1100.27 4547.59,1097.04C4544.83,1093.81 4541.07,1091.99 4537.16,1091.99C4537.16,1091.99 4537.16,1091.99 4537.16,1091.99C4533.25,1091.99 4529.5,1093.81 4526.73,1097.04C4523.97,1100.27 4522.41,1104.66 4522.41,1109.23C4522.41,1115.77 4522.41,1123.22 4522.41,1129.76C4522.41,1134.33 4523.97,1138.71 4526.73,1141.94C4529.5,1145.18 4533.25,1146.99 4537.16,1146.99C4537.16,1146.99 4537.16,1146.99 4537.16,1146.99C4541.07,1146.99 4544.83,1145.18 4547.59,1141.94C4550.36,1138.71 4551.91,1134.33 4551.91,1129.76C4551.91,1123.22 4551.91,1115.77 4551.91,1109.23Z" style="fill:rgb(247,84,17);"/>
                </g>
                <g transform="matrix(0.195194,0,0,0.687183,2160.71,-262.209)">
                    <path d="M4551.91,1104.19C4551.91,1100.96 4550.36,1097.86 4547.59,1095.57C4544.83,1093.28 4541.08,1091.99 4537.17,1091.99C4537.16,1091.99 4537.16,1091.99 4537.16,1091.99C4533.25,1091.99 4529.5,1093.28 4526.73,1095.57C4523.97,1097.86 4522.41,1100.96 4522.41,1104.19C4522.41,1113.3 4522.41,1125.69 4522.41,1134.79C4522.41,1138.03 4523.97,1141.13 4526.73,1143.42C4529.5,1145.71 4533.25,1146.99 4537.16,1146.99C4537.16,1146.99 4537.16,1146.99 4537.17,1146.99C4541.08,1146.99 4544.83,1145.71 4547.59,1143.42C4550.36,1141.13 4551.91,1138.03 4551.91,1134.79C4551.91,1125.69 4551.91,1113.3 4551.91,1104.19Z"/>
                </g>
                <g transform="matrix(0.195194,0,0,0.687183,2160.71,-262.209)">
                    <path d="M4551.91,1104.19C4551.91,1100.96 4550.36,1097.86 4547.59,1095.57C4544.83,1093.28 4541.08,1091.99 4537.17,1091.99C4537.16,1091.99 4537.16,1091.99 4537.16,1091.99C4533.25,1091.99 4529.5,1093.28 4526.73,1095.57C4523.97,1097.86 4522.41,1100.96 4522.41,1104.19C4522.41,1113.3 4522.41,1125.69 4522.41,1134.79C4522.41,1138.03 4523.97,1141.13 4526.73,1143.42C4529.5,1145.71 4533.25,1146.99 4537.16,1146.99C4537.16,1146.99 4537.16,1146.99 4537.17,1146.99C4541.08,1146.99 4544.83,1145.71 4547.59,1143.42C4550.36,1141.13 4551.91,1138.03 4551.91,1134.79C4551.91,1125.69 4551.91,1113.3 4551.91,1104.19Z"/>
                </g>
                <g transform="matrix(0.247925,0,0,0.554519,1906.43,-87.4235)">
                    <path d="M4551.91,1111.2C4551.91,1106.11 4550.36,1101.22 4547.59,1097.62C4544.83,1094.02 4541.08,1091.99 4537.16,1091.99C4537.16,1091.99 4537.16,1091.99 4537.16,1091.99C4533.25,1091.99 4529.5,1094.02 4526.73,1097.62C4523.97,1101.22 4522.41,1106.11 4522.41,1111.2C4522.41,1116.57 4522.41,1122.41 4522.41,1127.79C4522.41,1132.88 4523.97,1137.77 4526.73,1141.37C4529.5,1144.97 4533.25,1146.99 4537.16,1146.99C4537.16,1146.99 4537.16,1146.99 4537.16,1146.99C4541.08,1146.99 4544.83,1144.97 4547.59,1141.37C4550.36,1137.77 4551.91,1132.88 4551.91,1127.79C4551.91,1122.41 4551.91,1116.57 4551.91,1111.2Z"/>
                </g>
                <g transform="matrix(0.247925,0,0,0.554519,1906.43,-87.4235)">
                    <path d="M4551.91,1111.2C4551.91,1106.11 4550.36,1101.22 4547.59,1097.62C4544.83,1094.02 4541.08,1091.99 4537.16,1091.99C4537.16,1091.99 4537.16,1091.99 4537.16,1091.99C4533.25,1091.99 4529.5,1094.02 4526.73,1097.62C4523.97,1101.22 4522.41,1106.11 4522.41,1111.2C4522.41,1116.57 4522.41,1122.41 4522.41,1127.79C4522.41,1132.88 4523.97,1137.77 4526.73,1141.37C4529.5,1144.97 4533.25,1146.99 4537.16,1146.99C4537.16,1146.99 4537.16,1146.99 4537.16,1146.99C4541.08,1146.99 4544.83,1144.97 4547.59,1141.37C4550.36,1137.77 4551.91,1132.88 4551.91,1127.79C4551.91,1122.41 4551.91,1116.57 4551.91,1111.2Z"/>
                </g>
                <g transform="matrix(0.343325,0,0,1,1616.73,-303.508)">
                    <path d="M4614.61,764.053C4615.63,763.467 4616.07,762.215 4615.64,761.114C4615.21,760.013 4614.03,759.397 4612.88,759.668C4528.17,778.985 4530.71,797.465 4441.35,800.581C4436.73,800.773 4432.44,802.982 4429.6,806.621C4426.76,810.26 4425.66,814.963 4426.59,819.484C4430.25,837.278 4435.26,861.489 4435.26,861.489C4513.24,846.186 4589.87,850.186 4659.43,868.963C4660.57,869.281 4661.77,868.716 4662.25,867.635C4662.73,866.554 4662.34,865.286 4661.34,864.657C4617.8,837.337 4561.99,793.175 4614.61,764.053Z" style="fill:rgb(217,51,81);fill-opacity:0.854902;"/>
                </g>
                <g transform="matrix(0.343325,0,0,1,1616.73,-303.508)">
                    <path d="M4614.61,764.053C4615.63,763.467 4616.07,762.215 4615.64,761.114C4615.21,760.013 4614.03,759.397 4612.88,759.668C4528.17,778.985 4530.71,797.465 4441.35,800.581C4436.73,800.773 4432.44,802.982 4429.6,806.621C4426.76,810.26 4425.66,814.963 4426.59,819.484C4430.25,837.278 4435.26,861.489 4435.26,861.489C4513.24,846.186 4589.87,850.186 4659.43,868.963C4660.57,869.281 4661.77,868.716 4662.25,867.635C4662.73,866.554 4662.34,865.286 4661.34,864.657C4617.8,837.337 4561.99,793.175 4614.61,764.053Z" style="fill:rgb(217,51,81);fill-opacity:0.854902;"/>
                </g>
            </g>
        </g>
    </g>
    <defs>
        <linearGradient id="_Linear1" x1="0" y1="0" x2="1" y2="0" gradientUnits="userSpaceOnUse" gradientTransform="matrix(397,0,0,142.124,4649.76,661.251)"><stop offset="0" style="stop-color:rgb(255,93,0);stop-opacity:1"/><stop offset="1" style="stop-color:rgb(206,39,103);stop-opacity:1"/></linearGradient>
    </defs>
</svg>
