<?xml version="1.0" encoding="UTF-8" standalone="no"?>
<!DOCTYPE svg PUBLIC "-//W3C//DTD SVG 1.1//EN" "http://www.w3.org/Graphics/SVG/1.1/DTD/svg11.dtd">
<svg width="100%" height="100%" viewBox="0 0 3290 2083" version="1.1" xmlns="http://www.w3.org/2000/svg" xmlns:xlink="http://www.w3.org/1999/xlink" xml:space="preserve" xmlns:serif="http://www.serif.com/" style="fill-rule:evenodd;clip-rule:evenodd;stroke-linejoin:round;stroke-miterlimit:1.41421;">
    <g transform="matrix(1,0,0,1,-25153.4,-5039.62)">
        <g transform="matrix(11.2981,0,0,3.16007,-51589.6,5820.28)">
            <g transform="matrix(0.04512,0.132233,-0.0358895,0.156538,5957.22,-4639.09)">
                <path d="M28386.2,7467.98C28380.1,7277.6 28236.3,7122.27 28052,7107.05C27867.8,7091.82 27701.8,7221.56 27666.4,7408.51C27666.4,7408.52 27666.4,7408.52 27666.4,7408.52C27666.4,7408.52 27666.4,7408.52 27666.4,7408.52C27481.6,7428.98 27340.7,7588.28 27338.1,7779.75C27335.4,7971.21 27471.8,8134.63 27655.9,8160.54C28099.7,8223 28411.7,8266.92 28411.7,8266.92C28411.7,8266.92 28401.2,7938.68 28386.2,7467.98Z" style="fill:rgb(255,90,38);"/>
            </g>
        </g>
    </g>
</svg>
