<?xml version="1.0" encoding="UTF-8" standalone="no"?>
<!DOCTYPE svg PUBLIC "-//W3C//DTD SVG 1.1//EN" "http://www.w3.org/Graphics/SVG/1.1/DTD/svg11.dtd">
<svg width="100%" height="100%" viewBox="0 0 4809 1762" version="1.1" xmlns="http://www.w3.org/2000/svg" xmlns:xlink="http://www.w3.org/1999/xlink" xml:space="preserve" xmlns:serif="http://www.serif.com/" style="fill-rule:evenodd;clip-rule:evenodd;stroke-linejoin:round;stroke-miterlimit:1.41421;">
    <g transform="matrix(1,0,0,1,-16590.4,-2613.45)">
        <g transform="matrix(11.2981,0,0,3.16007,-51589.6,5820.28)">
            <g id="MerAttack2">
                <g transform="matrix(-0.0270117,0.0762406,0.0158307,0.0716948,6953.48,-3091.08)">
                    <path d="M29893,3655.89C29877.1,3476.04 29822.1,3306.54 29734.8,3168.7C29639.3,3018.23 29645.8,2755.9 29507.7,2897.21C28604.3,3821.93 28732,3370.25 28455.9,3881.99C28319.4,4135.13 28229.8,4330.22 27914.9,4758.37C27500.5,5321.9 26431.8,6188.08 26431.8,6188.08C26884.6,6247.76 27616.7,5939.31 28376.8,5636.49C28662.8,5523.64 28928.5,5332.85 29157.4,5075.95C29620.2,4555.06 29983.7,4680.56 29893,3655.89Z" style="fill:rgb(206,204,201);"/>
                </g>
                <g transform="matrix(-0.0272673,0.108903,0.018711,0.0598855,6779.04,-3709.9)">
                    <path d="M22738,10780.2C22762.3,10707.7 22759.2,10618.8 22729.9,10551.3C22700.6,10483.7 22650.2,10449.3 22600,10462.5C22318.7,10540.8 22364.3,10501.9 22015.3,10522.8C21915,10527.9 21828,10637.2 21799.4,10793.8C21786,10867.4 21794.1,10902.5 21817.7,11063.5C21827.2,11128.3 21832,11194.8 21832,11261.5C21831.7,11946.7 21583.9,12347.8 21043.1,13428.4C21841.4,12578.7 22443.1,11897.6 22544.2,11490.6C22606.3,11240.8 22609.3,11156.8 22738,10780.2Z" style="fill:rgb(56,89,126);"/>
                </g>
                <g transform="matrix(-0.0164836,0.122048,0.0358787,0.0619411,6414.02,-4132.56)">
                    <path d="M26428,7152.43C26428.1,7152.14 26428.2,7151.85 26428.3,7151.56C26442,7097.59 26447.4,7043.34 26445.2,6989.43C26431.3,6669.12 26159.7,6413.41 25822.9,6403.64C25486.1,6393.87 25198.7,6633.35 25164.3,6952.26C25110.6,7457.43 24780.5,7894.13 24547.6,8456.03C24393.4,8828.21 24174.3,9172.96 23899.5,9475.74C23655.5,9744.66 23411.7,10013.3 23411.7,10013.3C24043.7,9642.81 24703.5,9115.5 25378,8587.17C25880.9,8193.23 26285.6,7728.41 26428,7152.43Z" style="fill:rgb(56,89,126);"/>
                </g>
                <g transform="matrix(-0.0272673,0.108903,0.018711,0.0598855,6778.34,-3707.31)">
                    <path d="M22781.2,10683.5C22806.9,10609.1 22803.4,10517.1 22772.2,10448.5C22741.1,10379.8 22688,10347.4 22636.8,10365.7C22351.3,10465.7 22368.4,10486.5 22009.5,10520.8C21910,10530.9 21825.3,10642.4 21798.5,10798.8C21786.5,10868.5 21794.5,10905.6 21817.1,11059.7C21827.6,11131.2 21832.4,11204.7 21831.3,11278.2C21825.2,11696.5 21712.5,12058.1 21505.4,12516.1C21381.8,12789.6 21224.5,13097.6 21036.1,13472.6C21032.1,13480.6 21032.3,13492.2 21036.5,13499.9C21040.8,13507.7 21047.9,13509.1 21053.2,13503.4C21819.8,12680.2 22446.1,11885.6 22544.2,11490.6C22606.4,11240.5 22639.1,11090.3 22781.2,10683.5Z" style="fill:rgb(75,115,161);"/>
                </g>
                <g transform="matrix(-0.0164836,0.122048,0.0358787,0.0619411,6408.98,-4142.15)">
                    <path d="M26428,7152.43C26428.2,7151.58 26428.5,7150.74 26428.7,7149.9C26442.1,7096.47 26447.3,7042.78 26445.2,6989.43C26431.3,6669.12 26159.7,6413.41 25822.9,6403.64C25486.1,6393.87 25198.7,6633.35 25164.3,6952.26C25114,7425.18 24821.5,7838.09 24593.3,8349.88C24394.9,8794.72 24103.3,9196.39 23736.3,9530.36C23451.7,9789.32 23181.7,10035 23181.7,10035C24286.8,9487.45 26095.1,8534.55 26428,7152.43Z" style="fill:rgb(111,141,175);"/>
                </g>
                <g transform="matrix(-0.0164836,0.122048,0.0358787,0.0619411,6407.92,-4135.53)">
                    <path d="M26428,7152.43C26428.2,7151.58 26428.5,7150.74 26428.7,7149.9C26442.1,7096.47 26447.3,7042.78 26445.2,6989.43C26431.3,6669.12 26159.7,6413.41 25822.9,6403.64C25486.1,6393.87 25198.7,6633.35 25164.3,6952.26C25114,7425.18 24821.5,7838.09 24593.3,8349.88C24394.9,8794.72 24103.3,9196.39 23736.3,9530.36C23451.7,9789.32 23181.7,10035 23181.7,10035C24286.8,9487.45 26095.1,8534.55 26428,7152.43Z" style="fill:rgb(58,103,154);"/>
                </g>
                <g transform="matrix(-0.0131598,-0.051406,0.0112468,-0.0377716,6403.77,691.61)">
                    <path d="M25026,2610.25C25024.4,2464.59 24977.8,2326.22 24896.3,2224.48C24495.6,1728.48 24596.5,1406.88 24124.2,1910.16C23885.9,2164.12 23738.2,2409.7 23830.5,2733.55C23888.7,2937.1 23919.8,3151.81 23922.6,3369.05C23922.2,3416.02 23945,3440.27 24028,3440.22C24717.7,3439.74 24691.6,3302.81 24907.1,3003.94C24985.1,2896.18 25027.6,2755.23 25026,2610.26C25026,2610.25 25026,2610.25 25026,2610.25Z" style="fill:rgb(255,233,209);"/>
                </g>
                <g transform="matrix(-0.00531808,0.114864,0.0339525,0.0200938,6070.74,-3663.27)">
                    <path d="M26476.5,7262.78C26443.7,6777.6 26029.8,6393.79 25516.5,6372.67C25516.4,6372.74 25516.4,6372.73 25516.3,6372.73C25280.5,6363 25057.1,6472.84 24930,6660.99C24802.9,6849.14 24791.4,7087.11 24899.7,7285.5C25123.5,7695.17 25280.6,8094.19 25265.2,8591.66C25258.7,8806.19 25348.4,9013.31 25512.3,9161.72C25512.2,9161.8 25512.2,9161.8 25512.2,9161.8C25671,9352.22 26020.6,9342.6 26080.9,9280.89C26080.9,9280.89 26080.9,9280.89 26080.9,9280.89C26180.9,9233.16 26251.6,9143.87 26271.9,9039.59C26391.1,8433.93 26518.6,7886.67 26476.5,7262.78Z" style="fill:rgb(50,79,112);"/>
                </g>
                <g transform="matrix(-0.00531808,0.114864,0.0339525,0.0200938,6081.57,-3669.16)">
                    <path d="M26455.3,7607.51C26514.5,6989.19 26044,6438.16 25392.7,6363.01C25392.7,6363.07 25392.7,6363.07 25392.7,6363.07C25204.2,6341.46 25017.9,6416.44 24903.5,6559.87C24789.2,6703.29 24764.2,6893.47 24838,7059C24895.6,7187.97 24924.6,7318.38 24904,7454.23C24820.3,8008.27 25311.6,8533.5 25694.2,8939.37C25749.3,8998.99 25831.7,9029.47 25915,9021.03C25998.2,9012.6 26071.9,8966.33 26112.4,8897.01C26112.5,8897.02 26112.5,8897.02 26112.5,8897.02C26126.6,8872.92 26147.4,8852.97 26172.8,8839.4C26348,8744.14 26239,8907.32 26280.6,8665.86C26350.7,8259.35 26424.1,7929.09 26455.3,7607.51Z" style="fill:rgb(111,141,175);"/>
                </g>
                <g transform="matrix(-0.00531808,0.114864,0.0339525,0.0200938,6073.37,-3668.21)">
                    <path d="M26455.3,7607.51C26514.5,6989.19 26044,6438.16 25392.7,6363.01C25392.7,6363.07 25392.7,6363.07 25392.7,6363.07C25204.2,6341.46 25017.9,6416.44 24903.5,6559.87C24789.2,6703.29 24764.2,6893.47 24838,7059C24895.6,7187.97 24924.6,7318.38 24904,7454.23C24808.1,8088.53 25222.7,8613.36 25573.9,9026.12C25625.6,9086.88 25686.5,9140 25754.7,9183.73C25754.7,9183.73 25754.7,9183.73 25754.7,9183.73C25836.6,9236.28 25940.5,9247.66 26032.9,9214.22C26125.4,9180.77 26194.8,9106.72 26218.8,9015.85C26248.1,8905.29 26260.2,8784.02 26280.6,8665.86C26350.7,8259.35 26424.1,7929.09 26455.3,7607.51Z" style="fill:rgb(58,103,154);"/>
                </g>
                <g transform="matrix(0.0101648,0.12422,0.039571,-0.0413908,5868.02,-2309.58)">
                    <path d="M14150.6,2194.66C14024,2144.72 13874.9,2174.84 13785.9,2268.38C13785.8,2268.3 13785.8,2268.3 13785.8,2268.3C13720.4,2337.04 13691.9,2427.21 13707.6,2515.73C13723.3,2604.25 13781.6,2682.54 13867.8,2730.57C14038.9,2826.04 14271.4,2864.43 14456.8,2967.39C14536.2,3011.67 14636.7,3014.57 14719.3,2974.95C14719.3,2974.98 14719.3,2974.98 14719.3,2974.98C14719.3,2974.98 14719.3,2974.98 14719.3,2974.98C14769.3,2986.18 14821.7,2966.7 14847.3,2927.38C14873,2888.05 14865.6,2838.53 14829.3,2806.32C14808.6,2788.16 14792.1,2770.45 14781.5,2753.31C14545.3,2371.42 14433.8,2302.68 14150.6,2194.66Z" style="fill:rgb(255,238,219);"/>
                </g>
                <g transform="matrix(0.0360598,-0.232652,0.0650722,0.128924,5461.43,2447.9)">
                    <path d="M15373,1510.4C15386.2,1444.2 15358.8,1376.49 15303.2,1338.13C15247.7,1299.77 15174.7,1298.1 15117.4,1333.88C15104.7,1341.89 15091.1,1350.65 15076.5,1360.23C15071.9,1363.22 15067.1,1365.83 15062.1,1368.04C14782.2,1492.03 14753.5,1568.7 14397.7,1653.99C14731.3,1581.29 14996.4,1554.45 15311,1560.23C15341,1560.81 15367.1,1539.82 15373,1510.4C15373,1510.4 15373,1510.4 15373,1510.4Z" style="fill:rgb(181,126,67);"/>
                </g>
                <g transform="matrix(0.0248528,0.303718,0.0849493,-0.0888559,5515.06,-4875.04)">
                    <path d="M14969.5,2879.08C14963.4,2851.61 14904.2,2756.74 14836.7,2681.49C14787.1,2626.25 14733,2581.59 14692.2,2581.95C14692.2,2581.95 14727.4,2665.11 14738.6,2691.45C14740.8,2696.6 14744.4,2700.98 14749.1,2704.03C14769.8,2717.45 14828.8,2755.73 14842.2,2764.42C14844.1,2765.66 14845.8,2767.12 14847.4,2768.78C14877.6,2802.06 14911.1,2881.12 14969.5,2879.08Z" style="fill:rgb(255,247,238);"/>
                </g>
                <g transform="matrix(-0.0131598,-0.051406,0.0112468,-0.0377716,6390.82,657.638)">
                    <path d="M25026,2610.47C25024.2,2450.56 24962.7,2302.11 24860.1,2210.04C24370.3,1768.82 23910.6,1677.13 23445.3,2173.01C23167.7,2468.91 23191.8,2457.34 23415.6,2836.11C23446.5,2888.48 23479.5,2938.84 23514.4,2987C23678.2,3213.36 23853.2,3428.76 24028,3440.22C24208.1,3452.02 24508.2,3320.23 24863,3008.14C24966.3,2917.66 25027.3,2768.27 25025.6,2610.49C25026,2610.47 25026,2610.47 25026,2610.47Z" style="fill:rgb(244,219,191);"/>
                </g>
                <g transform="matrix(-0.0131598,-0.051406,0.0112468,-0.0377716,6388.81,642.334)">
                    <path d="M25016.1,2715.89C25020.8,2490.56 24939.4,2277.54 24797.4,2143.41C24337,1708.97 23917.1,1493.74 23472.2,1967.94C23258.8,2195.29 23209.5,2349.69 23298.4,2589.68C23367.2,2775.11 23480.1,2928.22 23621.6,3027.85C23967,3270.97 24313.5,3410.18 24698.5,3251.84C24883.3,3175.93 25011,2960.5 25016.1,2715.9C25016.1,2715.9 25016.1,2715.9 25016.1,2715.89Z" style="fill:rgb(255,233,209);"/>
                </g>
                <g transform="matrix(0.0228849,0.279668,0.0777869,-0.0813642,5545.9,-4604.68)">
                    <path d="M14974.9,2744.51C14888.2,2606.23 14796,2643.51 14676.9,2651.49C14676.9,2651.49 14752.1,2659.77 14771,2661.85C14773.9,2662.17 14776.7,2662.89 14779.3,2663.99C14795.6,2670.75 14857,2696.22 14876.1,2704.18C14880,2705.77 14883.4,2708.13 14886.3,2711.11C14913.1,2738.91 14917.9,2746.5 14974.9,2744.51Z" style="fill:rgb(255,247,238);"/>
                </g>
                <g transform="matrix(0.0368712,-0.0970408,0.0195707,0.111893,5195.36,1387.1)">
                    <path d="M24790.3,1607.29C24686.6,1345.2 24481.7,1161.47 24253.1,1125.61C24194.9,1116.54 24140,1107.81 24090.3,1085.68C23918.9,1009.27 23785.7,971.598 23692.9,1026.14C23603.4,1078.81 23562.5,1379.22 23471.7,1477.88C23422.2,1531.68 23457,1597.52 23434.1,1660.7C23413.7,1717.01 23400.8,1777.61 23395.8,1840.31C23373.1,2124.91 23382.2,2220.43 23588.2,2412.31C23636.7,2457.57 23680.6,2510.11 23718.9,2568.58C23819.7,2722.21 23966,2653.29 23983.8,3103.79C23990.2,3267.3 24072.9,3234.13 23988.9,3553.92C23959.2,3666.84 24023.9,3906.25 24119.6,3883.04C24198.9,3863.8 24438.5,3373.03 24733.1,3272.27C24836.3,3236.97 24999.1,3121.66 24983.2,3054.64C24953.9,2930.52 24860.4,2849.15 24835.3,2712.76C24834.8,2710.03 24834.2,2707.31 24833.6,2704.6C24780.8,2455.7 24811.2,2254.71 24837.4,2009.58C24857.3,1823.32 24829.6,1706.68 24790.3,1607.29Z" style="fill:rgb(255,238,219);"/>
                </g>
                <g transform="matrix(0.0368712,-0.0970408,0.0195707,0.111893,5196.33,1387.86)">
                    <path d="M23696.2,2417.76C23674,2369.75 23646.7,2325.26 23615.3,2285.54C23177.3,1732.31 23904.5,1174.03 23407,1704.21C23372.9,2105.25 23348,2214.51 23580,2413.79C23633,2459.22 23681.1,2513.13 23723,2573.98C23799.3,2684.96 23906.1,2694.97 23960.1,2850.97C23981.2,2911.87 23978.9,2978.44 23983.8,3103.79C23990.2,3267.3 24068.4,3230.04 23984.4,3549.82C23954.8,3662.74 24029,3920.65 24123.2,3892.06C24197.2,3869.59 23930.6,3794.25 24077.9,3471.22C24171.4,3266.11 23965.3,2990.96 24082.8,2811.62C24093.7,2794.84 24099,2773.18 24097.5,2750.76C24087.6,2595.62 23847.8,2757.27 23780.9,2548.42C23727.8,2382.73 23729.8,2490.38 23696.2,2417.76Z" style="fill:rgb(244,219,191);"/>
                </g>
                <g transform="matrix(0.024403,0.0284235,-0.00702781,0.0637332,5531.77,-1648.71)">
                    <path d="M25192,1709.56C25181.6,1698.77 25171.1,1688.14 25160.6,1677.7C24857.3,1376.06 24466.7,1304.14 24135.2,1488.94C23803.8,1673.74 23581.7,2087.3 23552.2,2574.44C23552.3,2574.46 23552.3,2574.46 23552.3,2574.46C23519.8,3116.31 23779.1,3636.9 24172.1,3818.35C24173,3818.17 24173.9,3818.56 24174.7,3818.97C24402.4,3930.72 25027.5,4501.57 25093.3,4479.51C25167.2,4454.71 25069.6,3677.48 25130.7,3164.99C25144.5,3048.85 25478.3,3410.4 25673,3572.61C25692.8,3588.89 25717.5,3585.84 25733,3565.18C25748.6,3544.52 25751.1,3511.51 25739.1,3484.93C25595.7,3178.23 25273.9,2585.74 24881.3,2134.23C24769,2005.04 26217.1,2359.57 25192,1709.56Z" style="fill:rgb(244,219,191);"/>
                </g>
                <g transform="matrix(0.024403,0.0284235,-0.00702781,0.0637332,5530.59,-1655.28)">
                    <path d="M24820.6,1980.86C24835,1863.52 24808.8,1740.54 24749.2,1645.86C24689.7,1551.18 24603.1,1494.84 24513.4,1492.38C24359.1,1488.05 24241.8,1633.3 24103.8,1832.72C23902.5,2123.76 23907.3,2585.18 24114.9,2901.79C24127.6,2920.82 24137.1,2941.64 24143.4,2966.45C24205.4,3210.59 24313.4,3432.43 24456.4,3609.71C24522.8,3693.67 24580.2,3740.53 24638.4,3721.01C24711.1,3696.62 24657.9,3605.8 24719.2,3402.43C24781.9,3194.09 24809.4,2967.3 24799.9,2737.58C24789.5,2493.74 24789,2237.31 24820.6,1980.86Z" style="fill:rgb(252,226,198);"/>
                </g>
                <g transform="matrix(0.0644135,-0.133085,0.0372236,0.230297,5062.97,814.74)">
                    <path d="M15425.6,1479.2C15425.6,1411.65 15389.2,1349.34 15330.4,1316.15C15271.5,1282.96 15199.4,1284.03 15141.6,1318.96C15123.1,1330.16 15102.5,1343.17 15079.5,1358.26C15072.9,1362.55 15066.1,1366.45 15059.1,1369.94C14778.5,1509.59 14745.3,1603.32 14397.7,1653.99C14668.6,1781.15 14980,1762.22 15316.2,1636.64C15381.9,1612.18 15425.6,1549.39 15425.6,1479.2C15425.6,1479.2 15425.6,1479.2 15425.6,1479.2Z" style="fill:rgb(181,126,67);"/>
                </g>
                <g transform="matrix(0.0644135,-0.133085,0.0372236,0.230297,5060.5,781.698)">
                    <path d="M15425.6,1459.59C15425.6,1396.5 15391.8,1338.24 15337.1,1306.85C15282.4,1275.46 15215.1,1275.75 15160.6,1307.6C15140.1,1319.6 15116.8,1334.07 15089.8,1351.5C15076.7,1360.03 15064.6,1370.09 15053.8,1381.47C14837.8,1609.01 14779,1664.76 14397.7,1653.99C14682.4,1676.68 14986.2,1647.45 15293.3,1609.28C15368.8,1599.94 15425.6,1535.74 15425.6,1459.59C15425.6,1459.59 15425.6,1459.59 15425.6,1459.59Z" style="fill:rgb(200,134,64);"/>
                </g>
                <g transform="matrix(-0.0191484,0.0130141,0.00268511,0.0543268,6601.21,-1281.11)">
                    <path d="M25061.8,2634.86C25038.6,2474.64 24977.7,2327.57 24887,2212.81C24497.1,1723.47 24592.7,1410.83 24124.2,1910.16C23894.5,2154.97 23748.9,2392 23821.5,2698.85C23868.5,2898.92 23889.9,3107.56 23885,3316.97C23882.9,3368.12 23913.5,3401.19 24028,3440.22C24167.3,3487.73 24485.7,3363.18 24859.3,3133.96C25008,3043.41 25091.1,2838.51 25061.6,2634.91C25061.8,2634.86 25061.8,2634.86 25061.8,2634.86Z" style="fill:rgb(244,219,191);"/>
                </g>
                <g transform="matrix(-0.0191484,0.0130141,0.00268511,0.0543268,6601.77,-1292.99)">
                    <path d="M25026,2610.25C25024.4,2464.59 24977.8,2326.22 24896.3,2224.48C24495.6,1728.48 24596.5,1406.88 24124.2,1910.16C23885.9,2164.12 23738.2,2409.7 23830.5,2733.55C23888.7,2937.1 23919.8,3151.81 23922.6,3369.05C23922.2,3416.02 23945,3440.27 24028,3440.22C24717.7,3439.74 24691.6,3302.81 24907.1,3003.94C24985.1,2896.18 25027.6,2755.23 25026,2610.26C25026,2610.25 25026,2610.25 25026,2610.25Z" style="fill:rgb(255,233,209);"/>
                </g>
                <g transform="matrix(-0.0599038,-0.157728,0.0441161,-0.214173,6942.07,1782.75)">
                    <path d="M15115.2,1149.38C14972.1,1189.55 15335.8,1182.49 15080.8,1357.23C15074.1,1361.79 15067.2,1365.95 15060,1369.67C14791.8,1508.64 14927.7,1479.23 14556,1510.75C14784.5,1592.86 14930.4,1648.83 15128.8,1641.06C15208.8,1638.17 15279.2,1587.57 15307.4,1512.69C15335.7,1437.82 15316.2,1353.31 15258.1,1298.31C15199.2,1242.45 15142.1,1190.06 15115.2,1149.38Z" style="fill:rgb(181,126,67);"/>
                </g>
                <g transform="matrix(-0.0338224,-0.068873,0.0189905,-0.11921,6589.96,428.439)">
                    <path d="M13913.1,2327.65C13873.8,2324.91 13834.5,2332.17 13798.7,2348.77C13798.6,2348.74 13798.6,2348.74 13798.6,2348.74C13744.8,2373.68 13705.3,2422.36 13691.6,2480.73C13677.8,2539.1 13691.3,2600.64 13728.1,2647.59C13920.9,2893.89 14368.7,2930.29 14636.8,3038.17C14733.2,3077.09 14840.9,3075.31 14936,3033.23C14936.1,3033.28 14936.1,3033.28 14936.1,3033.28C14752.6,2769.93 14525.2,2632.36 14136.7,2348.99C14096.4,2319.63 13986.9,2332.86 13913.1,2327.65Z" style="fill:rgb(255,233,209);"/>
                </g>
                <g>
                    <g transform="matrix(-0.0415052,0.218003,0.0609751,0.148393,6602.86,-4558.62)">
                        <path d="M14878.7,2496.3L14844.7,2573.49L14834.7,2641.42C14834.7,2641.42 14834.7,2641.42 14834.7,2641.42C14861.1,2640.62 14881.8,2618.63 14881,2592.28C14880.9,2590.86 14880.8,2589.45 14880.9,2588.07C14882,2556 14888.3,2527.39 14878.7,2496.3Z" style="fill:rgb(244,219,191);"/>
                    </g>
                    <g transform="matrix(-0.0415052,0.218003,0.0609751,0.148393,6594.18,-4532.21)">
                        <path d="M14659.9,2421.22C14656.5,2405.51 14646.7,2391.9 14633,2383.54C14619.3,2375.18 14602.7,2372.81 14587.2,2376.98C14549.5,2387.1 14512.2,2411.43 14475.2,2449.5C14452.3,2472.97 14449,2509.3 14467.3,2536.51C14505.9,2594.2 14547.9,2646.56 14598.6,2684.9C14609.8,2693.39 14623.8,2697.44 14637.8,2696.26C14637.8,2696.26 14637.8,2696.26 14637.8,2696.26C14679.6,2692.73 14714,2661.95 14722.1,2620.82C14722.8,2617.39 14724.1,2613.89 14726.2,2610.26C14753.3,2563.15 14726.2,2501.52 14668.5,2460.37C14668.5,2460.37 14664.3,2441.42 14659.9,2421.22Z" style="fill:rgb(255,238,219);"/>
                    </g>
                    <g transform="matrix(-0.0415052,0.218003,0.0609751,0.148393,6601.04,-4570.62)">
                        <path d="M14842.3,2692.58C14757.7,2668.07 14776.9,2647.04 14702.3,2616.82C14702.3,2616.82 14752.5,2677.01 14761.8,2688.08C14762.7,2689.24 14763.6,2690.46 14764.4,2691.74C14795.4,2741.03 14825.6,2775.46 14855.9,2809.93C14863.8,2768.13 14838.2,2715.59 14842.3,2692.58Z" style="fill:rgb(244,219,191);"/>
                    </g>
                </g>
                <g transform="matrix(0.0391246,1.17007,0.141878,-0.0606422,5963.93,-8377.27)">
                    <g>
                        <g>
                            <g transform="matrix(0.0951289,-0.425557,-0.148582,-0.218437,6206.44,2724.9)">
                                <path d="M6102.32,2477.05C6101.19,2472.24 6098.39,2468.38 6094.57,2466.36C6090.74,2464.34 6086.24,2464.34 6082.1,2466.37C6036.4,2488.7 5920.6,2508.55 5869.49,2478.06C5864.3,2474.84 5857.87,2474.95 5852.24,2478.36C5846.62,2481.76 5842.51,2488.04 5841.22,2495.18C5815.55,2633.46 5825.37,2645.65 5853.18,2816.32C5854.63,2825.18 5855.43,2834.24 5855.59,2843.4C5856.08,2902.19 5853.19,3013.72 5895.94,3004.75C5948,2993.81 5998.85,2968 6030.08,2973.97C6035.16,2974.99 6040.58,2973.01 6044.62,2968.64C6048.66,2964.27 6050.84,2958.05 6050.47,2951.94C6040.17,2788.39 6126.14,2582.68 6102.32,2477.05Z" style="fill:rgb(37,48,80);"/>
                            </g>
                            <g transform="matrix(0.0549084,-0.466687,-0.167664,-0.10496,6279.4,5257.7)">
                                <path d="M11448.9,3431.73C11430.7,3438.09 11411.4,3427.06 11404,3406.02C11391.7,3371.09 11380.6,3335.38 11361.6,3303.23C11330.8,3251.03 11308.6,3196.45 11292.8,3139.36C11292,3136.65 11289.6,3135.15 11287.4,3135.97C11285.1,3136.8 11283.8,3139.65 11284.4,3142.4C11297.2,3199.07 11318.1,3251.08 11353,3316.62C11353,3316.62 11379.9,3398.72 11396.1,3447.99C11398.9,3456.53 11404.8,3463.04 11412.1,3465.67C11419.4,3468.3 11427.3,3466.74 11433.5,3461.46C11452.5,3445.67 11474.4,3429.81 11500.2,3413.82C11500.2,3413.82 11472.2,3423.58 11448.9,3431.73Z" style="fill:rgb(69,73,83);"/>
                            </g>
                            <g transform="matrix(0.0528925,-0.193989,-0.138333,-0.259865,6175.32,2748.54)">
                                <path d="M11857.7,3185.67C11858.6,3182.13 11863.6,3179.06 11869.9,3178.12C11876.2,3177.17 11882.3,3178.59 11885,3181.59C11906.5,3205.56 11938.5,3241.31 11948.2,3252.24C11950.1,3254.33 11950,3256.89 11948,3259.2C11938.2,3270.62 11907.5,3306.28 11886.5,3330.63C11883.7,3333.92 11877.5,3336.06 11871.3,3335.91C11865.1,3335.76 11860.3,3333.36 11859.4,3329.98C11852.5,3303.18 11842.2,3263.19 11840.4,3256.1C11840.2,3255.37 11840.2,3254.62 11840.4,3253.87C11842.1,3247.09 11851.2,3211.33 11857.7,3185.67Z" style="fill:rgb(69,73,83);"/>
                            </g>
                            <g transform="matrix(0.0432053,-0.15846,-0.138333,-0.259865,6287.98,2333.06)">
                                <path d="M11892.1,3183.57C11894.6,3180.08 11901.6,3177.42 11909.4,3176.95C11917.3,3176.47 11924.3,3178.27 11927,3181.45C11947.2,3205 11978.2,3241.19 11987.1,3251.6C11988.7,3253.46 11988.7,3255.61 11987,3257.63C11978,3268.21 11948.3,3303.22 11928.3,3326.87C11925.4,3330.32 11918.2,3332.81 11910.4,3333.11C11902.5,3333.41 11895.7,3331.45 11893.4,3328.21C11875.9,3304.22 11849.1,3267.43 11841.9,3257.53C11840.7,3255.89 11840.8,3254.05 11842.1,3252.29C11849.3,3242.36 11874.7,3207.4 11892.1,3183.57Z" style="fill:rgb(49,113,139);"/>
                            </g>
                            <g transform="matrix(0.0549084,-0.466687,-0.167664,-0.10496,6252.49,5431.56)">
                                <path d="M11737.7,3191.17C11737.6,3190.07 11738,3188.98 11738.8,3188.47C11739.7,3187.96 11740.7,3188.17 11741.3,3188.97C11751.8,3202.11 11776.3,3232.92 11784,3242.64C11784.6,3243.27 11784.8,3244.18 11784.6,3245.03C11784.4,3245.88 11783.8,3246.55 11783.1,3246.81C11773.8,3250.14 11748,3259.41 11748,3259.41C11748,3259.41 11740.7,3210.92 11737.7,3191.17Z" style="fill:rgb(33,186,248);"/>
                            </g>
                            <g transform="matrix(0.0549084,-0.466687,-0.167664,-0.10496,6249.69,5442.58)">
                                <path d="M11760.4,3188.94C11760.4,3188.76 11760.5,3188.6 11760.7,3188.57C11760.8,3188.55 11760.9,3188.66 11761,3188.84C11763.4,3203.2 11769.3,3237.92 11771.2,3248.91C11771.4,3249.7 11771.2,3250.52 11770.7,3251.12C11770.3,3251.72 11769.6,3252.02 11768.9,3251.93C11768.4,3251.85 11767.8,3251.77 11767.2,3251.7C11766.2,3251.57 11765.5,3250.63 11765.4,3249.44C11764.6,3240.42 11761.6,3203.88 11760.4,3188.94Z" style="fill:rgb(33,186,248);"/>
                            </g>
                            <g transform="matrix(-0.0549084,0.466687,0.167664,0.10496,6451.8,-6227.35)">
                                <path d="M11737.5,3191.54C11737.4,3191.39 11737.4,3191.18 11737.5,3191.07C11737.7,3190.96 11737.8,3190.98 11737.9,3191.12C11747.4,3205.03 11766.4,3232.77 11773.6,3243.2C11774.1,3243.95 11774.2,3244.98 11773.9,3245.86C11773.5,3246.74 11772.8,3247.3 11772,3247.3C11772,3247.3 11772,3247.3 11772,3247.3C11771.3,3247.3 11770.7,3246.92 11770.4,3246.29C11766.7,3240.15 11747,3207.38 11737.5,3191.54Z" style="fill:rgb(33,186,248);"/>
                            </g>
                            <g transform="matrix(-0.0549084,0.466687,0.167664,0.10496,6453.65,-6235.4)">
                                <path d="M11744.9,3181.34C11744.9,3180.22 11745.4,3179.18 11746.3,3178.79C11747.2,3178.41 11748.2,3178.78 11748.7,3179.7C11758,3195.29 11779.6,3231.64 11785.9,3242.25C11786.3,3242.92 11786.4,3243.79 11786.2,3244.57C11786,3245.35 11785.4,3245.94 11784.8,3246.16C11777.5,3248.54 11758.5,3254.73 11751.7,3256.94C11751.1,3257.14 11750.4,3257 11749.9,3256.56C11749.4,3256.12 11749.1,3255.43 11749.1,3254.68C11748.4,3242.86 11746,3200.04 11744.9,3181.34Z" style="fill:rgb(33,186,248);"/>
                            </g>
                        </g>
                    </g>
                </g>
                <g transform="matrix(0.0289404,-0.0777514,0.0247681,0.117845,5673.02,-37.7146)">
                    <path d="M14127.6,2307.46C13969.7,2239.56 13779.4,2275.11 13666.7,2393.57C13666.6,2393.52 13666.6,2393.52 13666.6,2393.52C13648.7,2412.39 13641.6,2437.46 13647.4,2461.51C13727,2794.46 13817.7,2608.57 14342.4,2944.84C14367.1,2960.68 14392.6,2975.58 14418.9,2989.49C14516.9,3041.35 14469.4,3137.46 14652.5,3128.63C14807.2,3081.74 14904.6,2987.83 14804.2,2863.55C14789.4,2845.29 14744.8,2777.67 14766.3,2790.49C14843,2836.28 14822.7,2793.44 14773.3,2735.25C14477,2385.86 14275.3,2370.39 14127.6,2307.46Z" style="fill:rgb(244,219,191);"/>
                </g>
                <g transform="matrix(0.0289404,-0.0777514,0.0247681,0.117845,5670.12,-35.4992)">
                    <path d="M14150.4,2194.59C14023.9,2144.69 13875,2174.79 13786,2268.25C13785.9,2268.17 13785.9,2268.17 13785.9,2268.17C13720.6,2336.82 13692.4,2426.97 13708.6,2515.3C13724.8,2603.62 13783.8,2681.44 13870.4,2728.61C14052,2827.47 14301.8,2863.66 14492.3,2975.93C14567.6,3020.24 14654.7,3046.53 14745.1,3052.23C14745.1,3052.32 14745.1,3052.32 14745.1,3052.32C14745.1,3052.32 14745.1,3052.32 14745.1,3052.32C14807.7,3056.27 14866.3,3024.89 14891.1,2974.18C14915.8,2923.47 14901.1,2864.58 14854.6,2827.5C14822.2,2801.82 14796.2,2777.02 14781.5,2753.31C14545.2,2371.33 14433.8,2302.64 14150.4,2194.59Z" style="fill:rgb(255,238,219);"/>
                </g>
                <g transform="matrix(0.0707592,-0.190102,0.0531712,0.252984,4957.85,1264.14)">
                    <path d="M14969.5,2879.08C14963.4,2851.61 14904.2,2756.74 14836.7,2681.49C14787.1,2626.25 14733,2581.59 14692.2,2581.95C14692.2,2581.95 14727.4,2665.11 14738.6,2691.45C14740.8,2696.6 14744.4,2700.98 14749.1,2704.03C14769.8,2717.45 14828.8,2755.73 14842.2,2764.42C14844.1,2765.66 14845.8,2767.12 14847.4,2768.78C14877.6,2802.06 14911.1,2881.12 14969.5,2879.08Z" style="fill:rgb(255,247,238);"/>
                </g>
                <g transform="matrix(-0.0191484,0.0130141,0.00268511,0.0543268,6585.71,-1293.48)">
                    <path d="M25026,2610.47C25024.2,2450.56 24962.7,2302.11 24860.1,2210.04C24370.3,1768.82 23910.6,1677.13 23445.3,2173.01C23167.7,2468.91 23191.8,2457.34 23415.6,2836.11C23446.5,2888.48 23479.5,2938.84 23514.4,2987C23678.2,3213.36 23853.2,3428.76 24028,3440.22C24208.1,3452.02 24508.2,3320.23 24863,3008.14C24966.3,2917.66 25027.3,2768.27 25025.6,2610.49C25026,2610.47 25026,2610.47 25026,2610.47Z" style="fill:rgb(244,219,191);"/>
                </g>
                <g transform="matrix(-0.0191484,0.0130141,0.00268511,0.0543268,6581.53,-1285.53)">
                    <path d="M25026,2610.27C25024.3,2454.07 24966.8,2308.11 24869.6,2213.01C24380.6,1733.24 23940.3,1469.07 23472.2,1967.94C23258.2,2195.98 23209.2,2350.63 23299.2,2591.88C23374.8,2794.18 23505,2955.26 23666.7,3046.61C24039.2,3257.58 24422.8,3256.11 24846,2984.76C24957.8,2913.33 25027.8,2767.59 25026,2610.28C25026,2610.28 25026,2610.28 25026,2610.27Z" style="fill:rgb(255,233,209);"/>
                </g>
                <g transform="matrix(0.0651563,-0.175049,0.0486881,0.231654,5027.82,1113.59)">
                    <path d="M14974.9,2744.51C14888.2,2606.23 14796,2643.51 14676.9,2651.49C14676.9,2651.49 14752.1,2659.77 14771,2661.85C14773.9,2662.17 14776.7,2662.89 14779.3,2663.99C14795.6,2670.75 14857,2696.22 14876.1,2704.18C14880,2705.77 14883.4,2708.13 14886.3,2711.11C14913.1,2738.91 14917.9,2746.5 14974.9,2744.51Z" style="fill:rgb(255,247,238);"/>
                </g>
                <g transform="matrix(0.00187771,-0.2659,0.0743718,0.00671334,5987.11,3140.7)">
                    <path d="M15450.3,1229.02C15305.2,1269.76 15346.2,1182.28 15069.6,1364.73C14825.1,1340.08 15159.3,1284.21 14933.7,1531.2C14902.5,1565.34 14865.4,1618.29 14751.1,1666.32C14919.6,1657.45 14972.4,1583.65 15142.8,1499.04C15147.5,1496.74 15152,1494.25 15156.5,1491.6C15172,1482.47 15207.1,1462.24 15212.7,1459.57C15305.7,1415.26 15405,1327.7 15450.3,1229.02Z" style="fill:rgb(200,134,64);"/>
                </g>
                <g transform="matrix(0.0166517,-0.259237,0.0725081,0.0595344,5761.38,2962.5)">
                    <path d="M15325.5,1214.82C15336.1,1216.17 15343.7,1225.83 15342.4,1236.45C15341.1,1247.08 15331.5,1254.7 15320.9,1253.53C15282.9,1249.24 15244.8,1251.55 15094.7,1348.39C15075.1,1361.02 15057.8,1376.99 15043.8,1395.59C14948.8,1520.89 15062.3,1540.65 14749.3,1673.55C14940.1,1677.66 15112,1532.06 15232.8,1365.94C15249.6,1342.87 15261.3,1316.44 15266.9,1288.45C15279.7,1225.33 15301,1211.38 15325.5,1214.82Z" style="fill:rgb(200,134,64);"/>
                </g>
                <g transform="matrix(-0.0342722,0.01118,-0.00312701,-0.122533,7164.67,396.059)">
                    <path d="M22758.5,10766.3C22775.1,10712.3 22761.7,10653.5 22723.2,10612.2C22684.7,10570.8 22627.1,10553.1 22572,10565.8C22249.2,10646.2 22218.9,10600.3 21872,10615.6C21808.2,10618 21748.5,10647.5 21707.9,10696.8C21667.3,10746.1 21649.8,10810.4 21659.8,10873.4C21674.3,10966.5 21732.7,10996.4 21769,11195.2C21774.7,11225.4 21778,11255.9 21779.1,11286.6C21805.5,12007.5 21792.2,11953 21231.1,13074C22029.3,12224.3 22197.7,12225 22371.5,11895.4C22471.6,11705.8 22560.9,11409.6 22758.5,10766.3Z" style="fill:rgb(56,89,126);"/>
                </g>
                <g transform="matrix(0.0166517,-0.259237,0.0725081,0.0595344,5758.65,2947.58)">
                    <path d="M15227.2,1426.12C15253.4,1402.42 15257.3,1362.71 15236.3,1334.35C15215.2,1305.98 15176.1,1298.22 15145.8,1316.41C15130.3,1325.73 15113.3,1336.36 15094.5,1348.47C15075.1,1360.97 15058.1,1376.76 15044.1,1395.13C14948.9,1519.87 15064.4,1533.3 14751.1,1666.32C14951.7,1671.14 15073.6,1592.95 15223.8,1429.46C15224.9,1428.3 15226,1427.18 15227.2,1426.12C15227.2,1426.12 15227.2,1426.12 15227.2,1426.12Z" style="fill:rgb(200,134,64);"/>
                </g>
                <g transform="matrix(-0.0342722,0.01118,-0.00312701,-0.122533,7163.56,397.442)">
                    <path d="M22854.4,10600.3C22872.6,10543.3 22857.2,10481 22814.5,10439.1C22771.9,10397.3 22709.2,10383.1 22652.7,10402.5C22322.8,10514.9 22232.9,10567.9 21879.8,10608.8C21745.4,10625.5 21644.1,10739.2 21642.9,10874.6C21641.9,10958.7 21676.1,10992.4 21735.6,11138.8C21764.6,11210 21780.1,11285.9 21781.3,11362.8C21792.9,11998.5 21673.9,12146.1 21178.6,13128.5C21174.7,13136.4 21177.1,13145.9 21184.2,13151C21191.4,13156.1 21201.2,13155.2 21207.3,13148.9C21942,12375.3 22203.9,12213.3 22371.5,11895.4C22471.2,11706.6 22639.2,11272 22854.4,10600.3Z" style="fill:rgb(75,115,161);"/>
                </g>
                <g transform="matrix(0.0864761,-0.0975836,0.0237375,0.26889,4598.77,461.696)">
                    <path d="M19751.3,3056.67C19751.3,3032.47 19742.9,3009.27 19728,2992.22C19713,2975.16 19692.8,2965.67 19671.8,2965.83C19570.4,2966.63 19408.2,2967.91 19408.2,2967.91L19408.8,3148.2C19408.8,3148.2 19570.5,3148.2 19671.7,3148.2C19692.8,3148.2 19713,3138.56 19728,3121.39C19742.9,3104.23 19751.3,3080.95 19751.3,3056.67C19751.3,3056.67 19751.3,3056.67 19751.3,3056.67Z" style="fill:rgb(56,89,126);"/>
                </g>
                <g transform="matrix(0.0835937,-0.0943309,0.0189036,0.214134,4668.63,560.297)">
                    <path d="M19751.3,3056.76C19751.3,3032.53 19744.4,3009.29 19732.1,2992.2C19719.7,2975.12 19703.1,2965.59 19685.7,2965.72C19586.1,2966.51 19408.2,2967.91 19408.2,2967.91L19408.8,3148.2C19408.8,3148.2 19586.3,3148.2 19685.8,3148.2C19703.2,3148.2 19719.8,3138.57 19732.1,3121.42C19744.4,3104.27 19751.3,3081.01 19751.3,3056.76C19751.3,3056.76 19751.3,3056.76 19751.3,3056.76Z" style="fill:rgb(58,103,154);"/>
                </g>
                <g transform="matrix(-0.136659,-0.441449,0.0535057,-0.268675,8121.7,6994)">
                    <path d="M15853.9,2707.82C15853.9,2707.82 15753.8,2702.98 15733,2701.98C15730.3,2701.85 15727.5,2702.64 15724.8,2704.34C15688,2727.61 15679.6,2775.12 15600.4,2834.77C15675.9,2816.01 15691.5,2747.42 15733.1,2728.03C15734.3,2727.48 15735.6,2727.11 15736.8,2726.91C15750.9,2724.58 15853.9,2707.82 15853.9,2707.82Z" style="fill:rgb(244,219,191);"/>
                </g>
                <g transform="matrix(0.0591547,-0.161301,0.0451156,0.211495,5121.36,1235.58)">
                    <path d="M15389.6,1449.24C15384.8,1429.96 15368,1416.06 15348.2,1414.9C15253.1,1409.23 15319.5,1207.19 15086.3,1354C15074.8,1361.21 15062.6,1367.23 15049.9,1371.96C14818,1458.3 14800.7,1517.24 14397.7,1653.99C14694,1555.4 14987.5,1551.91 15280.3,1577.58C15313.6,1580.46 15346.3,1567.04 15368,1541.57C15389.7,1516.09 15397.7,1481.7 15389.6,1449.25C15389.6,1449.24 15389.6,1449.24 15389.6,1449.24Z" style="fill:rgb(181,126,67);"/>
                </g>
                <g transform="matrix(0.0551657,-0.178458,0.0499144,0.197233,5167.66,1608.58)">
                    <path d="M15730.5,1436.01C15728.5,1434.78 15726.2,1434.16 15723.8,1434.22C15717.8,1434.36 15705.7,1434.63 15698.7,1434.79C15695.4,1434.87 15692.2,1436.32 15689.9,1438.82C15685.1,1444.03 15676.3,1453.66 15668.1,1462.68C15666.9,1463.96 15666.9,1465.91 15668,1467.25C15669.1,1468.6 15671,1468.93 15672.5,1468.04C15716.9,1439.92 15722.8,1448.85 15775.9,1466.74C15776.6,1466.96 15777.3,1466.64 15777.6,1466C15777.9,1465.36 15777.7,1464.6 15777.1,1464.24C15763.1,1455.79 15739,1441.17 15730.5,1436.01Z" style="fill:rgb(181,126,67);"/>
                </g>
                <g transform="matrix(-0.0690728,0.0987999,0.0262912,0.234953,7145.3,-2785.66)">
                    <path d="M15730.4,1435.95C15728.4,1434.76 15726.2,1434.16 15724,1434.21C15718,1434.35 15705.6,1434.63 15698.6,1434.8C15695.3,1434.87 15692.2,1436.31 15689.9,1438.79C15685.3,1443.86 15676.8,1453.14 15668.8,1461.97C15667.6,1463.29 15667.5,1465.33 15668.5,1466.77C15669.6,1468.21 15671.5,1468.61 15673,1467.71C15716.8,1440.07 15723,1448.87 15775.4,1466.58C15776.1,1466.81 15776.8,1466.46 15777.1,1465.78C15777.4,1465.1 15777.2,1464.31 15776.6,1463.93C15762.5,1455.41 15738.7,1441 15730.4,1435.95Z" style="fill:rgb(181,126,67);"/>
                </g>
                <g transform="matrix(0.0388846,-0.226761,0.0338759,0.0742542,5456.34,2451.3)">
                    <path d="M15407.4,1152.32C15387.8,1132.68 15365.5,1124.12 15343.4,1127.68C15261.6,1141.79 15260.9,1118.84 15040.3,1263.46C15029.7,1270.36 15018.9,1275.58 15007.9,1279.07C14778.8,1352.05 14851.4,1131.29 14440.4,1055.66C14596.8,1151.26 14787.9,1380.49 14929.8,1466.67C15025.7,1524.88 15135.1,1517.35 15263.2,1529.16C15310.7,1533.51 15356.6,1495.09 15386.5,1425.76C15416.4,1356.42 15426.9,1264.5 15414.7,1178.34C15411.6,1156.7 15409.6,1154.52 15407.4,1152.32Z" style="fill:rgb(200,134,64);"/>
                </g>
                <g transform="matrix(0.00416116,-0.265569,-0.0396734,-0.00794618,6092.65,3190.68)">
                    <path d="M15407.4,1152.32C15387.8,1132.68 15365.5,1124.12 15343.4,1127.68C15261.6,1141.79 15260.9,1118.84 15040.3,1263.46C15029.7,1270.36 15018.9,1275.58 15007.9,1279.07C14778.8,1352.05 14851.4,1131.29 14440.4,1055.66C14596.8,1151.26 14787.9,1380.49 14929.8,1466.67C15025.7,1524.88 15135.1,1517.35 15263.2,1529.16C15310.7,1533.51 15356.6,1495.09 15386.5,1425.76C15416.4,1356.42 15426.9,1264.5 15414.7,1178.34C15411.6,1156.7 15409.6,1154.52 15407.4,1152.32Z" style="fill:rgb(181,126,67);"/>
                </g>
                <g transform="matrix(0.0388846,-0.226761,0.0338759,0.0742542,5443.97,2465.89)">
                    <path d="M15408.2,1151.26C15382.2,1133.79 15354.5,1126.68 15326.9,1130.4C15260.3,1139.36 15245.1,1129.2 15040.3,1263.46C15029.7,1270.36 15018.9,1275.58 15007.9,1279.07C14778.8,1352.05 14851.4,1131.29 14440.4,1055.66C14596.8,1151.26 14796.9,1367.2 14929.8,1466.67C15026.9,1539.33 15143,1527.38 15277.8,1534.81C15325.2,1537.42 15370.2,1496.34 15398.3,1424.89C15426.4,1353.43 15434,1260.7 15418.6,1176.79C15414.4,1153.85 15411.3,1153.34 15408.2,1151.26Z" style="fill:rgb(181,126,67);"/>
                </g>
                <g transform="matrix(0.0557896,-0.175961,0.0262869,0.106536,5201.25,1632.36)">
                    <path d="M15408.2,1151.26C15382.2,1133.79 15354.5,1126.68 15326.9,1130.4C15260.3,1139.36 15245.1,1129.2 15040.3,1263.46C15029.7,1270.36 15018.9,1275.58 15007.9,1279.07C14778.8,1352.05 14851.4,1131.29 14440.4,1055.66C14596.8,1151.26 14796.9,1367.2 14929.8,1466.67C15026.9,1539.33 15143,1527.38 15277.8,1534.81C15325.2,1537.42 15370.2,1496.34 15398.3,1424.89C15426.4,1353.43 15434,1260.7 15418.6,1176.79C15414.4,1153.85 15411.3,1153.34 15408.2,1151.26Z" style="fill:rgb(181,126,67);"/>
                </g>
                <g transform="matrix(0.0681589,-0.106604,0.0298171,0.243688,5002.04,355.802)">
                    <path d="M15429.2,1590.14C15481.5,1556.9 15508.4,1495.36 15497.5,1434.38C15486.6,1373.4 15439.8,1325.09 15379.3,1312.11C15299.7,1295.2 15208.1,1301.72 15108.2,1364.59C15105.8,1366.11 15103.4,1367.58 15100.9,1368.99C14820.4,1529.92 14783.9,1645.51 14423.4,1717.55C14792,1771.23 15132.2,1718.68 15421.6,1594.13C15424.3,1593 15426.8,1591.67 15429.2,1590.14C15429.2,1590.14 15429.2,1590.14 15429.2,1590.14Z" style="fill:rgb(200,134,64);"/>
                </g>
                <g transform="matrix(0.0089109,-0.26407,0.07386,0.031859,5858.98,3107.7)">
                    <path d="M15429.2,1590.14C15481.5,1556.9 15508.4,1495.36 15497.5,1434.38C15486.6,1373.4 15439.8,1325.09 15379.3,1312.11C15299.7,1295.2 15208.1,1301.72 15108.2,1364.59C15105.8,1366.11 15103.4,1367.58 15100.9,1368.99C14820.4,1529.92 14783.9,1645.51 14423.4,1717.55C14792,1771.23 15132.2,1718.68 15421.6,1594.13C15424.3,1593 15426.8,1591.67 15429.2,1590.14C15429.2,1590.14 15429.2,1590.14 15429.2,1590.14Z" style="fill:rgb(200,134,64);"/>
                </g>
                <g transform="matrix(-0.0639111,-0.136146,0.0380798,-0.2285,7019.21,1455.42)">
                    <path d="M15417.2,1331.47C15419.1,1312.15 15408.4,1293.81 15390.6,1286C15372.9,1278.2 15352.1,1282.7 15339.2,1297.16C15322.8,1315.21 15283.7,1344.98 15163,1403.59C15152.6,1408.65 15109.5,1435.04 15034.5,1450.12C15132.4,1522.72 15126,1541.53 15211.7,1525.35C15273.4,1513.72 15318.7,1438.73 15394.4,1374.6C15407.3,1363.76 15415.5,1348.27 15417.2,1331.46C15417.2,1331.47 15417.2,1331.47 15417.2,1331.47Z" style="fill:rgb(200,134,64);"/>
                </g>
                <g transform="matrix(0.0388846,-0.226761,0.0338759,0.0742542,5472.09,2483.62)">
                    <path d="M15156.2,928.894C15032.8,1044.5 14694.2,1255.18 14344.7,1431.07C14646.7,1433.99 14975.3,1237.34 15294.1,983.445L15156.2,928.894Z" style="fill:rgb(181,126,67);"/>
                </g>
                <g transform="matrix(-0.136659,-0.441449,0.0535057,-0.268675,8162.14,7066.97)">
                    <path d="M15853.9,2707.82C15838.9,2690.06 15838,2649.22 15812,2654.72C15803.1,2656.57 15795,2648.62 15790.8,2633.99C15782.1,2601.71 15778.4,2595.68 15742.7,2574.72C15776.8,2581.78 15716.5,2740.62 15786.3,2708.69C15788.2,2707.83 15790.1,2707.4 15792,2707.42C15804.6,2707.49 15853.9,2707.82 15853.9,2707.82Z" style="fill:rgb(244,219,191);"/>
                </g>
                <g transform="matrix(-0.131264,0.0544885,-0.0211747,-0.321014,8259.64,-682.539)">
                    <path d="M15853.9,2707.82C15853.9,2707.82 15765,2703.52 15737.3,2702.19C15730.8,2701.87 15724.1,2704.34 15718.1,2709.29C15686.8,2734.9 15675.5,2785 15601.4,2840.82C15674.8,2822.58 15690.7,2751.68 15729.8,2729.78C15732.7,2728.14 15735.7,2727.06 15738.8,2726.56C15758.8,2723.3 15853.9,2707.82 15853.9,2707.82Z" style="fill:rgb(244,219,191);"/>
                </g>
                <g transform="matrix(-0.11167,0.252617,0.0399695,0.297255,7807.94,-5484.18)">
                    <path d="M15853.9,2707.82C15853.9,2707.82 15748.1,2702.71 15731.4,2701.9C15729.8,2701.82 15728.2,2701.91 15726.6,2702.17C15656.6,2713.45 15635,2785.49 15626.7,2866.87C15646.5,2893.92 15660.9,2739.57 15735.1,2727.15C15735.1,2727.15 15735.2,2727.15 15735.2,2727.15C15735.2,2727.14 15853.9,2707.82 15853.9,2707.82Z" style="fill:rgb(244,219,191);"/>
                </g>
                <g transform="matrix(-0.0675561,-0.237073,-0.0408539,0.117804,7298.04,2771.18)">
                    <path d="M15853.9,2707.82C15853.9,2707.82 15779.4,2706.39 15755.7,2705.93C15751.1,2705.84 15746.5,2706.97 15742,2709.27C15710.6,2725.33 15730.7,2705.38 15680.8,2715.23C15736,2770.19 15722.6,2785.29 15757.4,2762.78C15758,2762.38 15758.7,2762 15759.3,2761.64C15769.3,2755.94 15853.9,2707.82 15853.9,2707.82Z" style="fill:rgb(244,219,191);"/>
                </g>
                <g transform="matrix(0.0991539,-0.0776134,0.0229009,0.373979,4554.94,-306.963)">
                    <path d="M15129.6,1511.22C15083.2,1529.67 15037.5,1564.96 14994.9,1580.03C14990.1,1581.73 14985.5,1583.8 14981,1586.22C14949.2,1603.44 14823.9,1671.64 14823.9,1671.64C14823.9,1671.64 14985.7,1615.76 15056.3,1591.37C15077.2,1584.17 15094.6,1570.13 15105.5,1551.8C15116.8,1532.78 15129.6,1511.22 15129.6,1511.22Z" style="fill:rgb(181,126,67);"/>
                </g>
                <g transform="matrix(0.0683388,-0.0534927,-0.0112631,-0.183929,5082.98,128.399)">
                    <path d="M15040.7,1520.66C14989.1,1557.98 14905.6,1490.26 14866.7,1465.59C14861.7,1462.59 14856.8,1459.17 14852.1,1455.37C14812,1423.17 14602.2,1254.09 14602.2,1254.09C14602.2,1254.09 14766.4,1429.78 14830.8,1498.69C14850.1,1519.35 14873.3,1532.53 14897.9,1536.8C14952.1,1546.3 14997.6,1536.15 15040.7,1520.66Z" style="fill:rgb(225,170,107);"/>
                </g>
                <g transform="matrix(-0.0683388,0.0534927,-0.0112631,-0.183929,7140.15,-1469.69)">
                    <path d="M14988.2,1562.14C14935.1,1600.52 14880,1505.4 14853.6,1474.94C14851.8,1473.04 14850,1471.23 14848.2,1469.51C14786.2,1411.74 14756.7,1308.7 14717.1,1218.27C14747.3,1317.65 14781.7,1409.13 14826.2,1481.85C14841.9,1507.6 14862.8,1527.03 14886.4,1537.97C14932.4,1559.35 14943,1578.39 14988.2,1562.14Z" style="fill:rgb(225,170,107);"/>
                </g>
                <g transform="matrix(0.0864622,-0.0676789,0.0189297,0.309127,4755.74,-324.558)">
                    <path d="M15129.6,1511.22C15129.6,1511.22 15015.6,1575.11 14997.8,1585.08C14996.3,1585.95 14994.7,1586.78 14993.1,1587.57C14972.4,1597.85 14823.9,1671.64 14823.9,1671.64C14823.9,1671.64 14978.9,1618.1 15051.7,1592.96C15075.5,1584.73 15095.7,1568.31 15108.6,1546.62C15119,1529.08 15129.6,1511.22 15129.6,1511.22Z" style="fill:rgb(181,126,67);"/>
                </g>
                <g transform="matrix(-0.0415052,0.218003,0.0609751,0.148393,6600.03,-4525.35)">
                    <path d="M14759.6,2404.9C14763.6,2390.98 14761.5,2376 14753.7,2363.76C14745.9,2351.52 14733.3,2343.22 14719,2340.95C14705.8,2338.82 14694.2,2338.47 14684.9,2340.75L14673.4,2466.58L14726.6,2518.3C14726.6,2518.3 14745.7,2452.65 14759.6,2404.9Z" style="fill:rgb(255,238,219);"/>
                </g>
                <g transform="matrix(0.0250262,-0.250484,0.0700599,0.0894757,5631.51,2804.98)">
                    <path d="M15401.1,1289.96C15405.6,1282.06 15403.8,1272.09 15396.9,1266.19C15390,1260.29 15379.9,1260.1 15372.8,1265.75C15353.1,1281.29 15421.7,1291.44 15261.8,1405.21C15236.3,1423.51 15206.9,1435.5 15175.8,1440.22C14801.6,1496.87 14919.1,1745.51 14749.3,1933.04C14887.2,1789.18 15041.7,1651.63 15237.4,1529.82C15265.9,1512.21 15289.4,1487.71 15305.8,1458.58C15332.7,1411.1 15374.6,1336.82 15401.1,1289.96Z" style="fill:rgb(181,126,67);"/>
                </g>
                <g transform="matrix(0.0570887,-0.170552,0.047703,0.204108,5168.12,1439.57)">
                    <path d="M15437.9,1229.89C15413.5,1182.11 15360.6,1155.96 15307.8,1165.5C15233.7,1178.93 15242.3,1161.37 15020,1307.73C15014.5,1311.4 15008.7,1314.79 15002.8,1317.88C14729.8,1460.74 14693.4,1593.75 14321.3,1625.3C14614,1607.57 14859.2,1390.13 15231.7,1466.95C15327.8,1486.87 15422.7,1428.06 15447.7,1333.13C15456.9,1297.84 15455,1263.17 15437.9,1229.89C15437.9,1229.89 15437.9,1229.89 15437.9,1229.89Z" style="fill:rgb(200,134,64);"/>
                </g>
                <g transform="matrix(-0.0193318,-0.256848,0.0718399,-0.0691168,6297.6,3124.65)">
                    <path d="M15397.9,1208.69C15378.7,1172.26 15334.8,1156.64 15297,1172.81C15264.5,1186.69 15286.8,1199.31 15091.7,1328.83C15085.8,1332.77 15079.7,1336.39 15073.3,1339.67C14799.2,1481.98 14693.2,1593.77 14321.3,1625.3C14588.2,1609.13 14874.3,1493.1 15214.3,1541.41C15284.6,1551.4 15355,1523.07 15398.7,1467.1C15442.5,1411.12 15453,1336.04 15426.4,1270.18C15417.6,1248.77 15408,1228.1 15397.9,1208.69Z" style="fill:rgb(200,134,64);"/>
                </g>
                <g transform="matrix(0.0683388,-0.0534927,-0.0112631,-0.183929,5100.15,159.335)">
                    <path d="M14867.4,1713.26C14815.4,1750.81 14882.7,1513.67 14863.9,1467.47C14859.2,1455.9 14855.4,1443.68 14852.8,1431.02C14830.7,1329.02 14760.5,997.29 14760.5,997.29C14760.5,997.29 14810.8,1235.04 14834.2,1345.67C14839.8,1371.86 14849.7,1396.03 14863.4,1416.34C14894.4,1462.37 14903.1,1592.32 14894.6,1631.71C14888.3,1660.54 14876.9,1689.98 14867.4,1713.26Z" style="fill:rgb(225,170,107);"/>
                </g>
                <g transform="matrix(0.01247,-0.0326694,0.00860918,0.0420057,5741.17,52.8294)">
                    <path d="M31406,7055.55C31293.6,6391.77 30715.1,5934.53 30083.7,6010.36C29524.4,6077.97 28962.6,6053.69 28533.6,5948.74C28354.9,5905.03 28247.4,6398.51 28094.1,6651.26C27860.7,7036.81 27697.4,7465.36 27612.7,7914.73C27612.1,7914.62 27612.1,7914.62 27612.1,7914.62C29092.3,10456.3 29605.6,8165.14 30534.9,8160.6C30796.6,8160.43 31044.7,8037.21 31212.5,7824.13C31380.3,7611.04 31450.5,7330 31404.2,7056.66C31406.1,7056.05 31406,7055.8 31406,7055.55Z" style="fill:rgb(58,103,154);"/>
                </g>
                <g transform="matrix(-0.0439012,-0.274779,-0.0768552,0.156959,7107.8,3644.63)">
                    <path d="M16636.9,2724.43C16574.5,2752.2 16648.6,2525.31 16668.3,2543.98C16602.5,2579.24 16661,2751.84 16742.5,2786.41C16837.1,2826.57 16971,2780.58 17078.3,2742.1C17048.9,2779.87 17012.8,2764.4 16970.5,2795.6C16916.6,2835.27 16829.8,2861.75 16766.1,2842.89C16698.8,2822.97 16616.5,2721.42 16636.9,2724.43Z" style="fill:rgb(50,79,112);"/>
                </g>
                <g transform="matrix(-0.15196,0.372054,-0.0605829,-0.248728,8737.77,-5738.31)">
                    <path d="M15793.2,2839.02C15793.3,2750.34 15790.3,2637.38 15733.8,2662.23C15732.9,2662.6 15732.1,2663.07 15731.2,2663.62C15673.8,2701.76 15617.2,2911.75 15625.9,2876.18C15633.9,2843.48 15702.7,2717.35 15726,2700.42C15726,2700.36 15726.1,2700.29 15726.2,2700.22C15764.3,2670.8 15781,2778.75 15793.2,2839.02Z" style="fill:rgb(50,79,112);"/>
                </g>
            </g>
        </g>
    </g>
</svg>
