<?xml version="1.0" encoding="UTF-8" standalone="no"?>
<!DOCTYPE svg PUBLIC "-//W3C//DTD SVG 1.1//EN" "http://www.w3.org/Graphics/SVG/1.1/DTD/svg11.dtd">
<svg width="100%" height="100%" viewBox="0 0 3092 4605" version="1.1" xmlns="http://www.w3.org/2000/svg" xmlns:xlink="http://www.w3.org/1999/xlink" xml:space="preserve" xmlns:serif="http://www.serif.com/" style="fill-rule:evenodd;clip-rule:evenodd;stroke-linejoin:round;stroke-miterlimit:1.41421;">
    <g transform="matrix(1,0,0,1,-13628.9,-1320.23)">
        <g transform="matrix(11.2981,0,0,3.16007,-51589.6,5820.28)">
            <g id="MerAttack1">
                <g transform="matrix(0.0143114,0.118434,-0.0358054,0.0553065,5791.58,-2831.39)">
                    <path d="M14147.5,2203.21C14025.1,2146.35 13876.6,2173.05 13786,2268.19C13786,2268.14 13786,2268.14 13786,2268.14C13660.3,2400.18 13667.7,2599.97 13802.9,2723.69C14009.3,2913.11 14357.8,2987.28 14594.5,3131.34C14672,3109.65 14765.7,3095.87 14880.8,3092.55C14915.3,3091.56 14946.1,3072.53 14960.4,3043.48C14974.6,3014.42 14969.8,2980.4 14947.9,2955.73C14481.3,2429.43 14419,2328.4 14147.5,2203.21Z" style="fill:rgb(255,238,219);"/>
                </g>
                <g transform="matrix(0.0143114,0.118434,-0.0358054,0.0553065,5792.33,-2833.68)">
                    <path d="M14350.3,2236.54C14291.2,2155.72 14194,2105.74 14088.7,2101.9C13983.3,2098.07 13882.2,2140.83 13816.4,2217.1C13816.3,2217.01 13816.3,2217.01 13816.3,2217.01C13787.9,2249.88 13781.7,2294.61 13800.1,2333.06C13818.5,2371.51 13858.4,2397.31 13903.8,2400C14296.9,2422.17 14638.4,2676.38 14434.5,2857.23C14334.7,2945.73 14030,2885.96 14050.7,2899.66C14096.1,2929.61 14250.6,3005.45 14291.8,2996.29C14298,2994.88 14304.2,2993.87 14310.5,2993.27C14375.9,2986.91 14659,2960 14754.2,2950.94C14764.7,2949.94 14774.2,2944.86 14780.4,2936.96C14789.9,2923.94 14912,2962.66 14898,2923.15C14851.3,2791.9 14718.8,2698.11 14648.3,2627.23C14472.1,2450.09 14418.3,2330.28 14350.3,2236.54Z" style="fill:rgb(244,219,191);"/>
                </g>
                <g transform="matrix(0.0143114,0.118434,-0.0358054,0.0553065,5796.93,-2817.68)">
                    <path d="M14117,2269.54C14027.8,2204.24 13912.2,2178.39 13800.6,2198.8C13689,2219.22 13592.7,2283.86 13537.1,2375.66C13488.1,2456.24 13494.7,2488.49 13506.5,2511.53C13534.3,2567.36 13600.1,2598.02 13665.1,2585.46C14050.9,2510 14332.4,2519.99 14394,2604.9C14394,2604.9 14296,2483.65 14181.4,2331.59C14163.9,2308.43 14142.2,2287.97 14117,2269.54Z" style="fill:rgb(223,195,163);"/>
                </g>
                <g transform="matrix(-0.0317095,-0.00527761,0.00148584,-0.114116,6332,-581.236)">
                    <path d="M13911.7,2141.25C13911.7,2141.25 13821.3,2215.73 13741.4,2281.45C13649.9,2356.79 13635,2490.65 13707.7,2584.04C13889.1,2815.78 14303.4,2865.74 14597.1,2964.97C14619.9,2972.65 14639.8,2987.67 14658.2,3005.3C14724,3068.42 14816.3,3096.35 14906.4,3080.4C14906.4,3080.41 14906.4,3080.41 14906.4,3080.41C14943.5,3073.83 14975.3,3050.05 14992,3016.39C15008.6,2982.73 15008.1,2943.2 14990.7,2909.96C14809.3,2567.35 14374.6,2329.82 13911.7,2141.25Z" style="fill:rgb(255,238,219);"/>
                </g>
                <g transform="matrix(0.0125329,-0.0323603,0.00852774,0.0422175,5546.71,-291.291)">
                    <path d="M31567.4,7789.17C31562.7,7117.35 31098.4,6548.89 30472.5,6448.72C30108.9,6390.54 29704.5,6325.81 29343.4,6268.02C29065.1,6223.49 28781.6,6299.47 28556.7,6478.9C28331.7,6658.32 28184.1,6926.15 28147,7222.22C28119.8,7438.9 28089.9,7677.5 28058.3,7929.27C27991.8,8460.03 28127.1,8997.06 28434.4,9421.71C28741.6,9846.36 29195.6,10123.7 29695.9,10192.4C29696,10191.3 29696.1,10191.4 29696.1,10191.4C30172.1,10256.8 30651.5,10100.5 31010.9,9762.85C31370.3,9425.16 31574.5,8939.02 31570.9,8429.61C31570.2,8204.1 31568.7,7988.24 31567.4,7789.17Z" style="fill:rgb(58,103,154);"/>
                </g>
                <g transform="matrix(-0.0131642,-0.312929,0.0875257,-0.0470659,6000.76,4497.88)">
                    <path d="M16628.9,2619.09C16633.7,2613.31 16875.1,2617.38 16907.3,2620.41L16888.8,2640.45C16779.8,2716.29 16825.8,2764.29 17047.9,2697.25C16840.8,2830.94 16547.7,2673.22 16628.9,2619.09Z" style="fill:rgb(50,79,112);"/>
                </g>
                <g transform="matrix(0.0296968,-0.100453,-0.0172592,-0.0652212,5382.97,2623.79)">
                    <path d="M22738,10780.2C22762.3,10707.7 22759.2,10618.8 22729.9,10551.3C22700.6,10483.7 22650.2,10449.3 22600,10462.5C22318.7,10540.8 22364.3,10501.9 22015.3,10522.8C21915,10527.9 21828,10637.2 21799.4,10793.8C21786,10867.4 21794.1,10902.5 21817.7,11063.5C21827.2,11128.3 21832,11194.8 21832,11261.5C21831.7,11946.7 21583.9,12347.8 21043.1,13428.4C21841.4,12578.7 22443.1,11897.6 22544.2,11490.6C22606.3,11240.8 22609.3,11156.8 22738,10780.2Z" style="fill:rgb(56,89,126);"/>
                </g>
                <g transform="matrix(0.0296968,-0.100453,-0.0172592,-0.0652212,5383.73,2621.42)">
                    <path d="M22736.1,10735C22759.8,10661.4 22755.5,10572.2 22725.1,10505.5C22694.7,10438.7 22643.5,10406.2 22593.3,10421.8C22315.5,10509.1 22362.7,10495.2 22012.9,10521.9C21913.4,10529.3 21827.8,10638.3 21799.4,10793.6C21786.1,10866.8 21794,10901.8 21817.1,11059.7C21827.6,11131.2 21832.4,11204.7 21831.3,11278.2C21825.2,11696.5 21712.5,12058.1 21505.4,12516.1C21381.8,12789.6 21224.5,13097.6 21036.1,13472.6C21032.1,13480.6 21032.3,13492.2 21036.5,13499.9C21040.8,13507.7 21047.9,13509.1 21053.2,13503.4C21819.8,12680.2 22446.1,11885.6 22544.2,11490.6C22606.6,11239.7 22606.8,11128.1 22736.1,10735Z" style="fill:rgb(75,115,161);"/>
                </g>
                <g transform="matrix(0.0344145,0,0,0.123042,5140.7,-1568.72)">
                    <path d="M21567.4,10536.5C21628.7,10393.8 21601.5,10228.4 21497.5,10112.9C21393.5,9997.5 21231.9,9953.12 21083.5,9999.28C20948.4,10041.2 20810.6,10070.4 20675.8,10074.6C20587.8,10077.2 20511.1,10135.1 20484.4,10219C20484.4,10219 20484.4,10219 20484.4,10219C20442.5,10351.4 20468.8,10495.9 20554.8,10605C20640.7,10714.1 20775.2,10773.4 20913.7,10763.6C21048,10754 21181.1,10744.5 21285.9,10737C21409.8,10728.1 21518.5,10650.9 21567.6,10536.7C21567.3,10536.6 21567.3,10536.6 21567.4,10536.5Z" style="fill:rgb(56,89,126);"/>
                </g>
                <g transform="matrix(0.033919,0.0208056,-0.00581928,0.12127,5164.13,-2250.82)">
                    <path d="M26559.8,7461.9C26533.6,6876.55 26069.3,6405.65 25484.4,6371.19C25484.4,6371.14 25484.4,6371.14 25484.4,6371.14C25233.6,6356.4 24991,6462.72 24831.8,6657.06C24672.7,6851.41 24616.3,7110.24 24680.2,7353.16C24827.3,7911.45 24897,8477.34 24867.4,9033.78C24860.5,9159.23 24908,9281.57 24997.9,9369.4C25087.7,9457.23 25211.1,9502 25336.4,9492.22C25336.4,9492.34 25336.4,9492.34 25336.4,9492.34C25691.9,9464.59 26009.7,9259.93 26182.1,8947.71C26458.6,8445.84 26583,7969.31 26559.8,7461.9Z" style="fill:rgb(58,103,154);"/>
                </g>
                <g transform="matrix(0.0394308,-0.225552,0.0630865,0.140976,5236.21,1931.14)">
                    <path d="M15401.1,1289.96C15405.6,1282.06 15403.8,1272.09 15396.9,1266.19C15390,1260.29 15379.9,1260.1 15372.8,1265.75C15352,1282.18 15429.9,1292.58 15232,1425.82C15223.8,1431.32 15215.3,1436.2 15206.4,1440.44C14936.3,1568.98 15103.1,1848.21 14749.3,1933.04C14749.3,1933.04 15139.4,1617.76 15251,1527.56C15270.4,1511.81 15286.8,1492.52 15299.1,1470.69C15325.1,1424.63 15372.3,1341.02 15401.1,1289.96Z" style="fill:rgb(200,134,64);"/>
                </g>
                <g transform="matrix(0.0491424,-0.199696,0.0558545,0.175698,5090.41,1456.32)">
                    <path d="M15373,1510.4C15386.2,1444.2 15358.8,1376.49 15303.2,1338.13C15247.7,1299.77 15174.7,1298.1 15117.4,1333.88C15104.7,1341.89 15091.1,1350.65 15076.5,1360.23C15071.9,1363.22 15067.1,1365.83 15062.1,1368.04C14782.2,1492.03 14753.5,1568.7 14397.7,1653.99C14731.3,1581.29 14996.4,1554.45 15311,1560.23C15341,1560.81 15367.1,1539.82 15373,1510.4C15373,1510.4 15373,1510.4 15373,1510.4Z" style="fill:rgb(181,126,67);"/>
                </g>
                <g transform="matrix(0.033919,0.0208056,-0.00581928,0.12127,5139.38,-1999.12)">
                    <path d="M26449,7311.88C26441.3,7225.17 26439,7138.06 26442.2,7051.07C26448.1,6922.61 26398.4,6804.63 26309,6701.34C26128.3,6492.69 25834.8,6422.25 25579.1,6526.16C25323.4,6630.06 25162.3,6885.25 25178.4,7160.78C25205.1,7604.65 24963.5,7949.74 24689.7,8397.12C24451.9,8786.11 24151,9132.87 23799.5,9423.22C23326,9814.38 22739.6,10298.7 22739.6,10298.7C24045.9,9934.44 26621.2,9183.3 26449,7311.88Z" style="fill:rgb(56,89,126);"/>
                </g>
                <g transform="matrix(0.033919,0.0208056,-0.00581928,0.12127,5138.24,-2008.53)">
                    <path d="M26446.9,7301.1C26440.1,7218.09 26438.2,7134.74 26441.3,7051.51C26448.2,6922.9 26398.6,6804.76 26309,6701.34C26128.3,6492.69 25834.8,6422.25 25579.1,6526.16C25323.4,6630.06 25162.3,6885.25 25178.4,7160.78C25209.6,7678.93 24875.2,8062.49 24550.6,8631.29C24436.6,8830.89 24287.7,9008.44 24111.1,9155.53C23750.7,9455.52 23402,9784.14 22944.3,9940.96C22817.1,9984.54 22749.9,10039.9 22705.3,10109.5C22669.7,10165 22673,10237 22713.5,10289C22754.1,10341.1 22823,10361.9 22885.6,10341.1C23113.6,10264.3 23342.2,10183.9 23733.5,10027.9C25062.6,9498.07 26557.3,8627.56 26446.9,7301.1Z" style="fill:rgb(58,103,154);"/>
                </g>
                <g transform="matrix(-0.0344145,0,0,0.0913435,6986.67,-1185.73)">
                    <path d="M29872.2,2876.54C29841.6,2758.59 29750.4,2690.01 29659.8,2716.8C29659.8,2716.76 29659.8,2716.76 29659.8,2716.76C29565.1,2744.77 29493.6,2849.95 29481.3,2979.53C29380.8,4005.51 29184.3,4983.55 29261.9,5917.72C29271.3,6028.42 29322.2,6124.89 29396.7,6173.34C29471.2,6221.79 29558.9,6215.47 29629.1,6156.58C29629.2,6156.7 29629.2,6156.7 29629.2,6156.7C29819.7,5996.98 29946.5,5730 29974.4,5430.07C30126.2,3808.66 30054.2,3568.97 29872.2,2876.54Z" style="fill:rgb(206,204,201);"/>
                </g>
                <g transform="matrix(0.0344145,0,0,0.0913435,4975.96,-1182.86)">
                    <path d="M29786.2,2852.89C29752.5,2673.82 29640.6,2541.01 29504.5,2518.49C29504.5,2518.41 29504.5,2518.41 29504.5,2518.41C29348.3,2492.55 29199.5,2615.78 29146.1,2815.3C29066.2,3113.23 29012.9,3522.6 28886,3959.9C28697,4611.11 28688.9,5331.15 28772.9,6004.37C28797.3,6199.2 28920,6344.11 29066.6,6351.27C29213.2,6358.42 29343.3,6225.86 29378.2,6033.92C29378.2,6033.92 29378.2,6033.92 29378.2,6033.92C29382.8,6008.54 29388.3,5983.47 29394.7,5958.79C29804.3,4375.89 30041.6,4194.68 29786.2,2852.89Z" style="fill:rgb(199,197,194);"/>
                </g>
                <g transform="matrix(0.0326718,-0.0386588,0.00802718,0.0867178,4979.89,-228.507)">
                    <path d="M29517.1,4626.55C29430.3,4434.12 29265.5,4331.99 29100.6,4368.51C28935.7,4405.02 28803.8,4572.85 28767.3,4792.56C28763.1,4817.54 28759.6,4842.79 28756.7,4868.26C28743,4990.63 28723.5,5111.7 28698.4,5230.75C28686.5,5284.42 28686.9,5398.84 28706.5,5840.67C28712.1,5976.57 28773.1,6097.11 28865,6153.65C28956.9,6210.19 29064.5,6193.4 29144.4,6110.05C29144.4,6110.07 29144.4,6110.07 29144.4,6110.07C29264.3,5984.98 29355.3,5816.57 29406.9,5624.47C29643,4742.11 29644,4910.58 29517.1,4626.55Z" style="fill:rgb(199,197,194);"/>
                </g>
                <g transform="matrix(-0.00616241,-0.0629172,0.0142777,-0.0173907,6020.14,487.936)">
                    <path d="M24878.5,2947.3C24936,2355.56 24616.4,1804.37 24143.5,1679.82C23609.3,1538.5 23087.6,1632.65 23183.2,2103.61C23208.6,2228.79 23363.1,2300.97 23427.3,2617.11C23488.1,2916.9 23629.9,3182.8 23829.2,3370.57C24131.6,3655.2 24413.2,3634.95 24802,3144.06C24844.3,3090.78 24871.1,3021.64 24878.4,2947.28C24878.5,2947.31 24878.5,2947.31 24878.5,2947.3Z" style="fill:rgb(244,219,191);"/>
                </g>
                <g transform="matrix(-0.00583645,-0.0595892,0.0142777,-0.0173907,6011.84,401.064)">
                    <path d="M24818.3,2888.32C24858.6,2630.77 24808.4,2364.17 24679.1,2148.8C24549.7,1933.42 24352.1,1787.46 24130.9,1743.91C23725.6,1664.04 23348.2,1749.42 23221.2,1947.9C22995.5,2300.74 23351.5,2298.71 23610.1,2717.35C23624.4,2740.51 23639.2,2763.32 23654.3,2785.76C24106.2,3456.21 24224.9,3737.27 24746.3,3059.39C24783.3,3011.35 24808.2,2952.14 24818.2,2888.3C24818.3,2888.32 24818.3,2888.32 24818.3,2888.32Z" style="fill:rgb(255,233,209);"/>
                </g>
                <g transform="matrix(0.03709,-0.0812004,0.0194025,0.104889,4989.43,566.607)">
                    <path d="M24809.4,2167.66C24762.5,2100.15 24704,2046.39 24638,2010.01C24348.3,1850.86 24315.2,1442.24 24111.6,1488.85C23904.9,1536.14 24606.6,1291.42 23604.5,2118.56C23593.5,2127.64 23585.8,2141.7 23583.1,2157.56C23575.2,2203.19 23557.5,2306.36 23537.7,2421.85C23466.2,2839.17 23647.1,3248.91 23965.8,3391.19C24286.8,3533.57 24622.2,3381.07 24986.2,2912.24C25013.7,2876.82 25043.6,2844.2 25075.3,2814.73C25307.7,2598.76 24952.7,2373.68 24809.4,2167.66Z" style="fill:rgb(252,226,198);"/>
                </g>
                <g transform="matrix(0.0437553,-0.0457443,0.0110428,0.119395,4875.58,-192.625)">
                    <path d="M24779.1,1684.22C24746.8,1485.35 24653.3,1314.7 24519.9,1211.13C24137.1,913.507 23920.6,1144.77 23556.9,1541.85C23446.7,1662.14 23384,1839.99 23387.2,2023.32C23390.1,2181.5 23435.3,2271.54 23596,2419.54C23640.9,2461.06 23681.3,2509.89 23716.5,2564.91C23817.4,2723.34 23965.9,2649.7 23983.8,3103.79C23990.2,3267.3 24072.9,3234.13 23988.9,3553.92C23959.2,3666.84 24023.9,3906.25 24119.6,3883.04C24198.9,3863.8 24487.5,3463.62 24733.1,3272.27C24851.8,3179.83 24832.8,3064.68 24873.4,2938.64C24913.6,2813.66 24914.3,2674.8 24875.5,2552.67C24820.7,2380.67 24765.1,2207.07 24782.7,2041.81C24798.9,1890.51 24794.4,1778.79 24779.1,1684.22Z" style="fill:rgb(255,238,219);"/>
                </g>
                <g transform="matrix(0.0437553,-0.0457443,0.0110428,0.119395,4876.01,-194.859)">
                    <path d="M23696.4,2418.06C23673.8,2369.53 23646.5,2325.02 23615.3,2285.55C23177.3,1732.31 23904.5,1174.03 23407,1704.21C23372.5,2109.96 23347.4,2217.03 23588.3,2420.84C23637.5,2462.64 23682,2513 23720.5,2570.59C23797.1,2684.77 23905.5,2693.37 23960.1,2850.97C23981.2,2911.87 23978.9,2978.44 23983.8,3103.79C23990.2,3267.3 24068.4,3230.04 23984.4,3549.82C23954.8,3662.74 24029,3920.65 24123.2,3892.06C24197.2,3869.59 23930.6,3794.25 24077.9,3471.22C24171.1,3266.66 23966.4,2992.43 24081.9,2813.05C24094.1,2793.97 24099.7,2769.33 24097.2,2745.28C24081.9,2599.46 23847,2754.76 23780.9,2548.42C23727.9,2382.96 23729.8,2490.09 23696.4,2418.06Z" style="fill:rgb(244,219,191);"/>
                </g>
                <g transform="matrix(0.0437553,-0.0457443,0.0110428,0.119395,4885.13,-200.464)">
                    <path d="M24550.7,1857.11C24588.8,1606.6 24540.9,1350.85 24419.7,1157.12C24166.8,752.19 24671.9,728.234 24216.2,1213.8C24180,1655.18 23819.1,1303.61 24153.7,1588.52C24337.3,1708.74 24303,2259.38 24323.1,2768.75C24329.5,2932.26 24241.5,2971.29 24249.4,3257.31C24252.6,3375.11 24342.2,3193.51 24587.9,3002.15C24724.3,2895.94 24589.6,2930.64 24634.9,2833.38C24662.1,2774.98 24663.7,2703.23 24638.9,2645.35C24573.4,2491.87 24478.1,2420.1 24499.4,2220.5C24512.5,2097.54 24532.9,1973.98 24550.7,1857.11Z" style="fill:rgb(244,219,191);"/>
                </g>
                <g transform="matrix(-0.00713777,-0.343683,-0.0884172,0.0234727,6334.48,4519.75)">
                    <path d="M15860.5,2741.08C15860.5,2741.08 15821.5,2760.65 15783,2780.02C15767.4,2787.89 15757.1,2804.63 15756.4,2823.37C15755.7,2842.11 15764.6,2859.71 15779.7,2868.96C15831.6,2901.3 15875.2,2915.93 15899.5,2901.19C15870.8,2886.22 15844.3,2867.92 15824.2,2840.19C15809.1,2819.6 15811.3,2789.86 15829.2,2772.13C15844.4,2756.98 15860.5,2741.08 15860.5,2741.08Z" style="fill:rgb(244,219,191);"/>
                </g>
                <g transform="matrix(0.0344145,0,0,0.0913435,4979.43,-1179.05)">
                    <path d="M29753.6,2665.7C29653.6,2270.9 29413.1,1655.16 29286.5,2457.87C29260.6,2621.83 29088.7,2838.87 29110.3,3115.3C29126.7,3324.17 29013.1,3581.31 28925.5,3809.9C28688.4,4428.93 28695.3,5226.33 28796.2,5980.6C28818.9,6151.57 28929,6276.25 29058,6276.82C29186.9,6277.4 29297.7,6153.7 29321.2,5982.93C29321.2,5982.94 29321.2,5982.94 29321.2,5982.94C29327.6,5936.78 29336.6,5891.36 29348.3,5847.13C29788.5,4186.47 30288.2,4184.9 29753.6,2665.7Z" style="fill:rgb(206,204,201);"/>
                </g>
                <g transform="matrix(0.0171732,0.142116,-0.0429652,0.0663657,5837.29,-3269.7)">
                    <path d="M13860.1,2143.11C13768.6,2127.42 13674.2,2148.76 13600.8,2201.74C13244.9,2457.5 13607,2646.08 13854,2690.32C13992.1,2474.44 14155.7,2368.76 14347.8,2396.83C14339.3,2379.24 14223.6,2391.91 14109,2239.84C14046.5,2157.04 13971.5,2162.09 13860.1,2143.11Z" style="fill:rgb(223,195,163);"/>
                </g>
                <g transform="matrix(0.0344145,0,0,0.0913435,4956.44,-888.527)">
                    <path d="M29664.7,3729.5C29703.3,3432.46 29648.2,3127.2 29512.7,2887.18C29430.4,2742 29422.9,2499.31 29368.1,2330.78C29286.6,2080.53 28853.1,2416.15 28891.1,2874.87C28908.3,3083.67 28785.9,3565.6 28698.3,3794.18C28286,4870.69 27723.2,5370.13 26743.4,6168.17C26743.4,6168.17 27303.5,5997.57 27853.1,5830.16C28347.1,5679.72 28786.5,5301.84 29095.8,4761.67C29298,4408.94 29593.2,4279.53 29664.7,3729.5Z" style="fill:rgb(199,197,194);"/>
                </g>
                <g transform="matrix(-0.0221381,0.0464255,0.0106777,0.0568847,6431.85,-2496.2)">
                    <path d="M24778.5,2253.52C24799.7,2012.03 24742.7,1763.59 24621.6,1570.08C24500.5,1376.57 24326.7,1256.19 24143.6,1238.93C24143.2,1238.91 24142.7,1238.87 24142.3,1238.84C23967.2,1222.81 23806.1,1339.42 23725.3,1540.68C23644.6,1741.93 23657.9,1993.8 23759.7,2192.59C23901.2,2468.65 24022.6,2743.45 24073.4,2981.59C24129,3242.21 24231.8,3483.9 24372.3,3684.52C24497.4,3863.45 24605.2,4005.2 24682.6,3979.27C24762.3,3952.53 24664.6,3571.11 24767.1,3250.87C24810.9,3113.23 24820.5,2957.94 24794.4,2806.97C24764.3,2633.52 24761.5,2447.93 24778.5,2253.52Z" style="fill:rgb(244,219,191);"/>
                </g>
                <g transform="matrix(-0.0221381,0.0464255,0.0106777,0.0568847,6432.6,-2503.51)">
                    <path d="M24820.6,1980.86C24835,1863.52 24808.8,1740.54 24749.2,1645.86C24689.7,1551.18 24603.1,1494.84 24513.4,1492.38C24359.1,1488.05 24241.8,1633.3 24103.8,1832.72C23902.5,2123.76 23907.3,2585.18 24114.9,2901.79C24127.6,2920.82 24137.1,2941.64 24143.4,2966.45C24205.4,3210.59 24313.4,3432.43 24456.4,3609.71C24522.8,3693.67 24580.2,3740.53 24638.4,3721.01C24711.1,3696.62 24657.9,3605.8 24719.2,3402.43C24781.9,3194.09 24809.4,2967.3 24799.9,2737.58C24789.5,2493.74 24789,2237.31 24820.6,1980.86Z" style="fill:rgb(252,226,198);"/>
                </g>
                <g transform="matrix(0.0344145,0,0,0.0913435,4956.17,-878.174)">
                    <path d="M29715.1,3542.11C29693.9,3295.76 29615.8,3064.61 29491.8,2881.25C29401.6,2747.49 29367.7,2536.77 29322.2,2372C29218.3,1995.92 28802.3,2334.71 28870.7,2964.17C28879.4,3044.17 28732,3370.25 28455.9,3881.99C28319.4,4135.13 28229.8,4330.22 27914.9,4758.37C27500.5,5321.9 26485.6,6102.88 26485.6,6102.88C26924.3,6160.69 27591.4,5926.15 28311.6,5655.21C28650.8,5528.66 28962.2,5293.1 29218.9,4968.76C29582.2,4509.78 29789.9,4410.9 29715.1,3542.11Z" style="fill:rgb(206,204,201);"/>
                </g>
                <g transform="matrix(0.0344145,0,0,0.123042,5146.25,-1367.9)">
                    <path d="M24007.3,6133.15C23998.9,6121.71 23984.9,6115.83 23970.8,6117.84C23956.8,6119.86 23945,6129.44 23940.1,6142.78C23937.4,6150.26 23934.5,6158.09 23931.6,6166.15C23892.5,6273.32 23805.2,6355.83 23696,6388.84C23607.6,6415.57 23518.6,6442.5 23518.6,6442.5C23542.8,6458.31 23614.9,6488.45 23710.3,6524.5C23816.4,6564.68 23936.4,6530.22 24005,6439.81C24073.6,6349.4 24074.6,6224.61 24007.3,6133.17C24007.3,6133.16 24007.3,6133.16 24007.3,6133.15Z" style="fill:rgb(199,197,194);"/>
                </g>
                <g transform="matrix(0.0708842,-0.0807519,0.0225862,0.253431,4798.87,-443.731)">
                    <path d="M15425.6,1459.59C15425.6,1396.5 15391.8,1338.24 15337.1,1306.85C15282.4,1275.46 15215.1,1275.75 15160.6,1307.6C15137.6,1321.11 15110.8,1337.76 15079.5,1358.26C15072.9,1362.55 15066.1,1366.45 15059.1,1369.94C14778.5,1509.59 14745.3,1603.32 14397.7,1653.99C14682.4,1676.68 14986.2,1647.45 15293.3,1609.28C15368.8,1599.94 15425.6,1535.74 15425.6,1459.59C15425.6,1459.59 15425.6,1459.59 15425.6,1459.59Z" style="fill:rgb(181,126,67);"/>
                </g>
                <g transform="matrix(0.0708842,-0.0807519,0.0225862,0.253431,4798.43,-477.901)">
                    <path d="M15425.6,1459.59C15425.6,1396.5 15391.8,1338.24 15337.1,1306.85C15282.4,1275.46 15215.1,1275.75 15160.6,1307.6C15140.1,1319.6 15116.8,1334.07 15089.8,1351.5C15076.7,1360.03 15064.6,1370.09 15053.8,1381.47C14837.8,1609.01 14779,1664.76 14397.7,1653.99C14682.4,1676.68 14986.2,1647.45 15293.3,1609.28C15368.8,1599.94 15425.6,1535.74 15425.6,1459.59C15425.6,1459.59 15425.6,1459.59 15425.6,1459.59Z" style="fill:rgb(200,134,64);"/>
                </g>
                <g transform="matrix(0.06597,-0.122953,0.0343897,0.235862,4868.92,210.093)">
                    <path d="M15115.2,1149.38C14972.1,1189.55 15335.7,1182.49 15080.9,1357.14C15074.1,1361.78 15067.1,1366 15059.8,1369.77C14786.4,1511.3 14693,1593.79 14321.3,1625.3C14574.7,1669.88 14848.1,1653.31 15125.3,1625.11C15202.7,1617.38 15268.5,1565.17 15293.6,1491.54C15318.7,1417.89 15298.5,1336.38 15242,1282.96C15189,1232.91 15139.7,1186.32 15115.2,1149.38Z" style="fill:rgb(181,126,67);"/>
                </g>
                <g transform="matrix(-0.0490826,-0.199883,0.055907,-0.175484,6576.59,1938.73)">
                    <path d="M15115.2,1149.38C14972.1,1189.55 15335.8,1182.49 15080.8,1357.23C15074.1,1361.79 15067.2,1365.95 15060,1369.67C14791.8,1508.64 14927.7,1479.23 14556,1510.75C14784.5,1592.86 14930.4,1648.83 15128.8,1641.06C15208.8,1638.17 15279.2,1587.57 15307.4,1512.69C15335.7,1437.82 15316.2,1353.31 15258.1,1298.31C15199.2,1242.45 15142.1,1190.06 15115.2,1149.38Z" style="fill:rgb(181,126,67);"/>
                </g>
                <g transform="matrix(0.022392,0.113829,-0.0313864,0.0789225,5763.29,-2887.88)">
                    <path d="M13913.1,2327.65C13873.8,2324.91 13834.5,2332.17 13798.7,2348.77C13798.6,2348.74 13798.6,2348.74 13798.6,2348.74C13744.8,2373.68 13705.3,2422.36 13691.6,2480.73C13677.8,2539.1 13691.3,2600.64 13728.1,2647.59C13920.9,2893.89 14368.7,2930.29 14636.8,3038.17C14733.2,3077.09 14840.9,3075.31 14936,3033.23C14936.1,3033.28 14936.1,3033.28 14936.1,3033.28C14752.6,2769.93 14525.2,2632.36 14136.7,2348.99C14096.4,2319.63 13986.9,2332.86 13913.1,2327.65Z" style="fill:rgb(255,233,209);"/>
                </g>
                <g transform="matrix(0.0362005,0,0,0.147408,5463.83,-1534.83)">
                    <path d="M14126.3,2368.55C14062.7,2316.34 13977.4,2289.44 13890.4,2294.15C13803.5,2298.87 13722.6,2334.79 13666.7,2393.47C13666.7,2393.46 13666.7,2393.46 13666.7,2393.46C13648.7,2412.37 13641.6,2437.49 13647.4,2461.59C13727.1,2794.43 13817.7,2608.6 14342.4,2944.84C14367.1,2960.68 14392.6,2975.58 14418.9,2989.49C14516.9,3041.35 14469.4,3137.46 14652.5,3128.63C14799.1,3079.6 14809.7,2952.26 14788.1,2848.76C14783.3,2825.79 14744.8,2777.67 14766.3,2790.49C14843,2836.28 14837.7,2776.21 14773.3,2735.25C14507,2565.78 14288.9,2502.1 14126.3,2368.55Z" style="fill:rgb(244,219,191);"/>
                </g>
                <g transform="matrix(0.0362005,0,0,0.147408,5461.15,-1539.27)">
                    <path d="M14150.4,2194.59C14023.9,2144.69 13875,2174.79 13786,2268.25C13785.9,2268.17 13785.9,2268.17 13785.9,2268.17C13720.6,2336.82 13692.4,2426.97 13708.6,2515.3C13724.8,2603.62 13783.8,2681.44 13870.4,2728.61C14063.6,2833.83 14334.2,2868.05 14528.3,2998.56C14571.3,3027.39 14622.9,3044.56 14676.8,3047.96C14676.8,3048.02 14676.8,3048.02 14676.8,3048.02C14747.2,3052.45 14813.5,3018.84 14844.4,2963.14C14875.2,2907.44 14864.4,2840.86 14817,2795C14802,2780.81 14789.9,2766.88 14781.5,2753.31C14545.2,2371.33 14433.8,2302.64 14150.4,2194.59Z" style="fill:rgb(255,238,219);"/>
                </g>
                <g transform="matrix(0.0885101,0,0,0.316449,4673.35,-2030.1)">
                    <path d="M14969.5,2879.08C14963.4,2851.61 14904.2,2756.74 14836.7,2681.49C14787.1,2626.25 14733,2581.59 14692.2,2581.95C14692.2,2581.95 14727.4,2665.11 14738.6,2691.45C14740.8,2696.6 14744.4,2700.98 14749.1,2704.03C14769.8,2717.45 14828.8,2755.73 14842.2,2764.42C14844.1,2765.66 14845.8,2767.12 14847.4,2768.78C14877.6,2802.06 14911.1,2881.12 14969.5,2879.08Z" style="fill:rgb(255,247,238);"/>
                </g>
                <g transform="matrix(-0.0196192,0.0146827,-0.00366947,-0.0654402,6403.05,-1277.31)">
                    <path d="M24731,1794.98C24535,1444.7 24174.3,1239.47 23795.9,1262.96C23445.6,1285.18 23331.8,1505.66 23182.4,2011.12C23056,2439.02 23410.8,2436.33 23736.6,2839.36C23761.6,2870.29 23800.6,2903.08 23850.8,2934.31C24112.1,3096.71 24439.7,3060.55 24661.8,2844.78C24884,2629.01 24950,2282.87 24825.2,1987.82C24797,1921.53 24765.7,1856.84 24731,1794.98Z" style="fill:rgb(244,219,191);"/>
                </g>
                <g transform="matrix(-0.0212474,0.0159012,-0.00397589,-0.0709049,6439.38,-1305.85)">
                    <path d="M24498.2,1664.9C24342.9,1385.07 24048.4,1229.37 23748.6,1268.48C23439.9,1309.15 23333.6,1533.22 23182.4,2011.12C23018.3,2530.22 23765.7,2898.88 24221.9,2967.88C24448.6,3002.18 24453.4,3062.28 24706.2,2894.61C24764,2856.39 24800.7,2790.16 24804.3,2717.13C24822.5,2370.61 24687.1,2005.97 24498.2,1664.9Z" style="fill:rgb(255,233,209);"/>
                </g>
                <g transform="matrix(0.0203849,-0.0206922,-0.00541623,-0.0660666,5470.15,-491.478)">
                    <path d="M24681,2581.31C24671.6,2182.45 24526,1800.86 24273.1,1512.69C23946.1,1139.53 23636.5,762.645 23280.8,964.525C23086.5,1074.78 22955.5,1362.4 22911.3,1676.03C22858.8,2047.22 23017.7,2418 23312.2,2611.72C23522.4,2750.01 23798.9,2975.83 24055.7,3141.17C24191.4,3228.6 24359.2,3226.56 24491.7,3135.89C24624.1,3045.22 24699.4,2880.83 24687.2,2708.91C24684,2664.43 24681.9,2621.92 24681,2581.31Z" style="fill:rgb(244,219,191);"/>
                </g>
                <g transform="matrix(0.0885101,0,0,0.316449,4601.54,-1961)">
                    <path d="M15039.1,2697.72C14941.9,2625 14863.3,2641.19 14749.1,2668.65C14749.1,2668.65 14765.2,2672.05 14773.7,2673.86C14777.2,2674.59 14780.7,2674.66 14784.2,2674.08C14860.6,2661.35 14934.3,2663.73 14967.9,2674.96C14968.7,2675.23 14969.5,2675.55 14970.3,2675.9C15002.3,2690.2 15001.3,2675.93 15039.1,2697.72Z" style="fill:rgb(252,226,198);"/>
                </g>
                <g transform="matrix(0.0203849,-0.0206922,-0.00541623,-0.0660666,5469.64,-502.681)">
                    <path d="M24617,2452.58C24580.6,2159.45 24470.5,1882.68 24299.2,1653.52C23983.5,1229.13 23690,733.548 23280.8,964.525C23085.7,1074.61 22954.5,1363.46 22910.8,1678.16C22859,2048.54 23017.8,2418.18 23311.6,2611.34C23511.2,2742.59 23770.7,2952.97 24016.5,3115.54C24159.5,3209.78 24338.8,3203.36 24474.4,3099.12C24610.1,2994.89 24676.8,2812.25 24644.9,2632.57C24633.4,2567.27 24624,2507.49 24617,2452.58Z" style="fill:rgb(255,233,209);"/>
                </g>
                <g transform="matrix(-0.0174949,-0.0307229,-0.00698164,0.0491985,6404.48,-578.473)">
                    <path d="M25026,2610.72C25024.2,2450.64 24962.6,2302.03 24859.9,2209.88C24370.1,1768.79 23910.6,1677.19 23445.3,2173.01C23167.7,2468.91 23191.8,2457.34 23415.6,2836.11C23446.5,2888.48 23479.5,2938.84 23514.4,2987C23678.2,3213.36 23853.2,3428.76 24028,3440.22C24208.1,3452.03 24508.3,3320.18 24863.2,3007.97C24966.3,2917.58 25027.3,2768.35 25025.6,2610.74C25026,2610.73 25026,2610.73 25026,2610.72Z" style="fill:rgb(244,219,191);"/>
                </g>
                <g transform="matrix(-0.0885101,0,0,0.316449,7256.24,-1994.44)">
                    <path d="M14993.9,2740C14942.4,2628.9 14900.8,2588.49 14820.8,2549.28L14779.2,2596.24C14865.8,2589.88 14971.9,2676.45 14993.9,2740Z" style="fill:rgb(252,226,198);"/>
                </g>
                <g transform="matrix(-0.0174949,-0.0307229,-0.00698164,0.0491985,6399.81,-581.079)">
                    <path d="M25026,2610.61C25024.3,2454.18 24966.7,2308.02 24869.4,2212.79C24380.5,1733.16 23940.2,1469.14 23472.2,1967.94C23258.2,2195.98 23209.2,2350.63 23299.2,2591.88C23374.8,2794.18 23505,2955.26 23666.7,3046.61C24039.2,3257.63 24422.9,3256.11 24846.3,2984.58C24957.9,2913.24 25027.8,2767.7 25026,2610.62C25026,2610.62 25026,2610.61 25026,2610.61Z" style="fill:rgb(255,233,209);"/>
                </g>
                <g transform="matrix(0.0815016,0,0,0.289768,4754.59,-2000.17)">
                    <path d="M14974.9,2744.51C14888.2,2606.23 14796,2643.51 14676.9,2651.49C14676.9,2651.49 14752.1,2659.77 14771,2661.85C14773.9,2662.17 14776.7,2662.89 14779.3,2663.99C14795.6,2670.75 14857,2696.22 14876.1,2704.18C14880,2705.77 14883.4,2708.13 14886.3,2711.11C14913.1,2738.91 14917.9,2746.5 14974.9,2744.51Z" style="fill:rgb(255,247,238);"/>
                </g>
                <g transform="matrix(0.0177402,-0.258312,0.0722495,0.0634261,5562.49,2535.05)">
                    <path d="M15450.3,1229.02C15305.2,1269.76 15346.2,1182.28 15069.6,1364.73C14825.1,1340.08 15159.3,1284.21 14933.7,1531.2C14902.5,1565.34 14865.4,1618.29 14751.1,1666.32C14919.6,1657.45 14972.4,1583.65 15142.8,1499.04C15147.5,1496.74 15152,1494.25 15156.5,1491.6C15172,1482.47 15207.1,1462.24 15212.7,1459.57C15305.7,1415.26 15405,1327.7 15450.3,1229.02Z" style="fill:rgb(200,134,64);"/>
                </g>
                <g transform="matrix(0.0317737,-0.240506,0.0672691,0.1136,5352.64,2188.37)">
                    <path d="M15325.5,1214.82C15336.1,1216.17 15343.7,1225.83 15342.4,1236.45C15341.1,1247.08 15331.5,1254.7 15320.9,1253.53C15282.9,1249.24 15244.8,1251.55 15094.7,1348.39C15075.1,1361.02 15057.8,1376.99 15043.8,1395.59C14948.8,1520.89 15062.3,1540.65 14749.3,1673.55C14940.1,1677.66 15112,1532.06 15232.8,1365.94C15249.6,1342.87 15261.3,1316.44 15266.9,1288.45C15279.7,1225.33 15301,1211.38 15325.5,1214.82Z" style="fill:rgb(200,134,64);"/>
                </g>
                <g transform="matrix(0.0317737,-0.240506,0.0672691,0.1136,5350.86,2171.7)">
                    <path d="M15227.2,1426.12C15253.4,1402.42 15257.3,1362.71 15236.3,1334.35C15215.2,1305.98 15176.1,1298.22 15145.8,1316.41C15130.3,1325.73 15113.3,1336.36 15094.5,1348.47C15075.1,1360.97 15058.1,1376.76 15044.1,1395.13C14948.9,1519.87 15064.4,1533.3 14751.1,1666.32C14951.7,1671.14 15073.6,1592.95 15223.8,1429.46C15224.9,1428.3 15226,1427.18 15227.2,1426.12C15227.2,1426.12 15227.2,1426.12 15227.2,1426.12Z" style="fill:rgb(181,126,67);"/>
                </g>
                <g transform="matrix(-0.0228266,0.0566433,0.0118587,0.0538111,6436.35,-2789.74)">
                    <path d="M24878.2,2438.54C24931.3,1918.19 24724.9,1392.28 24382,1174.38C24173.6,1042.11 23975.2,1066.72 23751,1263C23580.6,1412.31 23461.3,1656 23418.6,1942.08C23397.4,2083.22 23385.8,2212.66 23468.2,2266.43C23574.7,2335.88 23603.4,2388.26 23624.1,2703.52C23631.5,2815.11 23765.4,3192.41 23857.1,3420.63C23902.1,3532.24 23938.1,3650.38 23964.3,3772.6C23975.6,3826.81 23987.6,3844.53 24037.4,3878C24121.5,3934.6 24204.3,3876.99 24289.6,3779.52C24332.4,3730.66 24383.6,3670.21 24450.4,3599.99C24671.1,3367.89 24817.1,3016.55 24858.3,2617.97C24864.4,2558.71 24871.4,2498.66 24878.2,2438.54Z" style="fill:rgb(255,233,209);"/>
                </g>
                <g transform="matrix(0.104904,0.313055,-0.0351821,0.194943,4388.3,-6458.39)">
                    <ellipse cx="15671.9" cy="2371.75" rx="10.755" ry="49.863" style="fill:rgb(216,184,150);"/>
                </g>
                <g transform="matrix(-0.00190606,0.510709,-0.0581397,0.0211407,6089.93,-9073.36)">
                    <ellipse cx="15671.9" cy="2371.75" rx="10.755" ry="49.863" style="fill:rgb(216,184,150);"/>
                </g>
                <g transform="matrix(-0.0228266,0.0566433,0.0118587,0.0538111,6436.47,-2789.18)">
                    <path d="M23970.1,2975.62C23981.4,2661.59 23927.9,2344.08 23816.3,2063.34C23563.2,1426.41 23922.2,958.035 23444.1,1613.34C23476.1,1827.71 23319.9,2169.63 23468.2,2266.43C23574.7,2335.88 23603.4,2388.26 23624.1,2703.52C23631.5,2815.11 23765.4,3192.41 23857.1,3420.63C23902.1,3532.24 23938.1,3650.38 23964.3,3772.6C23975.6,3826.81 23987.6,3844.53 24037.4,3878C24121.5,3934.6 24204.3,3876.99 24289.6,3779.52C24393.1,3661.25 24059.9,3854.37 24019.2,3664.9C24015.7,3648.67 24010.4,3633.23 24003.6,3619.18C23999.9,3611.56 23996,3604.34 23990.2,3598.78C23961.8,3571.94 23919,3511.8 23929.7,3477.1C23957,3388.35 24127.2,3218.99 24057.9,3169.22C24035.6,3153.22 24036.1,3175.19 24021.9,3143.18C24010,3116.71 23983.3,3059.72 23971.6,3037.86C23968.9,3032.66 23968.8,3009.99 23970.1,2975.62Z" style="fill:rgb(252,226,198);"/>
                </g>
                <g transform="matrix(0.0344145,0,0,0.123042,5096.89,-1594.63)">
                    <path d="M22758.5,10766.3C22775.1,10712.3 22761.7,10653.5 22723.2,10612.2C22684.7,10570.8 22627.1,10553.1 22572,10565.8C22249.2,10646.2 22218.9,10600.3 21872,10615.6C21808.2,10618 21748.5,10647.5 21707.9,10696.8C21667.3,10746.1 21649.8,10810.4 21659.8,10873.4C21674.3,10966.5 21732.7,10996.4 21769,11195.2C21774.7,11225.4 21778,11255.9 21779.1,11286.6C21805.5,12007.5 21792.2,11953 21231.1,13074C22029.3,12224.3 22197.7,12225 22371.5,11895.4C22471.6,11705.8 22560.9,11409.6 22758.5,10766.3Z" style="fill:rgb(56,89,126);"/>
                </g>
                <g transform="matrix(0.0344145,0,0,0.123042,5098.03,-1595.65)">
                    <path d="M22828.9,10727.4C22846.7,10672.7 22833.4,10612.7 22794.2,10570.6C22754.9,10528.6 22695.9,10511.2 22640.1,10525.2C22309.2,10612.5 22234.5,10593.1 21892.9,10613C21751.3,10621 21641,10739 21642.7,10880.8C21643.7,10960.4 21677.6,10996 21735.6,11138.8C21764.6,11210 21780.1,11285.9 21781.3,11362.8C21792.9,11998.5 21673.9,12146.1 21178.6,13128.5C21174.7,13136.4 21177.1,13145.9 21184.2,13151C21191.4,13156.1 21201.2,13155.2 21207.3,13148.9C21942,12375.3 22203.9,12213.3 22371.5,11895.4C22471.4,11706.1 22618.3,11376.5 22828.9,10727.4Z" style="fill:rgb(75,115,161);"/>
                </g>
                <g transform="matrix(0.0245275,0,0,0.10689,5338.14,-1394.84)">
                    <path d="M25091.7,7638.54C24956.9,7488.97 24916.7,7295.73 24983.5,7117.95C24987.6,7107.11 24991.6,7096.39 24995.5,7085.88C25037.2,6975.03 25099.9,6870.27 25181.3,6775.45C25181.3,6775.45 25181.3,6775.45 25181.3,6775.45C25018.8,6783.81 24869,7181.72 24908.1,7408.34C24916.9,7459.14 24944.3,7506.57 24986.5,7544.39C25029.2,7582.56 25091.7,7638.54 25091.7,7638.54C25091.7,7638.54 25091.7,7638.54 25091.7,7638.54Z" style="fill:rgb(199,197,194);"/>
                </g>
                <g transform="matrix(0.0674349,-0.112337,0.0314203,0.241099,4830.73,12.0158)">
                    <path d="M15389.6,1449.24C15384.8,1429.96 15368,1416.06 15348.2,1414.9C15253.1,1409.23 15319.5,1207.19 15086.3,1354C15074.8,1361.21 15062.6,1367.23 15049.9,1371.96C14818,1458.3 14800.7,1517.24 14397.7,1653.99C14694,1555.4 14987.5,1551.91 15280.3,1577.58C15313.6,1580.46 15346.3,1567.04 15368,1541.57C15389.7,1516.09 15397.7,1481.7 15389.6,1449.25C15389.6,1449.24 15389.6,1449.24 15389.6,1449.24Z" style="fill:rgb(181,126,67);"/>
                </g>
                <g transform="matrix(0.0515495,-0.191781,0.037907,0.130244,5099.31,1444.79)">
                    <path d="M14960.4,955.102C14939.6,919.203 14863.2,277.897 14735.7,1156.8C14825.6,1137.43 15003.4,1021.41 15022.2,1089.12C15034.4,1133.11 15047.1,1154.42 15051.6,1161.43C15052.6,1163.06 15051.7,1145.73 15065,1114.81C15068.6,1106.6 15080.3,1103.14 15085.8,1104.75C15100.6,1109.05 15125.5,1121.55 15129.9,1095.88C15139.5,1040.13 15190.7,1032.06 15294.1,983.445L14960.4,955.102Z" style="fill:rgb(244,219,191);"/>
                </g>
                <g transform="matrix(0.0552858,-0.0859473,0.0246516,0.202697,5000.77,-255.636)">
                    <path d="M15870.5,1543.76C15854.7,1511.73 15817.4,1495.53 15782.4,1505.45C15773.3,1508.09 15764.5,1511.25 15755.9,1514.02C15755.2,1514.26 15754.6,1514.81 15754.3,1515.52C15754.3,1515.52 15754.3,1515.52 15754.3,1515.52C15749.7,1526.64 15750.9,1539.2 15757.3,1549.39C15763.7,1559.58 15774.7,1566.22 15786.9,1567.3C15810.1,1569.3 15829,1567.42 15864.6,1556.72C15867.3,1555.93 15869.5,1554.04 15870.6,1551.55C15871.7,1549.06 15871.7,1546.21 15870.4,1543.76C15870.5,1543.76 15870.5,1543.76 15870.5,1543.76Z" style="fill:white;"/>
                </g>
                <g transform="matrix(0.0600809,-0.106877,0.0263633,0.243568,4931.27,29.7035)">
                    <path d="M15739,1418.68C15740,1411.81 15736.3,1404.68 15729.5,1400.75C15722.8,1396.82 15714.5,1396.91 15708.7,1400.96C15708.6,1400.96 15708.6,1400.97 15708.6,1400.97C15702.7,1405.09 15698.7,1411.07 15697.2,1417.94C15696.6,1420.33 15696.3,1422.69 15696.1,1425.01C15695.3,1434.59 15702.5,1443.86 15712.9,1446.6C15712.9,1446.65 15712.9,1446.65 15712.9,1446.65C15723.4,1449.43 15733.7,1444.13 15736,1434.73C15737.2,1429.86 15738.2,1424.42 15739,1418.68Z" style="fill:rgb(13,34,53);"/>
                </g>
                <g transform="matrix(0.0645644,-0.132147,0.0369612,0.230836,4853.65,411.786)">
                    <path d="M15730.5,1436.01C15728.5,1434.78 15726.2,1434.16 15723.8,1434.22C15717.8,1434.36 15705.7,1434.63 15698.7,1434.79C15695.4,1434.87 15692.2,1436.32 15689.9,1438.82C15685.1,1444.03 15676.3,1453.66 15668.1,1462.68C15666.9,1463.96 15666.9,1465.91 15668,1467.25C15669.1,1468.6 15671,1468.93 15672.5,1468.04C15716.9,1439.92 15722.8,1448.85 15775.9,1466.74C15776.6,1466.96 15777.3,1466.64 15777.6,1466C15777.9,1465.36 15777.7,1464.6 15777.1,1464.24C15763.1,1455.79 15739,1441.17 15730.5,1436.01Z" style="fill:rgb(181,126,67);"/>
                </g>
                <g transform="matrix(0.0479777,-0.085347,0.0210525,0.194502,5129.09,-238.98)">
                    <path d="M15740.4,1424.31C15742.6,1415.76 15738.2,1406.37 15729.5,1401.36C15720.9,1396.35 15710.2,1396.95 15703.4,1402.83C15703,1403.16 15702.7,1403.46 15702.4,1403.75C15700.3,1405.49 15698.9,1407.69 15698,1410.17C15696.2,1416.02 15695.3,1421.68 15695.4,1427.19C15695.6,1435.24 15700.9,1442.88 15709,1446.73C15709,1446.77 15709,1446.77 15709,1446.77C15714.4,1449.36 15720.6,1449.78 15725.9,1447.9C15731.3,1446.03 15735.3,1442.04 15736.9,1436.97C15738.1,1433.02 15739.3,1428.76 15740.4,1424.31Z" style="fill:rgb(9,91,164);"/>
                </g>
                <g transform="matrix(-0.0733847,0.0436977,0.0116282,0.249621,7048.38,-2368.59)">
                    <path d="M15730.4,1435.95C15728.4,1434.76 15726.2,1434.16 15724,1434.21C15718,1434.35 15705.6,1434.63 15698.6,1434.8C15695.3,1434.87 15692.2,1436.31 15689.9,1438.79C15685.3,1443.86 15676.8,1453.14 15668.8,1461.97C15667.6,1463.29 15667.5,1465.33 15668.5,1466.77C15669.6,1468.21 15671.5,1468.61 15673,1467.71C15716.8,1440.07 15723,1448.87 15775.4,1466.58C15776.1,1466.81 15776.8,1466.46 15777.1,1465.78C15777.4,1465.1 15777.2,1464.31 15776.6,1463.93C15762.5,1455.41 15738.7,1441 15730.4,1435.95Z" style="fill:rgb(181,126,67);"/>
                </g>
                <g transform="matrix(0.0259462,-0.0461554,0.0140141,0.129474,5485.86,-763.438)">
                    <path d="M15735.6,1417.95C15736.4,1412.7 15733,1407.29 15726.8,1404.09C15720.7,1400.88 15712.9,1400.46 15707,1403.02C15707,1403.02 15707,1403.02 15707,1403.02C15701.8,1405.25 15698.2,1409.03 15697.1,1413.51C15695.8,1418.48 15695.3,1423.31 15695.4,1428.03C15695.8,1436.52 15704,1444.22 15715.2,1446.56C15715.7,1446.69 15716.2,1446.81 15716.7,1446.91C15720.3,1447.66 15724.1,1447.28 15727,1445.87C15729.9,1444.45 15731.9,1442.12 15732.3,1439.44C15733.2,1433.47 15734.4,1425.65 15735.6,1417.95Z" style="fill:rgb(10,31,49);"/>
                </g>
                <g transform="matrix(-0.0552858,-0.0859473,-0.0246516,0.202697,6835.29,-275.588)">
                    <path d="M15824,1581.08C15830.5,1563.89 15829.7,1544.88 15821.7,1528.28C15817.7,1519.92 15818.1,1515.02 15801,1502.87C15799.3,1501.62 15797.2,1500.95 15795.1,1500.96C15793.9,1500.95 15792.5,1500.95 15790.8,1500.96C15781.1,1501 15772,1505.91 15766.8,1513.97C15761.6,1522.04 15761,1532.13 15765.1,1540.75C15771.9,1555.41 15782.3,1571.87 15809.8,1586.29C15812.3,1587.65 15815.4,1587.86 15818.1,1586.85C15820.8,1585.85 15823,1583.74 15824,1581.08C15824,1581.08 15824,1581.08 15824,1581.08Z" style="fill:white;"/>
                </g>
                <g transform="matrix(0.0142365,-0.0253252,0.00624695,0.0577149,5681.16,-991.111)">
                    <path d="M15734.6,1424.59C15735.6,1417.85 15732.3,1410.8 15726.1,1406.39C15719.9,1401.97 15711.8,1400.96 15705.2,1403.76C15705.2,1403.78 15705.1,1403.8 15705.1,1403.81C15701.1,1405.5 15698.3,1408.67 15697.2,1412.59C15696.1,1417.06 15695.5,1421.37 15695.4,1425.6C15695.4,1434.96 15703,1443.51 15713.1,1445.65C15713.3,1446.17 15713.6,1446.23 15713.8,1446.28C15723.1,1448.25 15731.7,1443.03 15733,1434.62C15733.5,1431.5 15734,1428.09 15734.6,1424.59Z" style="fill:rgb(195,195,195);fill-opacity:0.662745;"/>
                </g>
                <g transform="matrix(0.0515495,-0.191781,0.0286503,0.0984392,5085.24,1455.75)">
                    <path d="M15407.4,1152.32C15387.8,1132.68 15365.5,1124.12 15343.4,1127.68C15261.6,1141.79 15260.9,1118.84 15040.3,1263.46C15029.7,1270.36 15018.9,1275.58 15007.9,1279.07C14778.8,1352.05 14851.4,1131.29 14440.4,1055.66C14596.8,1151.26 14787.9,1380.49 14929.8,1466.67C15025.7,1524.88 15135.1,1517.35 15263.2,1529.16C15310.7,1533.51 15356.6,1495.09 15386.5,1425.76C15416.4,1356.42 15426.9,1264.5 15414.7,1178.34C15411.6,1156.7 15409.6,1154.52 15407.4,1152.32Z" style="fill:rgb(200,134,64);"/>
                </g>
                <g transform="matrix(0.0515495,-0.191781,0.0286503,0.0984392,5072.28,1460.54)">
                    <path d="M15408.2,1151.26C15382.2,1133.79 15354.5,1126.68 15326.9,1130.4C15260.3,1139.36 15245.1,1129.2 15040.3,1263.46C15029.7,1270.36 15018.9,1275.58 15007.9,1279.07C14778.8,1352.05 14851.4,1131.29 14440.4,1055.66C14596.8,1151.26 14796.9,1367.2 14929.8,1466.67C15026.9,1539.33 15143,1527.38 15277.8,1534.81C15325.2,1537.42 15370.2,1496.34 15398.3,1424.89C15426.4,1353.43 15434,1260.7 15418.6,1176.79C15414.4,1153.85 15411.3,1153.34 15408.2,1151.26Z" style="fill:rgb(181,126,67);"/>
                </g>
                <g transform="matrix(0.0650246,-0.129231,0.0193058,0.124171,4885.04,460.707)">
                    <path d="M15408.2,1151.26C15382.2,1133.79 15354.5,1126.68 15326.9,1130.4C15260.3,1139.36 15245.1,1129.2 15040.3,1263.46C15029.7,1270.36 15018.9,1275.58 15007.9,1279.07C14778.8,1352.05 14851.4,1131.29 14440.4,1055.66C14596.8,1151.26 14796.9,1367.2 14929.8,1466.67C15026.9,1539.33 15143,1527.38 15277.8,1534.81C15325.2,1537.42 15370.2,1496.34 15398.3,1424.89C15426.4,1353.43 15434,1260.7 15418.6,1176.79C15414.4,1153.85 15411.3,1153.34 15408.2,1151.26Z" style="fill:rgb(181,126,67);"/>
                </g>
                <g transform="matrix(0.0102101,-0.0181627,0.00410038,0.0378829,5747.53,-1075.29)">
                    <path d="M15734.3,1425.95C15735.4,1418.85 15732.4,1411.38 15726.5,1406.6C15720.5,1401.82 15712.8,1400.54 15706.3,1403.3C15705.2,1403.77 15704.2,1404.21 15703.3,1404.58C15700.7,1405.69 15698.7,1407.83 15697.9,1410.54C15696.3,1415.86 15695.4,1421 15695.4,1426.01C15695.5,1435.08 15702.3,1443.28 15711.3,1445.19C15711.4,1445.76 15711.6,1445.79 15711.7,1445.82C15722.3,1448.07 15731.9,1441.61 15733.5,1431.23C15733.8,1429.52 15734.1,1427.75 15734.3,1425.95Z" style="fill:rgb(195,195,195);fill-opacity:0.662745;"/>
                </g>
                <g transform="matrix(0.0729589,-0.0520204,0.01455,0.260849,4766.8,-938.646)">
                    <path d="M15429.2,1590.14C15481.5,1556.9 15508.4,1495.36 15497.5,1434.38C15486.6,1373.4 15439.8,1325.09 15379.3,1312.11C15299.7,1295.2 15208.1,1301.72 15108.2,1364.59C15105.8,1366.11 15103.4,1367.58 15100.9,1368.99C14820.4,1529.92 14783.9,1645.51 14423.4,1717.55C14792,1771.23 15132.2,1718.68 15421.6,1594.13C15424.3,1593 15426.8,1591.67 15429.2,1590.14C15429.2,1590.14 15429.2,1590.14 15429.2,1590.14Z" style="fill:rgb(200,134,64);"/>
                </g>
                <g transform="matrix(-0.0542882,-0.181865,0.0508674,-0.194096,6671.52,1677.95)">
                    <path d="M15417.2,1331.47C15419.1,1312.15 15408.4,1293.81 15390.6,1286C15372.9,1278.2 15352.1,1282.7 15339.2,1297.16C15322.8,1315.21 15283.7,1344.98 15163,1403.59C15152.6,1408.65 15109.5,1435.04 15034.5,1450.12C15132.4,1522.72 15126,1541.53 15211.7,1525.35C15273.4,1513.72 15318.7,1438.73 15394.4,1374.6C15407.3,1363.76 15415.5,1348.27 15417.2,1331.46C15417.2,1331.47 15417.2,1331.47 15417.2,1331.47Z" style="fill:rgb(200,134,64);"/>
                </g>
                <g transform="matrix(0.0793511,-0.222472,0.0459074,0.209306,5687.86,-777.995)">
                    <path d="M2465.69,316.18C2466.04,312.317 2465.19,308.431 2463.35,305.448C2451.69,286.558 2441.46,274.766 2427.09,275.298C2424.87,275.368 2422.73,276.398 2420.98,278.236C2378.98,322.752 2412.69,408.101 2421.65,451.748C2422.64,457.697 2426.36,462.088 2430.85,462.606C2442.58,464.235 2450.84,470.857 2454.48,440.479C2454.5,440.296 2454.52,440.111 2454.54,439.927C2455.04,434.411 2463.46,340.909 2465.69,316.18Z" style="fill:rgb(255,233,209);"/>
                </g>
                <g transform="matrix(0.0743955,0,0,0.265985,4752.55,-1668.7)">
                    <path d="M15806.7,1503.78C15789.1,1534.72 15758.1,1549.05 15716.7,1549.12C15711.5,1549.12 15707.1,1552.8 15706.1,1557.89C15703.7,1570.7 15699.3,1594.55 15696.2,1611.07C15695.3,1615.72 15697.2,1620.45 15701.1,1623.2C15704.9,1625.94 15710,1626.2 15714.1,1623.87C15745.3,1606.18 15794.8,1554.76 15813.4,1541.65C15816.9,1539.51 15819,1535.77 15819.2,1531.71C15819.4,1521.51 15811.9,1507.71 15806.7,1503.78Z" style="fill:rgb(244,219,191);"/>
                </g>
                <g transform="matrix(0.102469,-0.142179,0.0269162,0.247966,5620.08,-978.78)">
                    <path d="M2590.18,345.9C2578.56,353.455 2577.19,371.097 2576.51,379.233C2578.11,373.556 2582.26,359.391 2588.18,357.9C2614.35,339.103 2624.13,428.07 2620.89,445.233C2629.05,427.904 2620.79,342.545 2590.18,345.9Z" style="fill:rgb(246,216,184);"/>
                </g>
                <g transform="matrix(0.102469,-0.142179,0.0269162,0.247966,5624.29,-964.662)">
                    <path d="M2596.05,328.9C2593.53,335.291 2567.39,348.683 2571.32,368.9C2573.89,358.435 2605.8,321.641 2599.68,355.233C2599.26,357.585 2597.32,343.545 2596.05,328.9Z" style="fill:rgb(246,216,184);"/>
                </g>
                <g transform="matrix(0.0694948,-0.0949421,0.0228943,0.21421,4818.26,-187.825)">
                    <path d="M15389.2,1800.33C15389.6,1797.74 15388.7,1795.12 15386.9,1793.54C15385.1,1791.95 15382.7,1791.66 15380.7,1792.79C15341.2,1814.6 15356.3,1809.57 15294.7,1801.14C15285.6,1799.87 15276.7,1804.16 15271,1812.46C15261.7,1826.04 15247.4,1847.15 15237.8,1861.27C15235.5,1864.52 15234.9,1868.84 15236,1872.76C15237.2,1876.68 15239.9,1879.67 15243.4,1880.72C15288.8,1894.69 15318.7,1905.6 15376,1895.94C15384.1,1894.66 15391.3,1888.99 15395.3,1880.65C15399.3,1872.3 15399.7,1862.26 15396.3,1853.54C15389.6,1836.16 15386,1820.69 15389.2,1800.33Z" style="fill:rgb(106,29,28);"/>
                </g>
                <g transform="matrix(0.0743955,0,0,0.265985,4755.45,-1640.85)">
                    <path d="M15813,1514.19C15776.7,1536.95 15750.4,1546.16 15712.2,1548.76C15712.2,1548.76 15729.2,1557.6 15730.4,1558.25C15730.5,1558.32 15730.7,1558.38 15730.8,1558.44C15752.1,1568.64 15771.7,1562.48 15790.9,1552.01C15792.2,1551.31 15793.3,1550.4 15794.3,1549.31C15801.6,1540.88 15808.3,1530.79 15813,1514.19Z" style="fill:rgb(244,219,191);"/>
                </g>
                <g transform="matrix(-0.0678507,-0.109089,0.0305119,-0.242586,6944.41,938.923)">
                    <path d="M15770.3,1712.37C15774.2,1738 15786.1,1790.66 15812.2,1810.76C15800,1813.3 15789.7,1840.3 15777.9,1854.09C15775.2,1857.19 15771,1858.53 15767,1857.56C15763.1,1856.6 15759.9,1853.49 15759,1849.51C15750.6,1814.3 15761.1,1737.7 15770.3,1712.37Z" style="fill:rgb(200,134,64);"/>
                </g>
                <g transform="matrix(-0.0678507,-0.109089,0.0305119,-0.242586,6946.36,938.644)">
                    <path d="M15770.3,1712.37C15773.4,1732.7 15786.2,1750.61 15804.3,1767.17C15807.2,1769.85 15808.5,1773.87 15807.6,1777.71C15806.7,1781.55 15803.8,1784.62 15800.1,1785.77C15795.3,1787.22 15790.5,1788.68 15786.6,1789.86C15781.6,1791.37 15776.3,1789.19 15773.7,1784.63C15761.7,1762.51 15760.9,1738.37 15770.3,1712.37Z" style="fill:rgb(200,134,64);"/>
                </g>
                <g transform="matrix(-0.0715903,0.0723519,-0.0202367,-0.255956,7096.33,-1902.35)">
                    <path d="M15770.3,1712.37C15773.8,1735.19 15789.5,1754.96 15811.2,1773.21C15815.7,1776.96 15816.5,1783.55 15813,1788.22C15801.3,1804.81 15789.4,1827.09 15779,1793.77C15778.6,1792.79 15778.2,1791.85 15777.6,1791C15762,1767.19 15760,1740.9 15770.3,1712.37Z" style="fill:rgb(200,134,64);"/>
                </g>
                <g transform="matrix(-0.0715903,0.0723519,-0.0202367,-0.255956,7097.85,-1905.98)">
                    <path d="M15770.3,1712.37C15774,1736.39 15791.1,1757.03 15814.7,1776.07C15817.7,1778.48 15819.2,1782.27 15818.7,1786.08C15818.1,1791.12 15817.1,1798.67 15816,1806.61C15815.4,1811.46 15811.6,1815.3 15806.8,1816.04C15801.9,1816.78 15797.2,1814.24 15795.1,1809.81C15778.2,1773.62 15761.2,1727.63 15770.3,1712.37Z" style="fill:rgb(200,134,64);"/>
                </g>
                <g transform="matrix(-0.0715903,0.0723519,-0.0202367,-0.255956,7098.79,-1910.44)">
                    <path d="M15770.3,1712.37C15773.9,1735.98 15801.9,1755.37 15826.7,1773.99C15830.4,1776.84 15831.9,1781.75 15830.5,1786.22C15829.2,1790.01 15827.6,1794.83 15826,1799.71C15824.6,1803.79 15821,1806.71 15816.8,1807.18C15812.5,1807.66 15808.3,1805.61 15806.1,1801.94C15786.2,1769.54 15760.3,1729.01 15770.3,1712.37Z" style="fill:rgb(200,134,64);"/>
                </g>
                <g transform="matrix(-0.0715903,0.0723519,-0.0202367,-0.255956,7099.33,-1914.75)">
                    <path d="M15776.1,1707.46C15788.6,1729.26 15805.6,1752.84 15817,1774.85C15818.6,1777.99 15818.6,1781.7 15817,1784.83C15815.5,1787.78 15813.5,1791.74 15811.4,1795.81C15809.4,1799.57 15805.5,1801.89 15801.3,1801.79C15797.1,1801.69 15793.3,1799.18 15791.6,1795.33C15777.1,1763.45 15766,1724.22 15776.1,1707.46Z" style="fill:rgb(200,134,64);"/>
                </g>
                <g transform="matrix(-0.0715903,0.0723519,-0.0202367,-0.255956,7099.6,-1917.96)">
                    <path d="M15770.3,1712.37C15774.1,1737.28 15792.4,1758.55 15817.4,1778.18C15818.7,1779.26 15819.5,1780.92 15819.5,1782.66C15819.5,1782.66 15819.5,1782.67 15819.5,1782.67C15819.4,1787.28 15816.4,1791.3 15811.9,1792.57C15807.5,1793.83 15802.8,1792.04 15800.3,1788.16C15781.6,1759.13 15761.4,1727.28 15770.3,1712.37Z" style="fill:rgb(200,134,64);"/>
                </g>
                <g transform="matrix(0.0515495,-0.191781,0.0286503,0.0984392,5098.69,1499.36)">
                    <path d="M15156.2,928.894C15032.8,1044.5 14694.2,1255.18 14344.7,1431.07C14646.7,1433.99 14975.3,1237.34 15294.1,983.445L15156.2,928.894Z" style="fill:rgb(200,134,64);"/>
                </g>
                <g transform="matrix(0.0676536,-0.110643,0.0309466,0.241881,4896.57,-8.69716)">
                    <path d="M14561.6,1270.61C14561.4,1269.61 14561.2,1268.62 14560.8,1267.65C14560.1,1265.77 14558.9,1262.17 14557.2,1257.57C14554.1,1248.84 14545.9,1243.02 14536.6,1243.05C14527.3,1243.08 14519.1,1248.96 14516.1,1257.72C14509.1,1277.83 14503,1295.37 14503,1295.37C14503,1295.37 14511.2,1391.87 14515.4,1441.27C14516,1448.04 14519.7,1454.16 14525.4,1457.81C14531.1,1461.47 14538.2,1462.25 14544.6,1459.92C14555.8,1455.84 14568.5,1451.2 14578.5,1447.55C14588.7,1443.86 14594.6,1433.3 14592.5,1422.73C14584.1,1381.42 14564.3,1283.9 14561.6,1270.61Z" style="fill:rgb(255,233,209);"/>
                </g>
                <g transform="matrix(0.0743955,0,0,0.265985,4781.88,-1719.85)">
                    <path d="M15409.9,1665.81C15391.2,1684.79 15385.4,1684.18 15376.9,1679.88C15366.8,1674.73 15347.9,1703.74 15324.8,1696.73C15336,1709.84 15351.7,1707.71 15370.3,1715.42C15390.5,1712.32 15392.7,1716.13 15394,1711.28C15400.7,1685.23 15397,1708.96 15409.9,1665.81Z" style="fill:rgb(244,219,191);"/>
                </g>
                <g transform="matrix(0.0743955,0,0,0.265985,4752.13,-1708.39)">
                    <path d="M15694,1467.75C15693.1,1466.72 15692,1465.79 15690.9,1464.94C15682.8,1458.84 15674.8,1461.3 15666.8,1469.92C15700.4,1513.53 15744.1,1569.44 15770.2,1618.93C15787.2,1607.88 15788.6,1602.19 15800.6,1610.82C15769.9,1556.94 15731.4,1507.87 15694,1467.75Z" style="fill:rgb(255,247,238);"/>
                </g>
                <g transform="matrix(0.0743955,0,0,0.265985,4755.6,-1626.16)">
                    <path d="M15782,1390.46C15779.9,1385.86 15775.9,1382.36 15771.1,1380.82C15766.3,1379.27 15761,1379.83 15756.6,1382.35C15735,1394.72 15709.1,1404.05 15683.7,1408.7C15678.2,1409.68 15673.4,1413.2 15670.8,1418.2C15669.7,1420.41 15668.4,1422.89 15667.1,1425.4C15665.2,1429.06 15665.4,1433.46 15667.7,1436.92C15669.9,1440.38 15673.8,1442.38 15678,1442.15C15716.7,1440.08 15749.9,1430.33 15784.4,1407.33C15786.8,1405.75 15787.7,1402.68 15786.5,1400.1C15785.3,1397.51 15783.7,1394.07 15782,1390.46Z" style="fill:white;"/>
                </g>
                <g transform="matrix(0.00222665,0.0305789,-0.0440965,0.0410445,5944.77,-1377.12)">
                    <path d="M2811.15,616.838C2769.82,608.013 2796.29,595.134 2822.85,584.052C2838.03,577.631 2825.45,570.025 2793.85,566.513C2793.85,566.51 2793.84,566.51 2793.84,566.509C2781.7,565.159 2766.79,565.143 2754.57,566.467C2742.36,567.791 2734.61,570.26 2734.17,572.974C2731.3,590.239 2742.5,612.899 2811.15,616.838Z" style="fill:rgb(95,60,21);"/>
                </g>
                <g transform="matrix(0.0743955,0,0,0.265985,4756.77,-1616.99)">
                    <path d="M15777.5,1375.7C15777.1,1374.81 15776.3,1374.14 15775.3,1373.88C15774.4,1373.62 15773.4,1373.79 15772.6,1374.35C15747.5,1390.82 15693.1,1407.65 15657.7,1414.56C15650.1,1415.95 15644.3,1421.96 15643.1,1429.55C15642.8,1431.26 15642.6,1432.92 15642.3,1434.39C15642.1,1435.67 15642.5,1436.98 15643.4,1437.96C15644.2,1438.95 15645.4,1439.51 15646.7,1439.51C15689.2,1439.08 15735.7,1429.05 15773.8,1407.13C15781.7,1402.5 15784.9,1392.66 15781.2,1384.27C15779.8,1381.07 15778.5,1377.98 15777.5,1375.7Z" style="fill:white;"/>
                </g>
                <g transform="matrix(0.0600809,-0.106877,0.0263633,0.243568,4941.92,12.1429)">
                    <path d="M15738.8,1418.47C15739.4,1412.61 15736.3,1406.62 15730.9,1402.95C15725.4,1399.28 15718.4,1398.55 15712.8,1401.06C15712.8,1401.06 15712.8,1401.07 15712.7,1401.08C15703.7,1405.09 15697.7,1412.93 15696.3,1422.27C15696.2,1423.85 15696,1425.41 15696,1426.95C15695.6,1435.6 15702.3,1443.77 15711.6,1446.26C15712,1446.41 15712.4,1446.52 15712.8,1446.63C15723.5,1449.48 15734,1444.03 15736.2,1434.4C15737.3,1429.55 15738.2,1424.21 15738.8,1418.47Z" style="fill:rgb(13,34,53);"/>
                </g>
                <g transform="matrix(0.0479777,-0.085347,0.0210525,0.194502,5139.75,-256.541)">
                    <path d="M15739.9,1422.43C15740.8,1415.66 15737.5,1408.62 15731.2,1404.22C15725,1399.83 15716.9,1398.83 15710.3,1401.64C15710.3,1401.61 15710.3,1401.61 15710.3,1401.61C15702.2,1405.04 15696.8,1411.96 15695.8,1420.23C15695.6,1421.9 15695.4,1423.55 15695.4,1425.19C15695.2,1434.92 15703,1443.94 15713.5,1446.17C15713.6,1446.24 15713.7,1446.25 15713.7,1446.27C15724.7,1448.58 15735.1,1443.01 15737.7,1433.38C15738.6,1429.83 15739.3,1426.18 15739.9,1422.43Z" style="fill:rgb(9,91,164);"/>
                </g>
                <g transform="matrix(0.0259462,-0.0461554,0.0133911,0.123719,5497.34,-772.541)">
                    <path d="M15735.4,1419.28C15736.2,1413.73 15732.8,1407.99 15726.7,1404.55C15720.5,1401.11 15712.7,1400.58 15706.6,1403.19C15706.6,1403.19 15706.6,1403.19 15706.6,1403.19C15701.7,1405.29 15698.2,1408.94 15697.1,1413.31C15695.9,1417.98 15695.3,1422.54 15695.4,1426.99C15695.6,1435.98 15703.9,1444.19 15715.3,1446.57C15715.8,1446.7 15716.2,1446.81 15716.7,1446.91C15720.3,1447.67 15724.1,1447.25 15727,1445.75C15730,1444.25 15731.9,1441.81 15732.3,1438.99C15733.2,1433.43 15734.3,1426.36 15735.4,1419.28Z" style="fill:rgb(10,31,49);"/>
                </g>
                <g transform="matrix(0.0142365,-0.0253252,0.00624695,0.0577149,5691.82,-1007.87)">
                    <path d="M15734.6,1424.59C15735.6,1417.85 15732.3,1410.8 15726.1,1406.39C15719.9,1401.97 15711.8,1400.96 15705.2,1403.76C15705.2,1403.78 15705.1,1403.8 15705.1,1403.81C15701.1,1405.5 15698.3,1408.67 15697.2,1412.59C15696.1,1417.06 15695.5,1421.37 15695.4,1425.6C15695.4,1434.96 15703,1443.51 15713.1,1445.65C15713.3,1446.17 15713.6,1446.23 15713.8,1446.28C15723.1,1448.25 15731.7,1443.03 15733,1434.62C15733.5,1431.5 15734,1428.09 15734.6,1424.59Z" style="fill:rgb(195,195,195);fill-opacity:0.662745;"/>
                </g>
                <g transform="matrix(0.0102101,-0.0181627,0.00410038,0.0378829,5758.18,-1092.05)">
                    <path d="M15734.3,1425.95C15735.4,1418.85 15732.4,1411.38 15726.5,1406.6C15720.5,1401.82 15712.8,1400.54 15706.3,1403.3C15705.2,1403.77 15704.2,1404.21 15703.3,1404.58C15700.7,1405.69 15698.7,1407.83 15697.9,1410.54C15696.3,1415.86 15695.4,1421 15695.4,1426.01C15695.5,1435.08 15702.3,1443.28 15711.3,1445.19C15711.4,1445.76 15711.6,1445.79 15711.7,1445.82C15722.3,1448.07 15731.9,1441.61 15733.5,1431.23C15733.8,1429.52 15734.1,1427.75 15734.3,1425.95Z" style="fill:rgb(195,195,195);fill-opacity:0.662745;"/>
                </g>
                <g transform="matrix(0.103158,0,0,0.36882,4303.08,-1711.35)">
                    <path d="M16485.5,1827.88C16456.1,1898.85 16401.2,1881.49 16352.4,1808.18C16375.9,1866.44 16401.1,1935.34 16409.3,1963.36C16414.1,2005.57 16424.3,2058.97 16441.2,1994.18L16485.5,1827.88Z" style="fill:rgb(244,219,191);"/>
                </g>
                <g transform="matrix(0.0885101,0,0,0.316449,4566.2,-1841.82)">
                    <path d="M15779.4,2733.45C15779.4,2733.45 15766.5,2738.34 15756.7,2742.04C15749.6,2744.71 15743.3,2748.93 15738.1,2754.4C15733.6,2759.14 15728.8,2764.16 15728.8,2764.16C15728.8,2764.16 15735.7,2764.65 15744.3,2765.28C15753.2,2765.93 15762,2762.89 15768.6,2756.88C15775.3,2750.87 15779.2,2742.4 15779.4,2733.45C15779.4,2733.45 15779.4,2733.45 15779.4,2733.45Z" style="fill:rgb(223,195,163);"/>
                </g>
                <g transform="matrix(0.0500104,0.261094,-0.0730274,0.178802,5375.6,-5653.38)">
                    <path d="M15831.5,2692.51C15831.5,2692.51 15784.7,2709.72 15757.5,2719.72C15745.3,2724.2 15735.3,2733.25 15729.6,2744.95C15715.5,2774.12 15689.4,2828.04 15689.4,2828.04C15689.4,2828.04 15733.8,2770.53 15749,2750.89C15752.3,2746.6 15756.3,2742.88 15760.8,2739.86C15779.7,2727.21 15831.5,2692.51 15831.5,2692.51Z" style="fill:rgb(244,219,191);"/>
                </g>
                <g transform="matrix(0.0500104,0.261094,-0.0730274,0.178802,5372.07,-5500.28)">
                    <path d="M15812.8,2687.83C15812.8,2687.83 15812.8,2687.83 15812.8,2687.83C15807.7,2692.52 15805.1,2699.37 15805.9,2706.26C15806.7,2713.15 15810.7,2719.24 15816.7,2722.65C15827.1,2728.48 15836.5,2733.82 15836.5,2733.82C15832,2729.57 15829.6,2726.72 15824,2721.73C15814.4,2713.23 15810.2,2700.32 15812.8,2687.83C15812.8,2687.83 15812.8,2687.83 15812.8,2687.83Z" style="fill:rgb(255,238,219);"/>
                </g>
                <g transform="matrix(-0.0500104,-0.261094,0.0730274,-0.178802,6555.51,3702.07)">
                    <path d="M15831.5,2692.51C15831.5,2692.51 15786.9,2703 15754.5,2710.6C15731.6,2715.98 15715.5,2736.61 15715.8,2760.16C15716.4,2783.98 15720.9,2810.64 15726.5,2827.07C15735.9,2805.09 15733.2,2784.09 15734.8,2765.54C15736.6,2748.21 15747.3,2733.05 15763,2725.51C15786.8,2714.01 15831.5,2692.51 15831.5,2692.51Z" style="fill:rgb(244,219,191);"/>
                </g>
                <g transform="matrix(0.0500104,0.261094,-0.0730274,0.178802,5381.68,-5488.77)">
                    <path d="M15778.1,2717.08C15747.4,2724 15742.8,2724.32 15734,2734.63C15721.6,2749.04 15720,2769.83 15730,2785.97C15733.2,2791.17 15735.6,2795.06 15735.6,2795.06C15735.6,2795.06 15737.1,2784.31 15738.2,2775.93C15739.1,2769.42 15741.2,2763.14 15744.5,2757.46C15758.4,2733.46 15760,2731.58 15778.1,2717.08Z" style="fill:rgb(244,219,191);"/>
                </g>
                <g transform="matrix(-0.00655412,-0.31558,-0.0882671,0.0234328,6326.86,3982.9)">
                    <path d="M15838.4,2711.93C15838.4,2711.93 15767.3,2722.45 15745,2725.74C15740.7,2726.38 15736.4,2727.6 15732.4,2729.36C15717.1,2736.01 15678.3,2752.9 15678.3,2752.9C15678.3,2752.9 15729.3,2747.18 15747.6,2745.13C15751.8,2744.66 15756,2743.64 15760,2742.1C15779.3,2734.67 15838.4,2711.93 15838.4,2711.93Z" style="fill:rgb(244,219,191);"/>
                </g>
                <g transform="matrix(0.0567736,-0.242772,-0.0679029,-0.202982,5275.26,3447.78)">
                    <path d="M15765.7,2733.47C15765.7,2733.47 15759,2731.33 15750.9,2728.72C15736.7,2724.15 15721.2,2726.16 15708.6,2734.2C15699.1,2740.28 15686.3,2745.55 15672.9,2750.7C15672.9,2750.7 15714.3,2747.49 15738,2745.66C15748.3,2744.85 15758.1,2740.56 15765.7,2733.47C15765.7,2733.47 15765.7,2733.47 15765.7,2733.47Z" style="fill:rgb(244,219,191);"/>
                </g>
                <g transform="matrix(-0.0500104,-0.261094,0.0730274,-0.178802,6537.79,3596.88)">
                    <path d="M15853.9,2707.82C15853.9,2707.82 15774.6,2703.99 15742.5,2702.44C15734.2,2702.03 15725.9,2703.71 15718.4,2707.3C15687,2722.52 15676.5,2718.84 15602.2,2774.85C15675.4,2756.66 15690.6,2746.21 15729.4,2729.58C15733.2,2727.98 15737.1,2726.84 15741.1,2726.18C15765.1,2722.27 15853.9,2707.82 15853.9,2707.82Z" style="fill:rgb(244,219,191);"/>
                </g>
                <g transform="matrix(0.0885101,0,0,0.337873,4566.2,-1881.29)">
                    <path d="M15372.7,1835.71C15373.3,1835.19 15373.5,1834.28 15373.1,1833.57C15371.2,1830.87 15372.6,1828.67 15374.8,1825.56C15375.3,1824.98 15375.2,1824.21 15374.8,1823.64C15374.3,1823.08 15373.6,1822.84 15372.9,1823.04C15368.3,1824.3 15361.7,1826.14 15358.4,1827.07C15357.9,1827.22 15357.5,1827.57 15357.3,1828.03C15357.1,1828.49 15357.1,1829.01 15357.3,1829.45C15359,1833.31 15357.6,1838.37 15358.5,1841.04C15358.9,1841.67 15359.8,1841.91 15360.6,1841.61C15364.7,1840.04 15368.6,1838.8 15372.7,1835.71Z" style="fill:rgb(244,219,191);"/>
                </g>
                <g transform="matrix(0.102119,-0.0186807,0.00365573,0.215636,4351.8,-1295.29)">
                    <ellipse cx="15281.1" cy="2605.42" rx="13.199" ry="13.688" style="fill:rgb(203,159,113);"/>
                </g>
                <g transform="matrix(0.0737607,0,0,0.263715,4774.01,-1686.74)">
                    <path d="M14878.7,2496.3L14844.7,2573.49L14834.7,2641.42C14834.7,2641.42 14834.7,2641.42 14834.7,2641.42C14861.1,2640.62 14881.8,2618.63 14881,2592.28C14880.9,2590.86 14880.8,2589.45 14880.9,2588.07C14882,2556 14888.3,2527.39 14878.7,2496.3Z" style="fill:rgb(244,219,191);"/>
                </g>
                <g transform="matrix(0.0640385,-0.225504,0.0405453,0.14718,4864.98,1973.68)">
                    <ellipse cx="15281.1" cy="2605.42" rx="13.199" ry="13.688" style="fill:rgb(203,159,113);"/>
                </g>
                <g transform="matrix(0.0737607,0,0,0.263715,4785,-1697.53)">
                    <path d="M14659.9,2421.22C14656.5,2405.51 14646.7,2391.9 14633,2383.54C14619.3,2375.18 14602.7,2372.81 14587.2,2376.98C14549.5,2387.1 14512.2,2411.43 14475.2,2449.5C14452.3,2472.97 14449,2509.3 14467.3,2536.51C14505.9,2594.2 14547.9,2646.56 14598.6,2684.9C14609.8,2693.39 14623.8,2697.44 14637.8,2696.26C14637.8,2696.26 14637.8,2696.26 14637.8,2696.26C14679.6,2692.73 14714,2661.95 14722.1,2620.82C14722.8,2617.39 14724.1,2613.89 14726.2,2610.26C14753.3,2563.15 14726.2,2501.52 14668.5,2460.37C14668.5,2460.37 14664.3,2441.42 14659.9,2421.22Z" style="fill:rgb(255,238,219);"/>
                </g>
                <g transform="matrix(0.101502,0,0,0.382837,4369.69,-1927.95)">
                    <path d="M15129.6,1511.22C15083.2,1529.67 15037.5,1564.96 14994.9,1580.03C14990.1,1581.73 14985.5,1583.8 14981,1586.22C14949.2,1603.44 14823.9,1671.64 14823.9,1671.64C14823.9,1671.64 14985.7,1615.76 15056.3,1591.37C15077.2,1584.17 15094.6,1570.13 15105.5,1551.8C15116.8,1532.78 15129.6,1511.22 15129.6,1511.22Z" style="fill:rgb(181,126,67);"/>
                </g>
                <g transform="matrix(0.0737607,0,0,0.263715,4772.26,-1698.86)">
                    <path d="M14842.3,2692.58C14757.7,2668.07 14776.9,2647.04 14702.3,2616.82C14702.3,2616.82 14752.5,2677.01 14761.8,2688.08C14762.7,2689.24 14763.6,2690.46 14764.4,2691.74C14795.4,2741.03 14825.6,2775.46 14855.9,2809.93C14863.8,2768.13 14838.2,2715.59 14842.3,2692.58Z" style="fill:rgb(244,219,191);"/>
                </g>
                <g transform="matrix(0.0699574,0,0,-0.188286,4859.47,-1098.89)">
                    <path d="M15040.7,1520.66C14989.1,1557.98 14905.6,1490.26 14866.7,1465.59C14861.7,1462.59 14856.8,1459.17 14852.1,1455.37C14812,1423.17 14602.2,1254.09 14602.2,1254.09C14602.2,1254.09 14766.4,1429.78 14830.8,1498.69C14850.1,1519.35 14873.3,1532.53 14897.9,1536.8C14952.1,1546.3 14997.6,1536.15 15040.7,1520.66Z" style="fill:rgb(225,170,107);"/>
                </g>
                <g transform="matrix(0.329597,9.26376e-17,-9.61302e-18,0.510868,3782.44,-748.504)">
                    <g>
                        <g>
                            <g transform="matrix(0.0951289,-0.425557,-0.148582,-0.218437,6206.44,2724.9)">
                                <path d="M6102.32,2477.05C6101.19,2472.24 6098.39,2468.38 6094.57,2466.36C6090.74,2464.34 6086.24,2464.34 6082.1,2466.37C6036.4,2488.7 5920.6,2508.55 5869.49,2478.06C5864.3,2474.84 5857.87,2474.95 5852.24,2478.36C5846.62,2481.76 5842.51,2488.04 5841.22,2495.18C5815.55,2633.46 5825.37,2645.65 5853.18,2816.32C5854.63,2825.18 5855.43,2834.24 5855.59,2843.4C5856.08,2902.19 5853.19,3013.72 5895.94,3004.75C5948,2993.81 5998.84,2968 6030.08,2973.97C6035.16,2974.99 6040.58,2973.01 6044.62,2968.64C6048.66,2964.27 6050.84,2958.05 6050.47,2951.94C6040.17,2788.39 6126.14,2582.68 6102.32,2477.05Z" style="fill:rgb(37,48,80);"/>
                            </g>
                            <g transform="matrix(0.0549084,-0.466687,-0.167664,-0.10496,6279.4,5257.7)">
                                <path d="M11448.9,3431.73C11430.7,3438.09 11411.4,3427.06 11404,3406.02C11391.7,3371.09 11380.6,3335.38 11361.6,3303.23C11330.8,3251.03 11308.6,3196.45 11292.8,3139.36C11292,3136.65 11289.6,3135.15 11287.4,3135.97C11285.1,3136.8 11283.8,3139.65 11284.4,3142.4C11297.2,3199.07 11318.1,3251.08 11353,3316.62C11353,3316.62 11379.9,3398.72 11396.1,3447.99C11398.9,3456.53 11404.8,3463.04 11412.1,3465.67C11419.4,3468.3 11427.3,3466.74 11433.5,3461.46C11452.5,3445.67 11474.4,3429.81 11500.2,3413.82C11500.2,3413.82 11472.2,3423.58 11448.9,3431.73Z" style="fill:rgb(69,73,83);"/>
                            </g>
                            <g transform="matrix(0.0528925,-0.193989,-0.138333,-0.259865,6175.32,2748.54)">
                                <path d="M11857.7,3185.67C11858.6,3182.13 11863.6,3179.06 11869.9,3178.12C11876.2,3177.17 11882.3,3178.59 11885,3181.59C11906.5,3205.56 11938.5,3241.31 11948.2,3252.24C11950.1,3254.33 11950,3256.89 11948,3259.2C11938.2,3270.62 11907.5,3306.28 11886.5,3330.63C11883.7,3333.92 11877.5,3336.06 11871.3,3335.91C11865.1,3335.76 11860.3,3333.36 11859.4,3329.98C11852.5,3303.18 11842.2,3263.19 11840.4,3256.1C11840.2,3255.37 11840.2,3254.62 11840.4,3253.87C11842.1,3247.09 11851.2,3211.33 11857.7,3185.67Z" style="fill:rgb(69,73,83);"/>
                            </g>
                            <g transform="matrix(0.0432053,-0.15846,-0.138333,-0.259865,6287.98,2333.06)">
                                <path d="M11892.1,3183.57C11894.6,3180.08 11901.6,3177.42 11909.4,3176.95C11917.3,3176.47 11924.3,3178.27 11927,3181.45C11947.2,3205 11978.2,3241.19 11987.1,3251.6C11988.7,3253.46 11988.7,3255.61 11987,3257.63C11978,3268.21 11948.3,3303.22 11928.3,3326.87C11925.4,3330.32 11918.2,3332.81 11910.4,3333.11C11902.5,3333.41 11895.7,3331.45 11893.4,3328.21C11875.9,3304.22 11849.1,3267.43 11841.9,3257.53C11840.7,3255.89 11840.8,3254.05 11842.1,3252.29C11849.3,3242.36 11874.7,3207.4 11892.1,3183.57Z" style="fill:rgb(49,113,139);"/>
                            </g>
                            <g transform="matrix(0.0549084,-0.466687,-0.167664,-0.10496,6252.49,5431.56)">
                                <path d="M11737.7,3191.17C11737.6,3190.07 11738,3188.98 11738.8,3188.47C11739.7,3187.96 11740.7,3188.17 11741.3,3188.97C11751.8,3202.11 11776.3,3232.92 11784,3242.64C11784.6,3243.27 11784.8,3244.18 11784.6,3245.03C11784.4,3245.88 11783.8,3246.55 11783.1,3246.81C11773.8,3250.14 11748,3259.41 11748,3259.41C11748,3259.41 11740.7,3210.92 11737.7,3191.17Z" style="fill:rgb(33,186,248);"/>
                            </g>
                            <g transform="matrix(0.0549084,-0.466687,-0.167664,-0.10496,6249.69,5442.58)">
                                <path d="M11760.4,3188.94C11760.4,3188.76 11760.5,3188.6 11760.7,3188.57C11760.8,3188.55 11760.9,3188.66 11761,3188.84C11763.4,3203.2 11769.3,3237.92 11771.2,3248.91C11771.4,3249.7 11771.2,3250.52 11770.7,3251.12C11770.3,3251.72 11769.6,3252.02 11768.9,3251.93C11768.4,3251.85 11767.8,3251.77 11767.2,3251.7C11766.2,3251.57 11765.5,3250.63 11765.4,3249.44C11764.6,3240.42 11761.6,3203.88 11760.4,3188.94Z" style="fill:rgb(33,186,248);"/>
                            </g>
                            <g transform="matrix(-0.0549084,0.466687,0.167664,0.10496,6451.8,-6227.35)">
                                <path d="M11737.5,3191.54C11737.4,3191.39 11737.4,3191.18 11737.5,3191.07C11737.7,3190.96 11737.8,3190.98 11737.9,3191.12C11747.4,3205.03 11766.4,3232.77 11773.6,3243.2C11774.1,3243.95 11774.2,3244.98 11773.9,3245.86C11773.5,3246.74 11772.8,3247.3 11772,3247.3C11772,3247.3 11772,3247.3 11772,3247.3C11771.3,3247.3 11770.7,3246.92 11770.4,3246.29C11766.7,3240.15 11747,3207.38 11737.5,3191.54Z" style="fill:rgb(33,186,248);"/>
                            </g>
                            <g transform="matrix(-0.0549084,0.466687,0.167664,0.10496,6453.65,-6235.4)">
                                <path d="M11744.9,3181.34C11744.9,3180.22 11745.4,3179.18 11746.3,3178.79C11747.2,3178.41 11748.2,3178.78 11748.7,3179.7C11758,3195.29 11779.6,3231.64 11785.9,3242.25C11786.3,3242.92 11786.4,3243.79 11786.2,3244.57C11786,3245.35 11785.4,3245.94 11784.8,3246.16C11777.5,3248.54 11758.5,3254.73 11751.7,3256.94C11751.1,3257.14 11750.4,3257 11749.9,3256.56C11749.4,3256.12 11749.1,3255.43 11749.1,3254.68C11748.4,3242.86 11746,3200.04 11744.9,3181.34Z" style="fill:rgb(33,186,248);"/>
                            </g>
                        </g>
                    </g>
                </g>
                <g transform="matrix(-0.206262,-0.919137,0.111451,-0.3197,7357.27,4696.3)">
                    <g>
                        <g>
                            <g transform="matrix(0.0951289,-0.425557,-0.148582,-0.218437,6206.44,2724.9)">
                                <path d="M6102.32,2477.05C6101.19,2472.24 6098.39,2468.38 6094.57,2466.36C6090.74,2464.34 6086.24,2464.34 6082.1,2466.37C6036.4,2488.7 5920.6,2508.55 5869.49,2478.06C5864.3,2474.84 5857.87,2474.95 5852.24,2478.36C5846.62,2481.76 5842.51,2488.04 5841.22,2495.18C5815.55,2633.46 5825.37,2645.65 5853.18,2816.32C5854.63,2825.18 5855.43,2834.24 5855.59,2843.4C5856.08,2902.19 5853.19,3013.72 5895.94,3004.75C5948,2993.81 5998.84,2968 6030.08,2973.97C6035.16,2974.99 6040.58,2973.01 6044.62,2968.64C6048.66,2964.27 6050.84,2958.05 6050.47,2951.94C6040.17,2788.39 6126.14,2582.68 6102.32,2477.05Z" style="fill:rgb(37,48,80);"/>
                            </g>
                            <g transform="matrix(0.0549084,-0.466687,-0.167664,-0.10496,6279.4,5257.7)">
                                <path d="M11448.9,3431.73C11430.7,3438.09 11411.4,3427.06 11404,3406.02C11391.7,3371.09 11380.6,3335.38 11361.6,3303.23C11330.8,3251.03 11308.6,3196.45 11292.8,3139.36C11292,3136.65 11289.6,3135.15 11287.4,3135.97C11285.1,3136.8 11283.8,3139.65 11284.4,3142.4C11297.2,3199.07 11318.1,3251.08 11353,3316.62C11353,3316.62 11379.9,3398.72 11396.1,3447.99C11398.9,3456.53 11404.8,3463.04 11412.1,3465.67C11419.4,3468.3 11427.3,3466.74 11433.5,3461.46C11452.5,3445.67 11474.4,3429.81 11500.2,3413.82C11500.2,3413.82 11472.2,3423.58 11448.9,3431.73Z" style="fill:rgb(69,73,83);"/>
                            </g>
                            <g transform="matrix(0.0528925,-0.193989,-0.138333,-0.259865,6175.32,2748.54)">
                                <path d="M11857.7,3185.67C11858.6,3182.13 11863.6,3179.06 11869.9,3178.12C11876.2,3177.17 11882.3,3178.59 11885,3181.59C11906.5,3205.56 11938.5,3241.31 11948.2,3252.24C11950.1,3254.33 11950,3256.89 11948,3259.2C11938.2,3270.62 11907.5,3306.28 11886.5,3330.63C11883.7,3333.92 11877.5,3336.06 11871.3,3335.91C11865.1,3335.76 11860.3,3333.36 11859.4,3329.98C11852.5,3303.18 11842.2,3263.19 11840.4,3256.1C11840.2,3255.37 11840.2,3254.62 11840.4,3253.87C11842.1,3247.09 11851.2,3211.33 11857.7,3185.67Z" style="fill:rgb(69,73,83);"/>
                            </g>
                            <g transform="matrix(0.0432053,-0.15846,-0.138333,-0.259865,6287.98,2333.06)">
                                <path d="M11892.1,3183.57C11894.6,3180.08 11901.6,3177.42 11909.4,3176.95C11917.3,3176.47 11924.3,3178.27 11927,3181.45C11947.2,3205 11978.2,3241.19 11987.1,3251.6C11988.7,3253.46 11988.7,3255.61 11987,3257.63C11978,3268.21 11948.3,3303.22 11928.3,3326.87C11925.4,3330.32 11918.2,3332.81 11910.4,3333.11C11902.5,3333.41 11895.7,3331.45 11893.4,3328.21C11875.9,3304.22 11849.1,3267.43 11841.9,3257.53C11840.7,3255.89 11840.8,3254.05 11842.1,3252.29C11849.3,3242.36 11874.7,3207.4 11892.1,3183.57Z" style="fill:rgb(49,113,139);"/>
                            </g>
                            <g transform="matrix(0.0549084,-0.466687,-0.167664,-0.10496,6252.49,5431.56)">
                                <path d="M11737.7,3191.17C11737.6,3190.07 11738,3188.98 11738.8,3188.47C11739.7,3187.96 11740.7,3188.17 11741.3,3188.97C11751.8,3202.11 11776.3,3232.92 11784,3242.64C11784.6,3243.27 11784.8,3244.18 11784.6,3245.03C11784.4,3245.88 11783.8,3246.55 11783.1,3246.81C11773.8,3250.14 11748,3259.41 11748,3259.41C11748,3259.41 11740.7,3210.92 11737.7,3191.17Z" style="fill:rgb(33,186,248);"/>
                            </g>
                            <g transform="matrix(0.0549084,-0.466687,-0.167664,-0.10496,6249.69,5442.58)">
                                <path d="M11760.4,3188.94C11760.4,3188.76 11760.5,3188.6 11760.7,3188.57C11760.8,3188.55 11760.9,3188.66 11761,3188.84C11763.4,3203.2 11769.3,3237.92 11771.2,3248.91C11771.4,3249.7 11771.2,3250.52 11770.7,3251.12C11770.3,3251.72 11769.6,3252.02 11768.9,3251.93C11768.4,3251.85 11767.8,3251.77 11767.2,3251.7C11766.2,3251.57 11765.5,3250.63 11765.4,3249.44C11764.6,3240.42 11761.6,3203.88 11760.4,3188.94Z" style="fill:rgb(33,186,248);"/>
                            </g>
                            <g transform="matrix(-0.0549084,0.466687,0.167664,0.10496,6451.8,-6227.35)">
                                <path d="M11737.5,3191.54C11737.4,3191.39 11737.4,3191.18 11737.5,3191.07C11737.7,3190.96 11737.8,3190.98 11737.9,3191.12C11747.4,3205.03 11766.4,3232.77 11773.6,3243.2C11774.1,3243.95 11774.2,3244.98 11773.9,3245.86C11773.5,3246.74 11772.8,3247.3 11772,3247.3C11772,3247.3 11772,3247.3 11772,3247.3C11771.3,3247.3 11770.7,3246.92 11770.4,3246.29C11766.7,3240.15 11747,3207.38 11737.5,3191.54Z" style="fill:rgb(33,186,248);"/>
                            </g>
                            <g transform="matrix(-0.0549084,0.466687,0.167664,0.10496,6453.65,-6235.4)">
                                <path d="M11744.9,3181.34C11744.9,3180.22 11745.4,3179.18 11746.3,3178.79C11747.2,3178.41 11748.2,3178.78 11748.7,3179.7C11758,3195.29 11779.6,3231.64 11785.9,3242.25C11786.3,3242.92 11786.4,3243.79 11786.2,3244.57C11786,3245.35 11785.4,3245.94 11784.8,3246.16C11777.5,3248.54 11758.5,3254.73 11751.7,3256.94C11751.1,3257.14 11750.4,3257 11749.9,3256.56C11749.4,3256.12 11749.1,3255.43 11749.1,3254.68C11748.4,3242.86 11746,3200.04 11744.9,3181.34Z" style="fill:rgb(33,186,248);"/>
                            </g>
                        </g>
                    </g>
                </g>
                <g transform="matrix(-0.0699574,0,0,-0.188286,6964.63,-1087)">
                    <path d="M14988.2,1562.14C14935.1,1600.52 14880,1505.4 14853.6,1474.94C14851.8,1473.04 14850,1471.23 14848.2,1469.51C14786.2,1411.74 14756.7,1308.7 14717.1,1218.27C14747.3,1317.65 14781.7,1409.13 14826.2,1481.85C14841.9,1507.6 14862.8,1527.03 14886.4,1537.97C14932.4,1559.35 14943,1578.39 14988.2,1562.14Z" style="fill:rgb(225,170,107);"/>
                </g>
                <g transform="matrix(0.0885101,0,0,0.316449,4566.9,-1791.59)">
                    <path d="M15129.6,1511.22C15129.6,1511.22 15015.6,1575.11 14997.8,1585.08C14996.3,1585.95 14994.7,1586.78 14993.1,1587.57C14972.4,1597.85 14823.9,1671.64 14823.9,1671.64C14823.9,1671.64 14978.9,1618.1 15051.7,1592.96C15075.5,1584.73 15095.7,1568.31 15108.6,1546.62C15119,1529.08 15129.6,1511.22 15129.6,1511.22Z" style="fill:rgb(181,126,67);"/>
                </g>
                <g transform="matrix(0.0737607,0,0,0.263715,4783.3,-1676.36)">
                    <path d="M14759.6,2404.9C14763.6,2390.98 14761.5,2376 14753.7,2363.76C14745.9,2351.52 14733.3,2343.22 14719,2340.95C14705.8,2338.82 14694.2,2338.47 14684.9,2340.75L14673.4,2466.58L14726.6,2518.3C14726.6,2518.3 14745.7,2452.65 14759.6,2404.9Z" style="fill:rgb(255,238,219);"/>
                </g>
                <g transform="matrix(0.0737607,0,0,0.263715,4772.36,-1676.15)">
                    <path d="M14837,2374.72C14846.5,2397.79 14853.3,2422.47 14858.1,2449.43C14861.7,2469.81 14850.4,2489.92 14831,2497.3C14807.6,2506.28 14783.7,2507.8 14759.8,2509.8C14807.4,2526.94 14853.6,2542.2 14870.2,2516.75C14877.9,2504.43 14909.2,2460.71 14900.6,2449.15C14896.8,2444.14 14881.7,2465.49 14878.4,2459.38C14865.9,2436.28 14857.1,2406.73 14857.7,2381C14858,2367.81 14848,2385.31 14837,2374.72Z" style="fill:rgb(244,219,191);"/>
                </g>
                <g transform="matrix(0.103158,0,0,0.363782,4292.41,-1886.91)">
                    <path d="M16601.7,2517.52C16584.6,2495.73 16586.9,2489.04 16554.1,2493.87C16543.5,2500.69 16544,2497.89 16510.5,2517.09C16505.6,2529.63 16465.7,2567.23 16463.1,2579.69C16461.4,2587.71 16479,2634.85 16479.8,2633.74C16479.8,2633.74 16479.8,2633.74 16479.8,2633.75C16475.1,2635.88 16471.8,2640.15 16470.9,2645.2C16469.9,2650.25 16471.5,2655.45 16475,2659.16C16485.5,2670.27 16498.8,2684.33 16505.9,2691.76C16508.9,2694.96 16513.2,2696.53 16517.6,2696C16551,2692.18 16585.4,2697.41 16621.5,2682.88C16634.4,2677.65 16643,2665.1 16643.3,2650.99C16644.3,2605.19 16631.6,2560.6 16601.7,2517.52Z" style="fill:rgb(255,233,209);"/>
                </g>
                <g transform="matrix(0.103158,0,0,0.36882,4330.71,-1957.28)">
                    <path d="M16206.4,2837.55C16197.9,2847.01 16197.5,2844.48 16191.2,2841.26C16189.6,2840.49 16187.7,2840.82 16186.5,2842.09C16178.4,2850.63 16139.7,2852.26 16136.4,2845.3C16137.4,2847.79 16141.1,2854.65 16146,2855.69C16153.7,2857.35 16166.2,2854.56 16178,2851.31C16178.3,2851.22 16178.6,2851.18 16179,2851.17C16207,2850.6 16233.7,2847.47 16255.7,2834.42C16246.8,2838.52 16239.5,2839.98 16235.3,2836.43C16223.8,2840.69 16231.1,2842.21 16217,2839.3C16212.4,2840.56 16211.9,2841.7 16206.4,2837.55Z" style="fill:rgb(244,219,191);"/>
                </g>
                <g transform="matrix(0.0755487,-0.164868,0.0461134,0.270108,4640.99,961.266)">
                    <path d="M16190.5,2833.8C16179.7,2843.05 16181,2840.46 16172.8,2844.68C16172.3,2844.94 16171.8,2845.28 16171.4,2845.7C16162.3,2855.96 16149.3,2830.24 16153.3,2826.63C16151.1,2830.87 16148.7,2849.17 16148.1,2852.41C16147.7,2854.84 16168.9,2854.18 16178,2851.33C16178.3,2851.23 16178.6,2851.17 16178.9,2851.13C16183.5,2850.63 16220.6,2846.59 16220.6,2846.59C16232,2837.8 16231.7,2829.97 16234.3,2807.61L16208.2,2822.74C16203.6,2824.01 16195.9,2837.95 16190.5,2833.8Z" style="fill:rgb(244,219,191);"/>
                </g>
                <g transform="matrix(0.103158,0,0,0.36882,4300.93,-1888.1)">
                    <path d="M16457.4,2548.52C16456.8,2544.6 16454.3,2541.24 16450.6,2539.7C16447,2538.16 16442.8,2538.67 16439.6,2541.04C16439.6,2541.04 16439.6,2541.04 16439.6,2541.04C16432.2,2556.03 16428.6,2559.13 16419.6,2578.73C16415.7,2587.26 16411,2591.28 16406.5,2594.88C16398.1,2601.56 16396.7,2600.43 16399.9,2600.9C16411.1,2589.48 16421.6,2593.59 16421.5,2603.06C16425.2,2600.87 16450.7,2616.99 16452.4,2620.18C16452.4,2620.18 16452.4,2620.18 16452.4,2620.18C16454.2,2620.28 16456,2619.59 16457.3,2618.29C16458.6,2616.99 16459.3,2615.19 16459.3,2613.35C16456.5,2564.1 16464.9,2601.54 16457.4,2548.52Z" style="fill:rgb(209,182,151);"/>
                </g>
            </g>
        </g>
    </g>
</svg>
