<?xml version="1.0" encoding="UTF-8" standalone="no"?>
<!DOCTYPE svg PUBLIC "-//W3C//DTD SVG 1.1//EN" "http://www.w3.org/Graphics/SVG/1.1/DTD/svg11.dtd">
<svg width="100%" height="100%" viewBox="0 0 5895 1219" version="1.1" xmlns="http://www.w3.org/2000/svg" xmlns:xlink="http://www.w3.org/1999/xlink" xml:space="preserve" xmlns:serif="http://www.serif.com/" style="fill-rule:evenodd;clip-rule:evenodd;stroke-linejoin:round;stroke-miterlimit:1.41421;">
    <g transform="matrix(1,0,0,1,-13319.7,-11804.2)">
        <g transform="matrix(11.2981,0,0,3.16007,-51589.6,5820.28)">
            <g id="MerSwim2" transform="matrix(0.416137,0,0,0.510868,3203.45,1647.84)">
                <g transform="matrix(-0.0261589,0.18987,-0.142454,-0.176873,7181.62,-54.9372)">
                    <path d="M8957.68,3393.2C8944.51,3375.03 8906.99,3362.6 8865.09,3362.53C8823.19,3362.46 8786.64,3374.76 8774.88,3392.89C8774.87,3392.89 8774.87,3392.89 8774.87,3392.89C8763.94,3409.73 8747.53,3425.69 8726.16,3440.24C8085.81,3877.95 8570.32,4961.46 8375.65,5697.15C8811.9,5226.2 8632.62,4768.35 9181.4,4519.92C9264.83,4482.02 9317.11,4432.21 9329.83,4378.51C9410.97,4043 9220,3752.37 8957.68,3393.2Z" style="fill:rgb(57,91,130);"/>
                </g>
                <g transform="matrix(-0.0261589,0.18987,-0.142454,-0.176873,7193.7,-54.7297)">
                    <path d="M8956.93,3394.75C8944.13,3376.48 8906.7,3363.88 8864.69,3363.72C8822.68,3363.55 8785.94,3375.84 8774.15,3394.02C8774.14,3394.02 8774.14,3394.02 8774.14,3394.02C8763.67,3410.15 8748,3425.45 8727.64,3439.42C8126.9,3853.81 8507.55,5012.29 8400.75,5763.05C8399.49,5770.15 8410.47,5776.63 8426,5777.94C8441.53,5779.24 8456.43,5774.95 8460.26,5768.07C8692.37,5327.74 8661.94,4828.13 9169.86,4591.62C9250.26,4554.13 9300.69,4505.41 9313.38,4452.98C9398.29,4107.81 9217.85,3765.86 8956.93,3394.75Z" style="fill:rgb(75,115,161);"/>
                </g>
                <g transform="matrix(-0.00397244,-0.204257,-0.154389,0.0351448,7024.95,2706.06)">
                    <path d="M9085.51,3840.47C9085.06,3840.17 9084.7,3839.84 9084.46,3839.49C9084.45,3839.49 9084.45,3839.49 9084.45,3839.49C9034.15,3769.01 8885.92,3721.83 8723.9,3724.74C8561.88,3727.65 8427.01,3779.9 8395.84,3851.85C8171.84,4366.3 8456.2,5147.52 8847.01,5630.78C8981.51,5141.56 8778.05,4705.26 9269.25,4454.59C9365.52,4405.6 9412.19,4340.35 9398.28,4274.19C9343.4,4013.26 9498.82,4113.01 9085.51,3840.47Z" style="fill:rgb(57,91,130);"/>
                </g>
                <g transform="matrix(-0.0102792,0.182603,-0.199988,-0.0954845,7444.01,-283.743)">
                    <path d="M9565.28,2961.57C9556.51,2942.45 9515.7,2926.28 9458.38,2919.21C9401.05,2912.14 9336.04,2915.26 9288.08,2927.38C9288.16,2927.44 9288.11,2927.45 9288.06,2927.46C8800.12,3050.55 8582.72,3250.9 8730.03,3441.74C8811.6,3550.8 8891.59,3656.06 8941.07,3744.76C9023.16,3891.9 9312.18,4072.25 9407.76,4193.59C9768.73,4651.87 9615.96,4940.77 9531.6,5045.43C9529.22,5048.1 9520.8,5049.77 9512.09,5049.32C9503.38,5048.86 9497.17,5046.41 9497.7,5043.65C9658.52,4147.02 9956.59,3807.24 9565.28,2961.57Z" style="fill:rgb(181,181,181);"/>
                </g>
                <g transform="matrix(0.0164383,0.709495,-0.212212,0.0417017,7474.61,-3371.26)">
                    <path d="M6047.59,2573.97C6038.69,2549.14 6015.48,2535.3 5992.67,2541.22C5969.86,2547.14 5954.09,2571.1 5955.37,2597.91C5955.37,2597.91 5955.37,2597.91 5955.37,2597.92C5955.44,2599.5 5955.4,2601.09 5955.23,2602.66C5930.4,2835.87 5934.7,3328.5 5984.03,3542.92C6150.11,4264.7 6196.53,4238.48 6244.07,3362.11C6244.39,3356.21 6245.16,3350.35 6246.37,3344.6C6278.11,3193.12 6291.27,3030.77 6238.03,2890.68C6211.81,2821.67 6160.84,2803.47 6119.06,2743.41C6101.01,2717.46 6074.77,2650.39 6047.59,2573.97Z" style="fill:rgb(181,181,181);"/>
                </g>
                <g transform="matrix(0.0423599,0.420203,-0.186337,0.15932,7296.66,-150.291)">
                    <path d="M2481.27,777.013C2480.71,776.52 2480.16,776.025 2479.61,775.526C2422.63,723.851 2384.49,701.062 2279.74,741.008C2244.07,754.631 2217.64,779.424 2207.12,809.122C2176.78,895.427 2201.43,968.99 2241.4,1060.38C2243.02,1064.08 2244.84,1067.73 2246.84,1071.31C2282.99,1135.23 2355.75,1186.26 2400.86,1173.15C2443.86,1160.65 2489.87,1103.04 2541.04,1061.89C2577.75,1032.52 2596.19,992.264 2591.59,951.548C2584.21,886.821 2556.87,843.689 2481.27,777.013Z" style="fill:rgb(255,233,209);"/>
                </g>
                <g transform="matrix(0.0143191,0.618029,-0.212212,0.0417017,7350.6,-1093.27)">
                    <path d="M3417.46,689.345C3412.15,673.84 3401.81,660.552 3388.09,651.583C3344.9,623.487 3288.63,616.49 3258.78,595.623C3207.51,559.789 3166.45,586.264 3153.85,675.044C3151.1,694.053 3141.04,711.237 3125.81,722.935C3040.24,788.621 3077.76,862.382 3144.53,983.097C3155.03,1002.26 3173.48,1015.78 3194.91,1020C3291.93,1039.01 3377.74,1100.85 3441.83,1118.04C3462.21,1123.54 3483.98,1120.02 3501.6,1108.39C3519.22,1096.76 3531.01,1078.13 3533.97,1057.22C3550.47,939.277 3457.64,805.344 3417.46,689.345Z" style="fill:rgb(255,233,209);"/>
                </g>
                <g transform="matrix(0.0143191,0.618029,-0.212212,0.0417017,7352.1,-1095.36)">
                    <path d="M3355.14,656.131C3349.27,648.053 3341.83,641.25 3333.26,636.136C3177.83,543.443 3138.63,571.559 3146.53,684.474C3148.13,708.301 3138.08,731.426 3119.57,746.517C3031.39,817.448 3044.74,912.243 3113.1,1041.51C3118.7,1052.09 3126.79,1061.15 3136.67,1067.9C3507.92,1320.77 3660.96,1061.53 3406.65,723.922C3398.43,713.006 3370.93,677.239 3355.14,656.131Z" style="fill:rgb(252,226,198);"/>
                </g>
                <g transform="matrix(0.0143191,0.618029,-0.212212,0.0417017,7273.87,-691.266)">
                    <path d="M2730.95,292.701C2725.93,287.605 2721.96,281.56 2719.29,274.917C2654.14,112.408 2482.7,148.902 2388.32,234.667C2357.7,262.492 2400.72,178.548 2366.62,294.023C2332.74,403.961 2383.9,512.982 2450.11,617.893C2462.07,636.921 2484.58,646.544 2506.6,642.048C2572.84,628.706 2648.78,680.483 2731.51,727.311C2746.25,735.485 2763.96,736.304 2779.39,729.526C2794.82,722.749 2806.2,709.151 2810.16,692.767C2818.38,658.776 2826.62,624.629 2826.62,624.629C2889.4,552.495 2869.97,433.941 2730.95,292.701Z" style="fill:rgb(252,226,198);"/>
                </g>
                <g transform="matrix(0.155135,0.423762,0.145507,-0.451802,6948.88,-258.346)">
                    <path d="M2339.22,341.441C2309.47,356.481 2168.41,34.672 2291.6,-59.369C2437.11,-170.449 2035.21,-67.562 2092.12,-46.843C2232.11,-270.375 2471.2,122.511 2425.31,209.047C2385.13,284.808 2406.97,267.846 2339.22,341.441Z" style="fill:rgb(200,134,64);"/>
                </g>
                <g transform="matrix(0.0143191,0.618029,-0.212212,0.0417017,7384.83,-711.414)">
                    <path d="M2873.39,1079.31C2869.99,1070.02 2864.48,1061.65 2857.28,1054.87C2581.6,795.587 2328.97,729.492 2341.81,1044.94C2342.09,1051.74 2341.27,1058.55 2339.39,1065.1C2309.53,1170.67 2321.88,1335.98 2378.32,1471.86C2437.4,1614.06 2427.32,1759.25 2403.31,1859.98C2395.91,1891.16 2412.9,1922.97 2442.93,1934.16C2465.87,1942.59 2482.48,1958.1 2506.58,1984.01C2557.41,2038.68 2511.11,2090.52 2600.64,2123.86C2647.97,2141.48 2742.8,2166.23 2804.92,2216.39C2818.32,2227.21 2827.36,2250.14 2833.12,2281.53C2837.07,2303.07 2853.33,2320.26 2874.61,2325.41C2895.9,2330.56 2918.22,2322.7 2931.57,2305.35C2931.58,2305.35 2931.58,2305.34 2931.58,2305.34C2971.12,2253.98 2957.37,2206.98 2911.71,2127.98C2898.95,2105.91 2865.55,2049.86 2869.18,2029.99C2880.1,1970.15 2858.75,1806.44 2855.63,1792.13C2808.91,1577.91 2886.19,1465.59 2900.43,1309.16C2903.15,1279.28 2903.39,1231.77 2900.81,1198.25C2896.97,1148.28 2898.55,1147.97 2873.39,1079.31Z" style="fill:rgb(244,219,191);"/>
                </g>
                <g transform="matrix(0.0143191,0.618029,-0.212212,0.0417017,7380.25,-713.146)">
                    <path d="M2806.15,1289.63C2778.99,1298.97 2644.79,1336.91 2640.74,1460.71C2635.28,1627.51 2681.27,1630.31 2670.8,1690.49C2668.06,1706.27 2671.39,1722.51 2680.13,1735.94C2715.72,1790.57 2744.8,1991.34 2822.94,2042.99C2823.51,2043.36 2823.96,2043.89 2824.24,2044.52C2864.57,2135.75 2875.44,2222.68 2915.79,2242.77C2922.46,2246.09 2965.97,2293.64 2950.17,2162.66C2946.46,2131.89 2898.69,2022.77 2882.96,1986.45C2872,1961.13 2887.46,1917.28 2881.14,1850.84C2877.38,1811.29 2837.2,1681.84 2841.63,1641.37C2853.38,1534.17 2905.31,1395.56 2902.48,1297.62C2901.04,1247.53 2832.47,1280.58 2806.15,1289.63Z" style="fill:rgb(255,238,219);"/>
                </g>
                <g transform="matrix(0.200176,0.209377,-0.0718936,0.582975,6651.97,-219.377)">
                    <path d="M3510.45,574.023C3510.45,574.023 3395.56,457.466 3319.34,380.151C3309.34,370.002 3294.22,366.856 3280.99,372.175C3267.77,377.493 3259.04,390.234 3258.85,404.484C3258.43,491.995 3239.18,572.997 3193.8,638.436C3187.83,647.077 3186.02,657.929 3188.85,668.043C3191.69,678.157 3198.89,686.481 3208.48,690.754C3265.72,716.248 3294.96,815.482 3353.37,873.179C3355.21,874.94 3357.86,875.566 3360.3,874.816C3362.74,874.066 3364.58,872.057 3365.11,869.564C3376.7,818.984 3401.83,755.387 3414.8,734.343C3437.64,697.309 3427.76,658.798 3464.47,623.868C3471.88,616.822 3488.77,604.7 3499.43,599.155C3532.01,582.223 3474.65,577.593 3510.45,574.023Z" style="fill:rgb(246,216,184);"/>
                </g>
                <g transform="matrix(0.200176,0.209377,-0.0718936,0.582975,6653.76,-216.514)">
                    <path d="M3518.95,570.523C3518.95,570.523 3398.87,491.734 3330.1,446.612C3319.6,439.717 3306.22,438.923 3294.97,444.526C3283.72,450.13 3276.29,461.287 3275.46,473.828C3267.89,594.359 3306.19,730.652 3339.52,828.503C3340.49,831.326 3343.12,833.236 3346.11,833.275C3349.09,833.315 3351.77,831.474 3352.81,828.679C3370.75,781.48 3426.75,702.421 3411.28,690.037C3294.03,596.15 3356.78,599.285 3460.06,612.054C3469,613.159 3494.04,601.34 3508.3,591.823C3538.83,571.436 3483.15,574.093 3518.95,570.523Z" style="fill:rgb(252,226,198);"/>
                </g>
                <g transform="matrix(0.14001,0.144165,-0.0563178,0.456673,6920.58,139.366)">
                    <path d="M3092.76,22.864C3082.65,-11.448 3054.87,-39.514 3017.91,-52.737C2818.43,-124.578 2639.81,-122.235 2510.84,20.45C2502.55,29.588 2495.95,39.845 2491.27,50.841C2450.71,146.851 2462.64,241.019 2493.12,340.856C2510.12,398.079 2574.25,433.723 2639.21,422.062C2818.33,390.016 2976.45,315.433 3088.18,222.035C3098.85,213.121 3108.31,211.421 3119.52,209.532C3121.59,209.171 3123.39,208.052 3124.48,206.448C3125.57,204.843 3125.85,202.901 3125.25,201.094C3103.03,133.095 3109.01,78.597 3092.76,22.864Z" style="fill:rgb(255,233,209);"/>
                </g>
                <g transform="matrix(0.134384,-0.016105,0.0085911,0.608014,6830.03,367.28)">
                    <path d="M3255.93,679.375C3257.09,679.118 3258.37,679.31 3259.22,679.869C3260.08,680.428 3260.36,681.254 3259.94,681.992C3189.73,806.415 3084.57,992.656 3126.73,1119.64C3127.63,1121.95 3125.76,1124.33 3122.33,1125.22C3118.91,1126.11 3114.99,1125.24 3113.15,1123.18C3017.68,1016.26 2773.63,742.598 2773.63,742.598C2691.23,617.175 2671.4,809.906 3255.93,679.375Z" style="fill:rgb(252,226,198);"/>
                </g>
                <g transform="matrix(0.211229,0.220938,-0.0718936,0.582975,6661.14,-339.658)">
                    <path d="M3361.56,512.629C3361.56,512.629 3243.68,492.012 3163.63,478.009C3147.15,475.127 3130.39,481.135 3118.99,494.016C3107.59,506.898 3103.05,524.946 3106.89,542.099C3118.07,591.872 3130.31,643.025 3135.07,686.522C3136.88,705.141 3148.42,721.123 3164.95,727.915C3256.74,766.013 3281.01,765.749 3342.4,789.91C3350.69,793.121 3359.93,792.075 3367.39,787.082C3374.85,782.088 3379.69,773.715 3380.47,764.428C3380.99,758.407 3380.9,752.469 3379.01,746.531C3372.26,725.285 3378.91,686.047 3356.78,666.028C3330,641.818 3359.41,637.049 3373.59,614.368C3396.56,577.595 3343.26,553.991 3361.56,512.629Z" style="fill:rgb(255,233,209);"/>
                </g>
                <g transform="matrix(0.200176,0.209377,-0.0718936,0.582975,6728.33,-161.772)">
                    <path d="M3185.42,342.454C3184.62,341.138 3183.66,339.93 3182.56,338.857C3171.53,328.223 3180.94,309.77 3193.17,304.984C3177.4,300.517 3108.02,318.328 3103.01,352.46C3098.21,385.079 3132.72,444.872 3137.9,475.831C3159.71,460.627 3185.32,444.13 3219.41,444.807C3219.41,444.807 3223.74,439.145 3227.67,434.012C3231.16,429.44 3231.15,423.09 3227.63,418.534C3215.22,402.647 3213.39,388.774 3185.42,342.454Z" style="fill:rgb(255,233,209);"/>
                </g>
                <g transform="matrix(0.200176,0.209377,-0.0718936,0.582975,6704.04,-154.982)">
                    <path d="M3256.5,264.865C3233.18,266.528 3248.61,265.468 3222.78,272.071L3199.85,288.809C3227.43,307.485 3226.74,300.153 3260.81,297.818C3269.15,294.387 3270.06,278.229 3256.5,264.865Z" style="fill:white;"/>
                </g>
                <g transform="matrix(0.140913,0.14739,-0.0508516,0.412348,6917.08,87.5506)">
                    <path d="M3138.1,284.883L3095.21,273.552C3056.87,276.685 3009.28,313.365 2973.74,333.02C3024.33,316.151 3090.84,293.227 3142.83,308.725C3144.79,309.352 3146.93,308.696 3148.19,307.083C3149.45,305.47 3149.57,303.243 3148.48,301.508C3143.59,293.623 3138.1,284.883 3138.1,284.883Z" style="fill:rgb(200,134,64);"/>
                </g>
                <g transform="matrix(0.0143191,0.618029,-0.212212,0.0417017,7343.69,-1108.59)">
                    <path d="M3390.61,665.412C3390.41,665.169 3390.19,664.934 3389.97,664.707C3346.25,619.972 3269.26,660.002 3233.56,635.259C3143.04,572.533 3075.88,644.331 3081.23,757.629C3082.27,781.249 3071.91,803.933 3053.37,818.614C2989.43,869.002 3074.91,879.002 3147.14,989.946C3157.5,1005.78 3173.55,1017.02 3191.97,1021.34C3361.89,1061.28 3474.41,1186.57 3523.99,1095.15C3524.96,1093.36 3526,1091.61 3527.12,1089.91C3583.22,1003.63 3580.35,840.016 3482.32,748.95C3462.1,730.169 3437.98,713.48 3422.86,692.441C3417.91,685.568 3396.74,672.108 3390.61,665.412Z" style="fill:rgb(255,233,209);"/>
                </g>
                <g transform="matrix(0.287596,0.300815,-0.0718936,0.582975,6602.37,-267.167)">
                    <path d="M2470.02,311.992C2470.12,309.978 2469.87,307.958 2469.28,306.124C2464.12,290.149 2452.39,279.715 2433.7,275.155C2431.22,274.553 2428.68,275.615 2426.82,278.036C2394.2,320.726 2421.48,391.63 2432.32,435.407C2433.12,439.102 2435.14,441.995 2437.71,443.148C2440.28,444.301 2443.08,443.566 2445.2,441.182C2450.87,434.848 2457.65,427.228 2461.41,423.01C2463.22,420.967 2464.36,417.919 2464.54,414.612C2465.58,395.118 2469.23,326.64 2470.02,311.992Z" style="fill:rgb(246,216,184);"/>
                </g>
                <g transform="matrix(-0.212262,0.0394774,-0.0135553,-0.618175,7844.56,650.634)">
                    <path d="M2349.28,232.653C2352.17,280.759 2401.53,326.376 2405.09,298.896C2448.27,-34.496 3153.21,-46.966 3153.03,63.06C3011.57,112.068 2620.6,178.487 2474.77,354.554C2442,394.122 2399.92,388.807 2368.29,368.993C2325.75,342.341 2294.68,282.588 2293.17,235.962L2349.28,232.653Z" style="fill:rgb(200,134,64);"/>
                </g>
                <g transform="matrix(-0.212262,0.0394774,-0.0135553,-0.618175,7829.47,627.284)">
                    <path d="M2349.28,232.653C2352.17,280.759 2396.62,325.28 2405.09,298.896C2460.83,125.235 2987.72,88.155 3203.37,54.931C3056.04,96.568 2648.69,221.549 2474.77,354.554C2387.61,421.205 2294.64,307.677 2293.17,235.962L2349.28,232.653Z" style="fill:rgb(200,134,64);"/>
                </g>
                <g transform="matrix(-0.212262,0.0394774,-0.0135553,-0.618175,7813.1,626.283)">
                    <path d="M2349.28,232.653C2352.17,280.759 2396.62,325.28 2405.09,298.896C2460.83,125.235 2917.44,-52.937 3078.96,65.3C2938.89,-9.244 2628.24,198.392 2474.77,354.554C2381.9,449.048 2291.06,325.137 2293.17,235.962L2349.28,232.653Z" style="fill:rgb(200,134,64);"/>
                </g>
                <g transform="matrix(-0.212262,0.0394774,-0.0135553,-0.618175,7798.45,632.353)">
                    <path d="M2349.28,232.653C2352.17,280.759 2396.62,325.28 2405.09,298.896C2460.83,125.235 2939.91,105.042 3101.43,223.278C2961.36,148.735 2628.24,198.392 2474.77,354.554C2381.9,449.048 2291.06,325.137 2293.17,235.962L2349.28,232.653Z" style="fill:rgb(200,134,64);"/>
                </g>
                <g transform="matrix(0.271328,0.283799,-0.0718936,0.582975,6641.6,-220.834)">
                    <path d="M2466.15,314.587C2466.2,311.74 2465.49,308.964 2464.15,306.77C2452.31,287.365 2442.06,275.077 2427.66,275.284C2425.09,275.303 2422.66,276.856 2421.02,279.529C2394.75,322.713 2418.11,384.883 2418.41,424.255C2418.41,428.049 2419.76,431.611 2422.03,433.825C2424.3,436.039 2427.23,436.636 2429.88,435.429C2439.31,431.152 2451.43,425.64 2458.47,422.436C2461.95,420.855 2464.32,416.495 2464.41,411.528C2464.8,389.694 2465.85,331.071 2466.15,314.587Z" style="fill:rgb(255,233,209);"/>
                </g>
                <g transform="matrix(0.200176,0.209377,-0.0718936,0.582975,6791.61,-103.15)">
                    <path d="M2862.85,464.2L2766.18,516.033L2866.18,523.367C2866.18,523.367 2871.18,516.141 2875.41,510.035C2877.58,506.894 2877,502.613 2874.06,500.171C2868.98,495.988 2864.8,484.593 2862.85,464.2Z" style="fill:rgb(255,233,209);"/>
                </g>
                <g transform="matrix(0.200176,0.209377,0.0718936,-0.582975,6717.66,501.409)">
                    <path d="M2869.29,497.989C2869.29,497.989 2826.85,481.144 2796.09,468.935C2793.03,467.72 2789.54,468.859 2787.79,471.645C2786.03,474.431 2786.51,478.072 2788.93,480.305C2810.32,500.245 2833.15,516.779 2861.45,520.424C2863.19,520.64 2864.95,520.177 2866.36,519.132C2870.21,516.209 2876.48,509.262 2869.29,497.989Z" style="fill:rgb(255,233,209);"/>
                </g>
                <g transform="matrix(0.200176,0.209377,-0.0718936,0.582975,6791.61,-103.15)">
                    <path d="M2872.01,537.533C2872.01,537.533 2868.71,538.487 2865.53,539.407C2861.69,540.52 2857.66,540.814 2853.69,540.271C2848.4,539.547 2841.53,538.606 2841.53,538.606C2845.05,550.401 2843.27,545.966 2853.08,566.841C2858.21,548.78 2862.45,549.244 2872.01,537.533Z" style="fill:rgb(246,216,184);"/>
                </g>
                <g transform="matrix(0.200176,0.209377,-0.0718936,0.582975,6793.64,-123.849)">
                    <path d="M2874.56,549.538C2874.88,549.209 2875.02,548.748 2874.93,548.301C2874.85,547.853 2874.55,547.474 2874.14,547.283C2872.77,546.563 2870.82,543.907 2864.99,544.548C2855.08,545.638 2807.98,556.963 2794.51,549.519C2815.91,561.347 2843.77,556.744 2869.34,554.409C2870.48,554.307 2871.5,553.668 2872.09,552.689C2872.9,551.274 2873.79,550.543 2874.56,549.538Z" style="fill:rgb(246,216,184);"/>
                </g>
                <g transform="matrix(0.295748,0.309341,-0.0718936,0.582975,6538.34,-368.062)">
                    <path d="M2590.18,345.9C2578.56,353.455 2577.19,371.097 2576.51,379.233C2578.11,373.556 2582.26,359.391 2588.18,357.9C2614.35,339.103 2624.13,428.07 2620.89,445.233C2629.05,427.904 2620.79,342.545 2590.18,345.9Z" style="fill:rgb(246,216,184);"/>
                </g>
                <g transform="matrix(0.295748,0.309341,-0.0718936,0.582975,6540.05,-320.205)">
                    <path d="M2596.05,328.9C2593.53,335.291 2567.39,348.683 2571.32,368.9C2573.89,358.435 2605.8,321.641 2599.68,355.233C2599.26,357.585 2597.32,343.545 2596.05,328.9Z" style="fill:rgb(246,216,184);"/>
                </g>
                <g transform="matrix(-0.212262,0.0394774,-0.0135553,-0.618175,7851.5,691.463)">
                    <path d="M2373.62,244.338C2373.65,244.273 2373.72,244.237 2373.79,244.25C2373.86,244.263 2373.91,244.321 2373.91,244.392C2376.79,292.029 2379.03,307.986 2405.09,298.896C2468.22,276.868 2576.53,151.601 2696.2,59.862C2841.48,-51.515 3100.54,11.474 3157.45,32.193C3084.42,14.568 2864,56.035 2691.93,136.426C2658.09,152.24 2651.1,205.744 2625.42,231.757C2566.03,291.939 2509.82,348.197 2456.39,371.84C2314.84,434.481 2265.63,322.305 2336.36,278.694C2348.11,266.695 2368.7,254.249 2373.62,244.338Z" style="fill:rgb(200,134,64);"/>
                </g>
                <g transform="matrix(0.200176,0.209377,-0.0718936,0.582975,6759.09,2.03785)">
                    <path d="M2982.93,237.089C2953.14,235.189 2943.96,251.724 2938.32,235.199C2940.58,240.066 2943.01,256.88 2941.51,261.838C2941.06,263.299 2942.7,263.584 2944.72,263.304C2946.93,262.999 2949.59,262.025 2950.5,261.174C2965.13,251.486 2979.68,244.871 2994.47,244.357C2989.53,243.433 2984.39,240.416 2982.93,237.089Z" style="fill:rgb(246,216,184);"/>
                </g>
                <g transform="matrix(0.200176,0.209377,-0.0497011,0.403019,6779.67,-68.6218)">
                    <path d="M2862.39,423.263L2850.65,424.231L2865.14,428.502C2872.46,427.374 2877.45,424.118 2883.84,420.944C2877.53,421.827 2870.67,424.447 2862.39,423.263Z" style="fill:rgb(246,216,184);"/>
                </g>
                <g transform="matrix(0.200176,0.209377,-0.0718936,0.582975,6782.85,-125.259)">
                    <path d="M2886.93,332.241C2873.64,331.403 2865.01,339.354 2850.43,343.075C2867.92,336.704 2886.44,335.079 2890.99,339.275L2902.09,344.575C2899.93,338.431 2896.28,333.329 2886.93,332.241Z" style="fill:rgb(246,216,184);"/>
                </g>
                <g transform="matrix(-0.00858297,0.0692112,-0.122527,-0.128875,7430.76,649.582)">
                    <path d="M2840.97,611.863C2794.34,601.905 2782.3,589.035 2792.51,577.966C2796.72,573.421 2788.26,568.782 2770.24,565.761C2770.51,565.7 2770.5,565.699 2770.5,565.699C2764.49,564.69 2756,564.456 2748.78,565.101C2741.56,565.745 2736.95,567.148 2736.99,568.689C2738.41,585.136 2766.92,607.613 2840.97,611.863Z" style="fill:rgb(95,60,21);"/>
                </g>
                <g transform="matrix(0.200176,0.209377,-0.0718936,0.582975,6791.61,-103.15)">
                    <path d="M2872.57,352.804C2872.57,352.799 2872.57,352.793 2872.56,352.788C2871.38,350.847 2870.02,350.745 2868.8,350.144C2868.09,349.787 2867.25,349.759 2866.51,350.066C2865.77,350.373 2865.2,350.986 2864.95,351.746C2864.34,353.691 2864.7,355.924 2866.38,358.55C2879.63,380.758 2886.43,404.995 2894.95,429.85C2895.23,430.654 2895.84,431.303 2896.62,431.635C2897.41,431.966 2898.29,431.949 2899.06,431.588C2904.22,429.246 2912.25,429.978 2917.02,432.793C2915.39,429.005 2912.2,426.239 2910.31,422.841C2897.02,398.924 2886.47,372.942 2872.57,352.804Z" style="fill:white;fill-opacity:0.631373;"/>
                </g>
                <g transform="matrix(-0.0955781,-0.55337,0.19001,-0.278353,7488.71,2635.22)">
                    <path d="M2942.21,496.945C2939.26,503.153 2938.6,509.867 2936.57,515.587C2934.62,521.067 2931.26,525.572 2930.12,530.615C2919.14,578.909 2944.01,607.528 2988.51,621.928C2988.51,621.928 2939.37,610.176 2933.73,608.826C2933.37,608.741 2933.03,608.608 2932.71,608.431C2901.07,591.014 2901.92,569.066 2920.55,532.133C2923.38,526.532 2927.92,521.437 2932.02,515.214C2935.64,509.723 2938.75,503.192 2942.21,496.945Z" style="fill:rgb(172,114,52);"/>
                </g>
                <g transform="matrix(-0.0955781,-0.55337,0.19001,-0.278353,7487.83,2627.72)">
                    <path d="M2939.7,493.816C2913.27,562.839 2932.55,597.755 2986.56,615.229C2985.23,617.399 2982.26,622.549 2977.54,622.995C2968.36,623.86 2951.13,616.023 2931.93,606.824C2931.87,606.794 2931.81,606.762 2931.74,606.728C2890.58,584.312 2902.68,551.11 2939.7,493.816Z" style="fill:rgb(172,114,52);"/>
                </g>
                <g transform="matrix(-0.0955781,-0.55337,0.19001,-0.278353,7486.37,2618.74)">
                    <path d="M2945.35,484.764C2941.71,490.447 2936.78,495.977 2933.97,501.428C2930.68,507.802 2929.65,514.051 2927.49,520.07C2911.47,564.743 2926.62,599.064 2972.66,614.64C2967.69,614.278 2962.78,614.971 2956.34,613.166C2949.39,611.217 2940.76,605.398 2933.24,606.49C2932.3,606.647 2931.33,606.468 2930.51,605.984C2900.77,588.464 2903.41,560.453 2914.24,523.579C2918.4,509.403 2931.84,498.012 2945.35,484.764Z" style="fill:rgb(172,114,52);"/>
                </g>
                <g transform="matrix(0.151857,0.158837,-0.0718936,0.582975,6929.39,40.9631)">
                    <path d="M2845.36,327.896C2844.66,326.561 2843.1,325.594 2841.23,325.34C2838.94,325.076 2836.66,325.001 2834.38,325.127C2832.2,325.26 2830.34,326.364 2829.65,327.933C2823.2,342.446 2826.15,350.98 2834.97,357.608C2836.13,358.481 2837.76,358.909 2839.39,358.774C2841.68,358.57 2843.98,358.185 2846.26,357.617C2847.61,357.276 2848.73,356.549 2849.38,355.592C2853.37,349.341 2851.53,339.699 2845.36,327.896Z" style="fill:rgb(9,91,164);"/>
                </g>
                <g transform="matrix(0.15363,0.160692,-0.0729147,0.591255,6913.51,6.51818)">
                    <path d="M2928.51,349.504C2927.91,348.353 2926.8,347.553 2925.51,347.342C2922.49,346.878 2919.46,346.793 2916.43,347.053C2914.94,347.192 2913.64,348.125 2913.03,349.494C2906.29,364.535 2909.52,373.19 2918.9,379.928C2919.67,380.481 2920.61,380.753 2921.56,380.696C2924.45,380.514 2927.33,380.047 2930.2,379.289C2931.14,379.036 2931.96,378.461 2932.52,377.665C2936.72,371.369 2934.86,361.553 2928.51,349.504ZM2928.01,351.801C2927.64,351.109 2927.08,350.537 2926.4,350.15C2923.25,348.379 2920.42,348.369 2917.81,349.695C2916.97,350.113 2916.31,350.8 2915.92,351.644C2909.89,364.553 2912.63,371.834 2920.7,377.491C2921.17,377.82 2921.7,378.048 2922.27,378.161C2925.17,378.738 2927.97,378.643 2930.37,376.751C2930.59,376.574 2930.8,376.373 2930.98,376.153C2935.23,370.975 2933.7,362.421 2928.01,351.801Z" style="fill:rgb(13,34,53);"/>
                </g>
                <g transform="matrix(0.0857322,0.0896728,-0.0434251,0.352128,7103.17,299.128)">
                    <path d="M2918.82,364.817C2917.93,363.004 2915.85,361.612 2913.24,361.084C2911.72,360.76 2910.19,360.78 2908.66,361.11C2906.09,361.665 2903.93,362.907 2902.63,364.573C2898.57,369.887 2899.53,375.376 2904.08,381.007C2904.22,381.18 2904.37,381.349 2904.53,381.512C2908.36,385.334 2912,385.544 2915.52,383.048C2916.58,382.389 2917.43,381.585 2918.03,380.686C2921.28,375.826 2921.62,370.546 2918.82,364.817Z" style="fill:rgb(0,17,32);"/>
                </g>
                <g transform="matrix(0.0325264,0.0340214,-0.0231633,0.187828,7249.61,518.264)">
                    <path d="M2918.01,363.305C2917.82,362.966 2917.47,362.655 2916.98,362.401C2912.81,360.183 2908.73,360.387 2904.65,362.676C2904.37,362.831 2904.13,363.006 2903.95,363.197C2898.43,368.91 2899.13,374.877 2904.08,381.01C2904.09,381.021 2904.1,381.031 2904.11,381.041C2908.68,385.972 2913.03,385.648 2917.21,381.645C2917.53,381.33 2917.81,381.003 2918.04,380.667C2921.57,375.385 2921.66,369.611 2918.01,363.305Z" style="fill:rgb(152,166,178);"/>
                </g>
                <g transform="matrix(0.0415679,0.0434785,-0.0162165,0.131497,7220.8,514.45)">
                    <path d="M2918.72,364.628C2917.9,362.975 2916.38,361.704 2914.51,361.109C2911.21,360.367 2908.01,360.836 2904.8,362.591C2904.26,362.886 2903.77,363.269 2903.37,363.722C2898.47,369.294 2899.29,375.074 2904.08,381.01C2904.11,381.045 2904.14,381.08 2904.17,381.113C2908.75,385.996 2913.1,385.625 2917.28,381.577C2917.87,381.015 2918.37,380.381 2918.78,379.693C2921.35,375.022 2921.43,370.024 2918.72,364.628Z" style="fill:rgb(196,206,214);"/>
                </g>
                <g transform="matrix(-0.0143191,-0.618029,-0.212212,0.0417017,7466.14,2555.57)">
                    <path d="M2699.76,1245.05C2635.39,1323.35 2800.56,1532.07 2746.11,1603.57C2661.58,1714.56 2664.73,1697.57 2655.76,1750.89C2652.75,1767.64 2656.6,1784.89 2666.44,1798.78C2678.45,1815.73 2688.65,1849.56 2697.56,1891.84C2701.26,1896.23 2707.46,1897.55 2712.62,1895.03C2717.78,1892.52 2720.57,1886.81 2719.39,1881.2C2719.32,1881.16 2719.28,1881.11 2719.23,1881.06C2681.67,1839.52 2916.38,1626.75 2900.43,1194.67C2897.41,1112.99 2762.38,1168.9 2699.76,1245.05Z" style="fill:rgb(223,195,163);"/>
                </g>
                <g transform="matrix(0.0143191,0.618029,-0.212212,0.0417017,7407.85,-6991.74)">
                    <path d="M12764.2,2542.56C12756.8,2532.84 12751.9,2521.5 12749.8,2509.48C12742.3,2463.45 12724.5,2480.67 12710.2,2480.27C12696.2,2479.83 12683.5,2488.1 12678.2,2501.02C12656.9,2553.57 12644.6,2617.52 12633.3,2683.14C12629.7,2703.87 12634.8,2725.17 12647.4,2742.03C12660,2758.88 12679,2769.8 12699.9,2772.21C12759.7,2779.05 12799.8,2809.71 12837.9,2851.36C12848.4,2862.83 12865.4,2865.41 12878.8,2857.56C12892.3,2849.7 12898.3,2833.54 12893.5,2818.79C12862,2724.8 12815.6,2611.15 12764.2,2542.56Z" style="fill:rgb(244,219,191);"/>
                </g>
                <g transform="matrix(0.0143191,0.618029,-0.212212,0.0417017,7302.13,-1045.43)">
                    <path d="M3167.68,739.967C3165.92,714.43 3145.43,694.193 3119.88,692.741C3105.58,691.915 3090.28,691.047 3077.07,690.295C3055.91,689.093 3036.23,701.142 3027.68,720.53C3025.96,724.431 3024.14,728.557 3022.25,732.831C3015.29,748.629 3016.82,766.882 3026.31,781.3C3035.81,795.719 3051.98,804.329 3069.24,804.164C3078.93,804.032 3087.26,807.105 3093.27,815.654C3137.75,878.854 3274.69,937.476 3376.07,928.98C3429.03,924.542 3461.14,879.346 3454.26,859.11C3433.61,876.32 3398.29,913.586 3358.23,912.83C3316.98,912.051 3278.73,893.545 3251.55,877.576C3199.22,846.829 3171.39,795.863 3167.68,739.967Z" style="fill:rgb(252,226,198);"/>
                </g>
                <g transform="matrix(0.0164383,0.709495,-0.212212,0.0417017,7492.83,-3414.22)">
                    <path d="M6086.35,2649.22C6080.87,2613.67 6059.33,2584.15 6029.8,2571.73C6000.28,2559.32 5967.22,2565.88 5943.04,2588.96C5927.85,2603.44 5915.53,2615.19 5909.74,2620.72C5906.91,2623.42 5904.23,2626.33 5901.71,2629.41C5716.4,2858.73 5749.27,3641.46 5869.63,3835.47C5935.76,4603.61 6097.25,4177.4 6244.2,3355.16C6244.43,3353.85 6244.69,3352.55 6244.97,3351.25C6277.91,3197.99 6315.73,3045.92 6236,2916.43C6194.75,2849.45 6126.28,2772.03 6101.76,2709.64C6094.08,2690.09 6089.47,2669.76 6086.35,2649.22Z" style="fill:rgb(58,103,154);"/>
                </g>
                <g transform="matrix(-0.0160581,0.285261,-0.199988,-0.0954845,7547.8,-1271.15)">
                    <path d="M9557.74,2821.88C9557.03,2790.92 9511.13,2764.65 9448.77,2759.53C9386.42,2754.4 9325.53,2771.89 9304.22,2801.05C9238.96,2890.17 9133.85,2975.58 8940.95,3054.25C8519.98,3226.57 8385.48,3515.29 8612.19,3759.99C8612.02,3760.03 8612.02,3760.03 8612.02,3760.03C9193.08,4387.17 9385.4,4950.39 9445.5,5195.01C9447.06,5201.82 9458.86,5206.97 9472.86,5206.95C9486.87,5206.93 9498.6,5201.74 9500.08,5194.92C9659.74,4422.52 9579.22,3615.71 9557.74,2821.88Z" style="fill:rgb(58,103,154);"/>
                </g>
                <g transform="matrix(-0.0102792,0.182603,-0.199988,-0.0954845,7450.82,-291.617)">
                    <path d="M9548.75,2963.65C9541.79,2945.12 9503.68,2929.18 9448.89,2921.89C9394.11,2914.6 9331.06,2917.08 9283.72,2928.39C9283.93,2928.47 9283.93,2928.47 9283.93,2928.47C8796.83,3044.84 8575.39,3240.53 8719.65,3427.13C8804.43,3541.4 8889.39,3652.11 8941.07,3744.76C9023.16,3891.9 9312.18,4072.25 9407.76,4193.59C9721.64,4592.08 9697.21,4862.51 9649.14,4995.1C9647.34,4997.87 9639.02,4999.73 9630.09,4999.36C9621.15,4999 9614.63,4996.53 9615.15,4993.71C9765.98,4135.09 9876.93,3830 9548.75,2963.65Z" style="fill:rgb(206,204,201);"/>
                </g>
                <g transform="matrix(0.0143191,0.618029,-0.228484,0.0448993,7457.91,-2863.73)">
                    <path d="M5985.72,2352.76C5979.19,2333.44 5978.09,2312.88 5982.52,2293.05C5982.51,2293.05 5982.51,2293.05 5982.51,2293.04C5988.39,2266.7 5973.07,2240.24 5946.16,2230.27C5919.26,2220.3 5888.53,2229.7 5873.27,2252.56C5866.19,2263.19 5859.47,2273.96 5853.34,2284.95C5803.84,2373.74 5734.94,2451.42 5728.88,2538.6C5725.68,2584.6 5730.56,2645.78 5757.6,2697.25C5759.05,2700 5760.12,2702.91 5760.78,2705.91C5760.86,2706.49 5761,2707.05 5761.13,2707.62C5771.11,2748.17 5808.85,2777.65 5853.58,2779.82C5898.31,2782 5939.16,2756.34 5953.64,2716.97C5992.89,2612.97 6034.06,2496.25 5985.72,2352.76Z" style="fill:rgb(58,103,154);"/>
                </g>
                <g transform="matrix(0.0143191,0.618029,-0.212212,0.0417017,7618.07,-7695.7)">
                    <path d="M13630.4,3766.89C13458.5,3970.82 13590,3974.85 13582.9,4199.17C13562.7,4840.8 13625.6,4771.41 13674.4,4903.08C13687.5,4938.58 13508.4,4818.43 13526.7,4193.11C13530.2,4073.66 13410.4,3969.5 13630.4,3766.89Z" style="fill:rgb(93,127,166);"/>
                </g>
                <g transform="matrix(0.0164383,0.709495,-0.202399,0.0397734,7458.39,-3379.08)">
                    <path d="M6046.76,2571.65C6037.61,2546.07 6014.52,2532.09 5992,2538.49C5969.48,2544.89 5954.03,2569.83 5955.36,2597.64C5955.35,2597.64 5955.35,2597.64 5955.35,2597.64C5955.44,2599.41 5955.39,2601.18 5955.2,2602.94C5930.4,2836.26 5934.72,3328.58 5984.03,3542.92C6150.07,4264.52 6196.51,4336.9 6244.03,3461.91C6244.37,3455.61 6245.18,3449.37 6246.44,3443.25C6278.13,3288.17 6291.23,3030.66 6238.03,2890.68C6211.81,2821.67 6160.84,2803.47 6119.06,2743.41C6100.83,2717.2 6074.24,2649.04 6046.76,2571.65Z" style="fill:rgb(206,204,201);"/>
                </g>
                <g transform="matrix(0.0669829,0.587915,-0.201872,0.195075,7154.64,-3132.71)">
                    <path d="M6083,2391.99C6080.19,2365.34 6067.63,2340.66 6047.73,2322.7C6016.71,2294.77 5987.29,2283.06 5963.86,2254.27C5958.39,2247.6 5950.01,2244.03 5941.42,2244.69C5932.82,2245.35 5925.09,2250.17 5920.71,2257.59C5819.52,2428.23 5813.41,2600.01 5863.45,2799.45C5865.17,2806.28 5866.22,2813.26 5866.6,2820.3C5872.72,2929.85 5925.03,3058.4 6006.29,3035.64C6044.3,3024.88 6067.17,2986.17 6058.25,2947.68C6019.33,2780.51 6095.77,2516.03 6083,2391.99Z" style="fill:rgb(255,233,209);"/>
                </g>
                <g transform="matrix(0.0143191,0.618029,-0.212212,0.0417017,7472.84,-6962.74)">
                    <path d="M12646.2,3192.34C12637.2,3172.08 12620.5,3156.29 12599.7,3148.55C12578.9,3140.81 12555.9,3141.78 12535.9,3151.24C12528.6,3154.66 12523.9,3156.89 12523.9,3156.89L12523.9,3342.21L12711.2,3339.24C12711.2,3339.24 12674.9,3257.13 12646.2,3192.34Z" style="fill:rgb(244,219,191);"/>
                </g>
                <g transform="matrix(0.0143191,0.618029,-0.212212,0.0417017,7503.08,-3520.11)">
                    <path d="M6929.52,2383.34C6934.41,2372.78 6934.51,2360.62 6929.77,2349.98C6925.03,2339.35 6915.93,2331.28 6904.8,2327.86C6904.81,2327.84 6904.81,2327.83 6904.81,2327.83C6893.02,2324.21 6880.22,2326.11 6869.98,2333C6859.75,2339.89 6853.19,2351.04 6852.12,2363.34C6848.66,2402.79 6817.88,2434.3 6789.63,2473.63C6781.66,2484.7 6779.54,2498.93 6783.93,2511.84C6788.32,2524.75 6798.68,2534.74 6811.74,2538.66C6811.76,2538.64 6811.77,2538.64 6811.78,2538.64C6822.79,2541.95 6834.68,2540.57 6844.64,2534.83C6854.61,2529.1 6861.77,2519.51 6864.44,2508.33C6874.57,2466.06 6909.52,2426.64 6929.52,2383.34Z" style="fill:rgb(252,226,198);"/>
                </g>
                <g transform="matrix(0.212664,-0.0106021,0.00364043,0.619344,6502.67,442.646)">
                    <path d="M3158.44,723.221C3158.43,709.299 3152.7,695.994 3142.59,686.416C3129.95,674.404 3112.9,658.233 3100.05,646.048C3088.47,635.07 3072.4,630.166 3056.67,632.806C2986,644.659 2786.04,678.2 2726.98,688.108C2721.45,689.035 2716.87,692.932 2715.08,698.247C2713.28,703.562 2714.56,709.433 2718.4,713.523C2772.17,768.022 3049.2,832.137 3124.96,803.058C3202.71,773.218 3218.12,927.436 3336.44,912.077C3363.37,908.581 3481.23,838.832 3493.75,818.081C3435.3,848.754 3305.67,864.868 3260.52,838.338C3201.11,803.436 3158.25,780.341 3158.44,723.221Z" style="fill:rgb(252,226,198);"/>
                </g>
                <g transform="matrix(0.0143191,0.618029,-0.212212,0.0417017,7596.83,-2992.16)">
                    <path d="M6083.18,2349.5C6080.9,2347.19 6078.77,2344.75 6076.79,2342.18C6039.86,2293.52 6014.29,2197.05 5990.8,2126.78C5987.46,2117.08 5978.8,2110.2 5968.6,2109.12C5958.4,2108.05 5948.5,2112.97 5943.22,2121.76C5829.07,2310.84 5795.03,2589.3 5885.18,2791.34C5891.53,2805.61 5894.74,2821.08 5894.57,2836.7C5892.98,2926.09 5946.45,2932.09 5992.21,2840.7C5993.2,2838.72 5994.41,2837.57 5995.82,2837.1C6032.74,2824.57 6060.03,2793.1 6067.21,2754.78C6096.38,2604.39 6160.01,2428.17 6083.18,2349.5Z" style="fill:rgb(255,238,219);"/>
                </g>
                <g transform="matrix(-0.0226311,0.51608,-0.228853,-0.0851182,7491.21,-301.453)">
                    <path d="M2523.38,863.835C2517.68,858.788 2512.55,853.375 2508.03,847.656C2456.4,782.029 2374.9,780.831 2250.56,819.239C2209.88,831.832 2178.1,857.305 2163.26,889.222C2132.76,954.261 2143.26,976.511 2181.67,1063.9C2182.46,1065.69 2183.3,1067.48 2184.2,1069.24C2218.11,1135.77 2250.94,1201.23 2296.52,1185.62C2334.57,1172.59 2428.69,1101.21 2506.5,1067.79C2546.49,1050.68 2574.53,1020.64 2582.98,985.87C2591.43,951.1 2579.4,915.225 2550.18,888.027C2542.36,880.752 2533.47,872.77 2523.38,863.835Z" style="fill:rgb(255,233,209);"/>
                </g>
                <g transform="matrix(0.158567,-0.412848,0.141759,0.461796,5749.93,2675.38)">
                    <path d="M6995.51,2200.15C7012.74,2297.92 7021.63,2310.2 6941.71,2437.08C6958.59,2399.16 6942.97,2352.42 6885.97,2294.44C6921.25,2305.87 6949,2290.34 6995.51,2200.15Z" style="fill:rgb(252,226,198);"/>
                </g>
                <g transform="matrix(-0.0726056,0.582226,-0.199919,-0.21145,8102.14,-2249.33)">
                    <ellipse cx="6448.76" cy="2318.21" rx="42.214" ry="24.335" style="fill:rgb(216,184,150);"/>
                </g>
                <g transform="matrix(-0.0450081,0.360921,-0.123929,-0.131078,7748.07,-1005.42)">
                    <ellipse cx="6448.76" cy="2318.21" rx="42.214" ry="24.335" style="fill:rgb(203,159,113);"/>
                </g>
                <g transform="matrix(-0.106458,-0.536259,0.184135,-0.31004,7127.03,5652.79)">
                    <path d="M6941.4,2908.63C6944.99,2887.45 6962.31,2871.3 6983.68,2869.19C7040.73,2863.44 7088.42,2887.66 7114.24,2959.06C7116.58,2965.52 7117.48,2972.41 7116.9,2979.25C7112.58,3030.78 7086.92,3073.99 7043.32,3110.2C7034.24,3117.78 7022.66,3121.7 7010.84,3121.22C6964.72,3119.83 6908.57,3123.95 6877.52,3099C6870.54,3093.36 6865.29,3085.87 6862.39,3077.38C6860.16,3070.94 6856.83,3061.21 6853.27,3050.81C6844.83,3026.17 6857.74,2999.32 6882.25,2990.52C6916.82,2978.05 6933.61,2954.29 6941.4,2908.63Z" style="fill:rgb(255,233,209);"/>
                </g>
                <g transform="matrix(-0.00397244,-0.204257,-0.154389,0.0351448,7029.93,2730.69)">
                    <path d="M8962.34,3304.6C8957.94,3298.83 8945.69,3295 8932.34,3295.23C8919,3295.47 8907.8,3299.69 8904.93,3305.59C8879.21,3358.44 8837.93,3443.29 8813.93,3492.63C8802.28,3516.56 8781.59,3539.31 8752.77,3559.88C8157.25,3984.35 8648.14,4985.7 8975.79,5657.8C8979.02,5664.44 8992.37,5669.13 9007.26,5668.85C9022.16,5668.58 9034.16,5663.41 9035.54,5656.69C9118.44,5217.48 8943.13,4744.39 9291.94,4475.82C9331.27,4445.53 9364.41,4415.62 9409.96,4389.44C9471.5,4354.15 9509.41,4311.46 9519.32,4266.31C9596.92,3915.33 9265.41,3700 8962.34,3304.6Z" style="fill:rgb(75,115,161);"/>
                </g>
                <g transform="matrix(0.0669829,0.587915,-0.201872,0.195075,7163.5,-3140.39)">
                    <path d="M6098.67,2476.75C6098.34,2472.74 6096.06,2469.15 6092.56,2467.15C6089.07,2465.15 6084.82,2464.99 6081.19,2466.74C6033.72,2489.52 5914.37,2509.34 5865.73,2475.64C5861.69,2472.8 5856.49,2472.2 5851.91,2474.06C5847.34,2475.92 5844.03,2479.97 5843.12,2484.83C5814.77,2634.6 5824.91,2641.66 5854.14,2822.2C5854.94,2827.18 5855.4,2832.22 5855.51,2837.27C5856.35,2894.01 5851.65,3014.05 5895.94,3004.75C5950.52,2993.28 6012.35,2960.63 6047.22,2967.89C6051.35,2968.81 6055.68,2967.58 6058.71,2964.62C6061.74,2961.67 6063.09,2957.38 6062.27,2953.22C6030.02,2787.72 6106.56,2584.32 6098.67,2476.75Z" style="fill:rgb(37,48,80);"/>
                </g>
                <g transform="matrix(0.0114526,0.494308,-0.138155,0.0271488,7279.58,-5608.35)">
                    <path d="M13227.6,3720.95C13230.4,3663.32 13210.4,3607.57 13173.9,3571.24C13137.3,3534.9 13088.8,3522.45 13043.5,3537.79C13043.5,3537.77 13043.5,3537.77 13043.5,3537.77C13025.3,3543.93 13010.8,3560.86 13005,3582.88C12968.6,3717.8 12994.1,3819.47 13040.4,3980.93C13045.7,3999.54 13058.1,4013.8 13073.5,4019.14C13073.5,4019.14 13073.5,4019.14 13073.5,4019.14C13114.9,4033.43 13159.5,4020.87 13191.6,3985.8C13223.8,3950.72 13239.3,3897.95 13232.7,3845.7C13227.4,3804.31 13225.6,3762.27 13227.6,3720.95Z" style="fill:rgb(255,233,209);"/>
                </g>
                <g transform="matrix(-0.00472057,-0.203745,-0.138155,0.0271488,7512.14,3651.86)">
                    <path d="M13474.6,3610.74C13485.1,3597.49 13482.4,3582.5 13467.3,3570.42C13452.3,3558.35 13426.7,3550.66 13398.6,3549.75C13398.6,3549.75 13398.6,3549.75 13398.6,3549.75C13331.2,3547.57 13270.2,3569.96 13253.3,3603.1C13200.5,3709.34 13136.4,3729.89 13181.9,3892.79C13182.8,3896.18 13184.4,3899.52 13186.5,3902.77C13186.5,3902.77 13186.5,3902.77 13186.5,3902.77C13194.8,3915.39 13219.2,3923.48 13245.3,3922.3C13271.5,3921.13 13292.7,3911 13296.5,3897.83C13325.9,3799.84 13401.1,3702.35 13474.6,3610.74Z" style="fill:rgb(255,233,209);"/>
                </g>
                <g transform="matrix(0.212222,-0.0412975,0.0141803,0.618056,4373.23,-218.889)">
                    <path d="M12403.5,2837.95C12387.6,2752.58 12531.3,2863.01 12616.3,2947.46C12626.9,2958.02 12629.4,2974.3 12622.4,2987.52C12615.3,3000.75 12600.5,3007.8 12585.8,3004.88C12547.7,2997.32 12511.8,2990.41 12510.8,2990.34C12509.5,2990.26 12499.4,2990.97 12494,2990.97C12666.3,2991.89 12503.2,2838.04 12403.5,2837.95Z" style="fill:rgb(244,219,191);"/>
                </g>
                <g transform="matrix(0.0143191,0.618029,-0.212212,0.0417017,7529.74,-6294.05)">
                    <path d="M11444.6,3433.24C11429.5,3438.51 11412.9,3430.7 11407.4,3415.68C11393.7,3377.72 11382.4,3338.36 11361.6,3303.23C11324.9,3240.96 11300.3,3175.3 11284.4,3106.03C11283.9,3104.22 11282.2,3103.07 11280.3,3103.43C11278.5,3103.79 11277.3,3105.54 11277.6,3107.37C11289.3,3178.62 11311,3237.85 11353,3316.62C11353,3316.62 11383,3408.15 11398.7,3455.91C11400.7,3462.07 11405.7,3466.82 11412,3468.55C11418.2,3470.28 11424.9,3468.77 11429.8,3464.53C11449.6,3447.74 11472.7,3430.86 11500.2,3413.82C11500.2,3413.82 11468.6,3424.85 11444.6,3433.24Z" style="fill:rgb(69,73,83);"/>
                </g>
                <g transform="matrix(0.0419369,0.27315,-0.194169,0.252843,7128.85,-3187.02)">
                    <path d="M11859.7,3178.08C11860.3,3175.71 11864.1,3173.84 11869,3173.5C11873.8,3173.16 11878.6,3174.44 11880.5,3176.62C11902.6,3201.23 11940.6,3243.7 11949.4,3253.49C11950.5,3254.8 11950.6,3256.29 11949.4,3257.61C11940.8,3267.55 11903.4,3311.01 11881.6,3336.27C11879.7,3338.48 11875,3339.79 11870.1,3339.47C11865.2,3339.15 11861.3,3337.27 11860.7,3334.89C11853.7,3307.77 11841.8,3261.64 11840.3,3255.65C11840.1,3255.22 11840.1,3254.79 11840.3,3254.36C11841.8,3248.49 11853,3204.26 11859.7,3178.08Z" style="fill:rgb(69,73,83);"/>
                </g>
                <g transform="matrix(0.0342562,0.223123,-0.194169,0.252843,7217.93,-2602.33)">
                    <path d="M11896.5,3177.48C11898.2,3175.14 11903.6,3173.51 11909.7,3173.45C11915.9,3173.4 11921.4,3174.93 11923.4,3177.23C11944,3201.3 11980.3,3243.58 11988.1,3252.72C11989.1,3253.87 11989.1,3255.11 11988.1,3256.26C11980.3,3265.47 11944,3308.33 11923.4,3332.66C11921.4,3334.97 11915.9,3336.51 11909.7,3336.45C11903.5,3336.4 11898.1,3334.77 11896.4,3332.43C11878.6,3307.97 11847.5,3265.16 11841.2,3256.54C11840.5,3255.54 11840.5,3254.47 11841.2,3253.47C11847.5,3244.84 11878.7,3201.93 11896.5,3177.48Z" style="fill:rgb(49,113,139);"/>
                </g>
                <g transform="matrix(0.0143191,0.618029,-0.212212,0.0417017,7516.67,-6527.78)">
                    <path d="M11737.4,3188.97C11737.3,3188.24 11737.7,3187.52 11738.4,3187.23C11739,3186.93 11739.8,3187.13 11740.3,3187.71C11750.5,3200.56 11778.4,3235.54 11785,3243.84C11785.3,3244.25 11785.4,3244.8 11785.3,3245.3C11785.2,3245.81 11784.8,3246.22 11784.3,3246.39C11776.2,3249.3 11748,3259.41 11748,3259.41C11748,3259.41 11740.1,3207.02 11737.4,3188.97Z" style="fill:rgb(33,186,248);"/>
                </g>
                <g transform="matrix(0.0143191,0.618029,-0.212212,0.0417017,7514.53,-6543.19)">
                    <path d="M11760.3,3187.51C11760.3,3187.39 11760.4,3187.28 11760.5,3187.27C11760.6,3187.26 11760.7,3187.34 11760.7,3187.45C11763.1,3201.34 11769.8,3240.45 11771.4,3250.12C11771.5,3250.64 11771.4,3251.16 11771,3251.53C11770.6,3251.91 11770.1,3252.09 11769.6,3252.02C11768.7,3251.89 11767.6,3251.76 11766.8,3251.65C11766.1,3251.55 11765.5,3250.93 11765.4,3250.16C11764.8,3242.35 11761.5,3201.78 11760.3,3187.51Z" style="fill:rgb(33,186,248);"/>
                </g>
                <g transform="matrix(-0.0143191,-0.618029,0.212212,-0.0417017,6471.28,8278.31)">
                    <path d="M11736.1,3189.21C11736,3189.11 11736,3188.98 11736.1,3188.91C11736.2,3188.85 11736.4,3188.88 11736.4,3188.98C11745.8,3202.61 11768.2,3235.35 11774.6,3244.74C11775,3245.24 11775,3245.89 11774.7,3246.42C11774.5,3246.96 11773.9,3247.3 11773.3,3247.3C11772.8,3247.3 11772.3,3247.3 11771.9,3247.3C11771.3,3247.3 11770.8,3246.99 11770.5,3246.5C11767,3240.66 11745,3204.08 11736.1,3189.21Z" style="fill:rgb(33,186,248);"/>
                </g>
                <g transform="matrix(-0.0143191,-0.618029,0.212212,-0.0417017,6472.61,8289.46)">
                    <path d="M11744.8,3179.15C11744.8,3178.4 11745.2,3177.72 11746,3177.5C11746.7,3177.28 11747.5,3177.58 11747.8,3178.22C11756.9,3193.47 11781.3,3234.47 11786.6,3243.45C11786.9,3243.88 11786.9,3244.4 11786.8,3244.86C11786.6,3245.33 11786.2,3245.68 11785.7,3245.84C11779.2,3247.97 11757.9,3254.91 11751.3,3257.09C11750.8,3257.24 11750.2,3257.17 11749.8,3256.88C11749.4,3256.6 11749.1,3256.13 11749.1,3255.63C11748.5,3244.96 11745.8,3196.94 11744.8,3179.15Z" style="fill:rgb(33,186,248);"/>
                </g>
                <g transform="matrix(0.212695,0,0,0.619434,3179.7,-1718.49)">
                    <path d="M15694.1,4269.94C15819.4,4250.26 16182.9,4202.41 16378.4,4135.5C16582.2,4065.79 16815.9,4149.67 16871.9,4303.67C16785.7,4209.56 16667.7,4201.56 16511.3,4186.98C16335.8,4170.61 15849.4,4270.65 15694.1,4269.94Z" style="fill:rgb(93,127,166);"/>
                </g>
                <g transform="matrix(0.212695,0,0,0.619434,3179.7,-1718.49)">
                    <path d="M15694.1,4269.94C15819.4,4250.26 16182.9,4202.41 16378.4,4135.5C16582.2,4065.79 16815.9,4149.67 16871.9,4303.67C16785.7,4209.56 16667.7,4201.56 16511.3,4186.98C16335.8,4170.61 15849.4,4270.65 15694.1,4269.94Z" style="fill:rgb(93,127,166);"/>
                </g>
            </g>
        </g>
    </g>
</svg>
