<?xml version="1.0" encoding="UTF-8" standalone="no"?>
<!DOCTYPE svg PUBLIC "-//W3C//DTD SVG 1.1//EN" "http://www.w3.org/Graphics/SVG/1.1/DTD/svg11.dtd">
<svg width="100%" height="100%" viewBox="0 0 1213 6069" version="1.1" xmlns="http://www.w3.org/2000/svg" xmlns:xlink="http://www.w3.org/1999/xlink" xml:space="preserve" xmlns:serif="http://www.serif.com/" style="fill-rule:evenodd;clip-rule:evenodd;stroke-linejoin:round;stroke-miterlimit:1.41421;">
    <g transform="matrix(1,0,0,1,-12247.6,-1320.54)">
        <g transform="matrix(11.2981,0,0,3.16007,-51589.6,5820.28)">
            <g id="Merfloat" transform="matrix(0.329597,0,0,0.510868,3781.8,-751.653)">
                <g transform="matrix(0.0865724,0.0444617,-0.046571,0.438021,5280.89,-484.726)">
                    <path d="M8957.68,3393.2C8944.51,3375.03 8906.99,3362.6 8865.09,3362.53C8823.19,3362.46 8786.64,3374.76 8774.88,3392.89C8774.87,3392.89 8774.87,3392.89 8774.87,3392.89C8763.94,3409.73 8747.53,3425.69 8726.16,3440.24C8085.81,3877.95 8570.32,4961.46 8375.65,5697.15C8811.9,5226.2 8632.62,4768.35 9181.4,4519.92C9264.83,4482.02 9317.11,4432.21 9329.83,4378.51C9410.97,4043 9220,3752.37 8957.68,3393.2Z" style="fill:rgb(57,91,130);"/>
                </g>
                <g transform="matrix(0.0865724,0.0444617,-0.046571,0.438021,5278.51,-519.494)">
                    <path d="M8956.93,3394.75C8944.13,3376.48 8906.7,3363.88 8864.69,3363.72C8822.68,3363.55 8785.94,3375.84 8774.15,3394.02C8774.14,3394.02 8774.14,3394.02 8774.14,3394.02C8763.67,3410.15 8748,3425.45 8727.64,3439.42C8126.9,3853.81 8507.55,5012.29 8400.75,5763.05C8399.49,5770.15 8410.47,5776.63 8426,5777.94C8441.53,5779.24 8456.43,5774.95 8460.26,5768.07C8692.37,5327.74 8661.94,4828.13 9169.86,4591.62C9250.26,4554.13 9300.69,4505.41 9313.38,4452.98C9398.29,4107.81 9217.85,3765.86 8956.93,3394.75Z" style="fill:rgb(75,115,161);"/>
                </g>
                <g transform="matrix(-0.0865724,0.0444617,0.046571,0.438021,6494.09,-481.152)">
                    <path d="M9085.51,3840.47C9085.06,3840.17 9084.7,3839.84 9084.46,3839.49C9084.45,3839.49 9084.45,3839.49 9084.45,3839.49C9034.15,3769.01 8885.92,3721.84 8723.9,3724.74C8561.88,3727.65 8427.01,3779.91 8395.84,3851.85C8171.84,4366.3 8456.2,5147.52 8847.01,5630.78C8981.51,5141.56 8778.05,4705.26 9269.25,4454.59C9365.52,4405.6 9412.19,4340.35 9398.28,4274.19C9343.4,4013.26 9498.82,4113.01 9085.51,3840.47Z" style="fill:rgb(57,91,130);"/>
                </g>
                <g transform="matrix(0.0802197,0,0,0.590204,5129.41,-1201.82)">
                    <path d="M9565.28,2961.57C9556.51,2942.45 9515.7,2926.28 9458.38,2919.21C9401.05,2912.14 9336.04,2915.26 9288.08,2927.38C9288.16,2927.44 9288.11,2927.45 9288.06,2927.46C8800.12,3050.55 8582.72,3250.9 8730.03,3441.74C8811.6,3550.8 8891.59,3656.06 8941.07,3744.76C9023.16,3891.9 9312.18,4072.25 9407.76,4193.59C9768.73,4651.87 9615.96,4940.77 9531.6,5045.43C9529.22,5048.1 9520.8,5049.77 9512.09,5049.32C9503.38,5048.86 9497.17,5046.41 9497.7,5043.65C9658.52,4147.02 9956.59,3807.24 9565.28,2961.57Z" style="fill:rgb(181,181,181);"/>
                </g>
                <g transform="matrix(0.308283,0,0,0.619434,3987.59,-1799.6)">
                    <path d="M6047.59,2573.97C6038.69,2549.14 6015.48,2535.3 5992.67,2541.22C5969.86,2547.14 5954.09,2571.1 5955.37,2597.91C5955.37,2597.91 5955.37,2597.91 5955.37,2597.92C5955.44,2599.5 5955.4,2601.09 5955.23,2602.66C5930.4,2835.87 5934.7,3328.5 5984.03,3542.92C6150.11,4264.7 6196.53,4238.48 6244.07,3362.11C6244.39,3356.21 6245.16,3350.35 6246.37,3344.6C6278.11,3193.12 6291.27,3030.77 6238.03,2890.68C6211.81,2821.67 6160.84,2803.47 6119.06,2743.41C6101.01,2717.46 6074.77,2650.39 6047.59,2573.97Z" style="fill:rgb(181,181,181);"/>
                </g>
                <g transform="matrix(0.185356,-0.0947965,0.0530743,0.552166,5354.21,-1122.56)">
                    <path d="M2481.27,777.013C2480.71,776.52 2480.16,776.025 2479.61,775.526C2422.63,723.851 2384.49,701.062 2279.74,741.008C2244.07,754.631 2217.64,779.424 2207.12,809.122C2176.78,895.427 2201.43,968.99 2241.4,1060.38C2243.02,1064.08 2244.84,1067.73 2246.84,1071.31C2282.99,1135.23 2355.75,1186.26 2400.86,1173.15C2443.86,1160.65 2489.87,1103.04 2541.04,1061.89C2577.75,1032.52 2596.19,992.264 2591.59,951.548C2584.21,886.821 2556.87,843.689 2481.27,777.013Z" style="fill:rgb(255,233,209);"/>
                </g>
                <g transform="matrix(0.26854,0,0,0.619434,4962.37,-1285.9)">
                    <path d="M3402.49,673.751C3396.36,656.23 3383.85,641.666 3367.45,632.974C3329.35,612.607 3287.02,615.363 3258.78,595.623C3207.51,559.789 3166.45,586.264 3153.85,675.044C3151.1,694.053 3141.04,711.237 3125.81,722.935C3040.24,788.621 3077.76,862.382 3144.53,983.097C3155.03,1002.26 3173.48,1015.78 3194.91,1020C3291.63,1038.94 3377.2,1100.46 3441.22,1117.88C3462.04,1123.56 3484.3,1119.83 3502.13,1107.68C3519.95,1095.53 3531.57,1076.18 3533.89,1054.73C3546.8,935.106 3443.68,790.24 3402.49,673.751Z" style="fill:rgb(255,233,209);"/>
                </g>
                <g transform="matrix(0.26854,0,0,0.619434,4961.59,-1290.4)">
                    <path d="M3376.51,670.808C3370.37,661.229 3362.1,653.203 3352.33,647.359C3197.47,554.572 3142.21,559.071 3147.16,667.579C3148.1,690.591 3138.22,712.716 3120.46,727.382C3031.34,801.068 3044.49,910.533 3113.03,1041.32C3118.64,1052 3126.77,1061.14 3136.73,1067.94C3507.93,1320.74 3660.95,1061.52 3406.65,723.922C3398.9,713.637 3386.54,688.633 3376.51,670.808Z" style="fill:rgb(252,226,198);"/>
                </g>
                <g transform="matrix(0.26854,0,0,0.619434,5129.73,-1035.91)">
                    <path d="M2731.18,292.928C2725.86,287.529 2721.73,281.068 2719.07,273.967C2656.84,108.542 2561.68,52.923 2467.46,138.543C2436.85,166.357 2400.75,178.539 2366.66,293.889C2366.61,294.06 2366.56,294.232 2366.51,294.403C2332.86,404.212 2383.97,513.103 2450.11,617.893C2462.07,636.921 2484.58,646.544 2506.6,642.048C2572.84,628.706 2648.78,680.483 2731.51,727.311C2746.25,735.485 2763.96,736.304 2779.39,729.526C2794.82,722.749 2806.2,709.151 2810.16,692.767C2818.38,658.776 2826.62,624.629 2826.62,624.629C2889.37,552.534 2870,434.068 2731.18,292.928Z" style="fill:rgb(252,226,198);"/>
                </g>
                <g transform="matrix(0.246436,0.246105,0.106693,-0.568446,5294.59,-1660.54)">
                    <path d="M2339.22,341.441C2309.47,356.481 2168.41,34.672 2291.6,-59.369C2437.11,-170.449 2035.21,-67.562 2092.12,-46.843C2232.11,-270.375 2471.2,122.511 2425.31,209.047C2385.13,284.808 2406.97,267.846 2339.22,341.441Z" style="fill:rgb(200,134,64);"/>
                </g>
                <g transform="matrix(0.26854,0,0,0.619434,5130.45,-1359.66)">
                    <path d="M2873.39,1079.31C2869.99,1070.02 2864.48,1061.65 2857.28,1054.87C2581.6,795.587 2328.97,729.492 2341.81,1044.94C2342.09,1051.74 2341.27,1058.55 2339.39,1065.1C2309.53,1170.67 2321.88,1335.98 2378.32,1471.86C2437.4,1614.06 2427.32,1759.25 2403.31,1859.98C2395.91,1891.16 2412.9,1922.97 2442.93,1934.16C2465.87,1942.59 2482.48,1958.1 2506.58,1984.01C2557.41,2038.68 2511.11,2090.52 2600.64,2123.86C2647.97,2141.48 2742.8,2166.23 2804.92,2216.39C2818.32,2227.21 2827.36,2250.14 2833.12,2281.53C2837.07,2303.07 2853.33,2320.26 2874.61,2325.41C2895.9,2330.56 2918.22,2322.7 2931.57,2305.35C2931.58,2305.35 2931.58,2305.34 2931.58,2305.34C2971.12,2253.98 2957.37,2206.98 2911.71,2127.98C2898.95,2105.91 2865.55,2049.86 2869.18,2029.99C2880.1,1970.15 2858.75,1806.44 2855.63,1792.13C2808.91,1577.91 2886.19,1465.59 2900.43,1309.16C2903.15,1279.28 2903.39,1231.77 2900.81,1198.25C2896.97,1148.28 2898.55,1147.97 2873.39,1079.31Z" style="fill:rgb(244,219,191);"/>
                </g>
                <g transform="matrix(0.26854,0,0,0.619434,5129.31,-1346.48)">
                    <path d="M2806.15,1289.63C2778.99,1298.97 2644.79,1336.91 2640.74,1460.71C2635.28,1627.51 2681.27,1630.31 2670.8,1690.49C2668.06,1706.27 2671.39,1722.51 2680.13,1735.94C2715.72,1790.57 2744.8,1991.34 2822.94,2042.99C2823.51,2043.36 2823.96,2043.89 2824.24,2044.52C2864.57,2135.75 2875.44,2222.68 2915.79,2242.77C2922.46,2246.09 2965.97,2293.64 2950.17,2162.66C2946.46,2131.89 2898.69,2022.77 2882.96,1986.45C2872,1961.13 2887.46,1917.28 2881.14,1850.84C2877.38,1811.29 2837.2,1681.84 2841.63,1641.37C2853.38,1534.17 2905.31,1395.56 2902.48,1297.62C2901.04,1247.53 2832.47,1280.58 2806.15,1289.63Z" style="fill:rgb(255,238,219);"/>
                </g>
                <g transform="matrix(0.26854,0,0,0.619434,4947.48,-1331.58)">
                    <path d="M3510.45,574.023C3510.45,574.023 3374.28,454.237 3288.72,378.971C3277.99,369.531 3262.63,367.486 3249.8,373.789C3236.98,380.092 3229.21,393.501 3230.12,407.764C3236.18,491.075 3231.54,567.104 3196.2,630.33C3190.51,640.607 3190.3,653.04 3195.65,663.5C3200.99,673.961 3211.19,681.078 3222.85,682.489C3292.46,691.232 3358.28,742.07 3416.3,791.474C3418.86,793.642 3422.59,793.71 3425.22,791.637C3427.86,789.564 3428.67,785.922 3427.17,782.924C3416.65,761.934 3407.58,747.078 3412.27,727.286C3422.38,684.65 3428.87,635.388 3449.39,604.054C3454.99,595.503 3488.77,604.7 3499.43,599.155C3532.01,582.223 3474.65,577.593 3510.45,574.023Z" style="fill:rgb(246,216,184);"/>
                </g>
                <g transform="matrix(0.26854,0,0,0.619434,4950.04,-1330.65)">
                    <path d="M3518.95,570.523C3518.95,570.523 3398.1,494.792 3326.91,450.181C3315.51,443.041 3301.05,442.987 3289.61,450.043C3278.16,457.098 3271.71,470.04 3272.97,483.428C3283.38,587.779 3360.28,695.816 3420.67,768.021C3422.95,770.743 3426.9,771.345 3429.89,769.424C3432.88,767.504 3433.97,763.661 3432.45,760.453C3422.63,740.145 3416.08,722.274 3425.95,708.675C3455.16,668.405 3431.84,629.926 3460.06,612.054C3467.67,607.234 3494.04,601.34 3508.3,591.823C3538.83,571.436 3483.15,574.093 3518.95,570.523Z" style="fill:rgb(252,226,198);"/>
                </g>
                <g transform="matrix(0.187492,-0.00214592,0,0.485234,5319.23,-1258.38)">
                    <path d="M3092.76,22.864C3082.65,-11.448 3054.87,-39.514 3017.91,-52.737C2818.43,-124.578 2639.81,-122.235 2510.84,20.45C2502.55,29.588 2495.95,39.845 2491.27,50.841C2450.71,146.851 2462.64,241.019 2493.12,340.856C2510.12,398.079 2574.25,433.723 2639.21,422.063C2818.33,390.016 2976.45,315.433 3088.18,222.035C3098.85,213.121 3108.31,211.421 3119.52,209.532C3121.59,209.171 3123.39,208.052 3124.48,206.448C3125.57,204.843 3125.85,202.901 3125.25,201.094C3103.03,133.095 3109.01,78.597 3092.76,22.864Z" style="fill:rgb(255,233,209);"/>
                </g>
                <g transform="matrix(0.157322,-0.147445,0.0993049,0.56377,5245.04,-954.747)">
                    <path d="M3236.89,669.065C3237.55,668.126 3239.21,667.659 3240.73,667.982C3242.25,668.305 3243.16,669.313 3242.82,670.323C3199,808.021 3199.52,964.021 3278.85,1081.49C3280.2,1083.44 3279.4,1085.72 3276.89,1087.12C3274.38,1088.5 3270.74,1088.67 3267.96,1087.52C3194.62,1057.24 2959.51,960.159 2959.51,960.159C2900.06,840.095 3141.84,799.289 3236.89,669.065Z" style="fill:rgb(252,226,198);"/>
                </g>
                <g transform="matrix(0.283369,0,0,0.619434,4940.76,-1453.82)">
                    <path d="M3361.56,512.629C3361.56,512.629 3243.68,492.012 3163.63,478.009C3147.15,475.127 3130.39,481.135 3118.99,494.016C3107.59,506.898 3103.05,524.946 3106.89,542.099C3118.17,592.307 3130.52,643.92 3135.19,687.661C3136.9,705.716 3147.76,721.371 3163.55,728.544C3254.86,770.472 3279.24,768.995 3343.09,791.694C3351.25,794.553 3360.19,793.359 3367.42,788.445C3374.65,783.532 3379.38,775.428 3380.28,766.406C3380.98,759.706 3381.11,753.118 3379.01,746.531C3372.26,725.285 3378.91,686.047 3356.78,666.028C3330,641.818 3359.41,637.049 3373.59,614.368C3396.56,577.595 3343.26,553.991 3361.56,512.629Z" style="fill:rgb(255,233,209);"/>
                </g>
                <g transform="matrix(0.26854,0,0,0.619434,5046.67,-1352.54)">
                    <path d="M3185.42,342.454C3184.62,341.138 3183.66,339.93 3182.56,338.857C3171.53,328.223 3180.94,309.77 3193.17,304.984C3177.4,300.517 3108.02,318.328 3103.01,352.46C3098.21,385.079 3132.72,444.872 3137.9,475.831C3159.71,460.627 3185.32,444.13 3219.41,444.807C3219.41,444.807 3223.74,439.145 3227.67,434.012C3231.16,429.44 3231.15,423.09 3227.63,418.534C3215.22,402.647 3213.39,388.774 3185.42,342.454Z" style="fill:rgb(255,233,209);"/>
                </g>
                <g transform="matrix(0.26854,0,0,0.619434,5018.8,-1322.24)">
                    <path d="M3256.5,264.865C3233.18,266.528 3248.61,265.468 3222.78,272.071L3199.85,288.809C3227.43,307.485 3226.74,300.153 3260.81,297.818C3269.15,294.387 3270.06,278.229 3256.5,264.865Z" style="fill:white;"/>
                </g>
                <g transform="matrix(0.189038,0,0,0.438136,5307.48,-1303.7)">
                    <path d="M3138.1,284.883L3095.21,273.552C3056.87,276.685 3009.28,313.365 2973.74,333.02C3024.33,316.151 3090.84,293.227 3142.83,308.725C3144.79,309.352 3146.93,308.696 3148.19,307.083C3149.45,305.47 3149.57,303.243 3148.48,301.508C3143.59,293.623 3138.1,284.883 3138.1,284.883Z" style="fill:rgb(200,134,64);"/>
                </g>
                <g transform="matrix(0.26854,0,0,0.619434,4955.16,-1266.88)">
                    <path d="M3392.1,667.222C3390.37,665.131 3388.52,663.136 3386.57,661.248C3343.6,619.91 3293.55,619.72 3258.78,595.623C3169.33,533.639 3134.14,562.556 3144.72,664.564C3147.23,688.83 3137.57,712.768 3118.92,728.495C3041.85,793.226 3080.14,866.753 3145.86,985.49C3155.87,1003.75 3173.15,1016.91 3193.4,1021.73C3363.51,1062.23 3475.84,1187.75 3524.84,1093.55C3525.2,1092.86 3525.57,1092.17 3525.95,1091.49C3569.58,1013.25 3528.28,883.717 3464.43,772.795C3450.66,748.88 3434.9,722.04 3419.77,701.002C3415.19,694.63 3399.16,675.671 3392.1,667.222Z" style="fill:rgb(255,233,209);"/>
                </g>
                <g transform="matrix(-0.224851,0,0,0.515855,6423.02,-1296.13)">
                    <path d="M2623.7,806.128C2628.15,804.901 2632.79,804.531 2637.38,805.036C2685.95,810.356 2717.16,788.974 2727.03,796.514C2729.85,798.668 2731.98,801.047 2733.78,803.78C2741.49,815.458 2740.11,830.947 2730.46,841.061C2720.81,851.175 2705.47,853.207 2693.55,845.953C2683.37,839.813 2674.8,832.946 2668,824.729C2640.86,791.915 2577.67,834.656 2504.53,884.589C2483.09,899.227 2462.96,914.483 2439.94,928.634C2457.95,912.578 2465.17,892.355 2481.87,877.981C2520.54,844.708 2567.96,821.602 2623.7,806.128Z" style="fill:rgb(252,226,198);"/>
                </g>
                <g transform="matrix(0.385816,0,0,0.619434,4881.56,-1327.74)">
                    <path d="M2470.02,311.992C2470.12,309.978 2469.87,307.958 2469.28,306.124C2464.12,290.149 2452.39,279.714 2433.69,275.155C2431.22,274.553 2428.68,275.615 2426.82,278.036C2394.2,320.726 2421.48,391.63 2432.32,435.407C2433.12,439.102 2435.14,441.995 2437.71,443.148C2440.28,444.301 2443.08,443.566 2445.2,441.182C2450.87,434.848 2457.65,427.228 2461.41,423.01C2463.22,420.967 2464.36,417.919 2464.54,414.612C2465.58,395.118 2469.23,326.64 2470.02,311.992Z" style="fill:rgb(246,216,184);"/>
                </g>
                <g transform="matrix(-0.246436,0.246105,-0.106693,-0.568446,6492.07,-1686.77)">
                    <path d="M2349.28,232.653C2352.17,280.759 2399.69,326.075 2405.09,298.896C2447.76,84.064 3089.26,-108.296 3090.04,-107.526C2948.57,-58.518 2620.6,178.487 2474.77,354.554C2442,394.122 2399.92,388.807 2368.29,368.993C2325.75,342.341 2294.68,282.588 2293.17,235.962L2349.28,232.653Z" style="fill:rgb(200,134,64);"/>
                </g>
                <g transform="matrix(-0.246436,0.246105,-0.106693,-0.568446,6470.72,-1693.89)">
                    <path d="M2349.28,232.653C2352.17,280.759 2396.62,325.28 2405.09,298.896C2460.83,125.235 2838.98,-34.056 3054.63,-67.279C2907.3,-25.643 2648.69,221.549 2474.77,354.554C2387.61,421.205 2294.64,307.677 2293.17,235.962L2349.28,232.653Z" style="fill:rgb(200,134,64);"/>
                </g>
                <g transform="matrix(-0.246436,0.246105,-0.106693,-0.568446,6451.12,-1678.71)">
                    <path d="M2349.28,232.653C2352.17,280.759 2396.62,325.28 2405.09,298.896C2460.83,125.235 2917.44,-52.937 3078.96,65.3C2938.89,-9.244 2628.24,198.392 2474.77,354.554C2381.9,449.048 2291.06,325.137 2293.17,235.962L2349.28,232.653Z" style="fill:rgb(200,134,64);"/>
                </g>
                <g transform="matrix(-0.246436,0.246105,-0.106693,-0.568446,6434.6,-1658.58)">
                    <path d="M2349.28,232.653C2352.17,280.759 2396.62,325.28 2405.09,298.896C2460.83,125.235 2917.44,-52.937 3078.96,65.3C2938.89,-9.244 2628.24,198.392 2474.77,354.554C2381.9,449.048 2291.06,325.137 2293.17,235.962L2349.28,232.653Z" style="fill:rgb(200,134,64);"/>
                </g>
                <g transform="matrix(0.363992,0,0,0.619434,4934.96,-1322.76)">
                    <path d="M2466.15,314.587C2466.2,311.74 2465.49,308.964 2464.15,306.77C2452.31,287.365 2442.06,275.077 2427.66,275.284C2425.09,275.303 2422.66,276.856 2421.02,279.529C2394.75,322.713 2418.11,384.883 2418.41,424.255C2418.41,428.049 2419.76,431.611 2422.03,433.825C2424.3,436.039 2427.23,436.636 2429.88,435.429C2439.31,431.152 2451.43,425.64 2458.47,422.436C2461.95,420.855 2464.32,416.495 2464.41,411.528C2464.8,389.694 2465.85,331.071 2466.15,314.587Z" style="fill:rgb(255,233,209);"/>
                </g>
                <g transform="matrix(0.26854,0,0,0.619434,5130.45,-1359.66)">
                    <path d="M2862.85,464.2L2766.18,516.033L2866.18,523.367C2866.18,523.367 2871.18,516.141 2875.41,510.035C2877.58,506.894 2877,502.613 2874.06,500.171C2868.98,495.988 2864.8,484.593 2862.85,464.2Z" style="fill:rgb(255,233,209);"/>
                </g>
                <g transform="matrix(0.26854,0,0,-0.619434,5131.17,-717.889)">
                    <path d="M2869.29,497.989C2869.29,497.989 2826.85,481.144 2796.09,468.935C2793.03,467.72 2789.54,468.859 2787.79,471.645C2786.03,474.431 2786.51,478.072 2788.93,480.305C2810.32,500.245 2833.15,516.779 2861.45,520.424C2863.19,520.64 2864.95,520.177 2866.36,519.132C2870.21,516.209 2876.48,509.262 2869.29,497.989Z" style="fill:rgb(255,233,209);"/>
                </g>
                <g transform="matrix(0.26854,0,0,0.619434,5130.45,-1359.66)">
                    <path d="M2872.01,537.533C2872.01,537.533 2868.71,538.487 2865.53,539.407C2861.69,540.52 2857.66,540.814 2853.69,540.271C2848.4,539.547 2841.53,538.606 2841.53,538.606C2845.05,550.401 2843.27,545.966 2853.08,566.841C2858.21,548.78 2862.45,549.244 2872.01,537.533Z" style="fill:rgb(246,216,184);"/>
                </g>
                <g transform="matrix(0.26854,0,0,0.619434,5129.82,-1381.14)">
                    <path d="M2874.56,549.538C2874.88,549.209 2875.02,548.748 2874.93,548.301C2874.85,547.853 2874.55,547.474 2874.14,547.283C2872.77,546.563 2870.82,543.907 2864.99,544.548C2855.08,545.638 2807.98,556.963 2794.51,549.519C2815.91,561.347 2843.77,556.744 2869.34,554.409C2870.48,554.307 2871.5,553.668 2872.09,552.689C2872.9,551.274 2873.79,550.543 2874.56,549.538Z" style="fill:rgb(246,216,184);"/>
                </g>
                <g transform="matrix(0.396752,0,0,0.619434,4790.68,-1359.66)">
                    <path d="M2590.18,345.9C2578.56,353.455 2577.19,371.097 2576.51,379.233C2578.11,373.556 2582.26,359.391 2588.18,357.9C2614.35,339.103 2624.13,428.07 2620.89,445.233C2629.05,427.904 2620.79,342.545 2590.18,345.9Z" style="fill:rgb(246,216,184);"/>
                </g>
                <g transform="matrix(0.396752,0,0,0.619434,4799.72,-1316.3)">
                    <path d="M2596.05,328.9C2593.53,335.291 2567.39,348.683 2571.32,368.9C2573.89,358.435 2605.8,321.641 2599.68,355.233C2599.26,357.585 2597.32,343.545 2596.05,328.9Z" style="fill:rgb(246,216,184);"/>
                </g>
                <g transform="matrix(-0.246436,0.246105,-0.106693,-0.568446,6506.3,-1655.17)">
                    <path d="M2373.62,244.338C2373.65,244.273 2373.72,244.237 2373.79,244.25C2373.86,244.263 2373.91,244.321 2373.91,244.392C2376.79,292.029 2379.03,307.986 2405.09,298.896C2468.22,276.868 2576.53,151.601 2696.2,59.862C2841.48,-51.515 3053.28,-91.732 3110.19,-71.014C3037.16,-88.638 2841.81,30.824 2691.93,136.426C2661.39,157.944 2651.1,205.744 2625.42,231.757C2566.03,291.939 2509.82,348.197 2456.39,371.84C2314.84,434.481 2265.63,322.305 2336.36,278.694C2348.11,266.695 2368.7,254.249 2373.62,244.338Z" style="fill:rgb(200,134,64);"/>
                </g>
                <g transform="matrix(0.26854,0,0,0.619434,5107.22,-1228.65)">
                    <path d="M2982.93,237.089C2953.14,235.189 2943.96,251.724 2938.32,235.199C2940.58,240.066 2943.01,256.88 2941.51,261.838C2941.06,263.299 2942.7,263.584 2944.72,263.304C2946.93,262.999 2949.59,262.025 2950.5,261.174C2965.13,251.486 2979.68,244.871 2994.47,244.357C2989.53,243.433 2984.39,240.416 2982.93,237.089Z" style="fill:rgb(246,216,184);"/>
                </g>
                <g transform="matrix(0.26854,0,0,0.428224,5121.32,-1315.41)">
                    <path d="M2862.39,423.263L2850.65,424.231L2865.14,428.502C2872.46,427.374 2877.45,424.118 2883.84,420.944C2877.53,421.827 2870.67,424.447 2862.39,423.263Z" style="fill:rgb(246,216,184);"/>
                </g>
                <g transform="matrix(0.26854,0,0,0.619434,5116.8,-1371.85)">
                    <path d="M2886.93,332.241C2873.64,331.403 2865.01,339.354 2850.43,343.075C2867.92,336.704 2886.44,335.079 2890.99,339.275L2902.09,344.575C2899.93,338.431 2896.28,333.329 2886.93,332.241Z" style="fill:rgb(246,216,184);"/>
                </g>
                <g transform="matrix(-5.66972e-05,0.0735866,-0.164477,-0.00067428,6000.23,-1280.42)">
                    <path d="M2840.97,611.863C2794.34,601.905 2782.3,589.035 2792.51,577.966C2796.72,573.421 2788.26,568.782 2770.24,565.761C2770.51,565.7 2770.5,565.699 2770.5,565.699C2764.49,564.69 2756,564.456 2748.78,565.101C2741.56,565.745 2736.95,567.148 2736.99,568.689C2738.41,585.136 2766.92,607.613 2840.97,611.863Z" style="fill:rgb(95,60,21);"/>
                </g>
                <g transform="matrix(0.26854,0,0,0.619434,5130.45,-1359.66)">
                    <path d="M2872.57,352.804C2872.57,352.799 2872.57,352.793 2872.56,352.788C2871.38,350.847 2870.02,350.745 2868.8,350.144C2868.09,349.787 2867.25,349.759 2866.51,350.066C2865.77,350.373 2865.2,350.986 2864.95,351.746C2864.34,353.691 2864.7,355.924 2866.38,358.55C2879.63,380.758 2886.43,404.995 2894.95,429.85C2895.23,430.654 2895.84,431.303 2896.62,431.635C2897.41,431.966 2898.29,431.949 2899.06,431.588C2904.22,429.246 2912.25,429.978 2917.02,432.793C2915.39,429.005 2912.2,426.239 2910.31,422.841C2897.02,398.924 2886.47,372.942 2872.57,352.804Z" style="fill:white;fill-opacity:0.631373;"/>
                </g>
                <g transform="matrix(-0.19466,-0.426712,0.18499,-0.449016,6360.05,531.309)">
                    <path d="M2942.21,496.945C2939.26,503.153 2938.6,509.867 2936.57,515.587C2934.62,521.067 2931.26,525.572 2930.12,530.615C2919.14,578.909 2944.01,607.528 2988.51,621.928C2988.51,621.928 2939.37,610.176 2933.73,608.826C2933.37,608.741 2933.03,608.608 2932.71,608.431C2901.07,591.014 2901.92,569.066 2920.55,532.133C2923.38,526.532 2927.92,521.437 2932.02,515.214C2935.64,509.723 2938.75,503.192 2942.21,496.945Z" style="fill:rgb(172,114,52);"/>
                </g>
                <g transform="matrix(-0.19466,-0.426712,0.18499,-0.449016,6357.9,525.115)">
                    <path d="M2939.7,493.816C2913.27,562.839 2932.55,597.755 2986.56,615.229C2985.23,617.399 2982.26,622.549 2977.54,622.995C2968.36,623.86 2951.13,616.023 2931.93,606.824C2931.87,606.794 2931.81,606.762 2931.74,606.728C2890.58,584.312 2902.68,551.11 2939.7,493.816Z" style="fill:rgb(172,114,52);"/>
                </g>
                <g transform="matrix(-0.19466,-0.426712,0.18499,-0.449016,6354.86,518.094)">
                    <path d="M2945.35,484.764C2941.71,490.447 2936.78,495.977 2933.97,501.428C2930.68,507.802 2929.65,514.051 2927.49,520.07C2911.47,564.743 2926.62,599.064 2972.66,614.64C2967.69,614.278 2962.78,614.971 2956.34,613.166C2949.39,611.217 2940.76,605.398 2933.24,606.49C2932.3,606.647 2931.33,606.468 2930.51,605.984C2900.77,588.464 2903.41,560.453 2914.24,523.579C2918.4,509.403 2931.84,498.012 2945.35,484.764Z" style="fill:rgb(172,114,52);"/>
                </g>
                <g transform="matrix(0.203719,0,0,0.619434,5315.29,-1359.66)">
                    <path d="M2845.36,327.896C2844.66,326.561 2843.1,325.594 2841.23,325.34C2838.94,325.076 2836.66,325.001 2834.38,325.127C2832.2,325.26 2830.34,326.364 2829.65,327.933C2823.2,342.446 2826.15,350.98 2834.97,357.608C2836.13,358.481 2837.76,358.909 2839.39,358.774C2841.68,358.57 2843.98,358.185 2846.26,357.617C2847.61,357.276 2848.73,356.549 2849.38,355.592C2853.37,349.341 2851.53,339.699 2845.36,327.896Z" style="fill:rgb(9,91,164);"/>
                </g>
                <g transform="matrix(0.206098,0,0,0.628232,5291.36,-1376.44)">
                    <path d="M2928.51,349.504C2927.91,348.353 2926.8,347.553 2925.51,347.342C2922.49,346.878 2919.46,346.793 2916.43,347.053C2914.94,347.192 2913.64,348.125 2913.03,349.494C2906.29,364.535 2909.52,373.19 2918.9,379.928C2919.67,380.481 2920.61,380.753 2921.56,380.696C2924.45,380.514 2927.33,380.047 2930.2,379.289C2931.14,379.036 2931.96,378.461 2932.52,377.665C2936.72,371.369 2934.86,361.553 2928.51,349.504ZM2928.01,351.801C2927.64,351.109 2927.08,350.537 2926.4,350.15C2923.25,348.379 2920.42,348.369 2917.81,349.695C2916.97,350.113 2916.31,350.8 2915.92,351.644C2909.89,364.553 2912.63,371.834 2920.7,377.491C2921.17,377.82 2921.7,378.048 2922.27,378.161C2925.17,378.738 2927.97,378.643 2930.37,376.751C2930.59,376.574 2930.8,376.373 2930.98,376.153C2935.23,370.975 2933.7,362.421 2928.01,351.801Z" style="fill:rgb(13,34,53);"/>
                </g>
                <g transform="matrix(0.115012,0,0,0.37415,5559.6,-1287.76)">
                    <path d="M2918.82,364.817C2917.93,363.004 2915.85,361.612 2913.24,361.084C2911.72,360.76 2910.19,360.78 2908.66,361.11C2906.09,361.665 2903.93,362.907 2902.63,364.573C2898.57,369.887 2899.53,375.376 2904.08,381.007C2904.22,381.18 2904.37,381.349 2904.53,381.512C2908.36,385.334 2912,385.544 2915.52,383.048C2916.58,382.389 2917.43,381.585 2918.03,380.686C2921.28,375.826 2921.62,370.546 2918.82,364.817Z" style="fill:rgb(0,17,32);"/>
                </g>
                <g transform="matrix(0.0436349,0,0,0.199575,5765.72,-1225.67)">
                    <path d="M2918.01,363.305C2917.82,362.966 2917.47,362.655 2916.98,362.401C2912.81,360.183 2908.73,360.387 2904.65,362.676C2904.37,362.831 2904.13,363.006 2903.95,363.197C2898.43,368.91 2899.13,374.877 2904.08,381.01C2904.09,381.021 2904.1,381.031 2904.11,381.041C2908.68,385.972 2913.03,385.648 2917.21,381.645C2917.53,381.33 2917.81,381.003 2918.04,380.667C2921.57,375.385 2921.66,369.611 2918.01,363.305Z" style="fill:rgb(152,166,178);"/>
                </g>
                <g transform="matrix(0.0557642,0,0,0.139721,5730.93,-1200.9)">
                    <path d="M2918.72,364.628C2917.9,362.975 2916.38,361.704 2914.51,361.109C2911.21,360.367 2908.01,360.836 2904.8,362.591C2904.26,362.886 2903.77,363.269 2903.37,363.722C2898.47,369.294 2899.29,375.074 2904.08,381.01C2904.11,381.045 2904.14,381.08 2904.17,381.113C2908.75,385.996 2913.1,385.625 2917.28,381.577C2917.87,381.015 2918.37,380.381 2918.78,379.693C2921.35,375.022 2921.43,370.024 2918.72,364.628Z" style="fill:rgb(196,206,214);"/>
                </g>
                <g transform="matrix(-0.26854,0,0,0.619434,6550.47,-1375.98)">
                    <path d="M2699.76,1245.05C2635.39,1323.35 2800.56,1532.07 2746.11,1603.57C2661.58,1714.56 2664.73,1697.57 2655.76,1750.89C2652.75,1767.64 2656.6,1784.89 2666.44,1798.78C2678.45,1815.73 2688.65,1849.56 2697.56,1891.84C2701.26,1896.23 2707.46,1897.54 2712.62,1895.03C2717.78,1892.51 2720.57,1886.81 2719.38,1881.2C2719.32,1881.16 2719.28,1881.11 2719.23,1881.06C2681.67,1839.52 2916.38,1626.75 2900.43,1194.67C2897.41,1112.99 2762.38,1168.9 2699.76,1245.05Z" style="fill:rgb(223,195,163);"/>
                </g>
                <g transform="matrix(0.26854,0,0,0.619434,2415.91,-1849.37)">
                    <path d="M12764.2,2542.56C12756.8,2532.84 12751.9,2521.5 12749.8,2509.48C12742.3,2463.45 12724.5,2480.67 12710.2,2480.27C12696.2,2479.83 12683.5,2488.1 12678.2,2501.02C12656.9,2553.57 12644.6,2617.52 12633.3,2683.14C12629.7,2703.87 12634.8,2725.17 12647.4,2742.03C12660,2758.88 12679,2769.8 12699.9,2772.21C12759.7,2779.05 12799.8,2809.71 12837.9,2851.36C12848.4,2862.83 12865.4,2865.41 12878.8,2857.56C12892.3,2849.7 12898.3,2833.54 12893.5,2818.79C12862,2724.8 12815.6,2611.15 12764.2,2542.56Z" style="fill:rgb(244,219,191);"/>
                </g>
                <g transform="matrix(0.26854,0,0,0.619434,4978.95,-1141.84)">
                    <path d="M3167.68,739.967C3165.92,714.43 3145.43,694.193 3119.88,692.741C3105.58,691.915 3090.28,691.047 3077.07,690.295C3055.91,689.093 3036.23,701.142 3027.68,720.53C3025.96,724.431 3024.14,728.557 3022.25,732.831C3015.29,748.629 3016.82,766.882 3026.31,781.3C3035.81,795.719 3051.98,804.329 3069.24,804.164C3078.93,804.032 3087.26,807.105 3093.27,815.654C3137.75,878.854 3274.69,937.476 3376.07,928.98C3429.03,924.542 3461.14,879.346 3454.26,859.11C3433.61,876.32 3398.29,913.586 3358.23,912.83C3316.98,912.051 3278.73,893.545 3251.55,877.576C3199.22,846.829 3171.39,795.863 3167.68,739.967Z" style="fill:rgb(252,226,198);"/>
                </g>
                <g transform="matrix(0.308283,0,0,0.619434,3970.56,-1855.43)">
                    <path d="M6086.35,2649.22C6080.87,2613.67 6059.33,2584.15 6029.8,2571.73C6000.28,2559.32 5967.22,2565.88 5943.04,2588.96C5927.85,2603.44 5915.53,2615.19 5909.74,2620.72C5906.91,2623.42 5904.23,2626.33 5901.71,2629.41C5716.4,2858.73 5749.27,3641.46 5869.63,3835.47C5935.76,4603.61 6097.25,4177.4 6244.2,3355.16C6244.43,3353.85 6244.69,3352.55 6244.97,3351.25C6277.91,3197.99 6315.73,3045.92 6236,2916.43C6194.75,2849.45 6126.28,2772.03 6101.76,2709.64C6094.08,2690.09 6089.47,2669.76 6086.35,2649.22Z" style="fill:rgb(58,103,154);"/>
                </g>
                <g transform="matrix(0.125319,0,0,0.590204,4685.79,-1340.34)">
                    <path d="M9615.96,2768.58C9616.14,2737.22 9569.85,2710.42 9506.67,2705.3C9443.49,2700.19 9382.07,2718.28 9361.65,2748.01C9294.49,2846.84 9191.45,2942 9001.4,3028.3C8621.06,3201.26 8490.79,3469.38 8671.27,3707.72C8690.5,3733.53 8712.3,3759.45 8736.44,3785.51C9271.74,4363.26 9418.15,4874.69 9457.42,5137.29C9458.42,5144.25 9470.12,5149.68 9484.36,5149.79C9498.6,5149.9 9510.66,5144.67 9512.13,5137.73C9664.13,4370.87 9622.19,3557.85 9615.96,2768.58Z" style="fill:rgb(58,103,154);"/>
                </g>
                <g transform="matrix(0.0802197,0,0,0.590204,5124.65,-1220.12)">
                    <path d="M9548.75,2963.65C9541.79,2945.12 9503.68,2929.18 9448.89,2921.89C9394.11,2914.6 9331.06,2917.08 9283.72,2928.39C9283.93,2928.47 9283.93,2928.47 9283.93,2928.47C8796.83,3044.84 8575.39,3240.53 8719.65,3427.12C8804.43,3541.4 8889.39,3652.11 8941.07,3744.76C9023.16,3891.9 9312.18,4072.25 9407.76,4193.59C9721.64,4592.08 9697.21,4862.51 9649.14,4995.1C9647.34,4997.87 9639.02,4999.73 9630.09,4999.36C9621.15,4999 9614.63,4996.53 9615.15,4993.71C9765.98,4135.09 9876.93,3830 9548.75,2963.65Z" style="fill:rgb(206,204,201);"/>
                </g>
                <g transform="matrix(0.26854,0,0,0.666931,4205.7,-1716.92)">
                    <path d="M5985.72,2352.76C5979.19,2333.44 5978.09,2312.88 5982.52,2293.05C5982.51,2293.05 5982.51,2293.05 5982.51,2293.04C5988.39,2266.7 5973.07,2240.24 5946.16,2230.27C5919.26,2220.3 5888.53,2229.7 5873.27,2252.56C5866.19,2263.19 5859.47,2273.96 5853.34,2284.95C5803.84,2373.74 5734.94,2451.42 5728.88,2538.6C5725.68,2584.6 5730.56,2645.78 5757.6,2697.25C5759.05,2700 5760.12,2702.91 5760.78,2705.91C5760.86,2706.49 5761,2707.05 5761.13,2707.62C5771.11,2748.17 5808.85,2777.65 5853.58,2779.82C5898.31,2782 5939.16,2756.34 5953.64,2716.97C5992.89,2612.97 6034.06,2496.25 5985.72,2352.76Z" style="fill:rgb(58,103,154);"/>
                </g>
                <g transform="matrix(0.26854,0,0,0.619434,2129.28,-2507.58)">
                    <path d="M13630.4,3766.89C13458.5,3970.82 13590,3974.85 13582.9,4199.17C13562.7,4840.8 13625.6,4771.41 13674.4,4903.08C13687.5,4938.58 13508.4,4818.43 13526.7,4193.11C13530.2,4073.66 13410.4,3969.5 13630.4,3766.89Z" style="fill:rgb(93,127,166);"/>
                </g>
                <g transform="matrix(0.308283,0,0,0.590791,3982.83,-1753.01)">
                    <path d="M6046.76,2571.65C6037.61,2546.07 6014.52,2532.09 5992,2538.49C5969.48,2544.89 5954.03,2569.83 5955.36,2597.64C5955.35,2597.64 5955.35,2597.64 5955.35,2597.64C5955.44,2599.41 5955.39,2601.18 5955.2,2602.94C5930.4,2836.26 5934.72,3328.58 5984.03,3542.92C6150.07,4264.52 6196.51,4336.9 6244.03,3461.91C6244.37,3455.61 6245.18,3449.37 6246.44,3443.25C6278.13,3288.17 6291.23,3030.66 6238.03,2890.68C6211.81,2821.67 6160.84,2803.47 6119.06,2743.41C6100.83,2717.2 6074.24,2649.04 6046.76,2571.65Z" style="fill:rgb(206,204,201);"/>
                </g>
                <g transform="matrix(0.259991,-0.155053,0.0672193,0.599714,4063.57,-853.825)">
                    <path d="M6083,2391.99C6080.19,2365.34 6067.63,2340.66 6047.73,2322.7C6016.71,2294.77 5987.29,2283.06 5963.86,2254.27C5958.39,2247.6 5950.01,2244.03 5941.42,2244.69C5932.82,2245.35 5925.09,2250.17 5920.71,2257.59C5819.52,2428.23 5813.41,2600.01 5863.45,2799.45C5865.17,2806.28 5866.22,2813.26 5866.6,2820.3C5872.72,2929.85 5925.03,3058.4 6006.29,3035.64C6044.3,3024.88 6067.17,2986.17 6058.25,2947.68C6019.33,2780.51 6095.77,2516.03 6083,2391.99Z" style="fill:rgb(255,233,209);"/>
                </g>
                <g transform="matrix(0.26854,0,0,0.619434,2433.97,-2036.24)">
                    <path d="M12646.2,3192.34C12637.2,3172.08 12620.5,3156.29 12599.7,3148.55C12578.9,3140.81 12555.9,3141.78 12535.9,3151.24C12528.6,3154.66 12523.9,3156.89 12523.9,3156.89L12523.9,3342.21L12711.2,3339.24C12711.2,3339.24 12674.9,3257.13 12646.2,3192.34Z" style="fill:rgb(244,219,191);"/>
                </g>
                <g transform="matrix(0.26854,0,0,0.619434,3925.63,-1892.35)">
                    <path d="M6929.52,2383.34C6934.41,2372.78 6934.51,2360.62 6929.77,2349.98C6925.03,2339.35 6915.93,2331.28 6904.8,2327.86C6904.81,2327.84 6904.81,2327.83 6904.81,2327.83C6893.02,2324.21 6880.22,2326.11 6869.98,2333C6859.75,2339.89 6853.19,2351.04 6852.12,2363.34C6848.66,2402.79 6817.88,2434.3 6789.63,2473.63C6781.66,2484.7 6779.54,2498.93 6783.93,2511.84C6788.32,2524.75 6798.68,2534.74 6811.74,2538.66C6811.76,2538.64 6811.77,2538.64 6811.78,2538.64C6822.79,2541.95 6834.68,2540.57 6844.64,2534.83C6854.61,2529.1 6861.77,2519.51 6864.44,2508.33C6874.57,2466.06 6909.52,2426.64 6929.52,2383.34Z" style="fill:rgb(252,226,198);"/>
                </g>
                <g transform="matrix(0.0134902,-0.618652,0.268201,0.0311176,5554.65,1281.31)">
                    <path d="M3158.44,723.221C3158.43,709.299 3152.7,695.994 3142.59,686.416C3129.95,674.404 3112.9,658.233 3100.05,646.048C3088.47,635.07 3072.4,630.166 3056.67,632.806C2986,644.659 2786.04,678.2 2726.98,688.108C2721.45,689.035 2716.87,692.932 2715.08,698.247C2713.28,703.562 2714.56,709.433 2718.4,713.523C2772.17,768.022 3049.2,832.137 3124.96,803.058C3202.71,773.218 3218.12,927.436 3336.44,912.077C3363.37,908.581 3481.23,838.832 3493.75,818.081C3435.3,848.754 3305.67,864.868 3260.52,838.338C3201.11,803.436 3158.25,780.341 3158.44,723.221Z" style="fill:rgb(252,226,198);"/>
                </g>
                <g transform="matrix(0.26854,0,0,0.619434,4161.95,-2129.23)">
                    <path d="M6083.18,2349.5C6080.9,2347.19 6078.77,2344.75 6076.79,2342.18C6039.86,2293.52 6014.29,2197.05 5990.8,2126.78C5987.46,2117.08 5978.8,2110.2 5968.6,2109.12C5958.4,2108.05 5948.5,2112.97 5943.22,2121.76C5829.07,2310.84 5795.03,2589.3 5885.18,2791.34C5891.53,2805.61 5894.74,2821.08 5894.57,2836.7C5892.98,2926.09 5946.45,2932.09 5992.21,2840.7C5993.2,2838.72 5994.41,2837.57 5995.82,2837.1C6032.74,2824.57 6060.03,2793.1 6067.21,2754.78C6096.38,2604.39 6160.01,2428.17 6083.18,2349.5Z" style="fill:rgb(255,238,219);"/>
                </g>
                <g transform="matrix(0.221303,0.100503,-0.0562693,0.65925,5316.82,-1641.19)">
                    <path d="M2502.4,799.945C2495.94,794.035 2490.24,787.649 2485.38,780.879C2432.36,706.848 2382.6,660.135 2251.76,759.375C2236.34,770.994 2224.25,784.999 2216.28,800.478C2167.39,894.852 2159.79,956.389 2202.76,1055.74C2203.57,1057.6 2204.43,1059.43 2205.35,1061.25C2238.95,1127.85 2258.83,1194.65 2304.43,1179.03C2343.38,1165.69 2437.45,1094.25 2513.93,1063.88C2575.81,1039.26 2608.53,985.457 2593.59,932.839C2580.86,887.547 2554.26,847.39 2502.4,799.945Z" style="fill:rgb(255,233,209);"/>
                </g>
                <g transform="matrix(-0.165096,-0.488542,0.211795,-0.380822,6456.42,3618.87)">
                    <path d="M6995.51,2200.15C7012.74,2297.92 7021.63,2310.2 6941.71,2437.08C6958.59,2399.16 6942.97,2352.42 6885.97,2294.44C6921.25,2305.87 6949,2290.34 6995.51,2200.15Z" style="fill:rgb(252,226,198);"/>
                </g>
                <g transform="matrix(0.245666,0.250167,-0.108454,0.56667,4526.21,-3547.49)">
                    <ellipse cx="6448.76" cy="2318.21" rx="42.214" ry="24.335" style="fill:rgb(216,184,150);"/>
                </g>
                <g transform="matrix(0.152288,0.155078,-0.0672304,0.351278,5034.15,-2434.93)">
                    <ellipse cx="6448.76" cy="2318.21" rx="42.214" ry="24.335" style="fill:rgb(203,159,113);"/>
                </g>
                <g transform="matrix(-0.241003,0.273234,-0.118454,-0.555915,7861.32,-182.137)">
                    <path d="M6941.4,2908.63C6944.99,2887.45 6962.31,2871.3 6983.68,2869.19C7040.73,2863.44 7088.42,2887.66 7114.24,2959.06C7116.58,2965.52 7117.48,2972.41 7116.9,2979.25C7112.58,3030.78 7086.92,3073.99 7043.32,3110.2C7034.24,3117.78 7022.66,3121.7 7010.84,3121.22C6964.72,3119.83 6908.57,3123.95 6877.52,3099C6870.54,3093.36 6865.29,3085.87 6862.39,3077.38C6860.16,3070.94 6856.83,3061.21 6853.27,3050.81C6844.83,3026.17 6857.74,2999.32 6882.25,2990.52C6916.82,2978.05 6933.61,2954.29 6941.4,2908.63Z" style="fill:rgb(255,233,209);"/>
                </g>
                <g transform="matrix(-0.0865724,0.0444617,0.046571,0.438021,6503.61,-499.45)">
                    <path d="M8962.34,3304.6C8957.94,3298.83 8945.69,3295 8932.34,3295.23C8919,3295.47 8907.8,3299.69 8904.93,3305.59C8879.21,3358.44 8837.93,3443.29 8813.93,3492.63C8802.28,3516.56 8781.59,3539.31 8752.77,3559.88C8157.25,3984.35 8648.14,4985.7 8975.79,5657.8C8979.02,5664.44 8992.37,5669.13 9007.26,5668.85C9022.16,5668.57 9034.15,5663.41 9035.53,5656.69C9118.44,5217.48 8943.13,4744.39 9291.94,4475.82C9331.27,4445.53 9364.41,4415.62 9409.96,4389.44C9471.5,4354.15 9509.41,4311.46 9519.32,4266.31C9596.92,3915.33 9265.41,3700 8962.34,3304.6Z" style="fill:rgb(75,115,161);"/>
                </g>
                <g transform="matrix(0.259991,-0.155053,0.0672193,0.599714,4061,-880.072)">
                    <path d="M6098.67,2476.75C6098.34,2472.74 6096.06,2469.15 6092.56,2467.15C6089.07,2465.15 6084.82,2464.99 6081.19,2466.74C6033.72,2489.52 5914.37,2509.34 5865.73,2475.64C5861.69,2472.8 5856.49,2472.2 5851.91,2474.06C5847.34,2475.92 5844.03,2479.97 5843.12,2484.83C5814.77,2634.6 5824.91,2641.66 5854.14,2822.2C5854.94,2827.18 5855.4,2832.22 5855.51,2837.27C5856.35,2894.01 5851.65,3014.05 5895.94,3004.75C5950.52,2993.28 6012.35,2960.63 6047.22,2967.89C6051.35,2968.81 6055.68,2967.58 6058.71,2964.62C6061.74,2961.67 6063.09,2957.38 6062.27,2953.22C6030.02,2787.72 6106.56,2584.32 6098.67,2476.75Z" style="fill:rgb(37,48,80);"/>
                </g>
                <g transform="matrix(0.214782,0,0,0.403267,3003.38,-1383.52)">
                    <path d="M13227.6,3720.95C13230.4,3663.32 13210.4,3607.57 13173.9,3571.24C13137.3,3534.9 13088.8,3522.45 13043.5,3537.79C13043.5,3537.77 13043.5,3537.77 13043.5,3537.77C13025.3,3543.93 13010.8,3560.86 13005,3582.88C12968.6,3717.8 12994.1,3819.47 13040.4,3980.93C13045.7,3999.54 13058.1,4013.8 13073.5,4019.14C13073.5,4019.14 13073.5,4019.14 13073.5,4019.14C13114.9,4033.43 13159.5,4020.87 13191.6,3985.8C13223.8,3950.72 13239.3,3897.95 13232.7,3845.7C13227.4,3804.31 13225.6,3762.27 13227.6,3720.95Z" style="fill:rgb(255,233,209);"/>
                </g>
                <g transform="matrix(-0.0885295,0,0,0.403267,7028.57,-1435.84)">
                    <path d="M13474.6,3610.74C13485.1,3597.49 13482.4,3582.5 13467.3,3570.42C13452.3,3558.35 13426.7,3550.66 13398.6,3549.75C13398.6,3549.75 13398.6,3549.75 13398.6,3549.75C13331.2,3547.57 13270.2,3569.95 13253.3,3603.09C13200.5,3709.34 13136.4,3729.89 13181.9,3892.79C13182.8,3896.18 13184.4,3899.52 13186.5,3902.77C13186.5,3902.77 13186.5,3902.77 13186.5,3902.77C13194.8,3915.39 13219.2,3923.48 13245.3,3922.3C13271.5,3921.13 13292.7,3911 13296.5,3897.83C13325.9,3799.84 13401.1,3702.35 13474.6,3610.74Z" style="fill:rgb(255,233,209);"/>
                </g>
                <g transform="matrix(0.000175635,-0.619434,0.26854,0.000405133,5087.51,7424.33)">
                    <path d="M12403.5,2837.95C12387.6,2752.58 12531.3,2863.01 12616.3,2947.46C12626.9,2958.02 12629.4,2974.3 12622.4,2987.52C12615.3,3000.75 12600.5,3007.8 12585.8,3004.88C12547.7,2997.32 12511.8,2990.41 12510.8,2990.34C12509.5,2990.26 12499.4,2990.97 12494,2990.97C12666.3,2991.89 12503.2,2838.04 12403.5,2837.95Z" style="fill:rgb(244,219,191);"/>
                </g>
                <g transform="matrix(0.26854,0,0,0.619434,2728.04,-2156.56)">
                    <path d="M11444.6,3433.24C11429.5,3438.51 11412.9,3430.7 11407.4,3415.68C11393.7,3377.72 11382.4,3338.36 11361.6,3303.23C11324.9,3240.96 11300.3,3175.3 11284.4,3106.03C11283.9,3104.22 11282.2,3103.07 11280.3,3103.43C11278.5,3103.79 11277.3,3105.54 11277.6,3107.37C11289.3,3178.62 11311,3237.85 11353,3316.62C11353,3316.62 11383,3408.15 11398.7,3455.91C11400.7,3462.07 11405.7,3466.82 11412,3468.55C11418.2,3470.28 11424.9,3468.77 11429.8,3464.53C11449.6,3447.74 11472.7,3430.86 11500.2,3413.82C11500.2,3413.82 11468.6,3424.85 11444.6,3433.24Z" style="fill:rgb(69,73,83);"/>
                </g>
                <g transform="matrix(0.121713,-0.103467,0.0928612,0.58122,4037.89,-782.537)">
                    <path d="M11859.7,3178.08C11860.3,3175.71 11864.1,3173.84 11869,3173.5C11873.8,3173.16 11878.6,3174.44 11880.5,3176.62C11902.6,3201.23 11940.6,3243.7 11949.4,3253.49C11950.5,3254.8 11950.6,3256.29 11949.4,3257.61C11940.8,3267.55 11903.4,3311.01 11881.6,3336.27C11879.7,3338.48 11875,3339.79 11870.1,3339.47C11865.2,3339.15 11861.3,3337.27 11860.7,3334.89C11853.7,3307.77 11841.8,3261.64 11840.3,3255.65C11840.1,3255.22 11840.1,3254.79 11840.3,3254.36C11841.8,3248.49 11853,3204.26 11859.7,3178.08Z" style="fill:rgb(69,73,83);"/>
                </g>
                <g transform="matrix(0.0994217,-0.0845175,0.0928612,0.58122,4298.37,-1002)">
                    <path d="M11896.5,3177.48C11898.2,3175.14 11903.6,3173.51 11909.7,3173.45C11915.9,3173.4 11921.4,3174.93 11923.4,3177.23C11944,3201.3 11980.3,3243.58 11988.1,3252.72C11989.1,3253.87 11989.1,3255.11 11988.1,3256.26C11980.3,3265.47 11944,3308.33 11923.4,3332.66C11921.4,3334.97 11915.9,3336.51 11909.7,3336.45C11903.5,3336.4 11898.1,3334.77 11896.4,3332.43C11878.6,3307.97 11847.5,3265.16 11841.2,3256.54C11840.5,3255.54 11840.5,3254.47 11841.2,3253.47C11847.5,3244.84 11878.7,3201.93 11896.5,3177.48Z" style="fill:rgb(49,113,139);"/>
                </g>
                <g transform="matrix(0.26854,0,0,0.619434,2625.84,-2134.32)">
                    <path d="M11737.4,3188.97C11737.3,3188.24 11737.7,3187.52 11738.4,3187.23C11739,3186.93 11739.8,3187.13 11740.3,3187.71C11750.5,3200.56 11778.4,3235.54 11785,3243.84C11785.3,3244.25 11785.4,3244.8 11785.3,3245.3C11785.2,3245.81 11784.8,3246.22 11784.3,3246.39C11776.2,3249.3 11748,3259.41 11748,3259.41C11748,3259.41 11740.1,3207.02 11737.4,3188.97Z" style="fill:rgb(33,186,248);"/>
                </g>
                <g transform="matrix(0.26854,0,0,0.619434,2618.99,-2129.15)">
                    <path d="M11760.3,3187.51C11760.3,3187.39 11760.4,3187.28 11760.5,3187.27C11760.6,3187.26 11760.7,3187.34 11760.7,3187.45C11763.1,3201.34 11769.8,3240.45 11771.4,3250.12C11771.5,3250.64 11771.4,3251.16 11771,3251.53C11770.6,3251.91 11770.1,3252.09 11769.6,3252.02C11768.7,3251.89 11767.6,3251.76 11766.8,3251.65C11766.1,3251.55 11765.5,3250.93 11765.4,3250.16C11764.8,3242.35 11761.5,3201.78 11760.3,3187.51Z" style="fill:rgb(33,186,248);"/>
                </g>
                <g transform="matrix(-0.26854,0,0,-0.619434,8941.23,1900.04)">
                    <path d="M11736.1,3189.21C11736,3189.11 11736,3188.98 11736.1,3188.91C11736.2,3188.85 11736.4,3188.88 11736.4,3188.98C11745.8,3202.61 11768.2,3235.35 11774.6,3244.74C11775,3245.24 11775,3245.89 11774.7,3246.42C11774.5,3246.96 11773.9,3247.3 11773.3,3247.3C11772.8,3247.3 11772.3,3247.3 11771.9,3247.3C11771.3,3247.3 11770.8,3246.99 11770.5,3246.5C11767,3240.66 11745,3204.08 11736.1,3189.21Z" style="fill:rgb(33,186,248);"/>
                </g>
                <g transform="matrix(-0.26854,0,0,-0.619434,8946.17,1896.93)">
                    <path d="M11744.8,3179.15C11744.8,3178.4 11745.2,3177.72 11746,3177.5C11746.7,3177.28 11747.5,3177.58 11747.8,3178.22C11756.9,3193.47 11781.3,3234.47 11786.6,3243.45C11786.9,3243.88 11786.9,3244.4 11786.8,3244.86C11786.6,3245.33 11786.2,3245.68 11785.7,3245.84C11779.2,3247.97 11757.9,3254.91 11751.3,3257.09C11750.8,3257.24 11750.2,3257.17 11749.8,3256.88C11749.4,3256.6 11749.1,3256.13 11749.1,3255.63C11748.5,3244.96 11745.8,3196.94 11744.8,3179.15Z" style="fill:rgb(33,186,248);"/>
                </g>
            </g>
        </g>
    </g>
</svg>
