<?xml version="1.0" encoding="UTF-8" standalone="no"?>
<!DOCTYPE svg PUBLIC "-//W3C//DTD SVG 1.1//EN" "http://www.w3.org/Graphics/SVG/1.1/DTD/svg11.dtd">
<svg width="100%" height="100%" viewBox="0 0 1155 1183" version="1.1" xmlns="http://www.w3.org/2000/svg" xmlns:xlink="http://www.w3.org/1999/xlink" xml:space="preserve" xmlns:serif="http://www.serif.com/" style="fill-rule:evenodd;clip-rule:evenodd;stroke-linejoin:round;stroke-miterlimit:1.41421;">
    <g transform="matrix(1,0,0,1,-7816.27,-3080.18)">
        <g transform="matrix(2.91269,0,0,1,1051.75,2516.01)">
            <g id="Mine">
                <g transform="matrix(0.182604,0,0,0.560387,1960.61,-875.265)">
                    <ellipse cx="3107.09" cy="3590.91" rx="414.011" ry="453.969" style="fill:rgb(192,197,203);"/>
                </g>
                <g transform="matrix(0.194526,0,0,0.566594,1918.14,-889.319)">
                    <ellipse cx="3107.09" cy="3590.91" rx="414.011" ry="453.969" style="fill:rgb(158,158,158);"/>
                </g>
                <g transform="matrix(0.194526,0,0,0.566594,1911.38,-889.523)">
                    <ellipse cx="3107.09" cy="3590.91" rx="414.011" ry="453.969" style="fill:rgb(192,197,203);"/>
                </g>
                <g transform="matrix(0.186567,0,0,1.67881,2064.43,-4117.06)">
                    <path d="M2423.36,2788.42C2423.36,2788.42 2461.14,2953.61 2469.47,2990.04C2469.89,2991.86 2467.95,2993.66 2464.11,2994.99C2460.27,2996.33 2454.88,2997.09 2449.24,2997.09C2433.73,2997.09 2412.99,2997.09 2397.47,2997.09C2391.83,2997.09 2386.45,2996.33 2382.61,2994.99C2378.77,2993.66 2376.83,2991.86 2377.24,2990.04C2385.58,2953.61 2423.36,2788.42 2423.36,2788.42Z" style="fill:rgb(226,226,226);"/>
                </g>
                <g transform="matrix(-0.0483413,0.524854,-0.556693,-0.434996,4372.05,1241.76)">
                    <path d="M2423.36,2788.42C2423.36,2788.42 2461.14,2953.61 2469.47,2990.04C2469.89,2991.86 2467.95,2993.66 2464.11,2994.99C2460.27,2996.33 2454.88,2997.09 2449.24,2997.09C2433.73,2997.09 2412.99,2997.09 2397.47,2997.09C2391.83,2997.09 2386.45,2996.33 2382.61,2994.99C2378.77,2993.66 2376.83,2991.86 2377.24,2990.04C2385.58,2953.61 2423.36,2788.42 2423.36,2788.42Z" style="fill:rgb(226,226,226);"/>
                </g>
                <g transform="matrix(-0.11722,-0.422759,0.448405,-1.0548,1413.15,5522.75)">
                    <path d="M2423.36,2788.42C2423.36,2788.42 2461.14,2953.61 2469.47,2990.04C2469.89,2991.86 2467.95,2993.66 2464.11,2994.99C2460.27,2996.33 2454.88,2997.09 2449.24,2997.09C2433.73,2997.09 2412.99,2997.09 2397.47,2997.09C2391.83,2997.09 2386.45,2996.33 2382.61,2994.99C2378.77,2993.66 2376.83,2991.86 2377.24,2990.04C2385.58,2953.61 2423.36,2788.42 2423.36,2788.42Z" style="fill:rgb(226,226,226);"/>
                </g>
                <g transform="matrix(-0.100497,-0.457836,0.48561,-0.904315,1242.55,5097.39)">
                    <path d="M2423.36,2788.42C2423.36,2788.42 2461.14,2953.61 2469.47,2990.04C2469.89,2991.86 2467.95,2993.66 2464.11,2994.99C2460.27,2996.33 2454.88,2997.09 2449.24,2997.09C2433.73,2997.09 2412.99,2997.09 2397.47,2997.09C2391.83,2997.09 2386.45,2996.33 2382.61,2994.99C2378.77,2993.66 2376.83,2991.86 2377.24,2990.04C2385.58,2953.61 2423.36,2788.42 2423.36,2788.42Z" style="fill:rgb(226,226,226);"/>
                </g>
                <g transform="matrix(-0.0644049,-0.510007,0.540945,-0.579542,980.055,4187.47)">
                    <path d="M2423.36,2788.42C2423.36,2788.42 2461.14,2953.61 2469.47,2990.04C2469.89,2991.86 2467.95,2993.66 2464.11,2994.99C2460.27,2996.33 2454.88,2997.09 2449.24,2997.09C2433.73,2997.09 2412.99,2997.09 2397.47,2997.09C2391.83,2997.09 2386.45,2996.33 2382.61,2994.99C2378.77,2993.66 2376.83,2991.86 2377.24,2990.04C2385.58,2953.61 2423.36,2788.42 2423.36,2788.42Z" style="fill:rgb(226,226,226);"/>
                </g>
                <g transform="matrix(0.114658,0.428679,-0.454684,1.03174,3671.48,-3119.22)">
                    <path d="M2423.36,2788.42C2423.36,2788.42 2461.14,2953.61 2469.47,2990.04C2469.89,2991.86 2467.95,2993.66 2464.11,2994.99C2460.27,2996.33 2454.88,2997.09 2449.24,2997.09C2433.73,2997.09 2412.99,2997.09 2397.47,2997.09C2391.83,2997.09 2386.45,2996.33 2382.61,2994.99C2378.77,2993.66 2376.83,2991.86 2377.24,2990.04C2385.58,2953.61 2423.36,2788.42 2423.36,2788.42Z" style="fill:rgb(226,226,226);"/>
                </g>
                <g transform="matrix(-0.171859,0.211483,-0.224312,-1.54646,3624.77,5504.19)">
                    <path d="M2423.36,2788.42C2423.36,2788.42 2461.14,2953.61 2469.47,2990.04C2469.89,2991.86 2467.95,2993.66 2464.11,2994.99C2460.27,2996.33 2454.88,2997.09 2449.24,2997.09C2433.73,2997.09 2412.99,2997.09 2397.47,2997.09C2391.83,2997.09 2386.45,2996.33 2382.61,2994.99C2378.77,2993.66 2376.83,2991.86 2377.24,2990.04C2385.58,2953.61 2423.36,2788.42 2423.36,2788.42Z" style="fill:rgb(226,226,226);"/>
                </g>
                <g transform="matrix(0.120521,-0.41481,0.439974,1.0845,840.744,-1234.15)">
                    <path d="M2423.36,2788.42C2423.36,2788.42 2461.14,2953.61 2469.47,2990.04C2469.89,2991.86 2467.95,2993.66 2464.11,2994.99C2460.27,2996.33 2454.88,2997.09 2449.24,2997.09C2433.73,2997.09 2412.99,2997.09 2397.47,2997.09C2391.83,2997.09 2386.45,2996.33 2382.61,2994.99C2378.77,2993.66 2376.83,2991.86 2377.24,2990.04C2385.58,2953.61 2423.36,2788.42 2423.36,2788.42Z" style="fill:rgb(226,226,226);"/>
                </g>
                <g transform="matrix(0.178996,0.153234,-0.162529,1.61068,2597.82,-4274.37)">
                    <path d="M2423.36,2788.42C2423.36,2788.42 2461.14,2953.61 2469.47,2990.04C2469.89,2991.86 2467.95,2993.66 2464.11,2994.99C2460.27,2996.33 2454.88,2997.09 2449.24,2997.09C2433.73,2997.09 2412.99,2997.09 2397.47,2997.09C2391.83,2997.09 2386.45,2996.33 2382.61,2994.99C2378.77,2993.66 2376.83,2991.86 2377.24,2990.04C2385.58,2953.61 2423.36,2788.42 2423.36,2788.42Z" style="fill:rgb(226,226,226);"/>
                </g>
                <g transform="matrix(-0.0971918,0.463851,-0.491989,-0.874573,4286.01,2783.08)">
                    <path d="M2423.36,2788.42C2423.36,2788.42 2461.14,2953.61 2469.47,2990.04C2469.89,2991.86 2467.95,2993.66 2464.11,2994.99C2460.27,2996.33 2454.88,2997.09 2449.24,2997.09C2433.73,2997.09 2412.99,2997.09 2397.47,2997.09C2391.83,2997.09 2386.45,2996.33 2382.61,2994.99C2378.77,2993.66 2376.83,2991.86 2377.24,2990.04C2385.58,2953.61 2423.36,2788.42 2423.36,2788.42Z" style="fill:rgb(226,226,226);"/>
                </g>
                <g transform="matrix(0.0147655,-0.541708,0.57457,0.132866,684.505,2052.65)">
                    <path d="M2423.36,2788.42C2423.36,2788.42 2461.14,2953.61 2469.47,2990.04C2469.89,2991.86 2467.95,2993.66 2464.11,2994.99C2460.27,2996.33 2454.88,2997.09 2449.24,2997.09C2433.73,2997.09 2412.99,2997.09 2397.47,2997.09C2391.83,2997.09 2386.45,2996.33 2382.61,2994.99C2378.77,2993.66 2376.83,2991.86 2377.24,2990.04C2385.58,2953.61 2423.36,2788.42 2423.36,2788.42Z" style="fill:rgb(226,226,226);"/>
                </g>
                <g transform="matrix(0.0561502,0.518217,-0.549654,0.505264,4108.49,-1699.67)">
                    <path d="M2423.36,2788.42C2423.36,2788.42 2461.14,2953.61 2469.47,2990.04C2469.89,2991.86 2467.95,2993.66 2464.11,2994.99C2460.27,2996.33 2454.88,2997.09 2449.24,2997.09C2433.73,2997.09 2412.99,2997.09 2397.47,2997.09C2391.83,2997.09 2386.45,2996.33 2382.61,2994.99C2378.77,2993.66 2376.83,2991.86 2377.24,2990.04C2385.58,2953.61 2423.36,2788.42 2423.36,2788.42Z" style="fill:rgb(226,226,226);"/>
                </g>
                <g transform="matrix(-0.18639,0.0236878,-0.0251247,-1.67721,3040.81,6365.79)">
                    <path d="M2423.36,2788.42C2423.36,2788.42 2461.14,2953.61 2469.47,2990.04C2469.89,2991.86 2467.95,2993.66 2464.11,2994.99C2460.27,2996.33 2454.88,2997.09 2449.24,2997.09C2433.73,2997.09 2412.99,2997.09 2397.47,2997.09C2391.83,2997.09 2386.45,2996.33 2382.61,2994.99C2378.77,2993.66 2376.83,2991.86 2377.24,2990.04C2385.58,2953.61 2423.36,2788.42 2423.36,2788.42Z" style="fill:rgb(226,226,226);"/>
                </g>
                <g transform="matrix(0.162612,-0.266391,0.282551,1.46325,1227.67,-2771.2)">
                    <path d="M2423.36,2788.42C2423.36,2788.42 2461.14,2953.61 2469.47,2990.04C2469.89,2991.86 2467.95,2993.66 2464.11,2994.99C2460.27,2996.33 2454.88,2997.09 2449.24,2997.09C2433.73,2997.09 2412.99,2997.09 2397.47,2997.09C2391.83,2997.09 2386.45,2996.33 2382.61,2994.99C2378.77,2993.66 2376.83,2991.86 2377.24,2990.04C2385.58,2953.61 2423.36,2788.42 2423.36,2788.42Z" style="fill:rgb(226,226,226);"/>
                </g>
                <g transform="matrix(0.164161,0.258203,-0.273867,1.47719,2993.25,-4082.06)">
                    <path d="M2423.36,2788.42C2423.36,2788.42 2461.14,2953.61 2469.47,2990.04C2469.89,2991.86 2467.95,2993.66 2464.11,2994.99C2460.27,2996.33 2454.88,2997.09 2449.24,2997.09C2433.73,2997.09 2412.99,2997.09 2397.47,2997.09C2391.83,2997.09 2386.45,2996.33 2382.61,2994.99C2378.77,2993.66 2376.83,2991.86 2377.24,2990.04C2385.58,2953.61 2423.36,2788.42 2423.36,2788.42Z" style="fill:rgb(226,226,226);"/>
                </g>
                <g transform="matrix(-0.128156,0.394918,-0.418875,-1.1532,4119.78,3845.68)">
                    <path d="M2423.36,2788.42C2423.36,2788.42 2461.14,2953.61 2469.47,2990.04C2469.89,2991.86 2467.95,2993.66 2464.11,2994.99C2460.27,2996.33 2454.88,2997.09 2449.24,2997.09C2433.73,2997.09 2412.99,2997.09 2397.47,2997.09C2391.83,2997.09 2386.45,2996.33 2382.61,2994.99C2378.77,2993.66 2376.83,2991.86 2377.24,2990.04C2385.58,2953.61 2423.36,2788.42 2423.36,2788.42Z" style="fill:rgb(226,226,226);"/>
                </g>
                <g transform="matrix(0.0530813,-0.520954,0.552557,0.477647,659.682,887.14)">
                    <path d="M2423.36,2788.42C2423.36,2788.42 2461.14,2953.61 2469.47,2990.04C2469.89,2991.86 2467.95,2993.66 2464.11,2994.99C2460.27,2996.33 2454.88,2997.09 2449.24,2997.09C2433.73,2997.09 2412.99,2997.09 2397.47,2997.09C2391.83,2997.09 2386.45,2996.33 2382.61,2994.99C2378.77,2993.66 2376.83,2991.86 2377.24,2990.04C2385.58,2953.61 2423.36,2788.42 2423.36,2788.42Z" style="fill:rgb(226,226,226);"/>
                </g>
                <g transform="matrix(0.00804576,0.542907,-0.575841,0.0723992,4304.92,-382.961)">
                    <path d="M2423.36,2788.42C2423.36,2788.42 2461.14,2953.61 2469.47,2990.04C2469.89,2991.86 2467.95,2993.66 2464.11,2994.99C2460.27,2996.33 2454.88,2997.09 2449.24,2997.09C2433.73,2997.09 2412.99,2997.09 2397.47,2997.09C2391.83,2997.09 2386.45,2996.33 2382.61,2994.99C2378.77,2993.66 2376.83,2991.86 2377.24,2990.04C2385.58,2953.61 2423.36,2788.42 2423.36,2788.42Z" style="fill:rgb(226,226,226);"/>
                </g>
                <g transform="matrix(-0.182113,-0.118038,0.125198,-1.63873,2554.54,6565.11)">
                    <path d="M2423.36,2788.42C2423.36,2788.42 2461.14,2953.61 2469.47,2990.04C2469.89,2991.86 2467.95,2993.66 2464.11,2994.99C2460.27,2996.33 2454.88,2997.09 2449.24,2997.09C2433.73,2997.09 2412.99,2997.09 2397.47,2997.09C2391.83,2997.09 2386.45,2996.33 2382.61,2994.99C2378.77,2993.66 2376.83,2991.86 2377.24,2990.04C2385.58,2953.61 2423.36,2788.42 2423.36,2788.42Z" style="fill:rgb(226,226,226);"/>
                </g>
                <g transform="matrix(0.180778,-0.134323,0.142472,1.62671,1623.16,-3604.95)">
                    <path d="M2423.36,2788.42C2423.36,2788.42 2461.14,2953.61 2469.47,2990.04C2469.89,2991.86 2467.95,2993.66 2464.11,2994.99C2460.27,2996.33 2454.88,2997.09 2449.24,2997.09C2433.73,2997.09 2412.99,2997.09 2397.47,2997.09C2391.83,2997.09 2386.45,2996.33 2382.61,2994.99C2378.77,2993.66 2376.83,2991.86 2377.24,2990.04C2385.58,2953.61 2423.36,2788.42 2423.36,2788.42Z" style="fill:rgb(226,226,226);"/>
                </g>
            </g>
        </g>
    </g>
</svg>
