<?xml version="1.0" encoding="UTF-8" standalone="no"?>
<!DOCTYPE svg PUBLIC "-//W3C//DTD SVG 1.1//EN" "http://www.w3.org/Graphics/SVG/1.1/DTD/svg11.dtd">
<svg width="100%" height="100%" viewBox="0 0 590 143" version="1.1" xmlns="http://www.w3.org/2000/svg" xmlns:xlink="http://www.w3.org/1999/xlink" xml:space="preserve" xmlns:serif="http://www.serif.com/" style="fill-rule:evenodd;clip-rule:evenodd;stroke-linejoin:round;stroke-miterlimit:1.41421;">
    <g transform="matrix(1,0,0,1,-9910.16,-2781.49)">
        <g transform="matrix(2.91269,0,0,1,1051.75,2516.01)">
            <g id="Unpuffed-Pugger" serif:id="Unpuffed Pugger" transform="matrix(1,0,0,1,-19.6012,172.716)">
                <g transform="matrix(1,0,0,1,7.50132,20.1683)">
                    <g transform="matrix(0.343325,0,0,1,1424.86,-164.176)">
                        <path d="M5121.03,339.091C5119.88,339.602 5118.68,340.029 5117.44,340.366C5012.25,368.943 4880.66,399.893 4776.13,359.57C4763.86,354.886 4757.33,341.485 4761.2,328.936C4761.68,327.401 4761.18,325.838 4759.51,324.189C4749.94,314.586 4749.77,299.099 4759.13,289.29C4830.97,214.338 4981.33,226.755 5107.53,281.728C5108.9,281.272 5110.35,281.003 5111.83,280.942C5201.19,277.826 5198.65,259.346 5283.36,240.029C5284.51,239.758 5285.69,240.374 5286.12,241.475C5286.56,242.576 5286.11,243.828 5285.09,244.414C5232.47,273.536 5288.28,317.698 5331.82,345.018C5332.82,345.647 5333.2,346.915 5332.73,347.996C5332.25,349.076 5331.05,349.642 5329.91,349.324C5264.91,331.776 5193.72,327.134 5121.03,339.091Z" style="fill:url(#_Linear1);"/>
                    </g>
                    <g transform="matrix(0.328845,0,0,0.764257,1567.72,-696.613)">
                        <path d="M4551.91,1110.48C4551.91,1100.27 4545.31,1091.99 4537.16,1091.99C4537.16,1091.99 4537.16,1091.99 4537.16,1091.99C4529.02,1091.99 4522.41,1100.27 4522.41,1110.48C4522.41,1116.29 4522.41,1122.7 4522.41,1128.51C4522.41,1138.72 4529.02,1146.99 4537.16,1146.99C4537.16,1146.99 4537.16,1146.99 4537.16,1146.99C4545.31,1146.99 4551.91,1138.72 4551.91,1128.51C4551.91,1122.7 4551.91,1116.29 4551.91,1110.48Z" style="fill:rgb(116,83,64);"/>
                    </g>
                    <g transform="matrix(0.328845,0,0,0.764257,1566.24,-696.282)">
                        <path d="M4551.91,1110.48C4551.91,1100.27 4545.31,1091.99 4537.16,1091.99C4537.16,1091.99 4537.16,1091.99 4537.16,1091.99C4529.02,1091.99 4522.41,1100.27 4522.41,1110.48C4522.41,1116.29 4522.41,1122.7 4522.41,1128.51C4522.41,1138.72 4529.02,1146.99 4537.16,1146.99C4537.16,1146.99 4537.16,1146.99 4537.16,1146.99C4545.31,1146.99 4551.91,1138.72 4551.91,1128.51C4551.91,1122.7 4551.91,1116.29 4551.91,1110.48Z" style="fill:rgb(179,104,77);"/>
                    </g>
                    <g transform="matrix(0.195194,0,0,0.687183,2184.18,-635.794)">
                        <path d="M4551.91,1104.19C4551.91,1100.96 4550.36,1097.86 4547.59,1095.57C4544.83,1093.28 4541.08,1091.99 4537.17,1091.99C4537.16,1091.99 4537.16,1091.99 4537.16,1091.99C4533.25,1091.99 4529.5,1093.28 4526.73,1095.57C4523.97,1097.86 4522.41,1100.96 4522.41,1104.19C4522.41,1113.3 4522.41,1125.69 4522.41,1134.79C4522.41,1138.03 4523.97,1141.13 4526.73,1143.42C4529.5,1145.71 4533.25,1146.99 4537.16,1146.99C4537.16,1146.99 4537.16,1146.99 4537.17,1146.99C4541.08,1146.99 4544.83,1145.71 4547.59,1143.42C4550.36,1141.13 4551.91,1138.03 4551.91,1134.79C4551.91,1125.69 4551.91,1113.3 4551.91,1104.19Z"/>
                    </g>
                    <g transform="matrix(0.195194,0,0,0.687183,2184.18,-635.794)">
                        <path d="M4551.91,1104.19C4551.91,1100.96 4550.36,1097.86 4547.59,1095.57C4544.83,1093.28 4541.08,1091.99 4537.17,1091.99C4537.16,1091.99 4537.16,1091.99 4537.16,1091.99C4533.25,1091.99 4529.5,1093.28 4526.73,1095.57C4523.97,1097.86 4522.41,1100.96 4522.41,1104.19C4522.41,1113.3 4522.41,1125.69 4522.41,1134.79C4522.41,1138.03 4523.97,1141.13 4526.73,1143.42C4529.5,1145.71 4533.25,1146.99 4537.16,1146.99C4537.16,1146.99 4537.16,1146.99 4537.17,1146.99C4541.08,1146.99 4544.83,1145.71 4547.59,1143.42C4550.36,1141.13 4551.91,1138.03 4551.91,1134.79C4551.91,1125.69 4551.91,1113.3 4551.91,1104.19Z"/>
                    </g>
                    <g transform="matrix(0.177922,0,0,0.371025,2250.03,-256.413)">
                        <path d="M4551.91,1112.59C4551.91,1107.13 4550.36,1101.89 4547.59,1098.03C4544.83,1094.16 4541.08,1091.99 4537.17,1091.99C4537.16,1091.99 4537.16,1091.99 4537.16,1091.99C4533.25,1091.99 4529.5,1094.16 4526.73,1098.03C4523.97,1101.89 4522.41,1107.13 4522.41,1112.59C4522.41,1117.1 4522.41,1121.88 4522.41,1126.4C4522.41,1131.86 4523.97,1137.1 4526.73,1140.96C4529.5,1144.82 4533.25,1146.99 4537.16,1146.99C4537.16,1146.99 4537.16,1146.99 4537.17,1146.99C4541.08,1146.99 4544.83,1144.82 4547.59,1140.96C4550.36,1137.1 4551.91,1131.86 4551.91,1126.4C4551.91,1121.88 4551.91,1117.1 4551.91,1112.59Z"/>
                    </g>
                </g>
                <g transform="matrix(0.343325,0,0,1,1424.82,-138.363)">
                    <ellipse cx="4884.27" cy="304.371" rx="18.503" ry="25.089"/>
                </g>
                <g transform="matrix(0.00471876,-0.400844,0.121028,0.00944508,3067.38,2071.79)">
                    <path d="M4745.87,84.021C4748.16,83.65 4750.49,83.938 4752.64,84.861C4818.13,112.865 4834.11,155.675 4843.8,190.363C4845.41,196.103 4843.99,202.416 4840.12,206.594C4778.34,273.287 4720.92,265.663 4666.58,204.978C4663.58,201.615 4662.11,196.859 4662.6,192.077C4667.91,141.831 4687.93,93.492 4745.87,84.021Z" style="fill:rgb(225,184,43);"/>
                </g>
                <g transform="matrix(0.343325,0,0,1,1432.36,-144.008)">
                    <ellipse cx="4825.5" cy="268.612" rx="3.942" ry="3.691" style="fill:rgb(255,235,165);"/>
                </g>
                <g transform="matrix(0.343325,0,0,1,1428.21,-118.844)">
                    <ellipse cx="4825.5" cy="268.612" rx="3.942" ry="3.691" style="fill:rgb(255,235,165);"/>
                </g>
                <g transform="matrix(0.343325,0,0,1,1431.5,-78.0794)">
                    <ellipse cx="4825.5" cy="268.612" rx="3.942" ry="3.691" style="fill:rgb(255,235,165);"/>
                </g>
                <g transform="matrix(0.343325,0,0,1,1436.45,-111.798)">
                    <ellipse cx="4825.5" cy="268.612" rx="3.942" ry="3.691" style="fill:rgb(255,235,165);"/>
                </g>
                <g transform="matrix(0.343325,0,0,1,1426.25,-91.8354)">
                    <ellipse cx="4825.5" cy="268.612" rx="3.942" ry="3.691" style="fill:rgb(255,235,165);"/>
                </g>
                <g transform="matrix(0.343325,0,0,1,1424.35,-60.8004)">
                    <ellipse cx="4825.5" cy="268.612" rx="3.942" ry="3.691" style="fill:rgb(255,235,165);"/>
                </g>
                <g transform="matrix(0.343325,0,0,1,1440.31,-48.7219)">
                    <ellipse cx="4825.5" cy="268.612" rx="3.942" ry="3.691" style="fill:rgb(255,235,165);"/>
                </g>
                <g transform="matrix(0.343325,0,0,1,1441.34,-74.5565)">
                    <ellipse cx="4825.5" cy="268.612" rx="3.942" ry="3.691" style="fill:rgb(255,235,165);"/>
                </g>
                <g transform="matrix(0.343325,0,0,1,1449.35,-150.215)">
                    <ellipse cx="4825.5" cy="268.612" rx="3.942" ry="3.691" style="fill:rgb(255,235,165);"/>
                </g>
                <g transform="matrix(0.343325,0,0,1,1471.93,-135.452)">
                    <ellipse cx="4825.5" cy="268.612" rx="3.942" ry="3.691" style="fill:rgb(255,235,165);"/>
                </g>
                <g transform="matrix(0.343325,0,0,1,1491.16,-156.757)">
                    <ellipse cx="4825.5" cy="268.612" rx="3.942" ry="3.691" style="fill:rgb(255,235,165);"/>
                </g>
                <g transform="matrix(0.343325,0,0,1,1507.06,-126.729)">
                    <ellipse cx="4825.5" cy="268.612" rx="3.942" ry="3.691" style="fill:rgb(255,235,165);"/>
                </g>
                <g transform="matrix(0.343325,0,0,1,1479.82,-114.147)">
                    <ellipse cx="4825.5" cy="268.612" rx="3.942" ry="3.691" style="fill:rgb(255,235,165);"/>
                </g>
                <g transform="matrix(0.343325,0,0,1,1472.73,-156.422)">
                    <ellipse cx="4825.5" cy="268.612" rx="3.942" ry="3.691" style="fill:rgb(255,235,165);"/>
                </g>
                <g transform="matrix(0.343325,0,0,1,1479.36,-128.742)">
                    <ellipse cx="4825.5" cy="268.612" rx="3.942" ry="3.691" style="fill:rgb(255,235,165);"/>
                </g>
                <g transform="matrix(0.343325,0,0,1,1498.59,-150.047)">
                    <ellipse cx="4825.5" cy="268.612" rx="3.942" ry="3.691" style="fill:rgb(255,235,165);"/>
                </g>
                <g transform="matrix(0.343325,0,0,1,1514.49,-120.019)">
                    <ellipse cx="4825.5" cy="268.612" rx="3.942" ry="3.691" style="fill:rgb(255,235,165);"/>
                </g>
                <g transform="matrix(0.343325,0,0,1,1487.25,-107.437)">
                    <ellipse cx="4825.5" cy="268.612" rx="3.942" ry="3.691" style="fill:rgb(255,235,165);"/>
                </g>
                <g transform="matrix(0.343325,0,0,1,1464.21,-70.5303)">
                    <ellipse cx="4825.5" cy="268.612" rx="3.942" ry="3.691" style="fill:rgb(255,235,165);"/>
                </g>
                <g transform="matrix(0.343325,0,0,1,1461.1,-148.537)">
                    <ellipse cx="4825.5" cy="268.612" rx="3.942" ry="3.691" style="fill:rgb(255,235,165);"/>
                </g>
                <g transform="matrix(0.343325,0,0,1,1471.58,-81.9378)">
                    <ellipse cx="4825.5" cy="268.612" rx="3.942" ry="3.691" style="fill:rgb(255,235,165);"/>
                </g>
                <g transform="matrix(0.343325,0,0,1,1490.82,-103.243)">
                    <ellipse cx="4825.5" cy="268.612" rx="3.942" ry="3.691" style="fill:rgb(255,235,165);"/>
                </g>
                <g transform="matrix(0.343325,0,0,1,1506.71,-73.2144)">
                    <ellipse cx="4825.5" cy="268.612" rx="3.942" ry="3.691" style="fill:rgb(255,235,165);"/>
                </g>
                <g transform="matrix(0.343325,0,0,1,1479.47,-60.6326)">
                    <ellipse cx="4825.5" cy="268.612" rx="3.942" ry="3.691" style="fill:rgb(255,235,165);"/>
                </g>
                <g transform="matrix(0.343325,0,0,1,1446.64,-41.6761)">
                    <ellipse cx="4825.5" cy="268.612" rx="3.942" ry="3.691" style="fill:rgb(255,235,165);"/>
                </g>
                <g transform="matrix(0.343325,0,0,1,1432.3,-58.284)">
                    <ellipse cx="4825.5" cy="268.612" rx="3.942" ry="3.691" style="fill:rgb(255,235,165);"/>
                </g>
                <g transform="matrix(0.343325,0,0,1,1479.01,-75.2275)">
                    <ellipse cx="4825.5" cy="268.612" rx="3.942" ry="3.691" style="fill:rgb(255,235,165);"/>
                </g>
                <g transform="matrix(0.343325,0,0,1,1498.25,-96.5326)">
                    <ellipse cx="4825.5" cy="268.612" rx="3.942" ry="3.691" style="fill:rgb(255,235,165);"/>
                </g>
                <g transform="matrix(0.343325,0,0,1,1514.14,-66.5041)">
                    <ellipse cx="4825.5" cy="268.612" rx="3.942" ry="3.691" style="fill:rgb(255,235,165);"/>
                </g>
                <g transform="matrix(0.343325,0,0,1,1486.9,-53.9224)">
                    <ellipse cx="4825.5" cy="268.612" rx="3.942" ry="3.691" style="fill:rgb(255,235,165);"/>
                </g>
                <g transform="matrix(0.343325,0,0,1,1474.86,-43.6892)">
                    <ellipse cx="4825.5" cy="268.612" rx="3.942" ry="3.691" style="fill:rgb(255,235,165);"/>
                </g>
                <g transform="matrix(0.343325,0,0,1,1463.81,-51.2383)">
                    <ellipse cx="4825.5" cy="268.612" rx="3.942" ry="3.691" style="fill:rgb(255,235,165);"/>
                </g>
                <g transform="matrix(0.343325,0,0,1,1467.49,-105.759)">
                    <ellipse cx="4825.5" cy="268.612" rx="3.942" ry="3.691" style="fill:rgb(255,235,165);"/>
                </g>
                <g transform="matrix(0.343325,0,0,1,1486.73,-127.064)">
                    <ellipse cx="4825.5" cy="268.612" rx="3.942" ry="3.691" style="fill:rgb(255,235,165);"/>
                </g>
                <g transform="matrix(0.343325,0,0,1,1502.62,-97.0359)">
                    <ellipse cx="4825.5" cy="268.612" rx="3.942" ry="3.691" style="fill:rgb(255,235,165);"/>
                </g>
                <g transform="matrix(0.343325,0,0,1,1475.38,-84.4541)">
                    <ellipse cx="4825.5" cy="268.612" rx="3.942" ry="3.691" style="fill:rgb(255,235,165);"/>
                </g>
                <g transform="matrix(0.343325,0,0,1,1447.97,-52.2448)">
                    <ellipse cx="4825.5" cy="268.612" rx="3.942" ry="3.691" style="fill:rgb(255,235,165);"/>
                </g>
                <g transform="matrix(0.343325,0,0,1,1474.92,-99.0489)">
                    <ellipse cx="4825.5" cy="268.612" rx="3.942" ry="3.691" style="fill:rgb(255,235,165);"/>
                </g>
                <g transform="matrix(0.343325,0,0,1,1494.16,-120.354)">
                    <ellipse cx="4825.5" cy="268.612" rx="3.942" ry="3.691" style="fill:rgb(255,235,165);"/>
                </g>
                <g transform="matrix(0.343325,0,0,1,1510.05,-90.3256)">
                    <ellipse cx="4825.5" cy="268.612" rx="3.942" ry="3.691" style="fill:rgb(255,235,165);"/>
                </g>
                <g transform="matrix(0.343325,0,0,1,1482.81,-77.7438)">
                    <ellipse cx="4825.5" cy="268.612" rx="3.942" ry="3.691" style="fill:rgb(255,235,165);"/>
                </g>
                <g transform="matrix(0.343325,0,0,1,1455.4,-45.5345)">
                    <ellipse cx="4825.5" cy="268.612" rx="3.942" ry="3.691" style="fill:rgb(255,235,165);"/>
                </g>
                <g transform="matrix(0.343325,0,0,1,1482.29,-92.8419)">
                    <ellipse cx="4825.5" cy="268.612" rx="3.942" ry="3.691" style="fill:rgb(255,235,165);"/>
                </g>
                <g transform="matrix(0.343325,0,0,1,1501.53,-114.147)">
                    <ellipse cx="4825.5" cy="268.612" rx="3.942" ry="3.691" style="fill:rgb(255,235,165);"/>
                </g>
                <g transform="matrix(0.343325,0,0,1,1517.43,-84.1186)">
                    <ellipse cx="4825.5" cy="268.612" rx="3.942" ry="3.691" style="fill:rgb(255,235,165);"/>
                </g>
                <g transform="matrix(0.343325,0,0,1,1490.18,-71.5368)">
                    <ellipse cx="4825.5" cy="268.612" rx="3.942" ry="3.691" style="fill:rgb(255,235,165);"/>
                </g>
                <g transform="matrix(0.343325,0,0,1,1462.77,-39.3275)">
                    <ellipse cx="4825.5" cy="268.612" rx="3.942" ry="3.691" style="fill:rgb(255,235,165);"/>
                </g>
                <g transform="matrix(0.343325,0,0,1,1489.72,-86.1317)">
                    <ellipse cx="4825.5" cy="268.612" rx="3.942" ry="3.691" style="fill:rgb(255,235,165);"/>
                </g>
                <g transform="matrix(0.343325,0,0,1,1508.96,-107.437)">
                    <ellipse cx="4825.5" cy="268.612" rx="3.942" ry="3.691" style="fill:rgb(255,235,165);"/>
                </g>
                <g transform="matrix(0.343325,0,0,1,1524.85,-77.4083)">
                    <ellipse cx="4825.5" cy="268.612" rx="3.942" ry="3.691" style="fill:rgb(255,235,165);"/>
                </g>
                <g transform="matrix(0.343325,0,0,1,1497.61,-64.8266)">
                    <ellipse cx="4825.5" cy="268.612" rx="3.942" ry="3.691" style="fill:rgb(255,235,165);"/>
                </g>
                <g transform="matrix(0.343325,0,0,1,1470.25,-65.1621)">
                    <ellipse cx="4825.5" cy="268.612" rx="3.942" ry="3.691" style="fill:rgb(255,235,165);"/>
                </g>
            </g>
        </g>
    </g>
    <defs>
        <linearGradient id="_Linear1" x1="0" y1="0" x2="1" y2="0" gradientUnits="userSpaceOnUse" gradientTransform="matrix(580.713,0,0,142.109,4752.22,307.824)"><stop offset="0" style="stop-color:rgb(185,131,100);stop-opacity:1"/><stop offset="0.61" style="stop-color:rgb(197,147,83);stop-opacity:1"/><stop offset="0.82" style="stop-color:rgb(225,185,43);stop-opacity:1"/><stop offset="1" style="stop-color:rgb(255,225,0);stop-opacity:1"/></linearGradient>
    </defs>
</svg>
