<?xml version="1.0" encoding="UTF-8" standalone="no"?>
<!DOCTYPE svg PUBLIC "-//W3C//DTD SVG 1.1//EN" "http://www.w3.org/Graphics/SVG/1.1/DTD/svg11.dtd">
<svg width="100%" height="100%" viewBox="0 0 594 404" version="1.1" xmlns="http://www.w3.org/2000/svg" xmlns:xlink="http://www.w3.org/1999/xlink" xml:space="preserve" xmlns:serif="http://www.serif.com/" style="fill-rule:evenodd;clip-rule:evenodd;stroke-linecap:round;stroke-linejoin:round;stroke-miterlimit:1.5;">
    <g transform="matrix(1,0,0,1,-9840.66,-2390.34)">
        <g transform="matrix(2.91269,0,0,1,1051.75,2516.01)">
            <g id="Puffed-Puffer" serif:id="Puffed Puffer">
                <g transform="matrix(1,0,0,1,-42.0025,-110.826)">
                    <g transform="matrix(1,0,0,2.29978,7.50132,-161.985)">
                        <g transform="matrix(0.343325,0,0,1,1424.86,-164.176)">
                            <path d="M5121.03,339.091C5119.88,339.602 5118.68,340.014 5117.44,340.366C5008.84,371.316 4851.9,419.908 4776.13,359.57C4765.85,351.389 4757.33,341.485 4761.2,328.936C4761.68,327.401 4761.18,325.838 4759.51,324.189C4749.94,314.586 4749.77,299.099 4759.13,289.29C4830.97,214.338 4981.33,226.755 5107.53,281.728C5108.9,281.272 5123.78,289.557 5125.26,289.495C5214.63,286.379 5198.65,259.346 5283.36,240.029C5284.51,239.758 5285.69,240.374 5286.12,241.475C5286.56,242.576 5286.11,243.828 5285.09,244.414C5232.47,273.536 5288.28,317.698 5331.82,345.018C5332.82,345.647 5333.2,346.915 5332.73,347.996C5332.25,349.076 5331.05,349.642 5329.91,349.324C5264.91,331.776 5193.72,327.134 5121.03,339.091Z" style="fill:url(#_Linear1);"/>
                        </g>
                        <g transform="matrix(0.328845,0,0,0.764257,1567.72,-696.613)">
                            <path d="M4551.91,1100.03C4551.91,1095.59 4545.31,1091.99 4537.16,1091.99C4537.16,1091.99 4537.16,1091.99 4537.16,1091.99C4529.02,1091.99 4522.41,1095.59 4522.41,1100.03C4522.41,1110.45 4522.41,1128.53 4522.41,1138.96C4522.41,1143.39 4529.02,1146.99 4537.16,1146.99C4537.16,1146.99 4537.16,1146.99 4537.16,1146.99C4545.31,1146.99 4551.91,1143.39 4551.91,1138.96C4551.91,1128.53 4551.91,1110.45 4551.91,1100.03Z" style="fill:rgb(116,83,64);"/>
                        </g>
                        <g transform="matrix(0.328845,0,0,0.764257,1566.24,-696.282)">
                            <path d="M4551.91,1100.03C4551.91,1095.59 4545.31,1091.99 4537.16,1091.99C4537.16,1091.99 4537.16,1091.99 4537.16,1091.99C4529.02,1091.99 4522.41,1095.59 4522.41,1100.03C4522.41,1110.45 4522.41,1128.53 4522.41,1138.96C4522.41,1143.39 4529.02,1146.99 4537.16,1146.99C4537.16,1146.99 4537.16,1146.99 4537.16,1146.99C4545.31,1146.99 4551.91,1143.39 4551.91,1138.96C4551.91,1128.53 4551.91,1110.45 4551.91,1100.03Z" style="fill:rgb(179,104,77);"/>
                        </g>
                        <g transform="matrix(0.345951,0,0,0.323057,1502.4,-228.157)">
                            <path d="M4551.91,1112C4551.91,1100.95 4545.31,1091.99 4537.16,1091.99C4537.16,1091.99 4537.16,1091.99 4537.16,1091.99C4529.02,1091.99 4522.41,1100.95 4522.41,1112C4522.41,1116.88 4522.41,1122.11 4522.41,1126.99C4522.41,1138.04 4529.02,1146.99 4537.16,1146.99C4537.16,1146.99 4537.16,1146.99 4537.16,1146.99C4545.31,1146.99 4551.91,1138.04 4551.91,1126.99C4551.91,1122.11 4551.91,1116.88 4551.91,1112Z"/>
                        </g>
                        <g transform="matrix(0.177922,0,0,0.371025,2250.03,-256.413)">
                            <path d="M4551.91,1100.95C4551.91,1098.57 4550.36,1096.3 4547.59,1094.62C4544.83,1092.94 4541.08,1091.99 4537.17,1091.99C4537.16,1091.99 4537.16,1091.99 4537.16,1091.99C4533.25,1091.99 4529.5,1092.94 4526.73,1094.62C4523.97,1096.3 4522.41,1098.57 4522.41,1100.95C4522.41,1111.18 4522.41,1127.81 4522.41,1138.04C4522.41,1140.41 4523.97,1142.69 4526.73,1144.37C4529.5,1146.05 4533.25,1146.99 4537.16,1146.99C4537.16,1146.99 4537.16,1146.99 4537.17,1146.99C4541.08,1146.99 4544.83,1146.05 4547.59,1144.37C4550.36,1142.69 4551.91,1140.41 4551.91,1138.04C4551.91,1127.81 4551.91,1111.18 4551.91,1100.95Z"/>
                        </g>
                    </g>
                    <g transform="matrix(0.343325,0,0,2.16115,1424.82,-494.531)">
                        <ellipse cx="4884.27" cy="304.371" rx="18.503" ry="25.089"/>
                    </g>
                    <g transform="matrix(0.00471876,-0.400844,0.121028,0.00944508,3067.38,2071.79)">
                        <path d="M4745.87,84.021C4748.16,83.65 4750.49,83.938 4752.64,84.861C4818.13,112.865 4834.11,155.675 4843.8,190.363C4845.41,196.103 4843.99,202.416 4840.12,206.594C4778.34,273.287 4720.92,265.663 4666.58,204.978C4663.58,201.615 4662.11,196.859 4662.6,192.077C4667.91,141.831 4687.93,93.492 4745.87,84.021Z" style="fill:rgb(225,184,43);"/>
                    </g>
                </g>
                <g transform="matrix(0.343325,0,0,1,1432.36,-144.008)">
                    <path d="M4649.27,166.596L4699.65,148.845" style="fill:none;stroke:black;stroke-width:20.26px;"/>
                </g>
                <g transform="matrix(0.168733,-0.196815,0.0741811,0.539543,2266.63,793.698)">
                    <path d="M4518.67,58.385C4519.35,55.565 4522.09,53.554 4525.26,53.554C4528.42,53.554 4531.16,55.565 4531.84,58.385C4536.48,77.843 4542.28,102.118 4544.61,111.869C4545.25,114.582 4543.82,117.354 4541.11,118.626C4529.13,124.262 4518.33,124.416 4508.77,118.857C4506.41,117.489 4505.24,114.927 4505.83,112.439C4508,103.073 4513.94,78.225 4518.67,58.385Z" style="fill:rgb(255,235,165);"/>
                </g>
                <g transform="matrix(0.177501,-0.113936,0.0471471,0.623139,2245.75,382.289)">
                    <path d="M4518.65,58.491C4519.27,55.875 4522.04,53.99 4525.26,53.99C4528.47,53.99 4531.24,55.875 4531.86,58.491C4536.61,78.369 4542.54,103.228 4544.76,112.505C4545.32,114.851 4544.02,117.233 4541.52,118.43C4529.18,124.347 4518.11,124.484 4508.32,118.593C4506.21,117.325 4505.18,115.154 4505.69,113.033C4507.74,104.187 4513.81,78.752 4518.65,58.491Z" style="fill:rgb(255,235,165);"/>
                </g>
                <g transform="matrix(0.181759,0.00192045,-0.000759026,0.60945,2247.03,-153.141)">
                    <path d="M4518.66,58.441C4519.31,55.726 4522.06,53.779 4525.26,53.779C4528.45,53.779 4531.2,55.726 4531.85,58.441C4536.55,78.116 4542.41,102.692 4544.69,112.204C4545.29,114.725 4543.92,117.292 4541.32,118.527C4529.15,124.305 4518.22,124.451 4508.54,118.723C4506.31,117.404 4505.21,115.048 4505.76,112.753C4507.87,103.65 4513.87,78.499 4518.66,58.441Z" style="fill:rgb(255,235,165);"/>
                </g>
                <g transform="matrix(0.179214,0.0883059,-0.0344098,0.592453,2280.86,-541.653)">
                    <path d="M4518.66,58.425C4519.32,55.679 4522.07,53.713 4525.26,53.713C4528.44,53.713 4531.19,55.679 4531.85,58.425C4536.53,78.035 4542.37,102.522 4544.66,112.106C4545.28,114.684 4543.89,117.31 4541.26,118.557C4529.15,124.292 4518.25,124.44 4508.6,118.763C4506.34,117.429 4505.22,115.013 4505.78,112.662C4507.91,103.48 4513.89,78.418 4518.66,58.425Z" style="fill:rgb(255,235,165);"/>
                </g>
                <g transform="matrix(0.172095,0.170343,-0.0608312,0.521386,2331.01,-891.565)">
                    <path d="M4518.69,58.314C4519.39,55.373 4522.12,53.288 4525.26,53.288C4528.39,53.288 4531.12,55.373 4531.82,58.314C4536.4,77.517 4542.11,101.439 4544.51,111.459C4545.21,114.405 4543.7,117.426 4540.87,118.74C4529.09,124.212 4518.47,124.376 4509.03,119.01C4506.53,117.589 4505.27,114.775 4505.92,112.052C4508.17,102.389 4514.02,77.897 4518.69,58.314Z" style="fill:rgb(255,235,165);"/>
                </g>
                <g transform="matrix(-0.120356,0.396718,-0.141672,-0.364636,3701.69,-1652.13)">
                    <path d="M4518.69,58.314C4519.39,55.373 4522.12,53.288 4525.26,53.288C4528.39,53.288 4531.12,55.373 4531.82,58.314C4536.4,77.517 4542.11,101.439 4544.51,111.459C4545.21,114.405 4543.7,117.426 4540.87,118.74C4529.09,124.212 4518.47,124.376 4509.03,119.01C4506.53,117.589 4505.27,114.775 4505.92,112.052C4508.17,102.389 4514.02,77.897 4518.69,58.314Z" style="fill:rgb(255,235,165);"/>
                </g>
                <g transform="matrix(0.172095,0.170343,-0.0767824,0.658104,2350.76,-890.621)">
                    <path d="M4518.63,58.574C4519.21,56.135 4522,54.362 4525.26,54.362C4528.51,54.362 4531.3,56.135 4531.88,58.574C4536.71,78.812 4542.77,104.178 4544.88,113.012C4545.37,115.059 4544.19,117.129 4541.89,118.251C4529.24,124.424 4517.91,124.546 4507.93,118.356C4506.04,117.186 4505.14,115.325 4505.57,113.5C4507.51,105.131 4513.71,79.192 4518.63,58.574Z" style="fill:rgb(255,235,165);"/>
                </g>
                <g transform="matrix(-0.120356,0.396718,-0.178822,-0.460251,3693.77,-1599.42)">
                    <path d="M4518.63,58.574C4519.21,56.135 4522,54.362 4525.26,54.362C4528.51,54.362 4531.3,56.135 4531.88,58.574C4536.71,78.812 4542.77,104.178 4544.88,113.012C4545.37,115.059 4544.19,117.129 4541.89,118.251C4529.24,124.424 4517.91,124.546 4507.93,118.356C4506.04,117.186 4505.14,115.325 4505.57,113.5C4507.51,105.131 4513.71,79.192 4518.63,58.574Z" style="fill:rgb(255,235,165);"/>
                </g>
                <g transform="matrix(0.172095,0.170343,-0.0722498,0.619256,2364.04,-855.14)">
                    <path d="M4518.64,58.517C4519.26,55.952 4522.03,54.1 4525.26,54.1C4528.48,54.1 4531.26,55.952 4531.87,58.517C4536.64,78.501 4542.61,103.509 4544.79,112.658C4545.33,114.915 4544.07,117.203 4541.63,118.378C4529.2,124.37 4518.05,124.502 4508.2,118.524C4506.16,117.284 4505.17,115.206 4505.65,113.175C4507.67,104.466 4513.78,78.883 4518.64,58.517Z" style="fill:rgb(255,235,165);"/>
                </g>
                <g transform="matrix(-0.120356,0.396718,-0.168266,-0.433081,3679.55,-1570.71)">
                    <path d="M4518.64,58.517C4519.26,55.952 4522.03,54.1 4525.26,54.1C4528.48,54.1 4531.26,55.952 4531.87,58.517C4536.64,78.501 4542.61,103.509 4544.79,112.658C4545.33,114.915 4544.07,117.203 4541.63,118.378C4529.2,124.37 4518.05,124.502 4508.2,118.524C4506.16,117.284 4505.17,115.206 4505.65,113.175C4507.67,104.466 4513.78,78.883 4518.64,58.517Z" style="fill:rgb(255,235,165);"/>
                </g>
                <g transform="matrix(-0.0551734,-0.504432,0.213952,-0.198533,3260.53,2475.74)">
                    <path d="M4518.64,58.517C4519.26,55.952 4522.03,54.1 4525.26,54.1C4528.48,54.1 4531.26,55.952 4531.87,58.517C4536.64,78.501 4542.61,103.509 4544.79,112.658C4545.33,114.915 4544.07,117.203 4541.63,118.378C4529.2,124.37 4518.05,124.502 4508.2,118.524C4506.16,117.284 4505.17,115.206 4505.65,113.175C4507.67,104.466 4513.78,78.883 4518.64,58.517Z" style="fill:rgb(255,235,165);"/>
                </g>
                <g transform="matrix(0.172095,0.170343,-0.0715412,0.613182,2352.25,-853.434)">
                    <path d="M4518.65,58.507C4519.26,55.922 4522.03,54.056 4525.26,54.056C4528.48,54.056 4531.25,55.922 4531.86,58.507C4536.63,78.448 4542.58,103.397 4544.78,112.598C4545.33,114.89 4544.05,117.215 4541.58,118.399C4529.19,124.361 4518.07,124.495 4508.25,118.552C4506.18,117.3 4505.17,115.186 4505.67,113.119C4507.7,104.355 4513.79,78.831 4518.65,58.507Z" style="fill:rgb(255,235,165);"/>
                </g>
                <g transform="matrix(-0.120356,0.396718,-0.166615,-0.428833,3681.41,-1609.74)">
                    <path d="M4518.65,58.507C4519.26,55.922 4522.03,54.056 4525.26,54.056C4528.48,54.056 4531.25,55.922 4531.86,58.507C4536.63,78.448 4542.58,103.397 4544.78,112.598C4545.33,114.89 4544.05,117.215 4541.58,118.399C4529.19,124.361 4518.07,124.495 4508.25,118.552C4506.18,117.3 4505.17,115.186 4505.67,113.119C4507.7,104.355 4513.79,78.831 4518.65,58.507Z" style="fill:rgb(255,235,165);"/>
                </g>
                <g transform="matrix(-0.0961249,-0.449318,0.188706,-0.342498,3456.03,2276.63)">
                    <path d="M4518.65,58.507C4519.26,55.922 4522.03,54.056 4525.26,54.056C4528.48,54.056 4531.25,55.922 4531.86,58.507C4536.63,78.448 4542.58,103.397 4544.78,112.598C4545.33,114.89 4544.05,117.215 4541.58,118.399C4529.19,124.361 4518.07,124.495 4508.25,118.552C4506.18,117.3 4505.17,115.186 4505.67,113.119C4507.7,104.355 4513.79,78.831 4518.65,58.507Z" style="fill:rgb(255,235,165);"/>
                </g>
                <g transform="matrix(0.181389,-0.0338037,0.0156158,0.710887,2240.18,37.6948)">
                    <path d="M4518.62,58.595C4519.19,56.206 4521.99,54.465 4525.26,54.465C4528.52,54.465 4531.32,56.206 4531.89,58.595C4536.74,78.933 4542.83,104.44 4544.91,113.146C4545.38,115.113 4544.23,117.1 4541.99,118.2C4529.25,124.446 4517.85,124.564 4507.82,118.29C4506,117.148 4505.13,115.369 4505.54,113.621C4507.45,105.389 4513.68,79.311 4518.62,58.595Z" style="fill:rgb(255,235,165);"/>
                </g>
                <g transform="matrix(0.173913,-0.153875,0.0565748,0.54247,2257.58,615.692)">
                    <path d="M4518.68,58.353C4519.37,55.478 4522.1,53.433 4525.26,53.433C4528.41,53.433 4531.14,55.478 4531.83,58.353C4536.45,77.695 4542.2,101.809 4544.56,111.685C4545.23,114.502 4543.77,117.386 4541,118.678C4529.11,124.239 4518.4,124.398 4508.89,118.927C4506.46,117.534 4505.25,114.859 4505.87,112.265C4508.08,102.762 4513.97,78.076 4518.68,58.353Z" style="fill:rgb(255,235,165);"/>
                </g>
                <g transform="matrix(0.180883,0.0519449,-0.0209404,0.618627,2252.64,-300.744)">
                    <path d="M4518.65,58.463C4519.29,55.791 4522.05,53.871 4525.26,53.871C4528.46,53.871 4531.22,55.791 4531.85,58.463C4536.57,78.226 4542.47,102.925 4544.72,112.336C4545.3,114.781 4543.96,117.266 4541.41,118.485C4529.17,124.324 4518.17,124.465 4508.44,118.667C4506.26,117.37 4505.2,115.095 4505.73,112.876C4507.81,103.884 4513.85,78.609 4518.65,58.463Z" style="fill:rgb(255,235,165);"/>
                </g>
                <g transform="matrix(0.176555,0.125791,-0.0565107,0.672898,2292.51,-625.895)">
                    <path d="M4518.63,58.571C4519.21,56.125 4522,54.348 4525.26,54.348C4528.51,54.348 4531.3,56.125 4531.88,58.571C4536.71,78.796 4542.76,104.142 4544.87,112.994C4545.37,115.052 4544.18,117.133 4541.87,118.258C4529.23,124.421 4517.91,124.544 4507.95,118.365C4506.05,117.191 4505.14,115.319 4505.58,113.482C4507.52,105.095 4513.71,79.175 4518.63,58.571Z" style="fill:rgb(255,235,165);"/>
                </g>
                <g transform="matrix(0.173151,0.161004,-0.0675006,0.615865,2340.73,-754.605)">
                    <path d="M4518.65,58.505C4519.26,55.916 4522.03,54.048 4525.26,54.048C4528.48,54.048 4531.25,55.916 4531.86,58.505C4536.62,78.439 4542.58,103.377 4544.78,112.587C4545.33,114.885 4544.04,117.217 4541.58,118.403C4529.19,124.359 4518.07,124.494 4508.26,118.557C4506.18,117.303 4505.17,115.182 4505.67,113.109C4507.7,104.336 4513.79,78.821 4518.65,58.505Z" style="fill:rgb(255,235,165);"/>
                </g>
                <g transform="matrix(-0.140168,0.337038,-0.141303,-0.498551,3764.16,-1373.52)">
                    <path d="M4518.65,58.505C4519.26,55.916 4522.03,54.048 4525.26,54.048C4528.48,54.048 4531.25,55.916 4531.86,58.505C4536.62,78.439 4542.58,103.377 4544.78,112.587C4545.33,114.885 4544.04,117.217 4541.58,118.403C4529.19,124.359 4518.07,124.494 4508.26,118.557C4506.18,117.303 4505.17,115.182 4505.67,113.109C4507.7,104.336 4513.79,78.821 4518.65,58.505Z" style="fill:rgb(255,235,165);"/>
                </g>
                <g transform="matrix(-0.128709,-0.373812,0.15672,-0.457792,3621.69,1946.72)">
                    <path d="M4518.65,58.505C4519.26,55.916 4522.03,54.048 4525.26,54.048C4528.48,54.048 4531.25,55.916 4531.86,58.505C4536.62,78.439 4542.58,103.377 4544.78,112.587C4545.33,114.885 4544.04,117.217 4541.58,118.403C4529.19,124.359 4518.07,124.494 4508.26,118.557C4506.18,117.303 4505.17,115.182 4505.67,113.109C4507.7,104.336 4513.79,78.821 4518.65,58.505Z" style="fill:rgb(255,235,165);"/>
                </g>
                <g transform="matrix(0.168009,0.202003,-0.0913152,0.644326,2350.16,-943.999)">
                    <path d="M4518.63,58.576C4519.21,56.143 4522,54.374 4525.26,54.374C4528.51,54.374 4531.3,56.143 4531.88,58.576C4536.72,78.827 4542.78,104.209 4544.88,113.028C4545.37,115.066 4544.19,117.125 4541.9,118.245C4529.24,124.427 4517.9,124.548 4507.92,118.348C4506.04,117.182 4505.14,115.33 4505.57,113.514C4507.51,105.162 4513.7,79.206 4518.63,58.576Z" style="fill:rgb(255,235,165);"/>
                </g>
                <g transform="matrix(-0.0283384,0.522938,-0.197184,-0.0906536,3279.69,-2285.06)">
                    <path d="M4518.67,58.385C4519.35,55.566 4522.09,53.556 4525.26,53.556C4528.42,53.556 4531.16,55.566 4531.84,58.385C4536.48,77.845 4542.28,102.123 4544.61,111.873C4545.25,114.584 4543.82,117.353 4541.11,118.625C4529.13,124.262 4518.33,124.416 4508.76,118.856C4506.41,117.488 4505.24,114.928 4505.83,112.442C4508,103.079 4513.94,78.227 4518.67,58.385Z" style="fill:rgb(255,235,165);"/>
                </g>
                <g transform="matrix(0.146068,0.315069,-0.123118,0.484239,2480.86,-1449.2)">
                    <path d="M4518.66,58.428C4519.32,55.688 4522.07,53.726 4525.26,53.726C4528.44,53.726 4531.19,55.688 4531.85,58.428C4536.53,78.052 4542.38,102.556 4544.67,112.126C4545.28,114.692 4543.9,117.307 4541.27,118.551C4529.15,124.295 4518.24,124.443 4508.59,118.755C4506.33,117.424 4505.21,115.02 4505.77,112.68C4507.9,103.514 4513.89,78.434 4518.66,58.428Z" style="fill:rgb(255,235,165);"/>
                </g>
                <g transform="matrix(0.00628722,0.529095,-0.161692,0.0163005,3101.74,-2331.29)">
                    <path d="M4518.75,58.066C4519.54,54.759 4522.21,52.46 4525.26,52.46C4528.3,52.46 4530.97,54.759 4531.76,58.066C4536.15,76.477 4541.61,99.319 4544.18,110.075C4545.06,113.782 4543.34,117.647 4540.16,119.066C4529,124.068 4518.88,124.262 4509.83,119.449C4506.91,117.898 4505.4,114.226 4506.24,110.724C4508.68,100.238 4514.27,76.846 4518.75,58.066Z" style="fill:rgb(255,235,165);"/>
                </g>
                <g transform="matrix(-0.181356,0.0352998,-0.0107876,-0.470191,3909.16,107.854)">
                    <path d="M4518.75,58.066C4519.54,54.759 4522.21,52.46 4525.26,52.46C4528.3,52.46 4530.97,54.759 4531.76,58.066C4536.15,76.477 4541.61,99.319 4544.18,110.075C4545.06,113.782 4543.34,117.647 4540.16,119.066C4529,124.068 4518.88,124.262 4509.83,119.449C4506.91,117.898 4505.4,114.226 4506.24,110.724C4508.68,100.238 4514.27,76.846 4518.75,58.066Z" style="fill:rgb(255,235,165);"/>
                </g>
                <g transform="matrix(-0.160164,0.250291,-0.0764891,-0.415249,3831.49,-886.532)">
                    <path d="M4518.75,58.066C4519.54,54.759 4522.21,52.46 4525.26,52.46C4528.3,52.46 4530.97,54.759 4531.76,58.066C4536.15,76.477 4541.61,99.319 4544.18,110.075C4545.06,113.782 4543.34,117.647 4540.16,119.066C4529,124.068 4518.88,124.262 4509.83,119.449C4506.91,117.898 4505.4,114.226 4506.24,110.724C4508.68,100.238 4514.27,76.846 4518.75,58.066Z" style="fill:rgb(255,235,165);"/>
                </g>
                <g transform="matrix(0.154451,0.279098,-0.1249,0.586387,2456.66,-1313.65)">
                    <path d="M4518.63,58.567C4519.22,56.114 4522,54.332 4525.26,54.332C4528.51,54.332 4531.29,56.114 4531.88,58.567C4536.7,78.776 4542.75,104.1 4544.87,112.972C4545.36,115.043 4544.17,117.138 4541.85,118.266C4529.23,124.418 4517.92,124.541 4507.96,118.376C4506.06,117.198 4505.14,115.312 4505.58,113.463C4507.53,105.054 4513.71,79.156 4518.63,58.567Z" style="fill:rgb(255,235,165);"/>
                </g>
                <g transform="matrix(-0.147995,0.307345,-0.13754,-0.561877,3787.39,-1166.5)">
                    <path d="M4518.63,58.567C4519.22,56.114 4522,54.332 4525.26,54.332C4528.51,54.332 4531.29,56.114 4531.88,58.567C4536.7,78.776 4542.75,104.1 4544.87,112.972C4545.36,115.043 4544.17,117.138 4541.85,118.266C4529.23,124.418 4517.92,124.541 4507.96,118.376C4506.06,117.198 4505.14,115.312 4505.58,113.463C4507.53,105.054 4513.71,79.156 4518.63,58.567Z" style="fill:rgb(255,235,165);"/>
                </g>
                <g transform="matrix(-0.0146556,-0.527688,0.236147,-0.0556412,3085.1,2532.74)">
                    <path d="M4518.63,58.567C4519.22,56.114 4522,54.332 4525.26,54.332C4528.51,54.332 4531.29,56.114 4531.88,58.567C4536.7,78.776 4542.75,104.1 4544.87,112.972C4545.36,115.043 4544.17,117.138 4541.85,118.266C4529.23,124.418 4517.92,124.541 4507.96,118.376C4506.06,117.198 4505.14,115.312 4505.58,113.463C4507.53,105.054 4513.71,79.156 4518.63,58.567Z" style="fill:rgb(255,235,165);"/>
                </g>
                <g transform="matrix(-0.0146556,-0.527688,0.236147,-0.0556412,3080.49,2485.24)">
                    <path d="M4518.63,58.567C4519.22,56.114 4522,54.332 4525.26,54.332C4528.51,54.332 4531.29,56.114 4531.88,58.567C4536.7,78.776 4542.75,104.1 4544.87,112.972C4545.36,115.043 4544.17,117.138 4541.85,118.266C4529.23,124.418 4517.92,124.541 4507.96,118.376C4506.06,117.198 4505.14,115.312 4505.58,113.463C4507.53,105.054 4513.71,79.156 4518.63,58.567Z" style="fill:rgb(255,235,165);"/>
                </g>
                <g transform="matrix(-0.116493,0.406382,-0.181861,-0.442278,3649.73,-1668)">
                    <path d="M4518.63,58.567C4519.22,56.114 4522,54.332 4525.26,54.332C4528.51,54.332 4531.29,56.114 4531.88,58.567C4536.7,78.776 4542.75,104.1 4544.87,112.972C4545.36,115.043 4544.17,117.138 4541.85,118.266C4529.23,124.418 4517.92,124.541 4507.96,118.376C4506.06,117.198 4505.14,115.312 4505.58,113.463C4507.53,105.054 4513.71,79.156 4518.63,58.567Z" style="fill:rgb(255,235,165);"/>
                </g>
                <g transform="matrix(-0.0891558,-0.461347,0.206459,-0.338488,3433.47,2289.26)">
                    <path d="M4518.63,58.567C4519.22,56.114 4522,54.332 4525.26,54.332C4528.51,54.332 4531.29,56.114 4531.88,58.567C4536.7,78.776 4542.75,104.1 4544.87,112.972C4545.36,115.043 4544.17,117.138 4541.85,118.266C4529.23,124.418 4517.92,124.541 4507.96,118.376C4506.06,117.198 4505.14,115.312 4505.58,113.463C4507.53,105.054 4513.71,79.156 4518.63,58.567Z" style="fill:rgb(255,235,165);"/>
                </g>
                <g transform="matrix(0.00958019,0.519606,-0.232829,0.0364188,3079.51,-2270.19)">
                    <path d="M4518.52,59.052C4519.11,56.558 4521.95,54.746 4525.26,54.746C4528.56,54.746 4531.4,56.558 4531.99,59.052C4536.79,79.14 4542.74,104.075 4544.86,112.921C4545.36,115.027 4544.14,117.157 4541.78,118.302C4529.22,124.405 4517.95,124.529 4508.03,118.416C4506.08,117.22 4505.15,115.301 4505.6,113.419C4507.54,105.031 4513.63,79.524 4518.52,59.052Z" style="fill:rgb(255,235,165);"/>
                </g>
                <g transform="matrix(-0.175532,0.0968016,-0.0433756,-0.667281,3874.37,-167.666)">
                    <path d="M4518.52,59.052C4519.11,56.558 4521.95,54.746 4525.26,54.746C4528.56,54.746 4531.4,56.558 4531.99,59.052C4536.79,79.14 4542.74,104.075 4544.86,112.921C4545.36,115.027 4544.14,117.157 4541.78,118.302C4529.22,124.405 4517.95,124.529 4508.03,118.416C4506.08,117.22 4505.15,115.301 4505.6,113.419C4507.54,105.031 4513.63,79.524 4518.52,59.052Z" style="fill:rgb(255,235,165);"/>
                </g>
                <g transform="matrix(-0.107591,0.426697,-0.190952,-0.408478,3596.47,-1755.82)">
                    <path d="M4518.63,58.567C4519.22,56.114 4522,54.332 4525.26,54.332C4528.51,54.332 4531.29,56.114 4531.88,58.567C4536.7,78.776 4542.75,104.1 4544.87,112.972C4545.36,115.043 4544.17,117.138 4541.85,118.266C4529.23,124.418 4517.92,124.541 4507.96,118.376C4506.06,117.198 4505.14,115.312 4505.58,113.463C4507.53,105.054 4513.71,79.156 4518.63,58.567Z" style="fill:rgb(255,235,165);"/>
                </g>
                <g transform="matrix(-0.168487,-0.198594,0.0888731,-0.639678,3819.11,1196.1)">
                    <path d="M4518.63,58.567C4519.22,56.114 4522,54.332 4525.26,54.332C4528.51,54.332 4531.29,56.114 4531.88,58.567C4536.7,78.776 4542.75,104.1 4544.87,112.972C4545.36,115.043 4544.17,117.138 4541.85,118.266C4529.23,124.418 4517.92,124.541 4507.96,118.376C4506.06,117.198 4505.14,115.312 4505.58,113.463C4507.53,105.054 4513.71,79.156 4518.63,58.567Z" style="fill:rgb(255,235,165);"/>
                </g>
                <g transform="matrix(-0.0341584,0.519979,-0.232697,-0.129685,3264.08,-2237.76)">
                    <path d="M4518.63,58.567C4519.22,56.114 4522,54.332 4525.26,54.332C4528.51,54.332 4531.29,56.114 4531.88,58.567C4536.7,78.776 4542.75,104.1 4544.87,112.972C4545.36,115.043 4544.17,117.138 4541.85,118.266C4529.23,124.418 4517.92,124.541 4507.96,118.376C4506.06,117.198 4505.14,115.312 4505.58,113.463C4507.53,105.054 4513.71,79.156 4518.63,58.567Z" style="fill:rgb(255,235,165);"/>
                </g>
                <g transform="matrix(-0.165506,-0.218832,0.0979302,-0.628358,3806.01,1214.32)">
                    <path d="M4518.63,58.567C4519.22,56.114 4522,54.332 4525.26,54.332C4528.51,54.332 4531.29,56.114 4531.88,58.567C4536.7,78.776 4542.75,104.1 4544.87,112.972C4545.36,115.043 4544.17,117.138 4541.85,118.266C4529.23,124.418 4517.92,124.541 4507.96,118.376C4506.06,117.198 4505.14,115.312 4505.58,113.463C4507.53,105.054 4513.71,79.156 4518.63,58.567Z" style="fill:rgb(255,235,165);"/>
                </g>
                <g transform="matrix(0.0682297,0.490696,-0.219592,0.25904,2800.57,-2178.31)">
                    <path d="M4518.63,58.567C4519.22,56.114 4522,54.332 4525.26,54.332C4528.51,54.332 4531.29,56.114 4531.88,58.567C4536.7,78.776 4542.75,104.1 4544.87,112.972C4545.36,115.043 4544.17,117.138 4541.85,118.266C4529.23,124.418 4517.92,124.541 4507.96,118.376C4506.06,117.198 4505.14,115.312 4505.58,113.463C4507.53,105.054 4513.71,79.156 4518.63,58.567Z" style="fill:rgb(255,235,165);"/>
                </g>
                <g transform="matrix(-0.161732,0.241587,-0.108113,-0.614031,3819.55,-892.627)">
                    <path d="M4518.63,58.567C4519.22,56.114 4522,54.332 4525.26,54.332C4528.51,54.332 4531.29,56.114 4531.88,58.567C4536.7,78.776 4542.75,104.1 4544.87,112.972C4545.36,115.043 4544.17,117.138 4541.85,118.266C4529.23,124.418 4517.92,124.541 4507.96,118.376C4506.06,117.198 4505.14,115.312 4505.58,113.463C4507.53,105.054 4513.71,79.156 4518.63,58.567Z" style="fill:rgb(255,235,165);"/>
                </g>
                <g transform="matrix(-0.161732,0.241587,-0.082905,-0.470861,3829.95,-880.962)">
                    <path d="M4518.7,58.257C4519.43,55.224 4522.14,53.085 4525.26,53.085C4528.37,53.085 4531.08,55.224 4531.81,58.257C4536.34,77.265 4541.99,100.921 4544.43,111.135C4545.18,114.262 4543.61,117.481 4540.69,118.823C4529.07,124.175 4518.57,124.347 4509.23,119.123C4506.62,117.665 4505.3,114.65 4506,111.743C4508.29,101.865 4514.07,77.644 4518.7,58.257Z" style="fill:rgb(255,235,165);"/>
                </g>
                <g transform="matrix(0.0845448,0.468654,-0.174536,0.267121,2780.71,-2109.83)">
                    <path d="M4518.68,58.37C4519.36,55.523 4522.09,53.496 4525.26,53.496C4528.42,53.496 4531.15,55.523 4531.83,58.37C4536.46,77.772 4542.24,101.969 4544.59,111.781C4545.24,114.544 4543.8,117.37 4541.06,118.652C4529.12,124.251 4518.36,124.407 4508.82,118.891C4506.44,117.511 4505.24,114.895 4505.85,112.356C4508.04,102.924 4513.95,78.154 4518.68,58.37Z" style="fill:rgb(255,235,165);"/>
                </g>
                <g transform="matrix(0.0165657,0.527208,-0.191406,0.0510238,3093.13,-2321.13)">
                    <path d="M4518.69,58.336C4519.38,55.433 4522.11,53.37 4525.26,53.37C4528.4,53.37 4531.13,55.433 4531.82,58.336C4536.43,77.618 4542.17,101.65 4544.54,111.588C4545.23,114.461 4543.74,117.403 4540.95,118.705C4529.1,124.227 4518.43,124.389 4508.95,118.963C4506.49,117.558 4505.26,114.823 4505.89,112.174C4508.12,102.602 4513.99,77.999 4518.69,58.336Z" style="fill:rgb(255,235,165);"/>
                </g>
                <g transform="matrix(0.179517,0.0829274,-0.0335669,0.616463,2298.82,-447.265)">
                    <path d="M4518.65,58.468C4519.29,55.804 4522.05,53.889 4525.26,53.889C4528.46,53.889 4531.22,55.804 4531.86,58.468C4536.58,78.249 4542.48,102.973 4544.72,112.363C4545.3,114.792 4543.97,117.261 4541.43,118.476C4529.17,124.327 4518.16,124.468 4508.42,118.655C4506.25,117.362 4505.19,115.104 4505.72,112.901C4507.8,103.932 4513.84,78.632 4518.65,58.468Z" style="fill:rgb(255,235,165);"/>
                </g>
                <g transform="matrix(-0.12032,0.39681,-0.160619,-0.41318,3690.8,-1650.96)">
                    <path d="M4518.65,58.468C4519.29,55.804 4522.05,53.889 4525.26,53.889C4528.46,53.889 4531.22,55.804 4531.86,58.468C4536.58,78.249 4542.48,102.973 4544.72,112.363C4545.3,114.792 4543.97,117.261 4541.43,118.476C4529.17,124.327 4518.16,124.468 4508.42,118.655C4506.25,117.362 4505.19,115.104 4505.72,112.901C4507.8,103.932 4513.84,78.632 4518.65,58.468Z" style="fill:rgb(255,235,165);"/>
                </g>
                <g transform="matrix(0.181015,0.0479041,-0.0188049,0.602839,2277.44,-315.507)">
                    <path d="M4518.66,58.434C4519.31,55.703 4522.07,53.747 4525.26,53.747C4528.44,53.747 4531.19,55.703 4531.85,58.434C4536.54,78.077 4542.4,102.611 4544.67,112.157C4545.28,114.705 4543.91,117.301 4541.29,118.541C4529.15,124.299 4518.23,124.446 4508.57,118.742C4506.32,117.416 4505.21,115.031 4505.77,112.709C4507.89,103.569 4513.88,78.46 4518.66,58.434Z" style="fill:rgb(255,235,165);"/>
                </g>
                <g transform="matrix(0.18121,0.0411558,-0.0193445,0.722601,2259.85,-291.007)">
                    <path d="M4518.62,58.61C4519.18,56.254 4521.98,54.536 4525.26,54.536C4528.53,54.536 4531.33,56.254 4531.89,58.61C4536.76,79.017 4542.88,104.621 4544.93,113.237C4545.39,115.15 4544.26,117.08 4542.06,118.165C4529.26,124.461 4517.82,124.576 4507.75,118.243C4505.96,117.123 4505.12,115.398 4505.52,113.704C4507.41,105.568 4513.66,79.394 4518.62,58.61Z" style="fill:rgb(255,235,165);"/>
                </g>
            </g>
        </g>
    </g>
    <defs>
        <linearGradient id="_Linear1" x1="0" y1="0" x2="1" y2="0" gradientUnits="userSpaceOnUse" gradientTransform="matrix(580.713,0,0,142.109,4752.22,307.824)"><stop offset="0" style="stop-color:rgb(185,131,100);stop-opacity:1"/><stop offset="0.61" style="stop-color:rgb(197,147,83);stop-opacity:1"/><stop offset="0.82" style="stop-color:rgb(225,185,43);stop-opacity:1"/><stop offset="1" style="stop-color:rgb(255,225,0);stop-opacity:1"/></linearGradient>
    </defs>
</svg>
