<?xml version="1.0" encoding="UTF-8" standalone="no"?>
<!DOCTYPE svg PUBLIC "-//W3C//DTD SVG 1.1//EN" "http://www.w3.org/Graphics/SVG/1.1/DTD/svg11.dtd">
<svg width="100%" height="100%" viewBox="0 0 3020 1145" version="1.1" xmlns="http://www.w3.org/2000/svg" xmlns:xlink="http://www.w3.org/1999/xlink" xml:space="preserve" xmlns:serif="http://www.serif.com/" style="fill-rule:evenodd;clip-rule:evenodd;stroke-linejoin:round;stroke-miterlimit:1.41421;">
    <g transform="matrix(1,0,0,1,-7383.31,-880.725)">
        <g transform="matrix(1,0,0,1,5223.25,776.997)">
            <g>
                <g transform="matrix(-0.457533,-0.507082,0.547346,-0.493864,5112.34,3604.93)">
                    <path d="M3852.42,1618.26C3864.55,1609.75 3881.24,1609.54 3893.63,1617.72C3906.02,1625.91 3911.23,1640.6 3906.5,1654C3764.82,2050.53 3524.76,2404.19 3140.51,2695.02C3136.94,2697.71 3131.83,2697.75 3128.21,2695.12C3124.58,2692.49 3123.41,2687.88 3125.38,2684.02C3234.32,2469.75 3329.01,2241.79 3376.93,1968.91C3379.16,1956.13 3386.61,1944.65 3397.75,1936.84C3465.97,1889.03 3717.78,1712.59 3852.42,1618.26Z" style="fill:rgb(192,197,203);"/>
                </g>
                <g transform="matrix(-0.0301682,1.56738,1.89671,0.036507,1804.09,-5598.1)">
                    <path d="M3861.19,576.405C3864.66,575.478 3868.46,575.999 3871.38,577.802C3874.31,579.606 3875.99,582.469 3875.9,585.483C3874.92,618.711 3872.31,705.867 3871.74,724.871C3871.67,727.364 3870.39,729.727 3868.19,731.433C3809.95,776.674 3716.81,701.461 3636.41,718.667C3634.52,719.071 3632.53,718.409 3631.5,717.035C3630.47,715.661 3630.64,713.893 3631.93,712.673C3699.48,648.587 3774.43,600.067 3861.19,576.405Z" style="fill:rgb(192,197,203);"/>
                </g>
                <g>
                    <g transform="matrix(1,0,0,0.83617,-1776.95,-520.394)">
                        <path d="M5262.63,1232.27C5260.37,1231.52 5258.06,1231 5255.73,1230.7C4963.65,1193.68 4678.91,1142.58 4321.78,1230.52C4320.09,1230.93 4318.42,1231.47 4316.78,1232.13C3786.93,1444.75 3834.74,1587.75 4315.89,1678.52C4318.11,1678.93 4320.34,1679.14 4322.59,1679.14C4382.29,1679.14 5218.58,1679.14 5257.8,1679.14C5258.75,1679.14 5259.7,1679.18 5260.65,1679.26C6488.42,1776.69 6417.81,1613.38 5262.63,1232.27Z" style="fill:rgb(192,197,203);"/>
                    </g>
                    <g transform="matrix(0.56854,0,0,0.687183,-155.228,-115.429)">
                        <path d="M4551.91,1104.19C4551.91,1100.96 4550.36,1097.86 4547.59,1095.57C4544.83,1093.28 4541.08,1091.99 4537.17,1091.99C4537.16,1091.99 4537.16,1091.99 4537.16,1091.99C4533.25,1091.99 4529.5,1093.28 4526.73,1095.57C4523.97,1097.86 4522.41,1100.96 4522.41,1104.19C4522.41,1113.3 4522.41,1125.69 4522.41,1134.79C4522.41,1138.03 4523.97,1141.13 4526.73,1143.42C4529.5,1145.71 4533.25,1146.99 4537.16,1146.99C4537.16,1146.99 4537.16,1146.99 4537.17,1146.99C4541.08,1146.99 4544.83,1145.71 4547.59,1143.42C4550.36,1141.13 4551.91,1138.03 4551.91,1134.79C4551.91,1125.69 4551.91,1113.3 4551.91,1104.19Z"/>
                    </g>
                </g>
                <g transform="matrix(1,0,0,0.238001,-1694.95,488.593)">
                    <path d="M5260.26,1231.49C5259.57,1231.26 5258.88,1231.1 5258.19,1231.01C4965.29,1193.98 4679.99,1142.35 4321.92,1230.48C4320.13,1230.92 4318.33,1230.89 4316.54,1230.39C3860.63,1102.24 3804.66,1284 4079.55,1541.34C4140.66,1598.56 4216.63,1668.76 4318.7,1679.09C4319.05,1679.13 4319.39,1679.14 4319.73,1679.14C4344.34,1679.14 5259.23,1679.14 5259.23,1679.14C6489.31,1776.89 6418.15,1613.31 5260.26,1231.49Z" style="fill:rgb(226,226,226);"/>
                </g>
                <g transform="matrix(0.129445,-1.92833,1.8928,0.12706,1137.57,8138.6)">
                    <path d="M3859.13,575.185C3861.87,574.38 3864.83,574.932 3867.12,576.677C3869.41,578.422 3870.76,581.158 3870.78,584.071C3870.98,616.388 3871.49,703.407 3871.61,724.103C3871.63,727.052 3870.27,729.835 3867.96,731.605C3810.28,775.831 3718.63,698.152 3638.82,717.177C3637.18,717.563 3635.49,716.75 3634.75,715.214C3634,713.679 3634.39,711.822 3635.68,710.728C3705.18,652.009 3774.24,600.492 3859.13,575.185Z" style="fill:rgb(192,197,203);"/>
                </g>
                <g transform="matrix(-1,0,0,-1,4755.99,2329.96)">
                    <path d="M2300.85,1461.36C2352.31,1467.41 2404.29,1476.95 2446.09,1494.14C2348.85,1529.52 2284.67,1551.04 2123.7,1548.94C2188.73,1533.66 2247.55,1503.93 2300.85,1461.36Z"/>
                </g>
                <g transform="matrix(-0.457533,0.507082,0.547346,0.493864,5154.09,-1908.76)">
                    <path d="M3893.33,1539.48C3759.38,1967.67 3918.06,2031.1 3737.57,2357.03C3735.47,2360.88 3730.74,2362.84 3726.25,2361.73C3721.75,2360.62 3718.7,2356.74 3718.95,2352.43C3729.4,2233.88 3661.49,2207.01 3502.48,2067.43C3482.07,2049.49 3479.87,2020.07 3497.4,1999.69C3595.27,1885.91 3893.33,1539.48 3893.33,1539.48Z" style="fill:rgb(192,197,203);"/>
                </g>
            </g>
        </g>
    </g>
</svg>
