<?xml version="1.0" encoding="UTF-8" standalone="no"?>
<!DOCTYPE svg PUBLIC "-//W3C//DTD SVG 1.1//EN" "http://www.w3.org/Graphics/SVG/1.1/DTD/svg11.dtd">
<svg width="100%" height="100%" viewBox="0 0 866 1363" version="1.1" xmlns="http://www.w3.org/2000/svg" xmlns:xlink="http://www.w3.org/1999/xlink" xml:space="preserve" xmlns:serif="http://www.serif.com/" style="fill-rule:evenodd;clip-rule:evenodd;stroke-linejoin:round;stroke-miterlimit:1.41421;">
    <g transform="matrix(1,0,0,1,-9509.34,-31.3423)">
        <g transform="matrix(1,0,0,1,5223.25,776.997)">
            <g transform="matrix(0.385329,0,0,0.385329,3280.93,-790.498)">
                <path d="M4373.54,667.157C4372.38,663.676 4371.14,660.218 4369.84,656.787C4095.7,-66.281 3906.57,-3.388 3766.59,524.386C3744.24,607.507 3738.13,694.154 3748.57,779.589C3748.5,779.946 3748.55,780.289 3748.59,780.632C3817.26,1342.77 3679.16,1910.69 3360.01,2378.52C3170.39,2653.62 3253.4,2626.62 4001.68,2018.17C4234.85,1828.86 4387.3,1557.96 4428.1,1260.4C4453.03,1079.2 4445.38,882.666 4373.54,667.157Z" style="fill:rgb(192,197,203);"/>
            </g>
        </g>
        <g transform="matrix(1,0,0,1,5223.25,776.997)">
            <g transform="matrix(0.502318,0,0,0.502318,2725.46,-749.79)">
                <path d="M3938.65,1557.84C3938.65,1557.84 3422.45,2279.1 3203.35,2585.24C3199.31,2590.88 3191.63,2592.51 3185.64,2588.99C3179.66,2585.48 3177.35,2577.98 3180.31,2571.7C3264.35,2392.43 3335.16,2200.47 3375.15,1978.91C3378.57,1959.72 3389.46,1942.67 3405.42,1931.48C3514.06,1855.34 3938.65,1557.84 3938.65,1557.84Z" style="fill:rgb(192,197,203);"/>
            </g>
        </g>
        <g transform="matrix(1,0,0,1,5223.25,776.997)">
            <g transform="matrix(-0.869158,0.142717,-0.126368,-0.769592,8386.93,-804.152)">
                <path d="M4362.07,-377.459C4369.28,-381.393 4377.94,-379.165 4382.93,-372.094C4387.91,-365.022 4387.9,-354.991 4382.9,-347.933C4223.57,-123.556 4085.89,118.203 4097.68,438.623C4097.75,440.602 4097.56,442.583 4097.1,444.495C4014.31,790.79 3979.41,681.011 3909.2,460.329C3908.4,457.819 3908.07,455.15 3908.22,452.489C3935.42,-13.233 4124.86,-246.683 4362.07,-377.459Z" style="fill:rgb(226,226,226);"/>
            </g>
        </g>
        <g transform="matrix(1,0,0,1,5223.25,776.997)">
            <g transform="matrix(0.080435,0.0828605,-0.142415,0.138246,4846.43,-1158.8)">
                <path d="M3947.76,1665.21C3591.73,1784.89 3400.95,2033.59 3311.54,2361.42C3307.31,2376.51 3286.24,2388.09 3260.1,2389.68C3233.96,2391.27 3209.22,2382.48 3199.72,2368.22C3088.78,2206.8 2904.85,2020.43 3021.38,1799.84C3040.78,1762.72 3079.64,1730.05 3132.52,1706.41C3372.37,1597.88 3649.32,1599.39 3947.76,1665.21Z"/>
            </g>
        </g>
        <g transform="matrix(1,0,0,1,5223.25,776.997)">
            <g transform="matrix(0.779898,0,0,0.779898,1716.68,-944.626)">
                <path d="M3840.92,593.441C3848.03,589.248 3856.85,589.251 3863.96,593.449C3871.06,597.648 3875.32,605.378 3875.07,613.626C3874.05,647.984 3872.64,694.776 3871.99,716.529C3871.73,725.327 3866.4,733.176 3858.31,736.657C3810.88,757.215 3743.68,709.88 3677.69,709.193C3673.65,709.135 3670.14,706.394 3669.1,702.485C3668.06,698.576 3669.75,694.454 3673.23,692.398C3723.28,662.857 3797.44,619.099 3840.92,593.441Z" style="fill:rgb(192,197,203);"/>
            </g>
        </g>
        <g transform="matrix(1,0,0,1,5223.25,776.997)">
            <g transform="matrix(-0.779898,0,0,0.779898,7975.57,-960.224)">
                <path d="M3840.92,593.441C3848.03,589.248 3856.85,589.251 3863.96,593.449C3871.06,597.648 3875.32,605.378 3875.07,613.626C3874.03,648.53 3872.6,696.267 3871.96,717.548C3871.73,725.466 3867.37,732.685 3860.48,736.586C3810.11,765.153 3737.54,715.589 3669.2,714.149C3665.18,714.061 3661.7,711.314 3660.68,707.419C3659.66,703.523 3661.35,699.425 3664.82,697.379C3714.61,667.973 3794.93,620.581 3840.92,593.441Z" style="fill:rgb(192,197,203);"/>
            </g>
        </g>
    </g>
</svg>
